<?xml version="1.0" encoding="UTF-8"?>
<svg width="84px" height="84px" viewBox="0 0 84 84" version="1.1" xmlns="http://www.w3.org/2000/svg" xmlns:xlink="http://www.w3.org/1999/xlink">
    <!-- Generator: Sketch 47.1 (45422) - http://www.bohemiancoding.com/sketch -->
    <title>Components / Product Finder / Icon / All of Them</title>
    <desc>Created with Sketch.</desc>
    <defs>
        <path d="M78.8287952,35.3930644 L61.2230755,52.9927507 C60.6921285,53.525206 59.9967689,53.7891712 59.3074428,53.7891712 C58.6120833,53.7891712 57.9227572,53.525206 57.3933186,52.9927507 L49.7398383,45.3392704 C48.6794526,44.2803931 48.6794526,42.5698991 49.7398383,41.5095135 C50.7941904,40.4491278 52.5092095,40.4491278 53.5695952,41.5095135 L59.3074428,47.2488695 L74.9990383,31.5633075 C76.0533905,30.5029219 77.7684096,30.5029219 78.8287952,31.5633075 C79.8831474,32.6236931 79.8831474,34.3326788 78.8287952,35.3930644 M64.2805458,8.67225169 C45.7501939,8.67225169 30.6725059,23.7499397 30.6725059,42.2818 C30.6725059,60.8136603 45.7501939,75.8913483 64.2805458,75.8913483 C82.8124061,75.8913483 97.8900941,60.8136603 97.8900941,42.2818 C97.8900941,23.7499397 82.8124061,8.67225169 64.2805458,8.67225169" id="path-1"></path>
    </defs>
    <g id="Symbols" transform="translate(-22)" stroke="none" stroke-width="1" fill="none" fill-rule="evenodd">
        <g id="Components-/-Product-Finder-/-Icon-/-All-of-Them">
            <mask id="mask-2" fill="white">
                <use xlink:href="#path-1"></use>
            </mask>
            <use id="Fill-1" fill="#1B909C" xlink:href="#path-1"></use>
        </g>
    </g>
</svg>