<?xml version="1.0" encoding="UTF-8"?>
<svg width="84px" height="84px" viewBox="0 0 84 84" version="1.1" xmlns="http://www.w3.org/2000/svg" xmlns:xlink="http://www.w3.org/1999/xlink">
    <!-- Generator: Sketch 47.1 (45422) - http://www.bohemiancoding.com/sketch -->
    <title>Components / Product Finder / Icon / Bedroom</title>
    <desc>Created with Sketch.</desc>
    <defs>
        <path d="M102.358304,33.1178425 C100.190014,32.3888484 97.9781093,31.9464674 95.6789741,31.9464674 C94.5309642,31.9449097 94.3642925,31.7268346 93.9265845,30.6255551 C92.6944599,27.5179841 90.3781902,25.4478279 87.1537933,24.9306782 C83.4807847,24.3418753 79.7111999,24.4244324 76.0070377,24.8761595 C72.3994516,25.3169828 70.0021826,27.4463309 68.7093085,30.8280534 C68.5800211,31.1629545 68.4663105,31.5025287 68.3307924,31.8810449 L60.0859939,31.8810449 C59.0345602,28.5849947 56.9036544,26.3170131 53.8474869,25.0506196 C52.6340545,24.547489 51.182297,24.5708542 49.8286734,24.4633743 C46.7320062,24.2188186 43.660262,24.6721034 40.5978637,25.0147929 C38.5868993,25.2406565 37.1756415,26.6036262 35.9076903,28.0600567 C34.9730825,29.1348556 34.3749335,30.4074799 34.0104365,31.9137561 C30.5773105,31.8280838 27.2454337,32.38106 24.00546,33.8281444 C23.9384798,33.5648966 23.8652689,33.4091286 23.8652689,33.2549183 C23.8652689,27.8450969 23.8387883,22.4352754 23.8933071,17.0270117 C23.9213453,14.2107268 25.0350863,11.8150155 27.1036849,9.89751187 C28.9074779,8.2261216 31.0726526,7.38653226 33.5244404,7.27126397 C33.7518617,7.26191789 33.9792829,7.26814861 34.2067041,7.26814861 C54.1621382,7.26814861 74.11913,7.26814861 94.0745641,7.26659093 C97.6463235,7.26503325 100.499993,8.68096406 102.574822,11.5969404 C103.626256,13.0736207 104.224405,14.7341072 104.26802,16.553477 C104.320981,18.6438831 104.310077,20.7342892 104.319423,22.826253 C104.339673,26.0506499 104.359923,29.2766045 104.361481,32.5010014 C104.363038,32.8390179 104.239981,33.1770343 104.148078,33.6458959 C103.467372,33.4465129 102.90505,33.3016487 102.358304,33.1178425 Z M14.112325,58.3064572 C14.3662268,58.2083234 14.6092248,58.1039588 14.8584536,58.0198441 C16.6980732,57.403003 17.4737977,56.3313194 17.6373541,54.4216041 C17.7510647,53.0695382 17.8834674,51.6956647 18.226157,50.3903292 C19.9333739,43.8667668 26.0457089,39.1703626 32.7966925,39.1656896 C53.6571385,39.1547858 74.5191421,39.1563435 95.3795881,39.1656896 C99.5931115,39.1672472 103.227178,40.734273 106.130693,43.7172295 C108.761614,46.4229191 110.380043,49.6987194 110.535811,53.5679957 C110.651079,56.4948757 111.258574,57.3282344 114.037475,58.2753036 L114.037475,77.161866 C113.510979,77.1852312 113.026541,77.2241732 112.54366,77.2257309 C108.635442,77.2304039 104.725666,77.2304039 100.819005,77.2288463 C77.7357506,77.2179425 54.6556111,77.2054811 31.573914,77.1992503 C26.3494564,77.1976927 21.1234411,77.2179425 15.8989836,77.2288463 C15.356911,77.2304039 14.8132808,77.2288463 14.112325,77.2288463 L14.112325,58.3064572 Z" id="path-1"></path>
    </defs>
    <g id="Symbols" transform="translate(-22)" stroke="none" stroke-width="1" fill="none" fill-rule="evenodd">
        <g id="Components-/-Product-Finder-/-Icon-/-Bedroom">
            <mask id="mask-2" fill="white">
                <use xlink:href="#path-1"></use>
            </mask>
            <use id="Fill-4" fill="#1B909C" xlink:href="#path-1"></use>
        </g>
    </g>
</svg>