<?xml version="1.0" encoding="UTF-8"?>
<svg width="84px" height="84px" viewBox="0 0 84 84" version="1.1" xmlns="http://www.w3.org/2000/svg" xmlns:xlink="http://www.w3.org/1999/xlink">
    <!-- Generator: Sketch 47.1 (45422) - http://www.bohemiancoding.com/sketch -->
    <title>Components / Product Finder / Icon / I Don't Know</title>
    <desc>Created with Sketch.</desc>
    <defs>
        <path d="M76.750119,36.6406878 C76.1260857,37.7861067 75.3945165,38.7734807 74.542377,39.6076976 C73.6951255,40.4402851 72.166814,41.8415089 69.9655893,43.8081101 C69.3611079,44.3604529 68.8706796,44.8508812 68.502451,45.2712483 C68.1391105,45.6916154 67.8653831,46.0728786 67.6877861,46.4231846 C67.5020425,46.7734905 67.3684374,47.1237964 67.267419,47.4741023 C67.1712885,47.817891 67.0246488,48.4337777 66.8274999,49.3136158 C66.4837113,51.1694226 65.4213882,52.0997699 63.632384,52.0997699 C62.7036659,52.0997699 61.9199582,51.8016026 61.2845196,51.1906039 C60.6474516,50.5796051 60.3297323,49.675327 60.3297323,48.4793989 C60.3297323,46.9771567 60.5643558,45.6704341 61.0287148,44.5706365 C61.4947031,43.4708388 62.1122192,42.5030168 62.8812629,41.6753172 C63.6519359,40.8411003 64.6898191,39.8488384 65.993283,38.7034195 C67.1403312,37.7046402 67.9664015,36.9470018 68.4763818,36.4370216 C68.99125,35.9286706 69.4181345,35.3616638 69.7684404,34.7311132 C70.1187463,34.1087091 70.289826,33.4276492 70.289826,32.6944508 C70.289826,31.2622698 69.7554057,30.053307 68.6930826,29.0675624 C67.6291302,28.0867058 66.2556051,27.5913895 64.5676193,27.5913895 C62.6010181,27.5913895 61.1509145,28.0867058 60.2205671,29.0805971 C59.2918491,30.072859 58.5032534,31.5359972 57.8596681,33.4716411 C57.2486694,35.4952689 56.0902158,36.5070828 54.3973421,36.5070828 C53.3920455,36.5070828 52.544794,36.1502595 51.8588461,35.4447597 C51.1712689,34.7376305 50.8274802,33.9734748 50.8274802,33.1539218 C50.8274802,31.4545307 51.3684178,29.7290704 52.4633275,27.9856874 C53.5582372,26.2341577 55.1484632,24.7905714 57.2421521,23.6451525 C59.335841,22.4997336 61.7798359,21.9262094 64.5676193,21.9262094 C67.1647712,21.9262094 69.455609,22.4101204 71.4417622,23.3649078 C73.4279153,24.3196951 74.9611148,25.623159 76.0495072,27.2720409 C77.1313822,28.9209227 77.6723198,30.709927 77.6723198,32.6439416 C77.6723198,34.1592184 77.3676351,35.4952689 76.750119,36.6406878 M66.7199641,61.5010035 C65.9183338,62.21465 64.9814691,62.5747319 63.9256633,62.5747319 C62.837271,62.5747319 61.8824836,62.219538 61.0678187,61.5140381 C60.2531537,60.8069089 59.8458213,59.814647 59.8458213,58.5486577 C59.8458213,57.4211614 60.2401191,56.4647448 61.0287148,55.7022184 C61.8189398,54.9331746 62.7802444,54.5437648 63.9256633,54.5437648 C65.0515303,54.5437648 66.0063176,54.9331746 66.7769907,55.7022184 C67.5411464,56.4647448 67.9289269,57.4211614 67.9289269,58.5486577 C67.9289269,59.8016124 67.5281118,60.782469 66.7199641,61.5010035 M64.2499,7.62558088 C45.1378602,7.62558088 29.6266395,23.1156203 29.6266395,42.2292894 C29.6266395,61.3673984 45.1378602,76.8786191 64.2499,76.8786191 C83.3814917,76.8786191 98.8731605,61.3673984 98.8731605,42.2292894 C98.8731605,23.1156203 83.3814917,7.62558088 64.2499,7.62558088" id="path-1"></path>
    </defs>
    <g id="Symbols" transform="translate(-22)" stroke="none" stroke-width="1" fill="none" fill-rule="evenodd">
        <g id="Components-/-Product-Finder-/-Icon-/-I-Don't-Know">
            <mask id="mask-2" fill="white">
                <use xlink:href="#path-1"></use>
            </mask>
            <use id="Fill-1" fill="#1B909C" xlink:href="#path-1"></use>
        </g>
    </g>
</svg>