<?xml version="1.0" encoding="UTF-8"?>
<svg width="84px" height="84px" viewBox="0 0 84 84" version="1.1" xmlns="http://www.w3.org/2000/svg" xmlns:xlink="http://www.w3.org/1999/xlink">
    <!-- Generator: Sketch 47.1 (45422) - http://www.bohemiancoding.com/sketch -->
    <title>Components / Product Finder / Icon / Laundry</title>
    <desc>Created with Sketch.</desc>
    <defs>
        <path d="M60.3501099,19.220094 L66.1393551,19.220094 L66.1393551,16.9087378 L60.3501099,16.9087378 L60.3501099,19.220094 Z M60.3501099,14.5901452 L66.1393551,14.5901452 L66.1393551,12.2715525 L60.3501099,12.2715525 L60.3501099,14.5901452 Z M73.2282858,11.8431483 C75.0663711,11.8431483 76.558549,13.329537 76.558549,15.1661751 C76.558549,17.0100496 75.0663711,18.4964383 73.2282858,18.4964383 C71.3902004,18.4964383 69.8980225,17.0100496 69.8980225,15.1661751 C69.8980225,13.329537 71.3902004,11.8431483 73.2282858,11.8431483 L73.2282858,11.8431483 Z M83.6474797,11.8431483 C85.4855651,11.8431483 86.977743,13.329537 86.977743,15.1661751 C86.977743,17.0100496 85.4855651,18.4964383 83.6474797,18.4964383 C81.8108417,18.4964383 80.3172165,17.0100496 80.3172165,15.1661751 C80.3172165,13.329537 81.8108417,11.8431483 83.6474797,11.8431483 L83.6474797,11.8431483 Z M90.4483955,21.5386867 L38.345189,21.5386867 C37.6446904,21.5386867 36.9774799,21.6790759 36.3507941,21.9178822 L38.3350579,12.9792877 C38.8720103,10.5203058 40.799829,8.8009 43.0156626,8.8009 L86.7968291,8.8009 C89.278968,8.8009 91.1271845,10.395837 91.6250596,12.9792877 L93.7569491,22.5894347 C92.8176441,21.9280134 91.6815047,21.5386867 90.4483955,21.5386867 Z M38.3454785,74.8009 C36.4350276,74.8009 34.874826,73.2406984 34.874826,71.323011 L34.874826,27.3276424 C34.874826,26.5417523 35.1469205,25.8238859 35.5869032,25.2406195 C35.6722945,25.1335184 35.7562386,25.0206282 35.8532085,24.9193164 C36.0283331,24.7384025 36.2150363,24.573409 36.4234491,24.438809 C36.6665974,24.2738155 36.9329027,24.155136 37.2151284,24.0596135 C37.259995,24.5849875 37.3960423,25.1118088 37.6059024,25.6140258 C37.8823389,26.2696578 38.2731129,26.8862124 38.7594095,27.4347434 C38.8375643,27.525924 38.9229557,27.6156573 39.0025578,27.7010487 C40.1329079,28.8588977 41.6482429,29.6389985 43.1577885,29.6389985 L87.9622042,29.6389985 C89.7192401,29.6389985 91.0261622,28.6678526 91.8221834,27.2929069 C91.8844177,27.1915951 91.936521,27.0844941 91.9929661,26.9831823 C92.2361144,26.5070169 92.4228175,25.9932214 92.545839,25.4678474 C92.6080734,25.2131206 92.6601766,24.9583938 92.6934648,24.6978778 C92.8179335,24.8006369 92.9308238,24.9077379 93.0379248,25.0264174 C93.2173914,25.2348302 93.378043,25.4678474 93.5126429,25.7167849 C93.5647462,25.8180967 93.6269805,25.9194085 93.6660579,26.0207203 C93.8296041,26.4288621 93.926574,26.8630554 93.926574,27.3276424 L93.926574,71.323011 C93.926574,73.2406984 92.3649251,74.8009 90.4486849,74.8009 L38.3454785,74.8009 Z M64.5953634,34.5641988 C54.6957541,34.5641988 46.6458087,42.6141442 46.6458087,52.5079642 C46.6458087,62.4075734 54.6957541,70.4589661 64.5953634,70.4589661 C74.4891833,70.4589661 82.5391287,62.4075734 82.5391287,52.5079642 C82.5391287,42.6141442 74.4891833,34.5641988 64.5953634,34.5641988 Z M43.1576438,27.3276424 C41.5062616,27.3276424 39.6580451,25.512714 39.5277871,23.8497533 L90.442751,23.8497533 C90.3920951,25.1566754 89.8044867,26.8123995 88.5670355,27.2248833 C88.3803324,27.2871176 88.1762615,27.3276424 87.9620594,27.3276424 L43.1576438,27.3276424 Z M64.5947844,66.9822349 C56.6128627,66.9822349 50.1216715,60.4910438 50.1216715,52.509122 C50.1216715,44.5315422 56.6128627,38.0360091 64.5947844,38.0360091 C72.5723643,38.0360091 79.0678973,44.5315422 79.0678973,52.509122 C79.0678973,60.4910438 72.5723643,66.9822349 64.5947844,66.9822349 Z M53.9440207,50.8577399 C53.8586293,51.3946924 53.8021842,51.9432233 53.8021842,52.509122 C53.8021842,58.4734919 58.6362039,63.3017223 64.5947844,63.3017223 C70.5548123,63.3017223 75.3830428,58.4734919 75.3830428,52.509122 C75.3830428,51.4120601 75.2180493,50.3540755 74.9126666,49.3597727 C74.2917701,50.5870927 72.8835362,52.1805824 69.7747116,52.1241372 C69.1914451,52.118348 68.6834388,52.0619029 68.2246412,51.9721696 C68.9034302,51.569817 69.3665698,50.8403721 69.3665698,49.9922477 C69.3665698,48.7157192 68.3375314,47.6866808 67.0653448,47.6866808 C65.7946055,47.6866808 64.7583306,48.7157192 64.7583306,49.9922477 C64.7583306,50.0950068 64.7756984,50.1963186 64.7930661,50.2976304 C63.6902149,49.4842414 62.6105207,48.7041407 60.4163967,48.6809837 C57.4204624,48.6534848 55.1539729,49.9589596 53.9440207,50.8577399 Z M65.7989474,41.3894294 C64.8263543,41.3894294 64.0404642,42.1796614 64.034675,43.1522546 C64.034675,44.1248477 64.8263543,44.9107378 65.7989474,44.9107378 C66.7715406,44.9107378 67.5574307,44.1248477 67.5574307,43.1522546 C67.5574307,42.1796614 66.7715406,41.3894294 65.7989474,41.3894294 Z M71.5881926,44.8644238 C70.6170467,44.8644238 69.8311567,45.6503138 69.8253674,46.622907 C69.8253674,47.5955002 70.6170467,48.3871795 71.5881926,48.3871795 C72.5607858,48.3871795 73.3466758,47.5955002 73.3466758,46.622907 C73.3466758,45.6503138 72.5607858,44.8644238 71.5881926,44.8644238 Z" id="path-1"></path>
    </defs>
    <g id="Symbols" transform="translate(-22)" stroke="none" stroke-width="1" fill="none" fill-rule="evenodd">
        <g id="Components-/-Product-Finder-/-Icon-/-Laundry">
            <mask id="mask-2" fill="white">
                <use xlink:href="#path-1"></use>
            </mask>
            <use id="Combined-Shape" fill="#1B909C" xlink:href="#path-1"></use>
        </g>
    </g>
</svg>