<?xml version="1.0" encoding="UTF-8"?>
<svg width="84px" height="84px" viewBox="0 0 84 84" version="1.1" xmlns="http://www.w3.org/2000/svg" xmlns:xlink="http://www.w3.org/1999/xlink">
    <!-- Generator: Sketch 47.1 (45422) - http://www.bohemiancoding.com/sketch -->
    <title>Components / Product Finder / Icon / Living Room</title>
    <desc>Created with Sketch.</desc>
    <defs>
        <path d="M64.4481398,56.4628835 C58.8035478,56.4628835 53.1589558,56.4681294 47.5143637,56.4602605 C45.4068221,56.4576376 44.6946907,55.7441947 44.678953,53.6471449 C44.6671497,52.0340296 44.6684612,50.4222258 44.6802644,48.807799 C44.6973136,46.6176344 45.3897729,45.8963226 47.5773146,45.8936997 C58.0114164,45.8832079 68.4468296,45.8884538 78.8822429,45.8897653 C79.9248662,45.8897653 80.9714239,45.8582898 82.0114242,45.9186177 C83.4645395,46.0012407 84.1832282,46.7146836 84.2186381,48.1599299 C84.2658512,50.1022257 84.2566709,52.0497673 84.2186381,53.9933745 C84.1845397,55.7704243 83.4750313,56.4523917 81.6665061,56.4563261 C75.9261763,56.4720638 70.1871581,56.4628835 64.4481398,56.4628835 M84.0940479,41.2880588 L44.9937072,41.2880588 C44.3143627,38.8526482 43.7268215,36.4644507 42.9792803,34.1260893 C41.9458373,30.8933013 39.8291153,28.5300219 36.7537045,27.0978902 C35.909114,26.7044475 35.7110812,26.1811686 35.71895,25.3352667 C35.7504255,21.6369048 35.7255074,17.9372315 35.7320648,14.2375582 C35.7373107,11.0506719 37.4671473,9.29460571 40.6540336,9.29198276 C51.6573159,9.28149096 62.6605982,9.28935981 73.6638805,9.28804834 C78.5006034,9.28673686 83.3386378,9.28017948 88.1753607,9.28149096 C91.5065093,9.28149096 93.2481492,11.0401801 93.2455263,14.3765746 C93.2402804,18.0762479 93.2651984,21.7759213 93.2127394,25.4742832 C93.206182,25.94248 92.9281491,26.6690376 92.5727392,26.8329721 C88.1530656,28.87494 86.0861797,32.6021543 85.0422449,37.0965821 C84.7222448,38.4736317 84.4179824,39.8559272 84.0940479,41.2880588 Z M41.6272798,60.9133768 C42.3026899,60.9422292 42.810231,60.9855079 43.3177722,60.9868194 C57.4069572,60.9894424 71.4948306,60.9619014 85.5840156,61.0261637 C87.1000817,61.0340325 87.3741801,60.5487865 87.3571309,59.1704254 C87.2731965,52.2327182 87.7112294,45.3330438 89.3099184,38.5500907 C89.4620496,37.9048446 89.6784432,37.2753362 89.8384432,36.6300901 C91.747952,28.956645 100.665988,28.8845138 104.651563,32.0530394 C107.435826,34.2668106 108.001072,39.1376319 105.460743,41.5691081 C102.938775,43.9822237 101.875168,46.9500935 101.222054,50.2104224 C99.917135,56.7323918 100.165004,63.3330497 100.155824,69.9205928 C100.150578,74.0228893 99.9027088,74.2799385 95.8200845,74.2799385 C74.7118809,74.28125 53.6023657,74.28125 32.4928506,74.28125 C29.3059643,74.28125 28.7918658,73.7396105 28.7761281,70.5592816 C28.7420297,63.9258368 29.0830134,57.2753428 27.8423573,50.694357 C27.1905538,47.2412411 26.1361272,44.074027 23.4528476,41.5140261 C21.0554698,39.2255008 21.5197323,34.4307451 24.0430118,32.2707444 C27.0095701,29.7291042 32.2108833,29.3815631 35.5302287,31.4523835 C37.5118687,32.6891052 38.5348198,34.5487779 39.1564594,36.7035327 C40.9492468,42.9081249 41.4043289,49.2897664 41.619411,55.6963259 C41.6758044,57.3907527 41.6272798,59.0891139 41.6272798,60.9133768 Z" id="path-1"></path>
    </defs>
    <g id="Symbols" transform="translate(-22)" stroke="none" stroke-width="1" fill="none" fill-rule="evenodd">
        <g id="Components-/-Product-Finder-/-Icon-/-Living-Room">
            <mask id="mask-2" fill="white">
                <use xlink:href="#path-1"></use>
            </mask>
            <use id="Fill-7" fill="#1B909C" xlink:href="#path-1"></use>
        </g>
    </g>
</svg>