<?xml version="1.0" encoding="UTF-8"?>
<svg width="84px" height="84px" viewBox="0 0 84 84" version="1.1" xmlns="http://www.w3.org/2000/svg" xmlns:xlink="http://www.w3.org/1999/xlink">
    <!-- Generator: Sketch 47.1 (45422) - http://www.bohemiancoding.com/sketch -->
    <title>Components / Product Finder / Icon / Over Clocking</title>
    <desc>Created with Sketch.</desc>
    <defs>
        <path d="M78.5664853,70.8713856 C66.0446984,70.8713856 55.8494233,60.5975903 55.8494233,47.9803185 C55.8494233,35.3620936 66.0446984,25.0882983 78.5664853,25.0882983 C91.0873264,25.0882983 101.282602,35.3620936 101.282602,47.9803185 C101.282602,60.5975903 91.0873264,70.8713856 78.5664853,70.8713856 L78.5664853,70.8713856 Z M103.70416,28.0998419 L103.476947,27.8711171 L101.812687,29.5481943 C105.765629,34.6184997 108.148412,41.0225567 108.148412,47.9607815 C108.148412,64.3910869 94.8702721,77.7714896 78.5664853,77.7714896 C62.2617527,77.7714896 48.9836132,64.3910869 48.9836132,47.9607815 C48.9836132,41.0225567 51.3479543,34.6184997 55.3202837,29.5481943 L53.656024,27.8711171 L53.4288109,28.0998419 C52.7850008,28.7671943 51.7267217,28.7671943 51.0644698,28.0998419 L48.7001287,25.7172916 C48.0378767,25.0697144 48.0378767,24.0020936 48.7001287,23.3347413 L54.0532333,17.9406473 C54.6958612,17.273295 55.7553225,17.273295 56.4175744,17.9406473 L58.7819155,20.3231977 C59.4429853,20.9710131 59.4429853,22.0383956 58.7819155,22.705748 L58.5547023,22.9347111 L60.218962,24.6117883 C64.3988806,21.2762178 69.5063302,19.0461507 75.0854659,18.3790366 L75.0854659,15.3291339 L73.2514465,15.3291339 C72.3435395,15.3291339 71.5869504,14.586493 71.5869504,13.6520567 L71.5869504,8.69611376 C71.5869504,7.78121443 72.3241519,7.01903658 73.2514465,7.01903658 L83.881524,7.01903658 C84.789431,7.01903658 85.5460202,7.76263054 85.5460202,8.69611376 L85.5460202,13.6520567 C85.5460202,14.566956 84.8078729,15.3291339 83.881524,15.3291339 L82.0465589,15.3291339 L82.0465589,18.3790366 C87.6266403,19.0266138 92.7147023,21.2576339 96.9132992,24.6117883 L98.5785047,22.9347111 L98.3512915,22.705748 C97.6890395,22.0579326 97.6890395,20.99055 98.3512915,20.3231977 L100.715633,17.9406473 C101.35826,17.273295 102.417722,17.273295 103.079974,17.9406473 L108.432842,23.3347413 C109.094148,23.9825567 109.094148,25.0501775 108.432842,25.7172916 L106.068501,28.0998419 C105.424927,28.7671943 104.365466,28.7671943 103.70416,28.0998419 Z M28.9351277,56.0262268 L28.9351277,56.006593 L43.8206759,56.006593 C44.2529651,58.0183394 44.873441,59.9525085 45.6250133,61.8112549 C45.3433205,61.9065507 45.0613928,61.9644944 44.7411699,61.9644944 L28.9351277,61.9644944 C27.3373024,61.9644944 26.0211699,60.6428042 26.0211699,58.994762 C26.0211699,57.366593 27.3189771,56.0262268 28.9351277,56.0262268 Z M45.6067819,34.2270789 C44.8357096,36.104262 44.2347337,38.0580648 43.8015048,40.012107 L19.9128301,40.012107 C18.3161795,40.012107 17.000047,38.6904169 17.000047,37.0433324 C17.000047,35.4149239 18.2969145,34.0747972 19.9128301,34.0747972 L44.7412639,34.0747972 C45.0422217,34.0747972 45.3434145,34.1504592 45.6067819,34.2270789 Z M42.936856,48.000431 C42.936856,49.0151634 42.9939464,50.0112197 43.049862,50.9878817 L23.9729886,50.9878817 C22.3751633,50.9878817 21.0599705,49.6475155 21.0599705,48.019107 C21.0599705,46.3906986 22.356838,45.0508113 23.9729886,45.0508113 L43.0691271,45.0508113 C42.9939464,46.0269944 42.936856,47.0043746 42.936856,48.000431 Z M80.2648602,48.4980042 C79.9822277,49.5706803 78.9111373,50.2030324 77.8778723,49.9346239 C76.8251072,49.6475394 76.2048663,48.5549901 76.4682337,47.5019479 C76.7499265,46.4290324 77.8210169,45.7969197 78.8552217,46.0653282 C79.9077518,46.3337366 80.527288,47.4452014 80.2648602,48.4980042 Z M92.5752337,39.4377225 C92.0870289,38.6147789 91.0720892,38.2881873 90.2258361,38.7287507 L80.0574084,43.8055254 C78.7983663,43.2883423 77.332812,43.3453282 76.0735349,44.0930887 C73.9489747,45.3759901 73.2349928,48.1726099 74.4942699,50.3368775 C75.753312,52.5021028 78.4981133,53.2297507 80.6219687,51.9463704 C81.8810108,51.1794549 82.6325831,49.8963141 82.7831795,48.5363141 L92.0494386,41.8900324 C92.8388361,41.3335817 93.0643783,40.2805394 92.5752337,39.4377225 Z M84.7379018,36.583231 C85.6208054,37.1004141 86.7487512,36.7750197 87.2378958,35.8752169 C87.7453657,34.9746958 87.4258476,33.8251606 86.5422392,33.3276113 C85.6583958,32.8101887 84.5497151,33.1358225 84.0422452,34.0365831 C83.7046367,34.649062 83.7412873,35.3580338 84.0615102,35.9135268 C84.2304319,36.1623014 84.456209,36.4113155 84.7379018,36.583231 Z M78.2724771,34.8594789 C79.2874169,34.8594789 80.0951398,34.0169014 80.0951398,32.9822958 C80.0951398,31.9479296 79.2681518,31.1247465 78.253212,31.1247465 C77.2382723,31.1247465 76.4305494,31.9675634 76.4305494,33.0019296 C76.4305494,33.3462394 76.5242904,33.6716338 76.6746518,33.9400423 C76.9941699,34.4957746 77.5960855,34.8791127 78.2724771,34.8594789 Z M78.5165795,61.1787831 C77.5016398,61.1974592 76.6929771,62.0414732 76.6929771,63.0746423 C76.6929771,63.4196704 76.7876578,63.7268676 76.9380193,63.9950366 C77.2575373,64.5495718 77.8585133,64.9331493 78.5358446,64.9147127 C79.5498446,64.8948394 80.3585072,64.0520225 80.3401819,63.0176563 C80.3585072,62.0216 79.5315193,61.1787831 78.5165795,61.1787831 Z M84.9443904,59.3587056 C84.079812,59.8761282 83.7788542,61.0254239 84.3055892,61.9065507 C84.813059,62.8070718 85.9410048,63.0943958 86.8239084,62.5582972 C87.6884867,62.0413535 87.9894446,60.8915789 87.4636494,60.0106915 C86.9366795,59.128607 85.8089687,58.8415225 84.9443904,59.3587056 Z M92.1247367,53.8039676 C91.2408934,53.3064183 90.1129476,53.6121789 89.6247428,54.5129394 C89.2861946,55.1256577 89.3237849,55.8159535 89.6430681,56.3901225 C89.7936645,56.658531 90.0377669,56.9073056 90.3194596,57.0607845 C91.203303,57.5779676 92.3312488,57.2525732 92.8194536,56.3518127 C93.3085982,55.4510521 93.0076404,54.3024746 92.1247367,53.8039676 Z M65.4535765,48.1725141 C65.4535765,47.1381479 64.6082633,46.314007 63.6116488,46.314007 C62.596709,46.3336408 61.7892211,47.1764577 61.7892211,48.2108239 C61.7892211,48.5560915 61.8827271,48.8620915 62.0333235,49.1302606 C62.3526066,49.6857535 62.9545223,50.0695704 63.6309139,50.0496972 C64.6644139,50.0496972 65.4728416,49.2068803 65.4535765,48.1725141 Z M64.7588361,54.0723761 C63.8942578,54.5895592 63.5933,55.7381366 64.1190952,56.6202211 C64.6268,57.5013479 65.7545108,57.8071085 66.6383542,57.2710099 C67.5029325,56.7538268 67.7846253,55.6042915 67.2771554,54.7047282 C66.7511253,53.8422775 65.6234145,53.5355592 64.7588361,54.0723761 Z M91.29695,47.9043211 C91.29695,48.2491099 91.3913958,48.5551099 91.5603175,48.8431521 C91.8796006,49.3986451 92.4817512,49.7625887 93.1581428,49.7625887 C94.1730825,49.7625887 94.9817452,48.900138 94.9817452,47.8854056 C94.9817452,46.8510394 94.1538175,46.0268986 93.1388777,46.0268986 C92.1053777,46.0268986 91.2786247,46.8893493 91.29695,47.9043211 Z M64.6266825,42.2913521 C65.5105259,42.8085352 66.6384717,42.4831408 67.1266765,41.583338 C67.6158211,40.6825775 67.3146283,39.5529155 66.4126946,39.035493 C65.5288512,38.5369859 64.4201705,38.8439437 63.9127006,39.7444648 C63.5934175,40.338507 63.6117428,41.0465211 63.9319657,41.6216479 C64.1008873,41.8890986 64.3266645,42.1191972 64.6266825,42.2913521 Z M71.7877639,36.7180338 C71.7877639,36.7180338 71.8070289,36.7180338 71.8070289,36.6984 C71.8253542,36.6984 71.8253542,36.6984 71.8253542,36.6797239 L71.8446193,36.6797239 C72.7091976,36.1623014 72.9908904,35.0130056 72.4834205,34.1318789 C71.9759506,33.2311183 70.8480048,32.9440338 69.9651012,33.4612169 C69.9651012,33.4612169 69.9458361,33.4612169 69.9458361,33.4808507 C69.9275108,33.4808507 69.9275108,33.4995268 69.9082458,33.4995268 C69.0436675,34.0169493 68.7427096,35.1662451 69.2694446,36.0473718 C69.7954747,36.9481324 70.9231855,37.2352169 71.7877639,36.7180338 Z M72.0318898,59.4933887 C71.1489861,58.9762056 70.0210404,59.3016 69.5328355,60.2014028 C69.1942873,60.8150789 69.2318777,61.523093 69.5511608,62.0785859 C69.7017572,62.3469944 69.9458596,62.595769 70.2275524,62.7691211 C71.1113958,63.266431 72.2393416,62.9407972 72.7275464,62.0599099 C73.2350163,61.1404732 72.9157331,60.0096141 72.0318898,59.4933887 Z" id="path-1"></path>
    </defs>
    <g id="Symbols" transform="translate(-22)" stroke="none" stroke-width="1" fill="none" fill-rule="evenodd">
        <g id="Components-/-Product-Finder-/-Icon-/-Over-Clocking">
            <mask id="mask-2" fill="white">
                <use xlink:href="#path-1"></use>
            </mask>
            <use id="Combined-Shape" fill="#1B909C" xlink:href="#path-1"></use>
        </g>
    </g>
</svg>