<?xml version="1.0" encoding="UTF-8"?>
<svg width="84px" height="84px" viewBox="0 0 84 84" version="1.1" xmlns="http://www.w3.org/2000/svg" xmlns:xlink="http://www.w3.org/1999/xlink">
    <!-- Generator: Sketch 47.1 (45422) - http://www.bohemiancoding.com/sketch -->
    <title>Components / Product Finder / Icon / Phones and Tablets</title>
    <desc>Created with Sketch.</desc>
    <defs>
        <path d="M52.5672295,70.2879866 L57.5509777,70.2879866 C58.2892463,70.2879866 58.8882847,70.914871 58.8882847,71.6802895 C58.8882847,72.445708 58.2892463,73.0725924 57.5509777,73.0725924 L52.5672295,73.0725924 C51.8287868,73.0725924 51.2306187,72.445708 51.2306187,71.6802895 C51.2306187,70.914871 51.8287868,70.2879866 52.5672295,70.2879866 L52.5672295,70.2879866 Z M45.0066766,75.8293522 L67.2421021,75.8293522 C66.3365831,74.2562239 65.807682,72.4321331 65.807682,70.483083 L65.807682,67.2947094 L36.1796502,67.2947094 L36.1796502,15.0831763 L74.0220952,15.0831763 L74.0220952,21.4738466 C74.5238463,21.4044055 75.0249013,21.3485394 75.5402274,21.3485394 L79.7728283,21.3485394 L79.7728283,13.1757213 C79.7728283,10.9062676 78.4355213,8.95721752 76.5285885,8.12166174 C75.8883032,7.84302712 75.1921517,7.69004784 74.4537091,7.69004784 L35.6780731,7.69004784 C34.9403266,7.69004784 34.2441751,7.84302712 33.6038898,8.12166174 C31.6962608,8.95721752 30.35965,10.9062676 30.35965,13.1757213 L30.35965,70.3436787 C30.35965,73.3792471 32.740488,75.8293522 35.6643241,75.8293522 L45.0066766,75.8293522 Z M93.6680113,68.575454 C93.6401653,68.575454 93.5978741,68.5897251 93.570028,68.5897251 L75.1641316,68.5897251 C75.1362856,68.5897251 75.0941684,68.575454 75.0663223,68.575454 L75.0663223,33.4340767 C75.0941684,33.4340767 75.1362856,33.4198056 75.1641316,33.4198056 L93.570028,33.4198056 C93.5978741,33.4198056 93.6257201,33.4340767 93.6537402,33.4340767 L93.6537402,68.575454 L93.6680113,68.575454 Z M86.5949385,73.5879185 L81.6103201,73.5879185 C80.8720514,73.5879185 80.2738833,72.9610341 80.2738833,72.1956156 C80.2738833,71.4295009 80.8720514,70.8033127 81.6103201,70.8033127 L86.5949385,70.8033127 C87.332511,70.8033127 87.9315493,71.4295009 87.9315493,72.1956156 C87.9315493,72.9610341 87.332511,73.5879185 86.5949385,73.5879185 L86.5949385,73.5879185 Z M98.35955,69.536143 L98.35955,31.4845045 C98.35955,28.5467454 96.0344041,26.1380614 93.1941062,26.1380614 L75.5402274,26.1380614 C72.6997555,26.1380614 70.3747837,28.5467454 70.3747837,31.4845045 L70.3747837,70.483083 C70.3747837,73.4206681 72.6997555,75.8293522 75.5402274,75.8293522 L93.1941062,75.8293522 C96.0344041,75.8293522 98.35955,73.4206681 98.35955,70.483083 L98.35955,69.536143 Z" id="path-1"></path>
    </defs>
    <g id="Symbols" transform="translate(-22)" stroke="none" stroke-width="1" fill="none" fill-rule="evenodd">
        <g id="Components-/-Product-Finder-/-Icon-/-Phones-and-Tablets">
            <mask id="mask-2" fill="white">
                <use xlink:href="#path-1"></use>
            </mask>
            <use id="Fill-1" fill="#1B909C" xlink:href="#path-1"></use>
        </g>
    </g>
</svg>