<?xml version="1.0" encoding="UTF-8"?>
<svg width="84px" height="84px" viewBox="0 0 84 84" version="1.1" xmlns="http://www.w3.org/2000/svg" xmlns:xlink="http://www.w3.org/1999/xlink">
    <!-- Generator: Sketch 47.1 (45422) - http://www.bohemiancoding.com/sketch -->
    <title>Components / Product Finder / Icon / Smart Home</title>
    <desc>Created with Sketch.</desc>
    <defs>
        <path d="M64.5384913,20.8605345 L97.5364937,48.0645174 C97.5734712,48.1393528 97.5954816,48.2529265 97.5954816,48.4078797 L97.5954816,75.9517033 C97.5954816,76.9456932 97.2309892,77.810262 96.5020045,78.5348446 C95.7756611,79.2603077 94.9163748,79.6248 93.9223848,79.6248 L71.8882064,79.6248 L71.8882064,57.5870999 L57.1958194,57.5870999 L57.1958194,79.6248 L35.1581194,79.6248 C34.1641294,79.6248 33.3039627,79.2603077 32.5784996,78.531323 C31.849515,77.80586 31.4885443,76.9456932 31.4885443,75.9517033 L31.4885443,48.4078797 C31.4885443,48.3665002 31.4991093,48.3119144 31.5158372,48.2361986 C31.5369672,48.1604828 31.5431301,48.1023753 31.5431301,48.0645174 L64.5384913,20.8605345 Z M110.158494,41.8662987 C110.540594,42.1726835 110.753655,42.5820771 110.791513,43.0980011 C110.832893,43.613925 110.694667,44.0655786 110.392684,44.4459184 L106.833161,48.6930466 C106.523255,49.0372893 106.124426,49.2503501 105.628752,49.3260659 L105.453549,49.3260659 C104.958755,49.3260659 104.556405,49.1922426 104.25002,48.9237156 L64.5388434,15.8121395 L24.8311885,48.9237156 C24.3724916,49.2301005 23.9129143,49.3639238 23.4515762,49.3260659 C22.9567822,49.2503501 22.554432,49.0372893 22.2471667,48.6930466 L18.6911653,44.4494401 C18.3856609,44.0655786 18.2509572,43.613925 18.2888151,43.0980011 C18.326673,42.5820771 18.5370925,42.1726835 18.9191931,41.8662987 L60.1807828,7.49308602 C61.4054419,6.49909603 62.8563679,5.9999 64.5414847,5.9999 C66.2239602,5.9999 67.6784079,6.49909603 68.903067,7.49308602 L82.9034467,19.199101 L82.9034467,8.00812955 C82.9034467,7.47195603 83.0751279,7.03174789 83.4193707,6.68750512 C83.7636135,6.34414277 84.2038216,6.17246159 84.7399951,6.17246159 L95.7557637,6.17246159 C96.2919372,6.17246159 96.7321454,6.34414277 97.0763881,6.68750512 C97.4197505,7.03174789 97.5923121,7.47195603 97.5923121,8.00812955 L97.5923121,31.4219203 L110.158494,41.8662987 Z" id="path-1"></path>
    </defs>
    <g id="Symbols" transform="translate(-22)" stroke="none" stroke-width="1" fill="none" fill-rule="evenodd">
        <g id="Components-/-Product-Finder-/-Icon-/-Smart-Home">
            <mask id="mask-2" fill="white">
                <use xlink:href="#path-1"></use>
            </mask>
            <use id="Combined-Shape" fill="#1B909C" xlink:href="#path-1"></use>
        </g>
    </g>
</svg>