<?xml version="1.0" standalone="no"?>
<!DOCTYPE svg PUBLIC "-//W3C//DTD SVG 1.1//EN" "http://www.w3.org/Graphics/SVG/1.1/DTD/svg11.dtd" >
<svg xmlns="http://www.w3.org/2000/svg" xmlns:xlink="http://www.w3.org/1999/xlink" version="1.1">
<metadata>
Created by FontForge 20161013 at Wed Aug  7 15:13:38 2013
 By ,,,
2005 published by FontShop International GmbH
</metadata>
<defs>
<font id="KievitPro-Regular" horiz-adv-x="1" >
  <font-face 
    font-family="KievitPro-Regular"
    font-weight="400"
    font-stretch="normal"
    units-per-em="1000"
    panose-1="2 11 5 4 3 1 1 2 1 2"
    ascent="760"
    descent="-240"
    x-height="480"
    cap-height="666"
    bbox="-543 -254 1223 934"
    underline-thickness="60"
    underline-position="-255"
    unicode-range="U+000D-FEFF"
  />
<missing-glyph horiz-adv-x="530" 
d="M82 0v666h366v-666h-366zM143 61h244v544h-244v-544z" />
    <glyph glyph-name="f_b" unicode="fb" horiz-adv-x="825" 
d="M543 -12q-99 0 -158 37v630q-39 13 -102 13q-110 0 -110 -126v-62h113v-58h-113v-422h-73v422h-80v58h80v72q0 86 50.5 133t136.5 47q94 0 171 -24v-266q48 50 120 50q97 0 152 -68.5t55 -181.5q0 -110 -68.5 -182t-173.5 -72zM544 51q77 0 120 55.5t43 133.5
q0 82 -35 134t-108 52q-29 0 -59 -14t-47 -33v-313q32 -15 86 -15z" />
    <glyph glyph-name="f_f" unicode="ff" horiz-adv-x="586" 
d="M104 0v422h-84v58h84v62q0 82 49.5 132.5t135.5 50.5q78 0 130 -38q47 45 125 45q54 0 80 -13l-19 -63q-24 12 -63 12q-100 0 -100 -122v-66h122v-58h-122v-422h-73v422h-192v-422h-73zM177 480h192v71q0 46 13 79q-39 31 -95 31q-110 0 -110 -139v-42z" />
    <glyph glyph-name="f_f_b" unicode="ffb" horiz-adv-x="1094" 
d="M812 -12q-99 0 -158 37v630q-39 13 -102 13q-110 0 -110 -126v-62h123v-58h-123v-422h-73v422h-192v-422h-73v422h-84v58h84v62q0 82 49.5 132.5t135.5 50.5q77 0 131 -39q52 46 136 46q94 0 171 -24v-266q48 50 120 50q97 0 152 -68.5t55 -181.5q0 -110 -68.5 -182
t-173.5 -72zM813 51q77 0 120 55.5t43 133.5q0 82 -35 134t-108 52q-29 0 -59 -14t-47 -33v-313q32 -15 86 -15zM177 480h192v72q0 41 13 77q-34 32 -95 32q-110 0 -110 -139v-42z" />
    <glyph glyph-name="f_f_h" unicode="ffh" horiz-adv-x="1102" 
d="M104 0v422h-84v58h84v62q0 82 49.5 132.5t135.5 50.5q77 0 131 -39q52 46 136 46q94 0 171 -24v-297q63 81 156 81q72 0 106.5 -41.5t34.5 -108.5v-342h-73v328q0 98 -85 98q-76 0 -139 -88v-338h-73v655q-39 13 -102 13q-110 0 -110 -126v-62h123v-58h-123v-422h-73v422
h-192v-422h-73zM177 480h192v72q0 41 13 77q-34 32 -95 32q-110 0 -110 -139v-42z" />
    <glyph glyph-name="f_f_i" unicode="ffi" horiz-adv-x="799" 
d="M104 0v422h-84v58h84v62q0 82 49.5 132.5t135.5 50.5q78 0 133 -40q50 47 135 47t154 -46l-37 -58q-58 40 -120 40q-54 0 -83 -32.5t-29 -94.5v-61h269v-480h-73v422h-196v-422h-73v422h-192v-422h-73zM177 480h192v68q0 44 15 80q-41 33 -97 33q-110 0 -110 -139v-42z
" />
    <glyph glyph-name="f_f_j" unicode="ffj" horiz-adv-x="793" 
d="M574 -230q-38 0 -52 7l12 61q12 -5 34 -5q38 0 54 29t16 87v473h-196v-422h-73v422h-192v-422h-73v422h-84v58h84v62q0 82 49.5 132.5t135.5 50.5q78 0 133 -40q50 47 135 47t154 -46l-37 -58q-58 40 -120 40q-54 0 -83 -32.5t-29 -94.5v-61h269v-544q0 -166 -137 -166z
M177 480h192v68q0 44 15 80q-41 33 -97 33q-110 0 -110 -139v-42z" />
    <glyph glyph-name="f_f_k" unicode="ffk" horiz-adv-x="1043" 
d="M104 0v422h-84v58h84v62q0 82 49.5 132.5t135.5 50.5q77 0 131 -39q52 46 136 46q94 0 171 -24v-708h-73v655q-39 13 -102 13q-110 0 -110 -126v-62h123v-58h-123v-422h-73v422h-192v-422h-73zM177 480h192v72q0 41 13 77q-34 32 -95 32q-110 0 -110 -139v-42zM937 0
l-205 268l198 212h87l-200 -212l209 -268h-89z" />
    <glyph glyph-name="f_f_l" unicode="ffl" horiz-adv-x="811" 
d="M104 0v422h-84v58h84v62q0 82 49.5 132.5t135.5 50.5q77 0 131 -39q52 46 136 46q94 0 171 -24v-708h-73v655q-39 13 -102 13q-110 0 -110 -126v-62h123v-58h-123v-422h-73v422h-192v-422h-73zM177 480h192v72q0 41 13 77q-34 32 -95 32q-110 0 -110 -139v-42z" />
    <glyph glyph-name="f_h" unicode="fh" horiz-adv-x="833" 
d="M100 0v422h-80v58h80v72q0 86 50.5 133t136.5 47q94 0 171 -24v-297q63 81 156 81q72 0 106.5 -41.5t34.5 -108.5v-342h-73v328q0 98 -85 98q-76 0 -139 -88v-338h-73v655q-39 13 -102 13q-110 0 -110 -126v-62h113v-58h-113v-422h-73z" />
    <glyph glyph-name="f_i" unicode="fi" horiz-adv-x="537" 
d="M100 0v422h-80v58h80v68q0 83 49.5 133.5t138.5 50.5q85 0 154 -46l-37 -58q-57 40 -120 40q-54 0 -83 -32.5t-29 -94.5v-61h276v-480h-73v422h-203v-422h-73z" />
    <glyph glyph-name="f_j" unicode="fj" horiz-adv-x="531" 
d="M312 -230q-38 0 -52 7l12 61q12 -5 34 -5q38 0 54 29t16 87v473h-203v-422h-73v422h-80v58h80v68q0 83 49.5 133.5t138.5 50.5q85 0 154 -46l-37 -58q-57 40 -120 40q-54 0 -83 -32.5t-29 -94.5v-61h276v-544q0 -166 -137 -166z" />
    <glyph glyph-name="f_k" unicode="fk" horiz-adv-x="774" 
d="M100 0v422h-80v58h80v72q0 86 50.5 133t136.5 47q94 0 171 -24v-708h-73v655q-39 13 -102 13q-110 0 -110 -126v-62h113v-58h-113v-422h-73zM668 0l-205 268l198 212h87l-200 -212l209 -268h-89z" />
    <glyph glyph-name="f_l" unicode="fl" horiz-adv-x="542" 
d="M100 0v422h-80v58h80v72q0 86 50.5 133t136.5 47q94 0 171 -24v-708h-73v655q-39 13 -102 13q-110 0 -110 -126v-62h113v-58h-113v-422h-73z" />
    <glyph glyph-name=".notdef" horiz-adv-x="530" 
d="M82 0v666h366v-666h-366zM143 61h244v544h-244v-544z" />
    <glyph glyph-name=".null" horiz-adv-x="0" 
 />
    <glyph glyph-name=".null" horiz-adv-x="0" 
 />
    <glyph glyph-name="nonmarkingreturn" horiz-adv-x="333" 
 />
    <glyph glyph-name="CR" unicode="&#xd;" horiz-adv-x="225" 
 />
    <glyph glyph-name="space" unicode=" " horiz-adv-x="225" 
 />
    <glyph glyph-name="exclam" unicode="!" horiz-adv-x="275" 
d="M137 -8q-23 0 -40 16.5t-17 40.5q0 23 17 39.5t40 16.5t40 -16.5t17 -39.5q0 -24 -17 -40.5t-40 -16.5zM108 199l-16 467h90l-16 -467h-58z" />
    <glyph glyph-name="quotedbl" unicode="&#x22;" horiz-adv-x="327" 
d="M66 444l-23 222h92l-11 -222h-58zM203 444l-11 222h92l-23 -222h-58z" />
    <glyph glyph-name="numbersign" unicode="#" horiz-adv-x="494" 
d="M99 106l22 144h-98l10 59h97l17 111h-97l9 59h96l20 131h59l-20 -131h101l20 131h59l-20 -131h97l-10 -59h-96l-16 -111h96l-10 -59h-95l-21 -144h-59l21 144h-101l-22 -144h-59zM189 309h101l17 111h-102z" />
    <glyph glyph-name="dollar" unicode="$" horiz-adv-x="408" 
d="M178 -123v111q-81 7 -137 48l32 57q60 -43 129 -43q52 0 80 18t28 51q0 16 -6.5 28t-24 23t-29 17t-40 17.5t-39.5 16.5q-56 25 -87.5 56t-31.5 84q0 50 34 85t92 43v104h71v-103q69 -8 118 -46l-35 -54q-52 39 -119 39q-42 0 -66 -17t-24 -48q0 -17 8 -30t29 -25.5
t33 -18t45 -19.5q27 -11 42.5 -18.5t38 -21t35 -26.5t21.5 -33t9 -43q0 -57 -35 -93t-100 -46v-113h-71z" />
    <glyph glyph-name="percent" unicode="%" horiz-adv-x="746" 
d="M175 213q-69 0 -105 42t-36 97t37 97.5t106 42.5t104.5 -41.5t35.5 -96.5t-36.5 -98t-105.5 -43zM177 261q39 0 59 25t20 66q0 40 -20.5 66t-60.5 26t-60 -25t-20 -65t21 -66.5t61 -26.5zM570 -12q-69 0 -105 42t-36 97t37 97.5t106 42.5t104.5 -41.5t35.5 -96.5
t-36.5 -98t-105.5 -43zM572 36q39 0 59 25t20 66q0 40 -20.5 66t-60.5 26t-60 -25t-20 -65t21 -66.5t61 -26.5zM201 0l287 480h63l-287 -480h-63z" />
    <glyph glyph-name="ampersand" unicode="&#x26;" horiz-adv-x="625" 
d="M261 -12q-102 0 -162.5 52.5t-60.5 129.5q0 61 32.5 104t106.5 84q-44 48 -64 86t-20 80q0 69 49.5 111.5t126.5 42.5q72 0 118 -39.5t46 -101.5q0 -54 -35.5 -96.5t-114.5 -87.5l175 -186q40 64 55 151l70 -12q-18 -108 -79 -189l110 -117h-98l-60 64q-86 -76 -195 -76z
M244 394q61 34 88 67.5t27 73.5q0 34 -25 58t-66 24q-44 0 -70 -25t-26 -64q0 -30 16 -60t56 -74zM263 54q85 0 148 57l-194 204q-101 -57 -101 -142q0 -52 39 -85.5t108 -33.5z" />
    <glyph glyph-name="quotesingle" unicode="'" horiz-adv-x="187" 
d="M64 444l-18 222h95l-18 -222h-59z" />
    <glyph glyph-name="parenleft" unicode="(" horiz-adv-x="309" 
d="M236 -177q-87 95 -134 212.5t-47 244.5q0 124 49 240t132 200h70q-73 -75 -124 -188t-51 -251q0 -259 175 -458h-70z" />
    <glyph glyph-name="parenright" unicode=")" horiz-adv-x="309" 
d="M4 -177q73 75 124 188t51 251q0 259 -175 458h70q87 -95 134 -212.5t47 -244.5q0 -125 -48.5 -240.5t-132.5 -199.5h-70z" />
    <glyph glyph-name="asterisk" unicode="*" horiz-adv-x="454" 
d="M144 327l-46 34l85 114l-136 42l18 54l134 -47l-4 142h64l-4 -142l134 47l19 -54l-137 -42l85 -114l-46 -34l-83 119z" />
    <glyph glyph-name="plus" unicode="+" horiz-adv-x="574" 
d="M255 20v215h-213v61h213v204h69v-204h208v-61h-208v-215h-69z" />
    <glyph glyph-name="comma" unicode="," horiz-adv-x="226" 
d="M59 -145l-31 28q55 53 55 90q0 17 -14 40t-14 42q0 25 16 41t39 16q26 0 44.5 -18t18.5 -49q0 -55 -36 -106.5t-78 -83.5z" />
    <glyph glyph-name="hyphen" unicode="-" horiz-adv-x="309" 
d="M54 255v64h201v-64h-201z" />
    <glyph glyph-name="period" unicode="." horiz-adv-x="220" 
d="M110 -9q-26 0 -43.5 17.5t-17.5 43.5q0 25 17.5 42.5t43.5 17.5t43.5 -17.5t17.5 -42.5q0 -26 -17.5 -43.5t-43.5 -17.5z" />
    <glyph glyph-name="slash" unicode="/" horiz-adv-x="402" 
d="M45 0l241 666h70l-241 -666h-70z" />
    <glyph glyph-name="zero" unicode="0" horiz-adv-x="570" 
d="M283 -12q-61 0 -109 23t-76.5 60t-43 80.5t-14.5 87.5t15 87.5t43.5 81.5t77 61t109.5 23t109.5 -22.5t77 -59.5t43.5 -80.5t15 -88.5q0 -44 -15.5 -87.5t-44.5 -81.5t-77.5 -61t-109.5 -23zM285 51q80 0 123.5 53t43.5 135t-44.5 136t-124.5 54t-122.5 -53t-42.5 -135
t43.5 -136t123.5 -54z" />
    <glyph glyph-name="one" unicode="1" horiz-adv-x="323" 
d="M160 0v412l-111 -38l-15 61l139 45h60v-480h-73z" />
    <glyph glyph-name="two" unicode="2" horiz-adv-x="480" 
d="M27 0v28q6 5 46.5 38.5t63 53t60.5 55.5t59.5 62t38.5 57t17 55q0 36 -23.5 57.5t-70.5 21.5q-73 0 -125 -58l-42 47q32 34 80 54.5t92 20.5q72 0 119.5 -35t47.5 -101q0 -23 -8 -47t-27.5 -50.5t-33.5 -45t-45 -47.5t-42.5 -39.5t-45.5 -38.5t-35 -29q30 3 55 3h230v-62
h-411z" />
    <glyph glyph-name="three" unicode="3" horiz-adv-x="428" 
d="M132 -188q-53 0 -83 4l11 62q22 -5 61 -5q78 0 132.5 38t54.5 103q0 138 -193 138v55q61 1 117 40t56 98q0 39 -25 61t-70 22q-61 0 -118 -52l-38 48q65 68 159 68q79 0 124 -41.5t45 -99.5q0 -56 -42 -101.5t-92 -57.5v-1q64 -9 109.5 -55.5t45.5 -112.5q0 -97 -74 -154
t-180 -57z" />
    <glyph glyph-name="four" unicode="4" horiz-adv-x="560" 
d="M341 -177v177h-311v48l324 432h60v-418h111v-62h-111v-177h-73zM113 62h228v300h-2z" />
    <glyph glyph-name="five" unicode="5" horiz-adv-x="420" 
d="M105 -188q-34 0 -60 6l13 61q28 -4 54 -4q79 0 135 42.5t56 118.5q0 78 -48 114t-130 36q-38 0 -56 -2l20 296h280v-59h-213l-11 -175q116 0 175.5 -59t59.5 -147q0 -97 -74 -162.5t-201 -65.5z" />
    <glyph glyph-name="six" unicode="6" horiz-adv-x="509" 
d="M263 -12q-74 0 -125.5 43.5t-72.5 105t-21 132.5q0 184 103.5 296.5t285.5 112.5l15 -61q-160 0 -244 -90q-65 -68 -77 -184q57 52 144 52q91 0 144 -54.5t53 -142.5t-56.5 -149t-148.5 -61zM267 51q58 0 91 41t33 96q0 69 -32.5 107t-96.5 38q-78 0 -139 -49l-1 -25
q-4 -95 34 -151.5t111 -56.5z" />
    <glyph glyph-name="seven" unicode="7" horiz-adv-x="446" 
d="M114 -198l-63 31l274 582h-309v65h390v-52z" />
    <glyph glyph-name="eight" unicode="8" horiz-adv-x="511" 
d="M254 -12q-96 0 -147.5 51.5t-51.5 122.5q0 108 138 188q-120 73 -120 165q0 70 53.5 116.5t126.5 46.5q88 0 137.5 -46t49.5 -113q0 -88 -130 -163q145 -82 145 -189q0 -80 -56 -129.5t-145 -49.5zM257 52q57 0 89.5 33.5t32.5 82.5q0 78 -135 151q-59 -38 -86.5 -74.5
t-27.5 -77.5q0 -50 35 -82.5t92 -32.5zM258 388q107 63 107 126q0 43 -28.5 72t-78.5 29q-48 0 -78.5 -28t-30.5 -72q0 -33 24.5 -62.5t84.5 -64.5z" />
    <glyph glyph-name="nine" unicode="9" horiz-adv-x="511" 
d="M63 -186l-14 60q163 0 254 90q66 66 78 172q-68 -50 -144 -50q-89 0 -142 56.5t-53 143.5q0 86 59.5 146t149.5 60q47 0 84 -17t60.5 -44.5t39.5 -65t22.5 -76t6.5 -79.5q0 -182 -106 -289t-295 -107zM247 148q83 0 139 46l1 25q4 93 -33 151.5t-107 58.5q-53 0 -90 -39
t-37 -102t32 -101.5t95 -38.5z" />
    <glyph glyph-name="colon" unicode=":" horiz-adv-x="225" 
d="M112 -9q-25 0 -43 18t-18 44q0 25 17.5 42.5t43.5 17.5t43.5 -17.5t17.5 -42.5q0 -26 -18 -44t-43 -18zM112 366q-26 0 -43.5 18t-17.5 43t17.5 43t43.5 18t43.5 -18t17.5 -43t-17.5 -43t-43.5 -18z" />
    <glyph glyph-name="semicolon" unicode=";" horiz-adv-x="226" 
d="M113 366q-25 0 -43 18t-18 43t18 43t43 18t43 -18t18 -43t-18 -43t-43 -18zM59 -145l-31 28q55 53 55 90q0 17 -14 40t-14 42q0 25 16 41t39 16q26 0 44.5 -18t18.5 -49q0 -55 -36 -106.5t-78 -83.5z" />
    <glyph glyph-name="less" unicode="&#x3c;" horiz-adv-x="361" 
d="M277 27l-250 219l250 222l41 -42l-200 -177l200 -176z" />
    <glyph glyph-name="equal" unicode="=" horiz-adv-x="459" 
d="M35 153v63h389v-63h-389zM35 316v63h389v-63h-389z" />
    <glyph glyph-name="greater" unicode="&#x3e;" horiz-adv-x="361" 
d="M84 27l-41 42l200 177l-200 176l41 46l250 -219z" />
    <glyph glyph-name="question" unicode="?" horiz-adv-x="405" 
d="M108 193v63q0 41 15.5 68t58.5 53q34 20 50 32.5t30.5 37t14.5 57.5q0 110 -123 110q-40 0 -82 -21l-27 58q54 27 114 27q94 0 145 -47t51 -123q0 -37 -11.5 -67t-34.5 -52.5t-38.5 -33.5t-41.5 -26q-30 -18 -40 -34.5t-10 -46.5v-55h-71zM145 -8q-23 0 -40 16.5
t-17 40.5q0 23 17 39.5t40 16.5t40 -16.5t17 -39.5q0 -24 -17 -40.5t-40 -16.5z" />
    <glyph glyph-name="at" unicode="@" horiz-adv-x="765" 
d="M369 -91q-150 0 -239.5 95t-89.5 236q0 98 46 185t130.5 140.5t186.5 53.5q61 0 115 -18.5t92 -49t65 -69.5t40.5 -81t13.5 -82q0 -97 -49.5 -166.5t-124.5 -69.5q-49 0 -77 31t-28 81h-2q-21 -50 -58 -81t-81 -31q-43 0 -68.5 34.5t-25.5 80.5q0 105 56 185.5t156 80.5
q30 0 117 -21l-25 -139q-14 -80 -14 -95q0 -29 15 -49.5t38 -20.5q49 0 81.5 51t32.5 122q0 108 -78 180t-191 72q-116 0 -206.5 -95t-90.5 -226q0 -122 73.5 -200t200.5 -78q83 0 149 29l23 -51q-84 -34 -183 -34zM327 145q37 0 68.5 42.5t48.5 92t28 103.5l4 20
q-27 10 -55 10q-59 0 -96 -61t-37 -143q0 -25 10 -44.5t29 -19.5z" />
    <glyph glyph-name="A" unicode="A" horiz-adv-x="627" 
d="M184 231h253l-84 228q-4 10 -41 115h-2q-16 -47 -41 -115zM21 0l255 666h76l256 -666h-85l-61 165h-303l-61 -165h-77z" />
    <glyph glyph-name="B" unicode="B" horiz-adv-x="572" 
d="M96 0v666h176q100 0 159 -40t59 -126q0 -57 -31.5 -94.5t-87.5 -52.5v-2q65 -11 106.5 -54.5t41.5 -109.5q0 -187 -250 -187h-173zM173 65h94q89 0 130 28.5t41 91.5q0 131 -165 131h-100v-251zM173 380h91q76 0 111 28t35 87q0 106 -144 106h-93v-221z" />
    <glyph glyph-name="C" unicode="C" horiz-adv-x="615" 
d="M378 -12q-149 0 -237 102t-88 245q0 142 89 242.5t237 100.5q108 0 187 -50l-39 -59q-64 44 -150 44q-114 0 -178 -80.5t-64 -195.5q0 -118 63.5 -200.5t181.5 -82.5q96 0 163 57l36 -56q-30 -27 -83.5 -47t-117.5 -20z" />
    <glyph glyph-name="D" unicode="D" horiz-adv-x="679" 
d="M96 0v666h156q190 0 283.5 -87.5t93.5 -237.5q0 -153 -95.5 -247t-286.5 -94h-151zM174 64h80q144 0 218.5 70t74.5 205t-72.5 199t-225.5 64h-75v-538z" />
    <glyph glyph-name="E" unicode="E" horiz-adv-x="503" 
d="M96 0v666h342v-66h-264v-214h232v-66h-232v-254h271v-66h-349z" />
    <glyph glyph-name="F" unicode="F" horiz-adv-x="490" 
d="M96 0v666h349v-66h-271v-214h236v-66h-236v-320h-78z" />
    <glyph glyph-name="G" unicode="G" horiz-adv-x="707" 
d="M384 -12q-151 0 -241 103t-90 244q0 92 38.5 169t116 125.5t180.5 48.5q129 0 210 -63l-41 -57q-70 55 -171 55q-123 0 -187 -80t-64 -196q0 -118 64.5 -200.5t186.5 -82.5q109 0 165 41v187h-143v66h221v-291q-82 -69 -245 -69z" />
    <glyph glyph-name="H" unicode="H" horiz-adv-x="725" 
d="M96 0v666h78v-282h377v282h78v-666h-78v318h-377v-318h-78z" />
    <glyph glyph-name="I" unicode="I" horiz-adv-x="282" 
d="M102 0v666h78v-666h-78z" />
    <glyph glyph-name="J" unicode="J" horiz-adv-x="283" 
d="M36 -190q-37 0 -57 10l12 67q16 -7 39 -7q79 0 79 118v668h78v-680q0 -85 -38.5 -130.5t-112.5 -45.5z" />
    <glyph glyph-name="K" unicode="K" horiz-adv-x="569" 
d="M456 0l-280 347l268 319h91l-268 -314l286 -352h-97zM96 0v666h77v-666h-77z" />
    <glyph glyph-name="L" unicode="L" horiz-adv-x="473" 
d="M96 0v666h78v-600h262v-66h-340z" />
    <glyph glyph-name="M" unicode="M" horiz-adv-x="852" 
d="M54 0l91 666h73l165 -453q27 -76 42 -123h2q14 47 42 123l165 453h74l90 -666h-79l-57 436q-8 68 -11 93h-2q-16 -54 -30 -92l-158 -437h-75l-162 437q-7 19 -13 36t-11.5 33t-7.5 23h-2q-2 -20 -10 -95l-53 -434h-73z" />
    <glyph glyph-name="N" unicode="N" horiz-adv-x="711" 
d="M94 0v666h77l314 -451q25 -36 62 -98h2q-4 52 -4 90v459h72v-666h-72l-329 475q-14 20 -52 86h-2q4 -52 4 -73v-488h-72z" />
    <glyph glyph-name="O" unicode="O" horiz-adv-x="760" 
d="M381 -12q-149 0 -238.5 100.5t-89.5 243.5q0 144 89 245t237 101q149 0 238.5 -100.5t89.5 -243.5q0 -144 -89 -245t-237 -101zM379 53q115 0 180.5 80.5t65.5 198.5q0 119 -65 200t-179 81q-115 0 -180.5 -80.5t-65.5 -198.5q0 -119 65 -200t179 -81z" />
    <glyph glyph-name="P" unicode="P" horiz-adv-x="542" 
d="M96 0v666h167q105 0 169.5 -49.5t64.5 -142.5q0 -98 -64 -151.5t-181 -53.5h-78v-269h-78zM174 335h78q165 0 165 136q0 129 -162 129h-81v-265z" />
    <glyph glyph-name="Q" unicode="Q" horiz-adv-x="760" 
d="M624 -162q-70 0 -129 34t-125 116q-144 4 -230.5 104t-86.5 240q0 144 89 245t237 101q149 0 238.5 -100.5t89.5 -243.5q0 -123 -67.5 -218t-183.5 -120q40 -50 77 -72t92 -22q47 0 81 28l29 -58q-40 -34 -111 -34zM379 53q115 0 180.5 80.5t65.5 198.5q0 119 -65 200
t-179 81q-115 0 -180.5 -80.5t-65.5 -198.5q0 -119 65 -200t179 -81z" />
    <glyph glyph-name="R" unicode="R" horiz-adv-x="570" 
d="M96 0v666h181q104 0 162.5 -46.5t58.5 -130.5q0 -80 -52 -124.5t-135 -49.5v-2q20 -14 70 -83l165 -230h-92l-134 189q-57 81 -79 99.5t-56 18.5h-11v-307h-78zM174 371h100q144 0 144 116q0 113 -150 113h-94v-229z" />
    <glyph glyph-name="S" unicode="S" horiz-adv-x="499" 
d="M233 -12q-118 0 -189 68l40 56q63 -59 152 -59q60 0 98 33.5t38 79.5q0 28 -9.5 49.5t-38 42t-40 27.5t-56.5 29q-6 3 -9 5q-50 25 -78.5 44t-52.5 57t-24 88q0 78 56.5 124t137.5 46q106 0 175 -53l-38 -58q-59 46 -138 46q-50 0 -83 -28t-33 -73t30 -72.5t90 -55.5
q29 -14 39 -19t36.5 -19.5t37 -24t29.5 -27.5t26.5 -35t14.5 -41t7 -51q0 -79 -60.5 -129t-157.5 -50z" />
    <glyph glyph-name="T" unicode="T" horiz-adv-x="497" 
d="M209 0v600h-189v66h457v-66h-189v-600h-79z" />
    <glyph glyph-name="U" unicode="U" horiz-adv-x="690" 
d="M348 -12q-132 0 -195 69.5t-63 191.5v417h78v-407q0 -104 44.5 -154t137.5 -50q87 0 132 51.5t45 138.5v421h73v-413q0 -126 -62.5 -195.5t-189.5 -69.5z" />
    <glyph glyph-name="V" unicode="V" horiz-adv-x="616" 
d="M274 0l-256 666h84l171 -459q9 -23 40 -117h2q23 73 39 117l167 459h77l-248 -666h-76z" />
    <glyph glyph-name="W" unicode="W" horiz-adv-x="875" 
d="M203 0l-182 666h85l113 -445q4 -18 24 -116h2q10 48 29 116l128 445h80l126 -442q15 -52 28 -117h2l2 13l4.5 27t7 36.5t9.5 40.5l115 442h77l-183 -666h-71l-129 450q-12 41 -29 128h-2q-9 -47 -33 -128l-132 -450h-71z" />
    <glyph glyph-name="X" unicode="X" horiz-adv-x="565" 
d="M25 0l211 345l-200 321h89l161 -258l152 258h82l-195 -321l215 -345h-89l-176 282l-168 -282h-82z" />
    <glyph glyph-name="Y" unicode="Y" horiz-adv-x="555" 
d="M241 0v252l-223 414h87l178 -340h1l178 340h75l-218 -414v-252h-78z" />
    <glyph glyph-name="Z" unicode="Z" horiz-adv-x="561" 
d="M46 0v55l364 547h-347v64h439v-51l-369 -551h381v-64h-468z" />
    <glyph glyph-name="bracketleft" unicode="[" horiz-adv-x="306" 
d="M80 -161v881h201v-57h-130v-767h130v-57h-201z" />
    <glyph glyph-name="backslash" unicode="\" horiz-adv-x="402" 
d="M325 -161l-318 881h70l318 -881h-70z" />
    <glyph glyph-name="bracketright" unicode="]" horiz-adv-x="306" 
d="M25 -161v57h130v767h-130v57h201v-881h-201z" />
    <glyph glyph-name="asciicircum" unicode="^" horiz-adv-x="584" 
d="M61 288l205 378h51l205 -378h-66l-164 301l-164 -301h-67z" />
    <glyph glyph-name="underscore" unicode="_" horiz-adv-x="395" 
d="M-1 -159v61h397v-61h-397z" />
    <glyph glyph-name="grave" unicode="`" horiz-adv-x="500" 
d="M284 540l-135 126h109l92 -126h-66z" />
    <glyph glyph-name="a" unicode="a" horiz-adv-x="472" 
d="M181 -12q-61 0 -99 35.5t-38 93.5q0 45 23 79t62 51.5t81.5 26t89.5 8.5h21v45q0 53 -23 76.5t-73 23.5q-66 0 -125 -52l-39 51q70 66 169 66q164 0 164 -159v-224q0 -67 11 -109h-73q-4 19 -7 58q-56 -70 -144 -70zM193 51q76 0 128 69v108h-21q-178 0 -178 -109
q0 -34 22.5 -51t48.5 -17z" />
    <glyph glyph-name="b" unicode="b" horiz-adv-x="519" 
d="M237 -12q-99 0 -158 37v695h73v-278q48 50 120 50q97 0 152 -68.5t55 -181.5q0 -110 -68.5 -182t-173.5 -72zM238 51q77 0 120 55.5t43 133.5q0 82 -35 134t-108 52q-29 0 -59 -14t-47 -33v-313q32 -15 86 -15z" />
    <glyph glyph-name="c" unicode="c" horiz-adv-x="440" 
d="M258 -12q-102 0 -160 73.5t-58 178.5q0 118 63.5 185t157.5 67q86 0 147 -48l-35 -55q-53 40 -113 40q-71 0 -106.5 -51.5t-35.5 -135.5q0 -82 36.5 -136.5t107.5 -54.5q66 0 117 40l30 -55q-57 -48 -151 -48z" />
    <glyph glyph-name="d" unicode="d" horiz-adv-x="523" 
d="M238 -12q-88 0 -143 67t-55 184q0 113 60 183t152 70q76 0 122 -42v270h73v-622q0 -48 12 -98h-73q-7 24 -9 55q-54 -67 -139 -67zM253 54q72 0 121 66v265q-47 44 -115 44q-66 0 -103.5 -52.5t-37.5 -135.5q0 -86 33 -136.5t102 -50.5z" />
    <glyph glyph-name="e" unicode="e" horiz-adv-x="490" 
d="M267 -12q-109 0 -168 71.5t-59 183.5q0 107 60.5 178t155.5 71q88 0 138.5 -58.5t50.5 -157.5q0 -10 -2 -34h-325q2 -84 38.5 -137.5t112.5 -53.5q64 0 133 43l30 -57q-74 -49 -165 -49zM122 300h248q-2 56 -30 92.5t-86 36.5q-55 0 -88.5 -35t-43.5 -94z" />
    <glyph glyph-name="f" unicode="f" horiz-adv-x="317" 
d="M100 0v422h-80v58h80v71q0 83 46.5 132t128.5 49q54 0 80 -13l-19 -63q-24 12 -63 12q-48 0 -74 -31.5t-26 -90.5v-66h122v-58h-122v-422h-73z" />
    <glyph glyph-name="g" unicode="g" horiz-adv-x="502" 
d="M232 -237q-87 0 -139.5 34.5t-52.5 101.5q0 41 26.5 73.5t66.5 51.5v2q-49 24 -49 76q0 51 54 82v2q-80 45 -80 140q0 73 49.5 119.5t132.5 46.5q40 0 74 -12h156v-58h-81q36 -43 36 -96q0 -72 -51.5 -119t-133.5 -47q-24 0 -50 6q-35 -18 -35 -47q0 -43 69 -46
q11 -1 40.5 -2t43.5 -2t40.5 -4.5t40.5 -8.5t33 -15t28.5 -23.5t16.5 -33.5t7 -46q0 -76 -70.5 -125.5t-171.5 -49.5zM238 -179q70 0 115.5 30t45.5 77q0 11 -2.5 20.5t-5 16.5t-9 12.5t-10.5 9t-14 6.5t-14.5 4.5t-17.5 3t-16.5 2t-17.5 1t-17 0.5q-74 5 -90 7
q-71 -40 -71 -104q0 -39 31.5 -62.5t92.5 -23.5zM242 220q50 0 79 29.5t29 76.5t-30.5 76.5t-79.5 29.5t-78 -29t-29 -77q0 -47 30 -76.5t79 -29.5z" />
    <glyph glyph-name="h" unicode="h" horiz-adv-x="527" 
d="M79 0v720h73v-309q63 81 156 81q72 0 106.5 -41.5t34.5 -108.5v-342h-73v328q0 98 -85 98q-76 0 -139 -88v-338h-73z" />
    <glyph glyph-name="i" unicode="i" horiz-adv-x="250" 
d="M125 570q-23 0 -38.5 16t-15.5 38t15.5 38t38.5 16t38.5 -16t15.5 -38t-15.5 -38t-38.5 -16zM88 0v480h74v-480h-74z" />
    <glyph glyph-name="j" unicode="j" horiz-adv-x="239" 
d="M20 -230q-38 0 -52 7l12 61q12 -5 34 -5q38 0 54 29t16 87v531h73v-544q0 -166 -137 -166zM119 570q-23 0 -38.5 16t-15.5 38t15.5 38t38.5 16t38.5 -16t15.5 -38t-15.5 -38t-38.5 -16z" />
    <glyph glyph-name="k" unicode="k" horiz-adv-x="468" 
d="M362 0l-205 268l198 212h87l-200 -212l209 -268h-89zM79 0v720h73v-720h-73z" />
    <glyph glyph-name="l" unicode="l" horiz-adv-x="241" 
d="M84 0v720h73v-720h-73z" />
    <glyph glyph-name="m" unicode="m" horiz-adv-x="793" 
d="M82 0v480h73v-68q65 80 147 80q94 0 123 -81q73 81 155 81q69 0 102 -41t33 -109v-342h-73v328q0 98 -79 98q-69 0 -128 -75v-351h-73v328q0 98 -77 98q-68 0 -130 -87v-339h-73z" />
    <glyph glyph-name="n" unicode="n" horiz-adv-x="530" 
d="M82 0v480h73v-69q64 81 156 81q72 0 106.5 -41.5t34.5 -108.5v-342h-73v328q0 98 -85 98q-75 0 -139 -88v-338h-73z" />
    <glyph glyph-name="o" unicode="o" horiz-adv-x="528" 
d="M262 -12q-58 0 -102.5 23t-69.5 61t-37.5 80.5t-12.5 86.5q0 45 12 87.5t36.5 80.5t68.5 61.5t102 23.5t103.5 -23t72 -60.5t40 -80.5t13.5 -87t-13 -87t-39 -81t-71 -61.5t-103 -23.5zM263 51q72 0 109.5 53t37.5 135q0 81 -40 135.5t-112 54.5q-71 0 -105.5 -52.5
t-34.5 -135.5t37 -136.5t108 -53.5z" />
    <glyph glyph-name="p" unicode="p" horiz-adv-x="529" 
d="M82 -219v699h73v-52q53 64 139 64q89 0 142 -66.5t53 -184.5q0 -113 -59.5 -183t-152.5 -70q-75 0 -122 42v-249h-73zM270 51q67 0 104 52t37 136t-33 135.5t-99 51.5q-44 0 -76 -22t-48 -45v-264q48 -44 115 -44z" />
    <glyph glyph-name="q" unicode="q" horiz-adv-x="522" 
d="M367 -217v255q-48 -50 -120 -50q-97 0 -152 69t-55 181q0 109 69.5 181.5t172.5 72.5q102 0 158 -37v-672h-73zM261 54q35 0 65.5 17.5t40.5 29.5v311q-38 17 -86 17q-77 0 -120 -55.5t-43 -133.5q0 -82 35 -134t108 -52z" />
    <glyph glyph-name="r" unicode="r" horiz-adv-x="345" 
d="M82 0v480h73v-75q52 87 128 87q30 0 50 -10l-18 -70q-13 8 -42 8q-32 0 -61 -23t-40 -41.5t-17 -33.5v-322h-73z" />
    <glyph glyph-name="s" unicode="s" horiz-adv-x="408" 
d="M193 -13q-86 0 -152 46l32 56q54 -39 119 -39q45 0 71.5 18t26.5 51q0 31 -23.5 49.5t-82.5 43.5q-66 28 -99 60t-33 88q0 57 41 94.5t111 37.5q84 0 142 -46l-36 -53q-47 36 -107 36q-38 0 -59 -17.5t-21 -48.5t22 -48.5t70 -37.5q36 -15 57.5 -26.5t45.5 -29t35 -40.5
t11 -52q0 -65 -46 -103.5t-125 -38.5z" />
    <glyph glyph-name="t" unicode="t" horiz-adv-x="348" 
d="M224 -12q-59 0 -89.5 33t-30.5 94v307h-79v58h79v137h73v-137h121v-58h-121v-300q0 -37 12.5 -54t43.5 -17q37 0 65 21l27 -55q-45 -29 -101 -29z" />
    <glyph glyph-name="u" unicode="u" horiz-adv-x="528" 
d="M218 -12q-72 0 -107 41.5t-35 108.5v342h73v-328q0 -98 86 -98q75 0 138 88v338h73v-379q0 -58 9 -101h-74q-5 32 -7 71q-61 -83 -156 -83z" />
    <glyph glyph-name="v" unicode="v" horiz-adv-x="462" 
d="M199 0l-183 480h80l137 -384h2l134 384h75l-177 -480h-68z" />
    <glyph glyph-name="w" unicode="w" horiz-adv-x="698" 
d="M160 0l-143 480h80l102 -363h2l113 363h71l113 -364h2l103 364h74l-144 -480h-66l-119 373h-2l-120 -373h-66z" />
    <glyph glyph-name="x" unicode="x" horiz-adv-x="462" 
d="M22 0l166 251l-156 229h83q110 -163 116 -172l109 172h77l-150 -224l174 -256h-83l-135 199l-125 -199h-76z" />
    <glyph glyph-name="y" unicode="y" horiz-adv-x="469" 
d="M57 -232q-23 0 -46 5l10 61q21 -3 37 -3q48 0 74 26t47 83l23 63l-181 477h82l137 -383h2l133 383h78l-204 -544q-30 -81 -71 -124.5t-121 -43.5z" />
    <glyph glyph-name="z" unicode="z" horiz-adv-x="423" 
d="M42 0v46l244 375h-230v59h319v-49l-245 -372h249v-59h-337z" />
    <glyph glyph-name="braceleft" unicode="{" horiz-adv-x="358" 
d="M247 -161q-44 0 -76 27.5t-32 80.5v201q0 49 -30 78.5t-81 30.5v56q51 1 81 30t30 79v191q0 53 31.5 80t75.5 27h87v-57h-66q-33 0 -45 -19.5t-12 -59.5v-175q0 -95 -100 -121v-2q100 -29 100 -128v-187q0 -39 11.5 -57t44.5 -18h67v-57h-86z" />
    <glyph glyph-name="bar" unicode="|" horiz-adv-x="284" 
d="M112 -250v1000h60v-1000h-60z" />
    <glyph glyph-name="braceright" unicode="}" horiz-adv-x="358" 
d="M25 -161v57h66q33 0 45 19.5t12 59.5v186q0 95 100 121v2q-100 29 -100 128v176q0 39 -11.5 57t-44.5 18h-67v57h86q44 0 76 -27.5t32 -80.5v-190q0 -49 30 -78.5t81 -30.5v-56q-51 -1 -81 -30t-30 -79v-202q0 -53 -31.5 -80t-75.5 -27h-87z" />
    <glyph glyph-name="asciitilde" unicode="~" horiz-adv-x="588" 
d="M398 178q-46 0 -85 17.5t-71 35t-62 17.5q-45 0 -89 -40l-36 45q66 59 131 59q45 0 108 -34.5t110 -34.5q45 0 95 41l34 -45q-63 -61 -135 -61z" />
    <glyph glyph-name="uni00A0" unicode="&#xa0;" horiz-adv-x="225" 
 />
    <glyph glyph-name="exclamdown" unicode="&#xa1;" horiz-adv-x="275" 
d="M138 379q-23 0 -40 16.5t-17 39.5q0 24 17 40.5t40 16.5t40 -16.5t17 -40.5q0 -23 -17 -39.5t-40 -16.5zM93 -182l16 467h58l16 -467h-90z" />
    <glyph glyph-name="cent" unicode="&#xa2;" horiz-adv-x="440" 
d="M213 -123v115q-83 17 -128 86.5t-45 161.5q0 102 48.5 166t124.5 81v106h71v-102q69 -5 124 -47l-35 -55q-53 40 -113 40q-71 0 -106.5 -51.5t-35.5 -135.5q0 -82 36.5 -136.5t107.5 -54.5q66 0 117 40l30 -55q-49 -40 -125 -47v-112h-71z" />
    <glyph glyph-name="sterling" unicode="&#xa3;" horiz-adv-x="468" 
d="M61 297v59h88q-12 84 -12 138q0 84 44.5 134t135.5 50q66 0 120 -34l-33 -56q-41 26 -97 26q-94 0 -94 -122q0 -28 11 -136h151v-59h-145q3 -27 3 -49q0 -67 -23.5 -115.5t-51.5 -70.5h258v-62h-362v49q54 30 80.5 85t26.5 111q0 14 -4 52h-96z" />
    <glyph glyph-name="currency" unicode="&#xa4;" horiz-adv-x="542" 
d="M101 -12l-51 38l78 99q-47 53 -47 127q0 76 51 130l-80 101l51 38l77 -104q43 20 92 20q47 0 84 -16l77 100l50 -38l-76 -95q57 -54 57 -136q0 -80 -53 -133l72 -93l-51 -38l-71 96q-41 -18 -89 -18q-55 0 -96 22zM272 123q56 0 90 37t34 92t-34 92t-90 37
q-55 0 -89.5 -37.5t-34.5 -91.5q0 -55 34.5 -92t89.5 -37z" />
    <glyph glyph-name="yen" unicode="&#xa5;" horiz-adv-x="520" 
d="M226 0v95h-161v59h161v71h-161v59h143l-206 382h87l177 -340h2l178 340h75l-202 -382h144v-59h-161v-71h161v-59h-161v-95h-76z" />
    <glyph glyph-name="brokenbar" unicode="&#xa6;" horiz-adv-x="177" 
d="M57 -250v378h60v-378h-60zM57 382v368h60v-368h-60z" />
    <glyph glyph-name="section" unicode="&#xa7;" horiz-adv-x="468" 
d="M205 -152q-67 0 -115 33l32 56q41 -25 83 -25t63.5 23t21.5 60q0 29 -23 64.5t-55.5 69.5t-65 70.5t-55.5 80t-23 84.5q0 79 68 124q-32 46 -32 93q0 70 47 110.5t107 40.5q72 0 117 -35l-35 -56q-1 1 -6 4.5t-7 4.5t-7.5 4.5t-9 5t-10 3.5t-12.5 3t-13.5 2t-16.5 1
q-40 0 -61.5 -25t-21.5 -58q0 -30 23 -65.5t55.5 -69.5t65.5 -70.5t56 -80t23 -84.5q0 -65 -67 -126q30 -49 30 -90q0 -75 -46 -113.5t-110 -38.5zM293 141q34 31 34 75q0 24 -20 58.5t-39.5 58t-54.5 61.5t-41 45q-32 -22 -32 -75q0 -23 19.5 -57t40 -59t53 -61.5
t40.5 -45.5z" />
    <glyph glyph-name="dieresis" unicode="&#xa8;" horiz-adv-x="500" 
d="M156 538q-22 0 -37.5 16t-15.5 38t15.5 37.5t37.5 15.5t38 -15.5t16 -37.5t-16 -38t-38 -16zM343 538q-22 0 -37.5 16t-15.5 38t15.5 37.5t37.5 15.5t38 -15.5t16 -37.5t-15.5 -38t-38.5 -16z" />
    <glyph glyph-name="copyright" unicode="&#xa9;" horiz-adv-x="865" 
d="M440 127q-98 0 -163.5 68t-65.5 164q0 98 66 165t163 67q78 0 141 -50l-38 -48q-46 39 -104 39q-74 0 -115 -52t-41 -119q0 -73 46.5 -124t114.5 -51q62 0 116 44l31 -51q-66 -52 -151 -52zM432 -14q-154 0 -263 109.5t-109 263.5t109 263.5t263 109.5t263.5 -109
t109.5 -264t-109.5 -264t-263.5 -109zM432 38q137 0 227 90.5t90 230.5q0 139 -90 230t-227 91q-136 0 -226 -91t-90 -230q0 -140 90 -230.5t226 -90.5z" />
    <glyph glyph-name="ordfeminine" unicode="&#xaa;" horiz-adv-x="361" 
d="M139 315q-45 0 -75 27t-30 69q0 48 36 79q48 40 161 40v27q0 34 -15 51t-50 17q-41 0 -87 -35l-33 42q55 46 123 46q122 0 122 -116v-157q0 -44 9 -82h-62q-3 17 -5 35q-41 -43 -94 -43zM147 367q46 0 84 44v73q-91 0 -120 -31q-14 -15 -14 -40q0 -21 14 -33.5t36 -12.5z
" />
    <glyph glyph-name="guillemotleft" unicode="&#xab;" horiz-adv-x="476" 
d="M178 56l-133 189l133 190h77l-132 -190l132 -189h-77zM356 56l-133 189l133 190h77l-132 -190l132 -189h-77z" />
    <glyph glyph-name="logicalnot" unicode="&#xac;" horiz-adv-x="588" 
d="M470 33v204h-430v64h498v-268h-68z" />
    <glyph glyph-name="uni00AD" unicode="&#xad;" horiz-adv-x="309" 
d="M54 255v64h201v-64h-201z" />
    <glyph glyph-name="registered" unicode="&#xae;" horiz-adv-x="865" 
d="M297 136v452h147q66 0 102.5 -37t36.5 -90q0 -49 -31.5 -79t-88.5 -38q22 -16 53 -59l105 -149h-79l-109 159q-18 26 -32 35t-39 9v-203h-65zM432 -14q-154 0 -263 109.5t-109 263.5t109 263.5t263 109.5t263.5 -109t109.5 -264t-109.5 -264t-263.5 -109zM432 38
q137 0 227 90.5t90 230.5q0 139 -90 230t-227 91q-136 0 -226 -91t-90 -230q0 -140 90 -230.5t226 -90.5zM362 390h46q31 0 51 3.5t37 20.5t17 47q0 71 -84 71h-67v-142z" />
    <glyph glyph-name="macron" unicode="&#xaf;" horiz-adv-x="500" 
d="M114 574v61h271v-61h-271z" />
    <glyph glyph-name="degree" unicode="&#xb0;" horiz-adv-x="346" 
d="M173 418q-54 0 -92.5 38.5t-38.5 91.5t38.5 91.5t92.5 38.5t92.5 -38.5t38.5 -91.5q0 -54 -38 -92t-93 -38zM173 469q33 0 54.5 23t21.5 56t-21.5 56t-54.5 23t-54.5 -23t-21.5 -56t21.5 -56t54.5 -23z" />
    <glyph glyph-name="plusminus" unicode="&#xb1;" horiz-adv-x="574" 
d="M255 20v215h-213v61h213v204h69v-204h208v-61h-208v-215h-69zM72 -115v64h435v-64h-435z" />
    <glyph glyph-name="twosuperior" unicode="&#xb2;" horiz-adv-x="335" 
d="M34 337v34q38 31 58 48t50.5 47t44.5 56t14 50q0 50 -56 50q-41 0 -79 -32l-34 39q52 43 123 43q57 0 85 -25t28 -68q0 -48 -37.5 -94.5t-102.5 -98.5q3 0 18 0.5t23 0.5h117v-50h-252z" />
    <glyph glyph-name="threesuperior" unicode="&#xb3;" horiz-adv-x="306" 
d="M95 331q-46 0 -69 10l13 49q23 -9 53 -9q44 0 70 14t26 40q0 52 -111 54v43q44 1 72 15.5t28 38.5q0 36 -55 36q-38 0 -70 -27l-28 39q16 14 47.5 26t64.5 12q106 0 106 -75q0 -61 -70 -78v-1q35 -3 58.5 -25t23.5 -57q0 -51 -42 -78t-117 -27z" />
    <glyph glyph-name="acute" unicode="&#xb4;" horiz-adv-x="500" 
d="M149 540l92 126h109l-135 -126h-66z" />
    <glyph glyph-name="mu" unicode="&#xb5;" horiz-adv-x="526" 
d="M76 -217v697h73v-336q0 -41 15 -65.5t58 -24.5q79 0 151 87v339h73v-384q0 -56 7 -96h-73q-5 26 -7 69q-75 -81 -158 -81q-41 0 -67 17h-2q3 -34 3 -111v-111h-73z" />
    <glyph glyph-name="paragraph" unicode="&#xb6;" horiz-adv-x="644" 
d="M260 -177v451q-82 0 -138.5 54t-56.5 141q0 88 56 142.5t139 54.5h319v-63h-80v-780h-67v780h-104v-780h-68z" />
    <glyph glyph-name="periodcentered" unicode="&#xb7;" horiz-adv-x="220" 
d="M110 230q-26 0 -43.5 18t-17.5 43t17.5 42.5t43.5 17.5t43.5 -17.5t17.5 -42.5t-17.5 -43t-43.5 -18z" />
    <glyph glyph-name="cedilla" unicode="&#xb8;" horiz-adv-x="500" 
d="M226 -219q-40 0 -66 12l12 42q20 -11 53 -11q50 0 50 39q0 43 -71 41l36 96h51l-25 -66q31 -5 50.5 -23.5t19.5 -46.5q0 -39 -31.5 -61t-78.5 -22z" />
    <glyph glyph-name="onesuperior" unicode="&#xb9;" horiz-adv-x="256" 
d="M105 337v275l-72 -20l-15 49l102 25h47v-329h-62z" />
    <glyph glyph-name="ordmasculine" unicode="&#xba;" horiz-adv-x="393" 
d="M195 315q-80 0 -120 53.5t-40 127.5q0 75 39.5 129t118.5 54q80 0 122.5 -54t42.5 -127q0 -74 -41.5 -128.5t-121.5 -54.5zM196 367q94 0 94 129q0 59 -24.5 94.5t-73.5 35.5q-90 0 -90 -128q0 -131 94 -131z" />
    <glyph glyph-name="guillemotright" unicode="&#xbb;" horiz-adv-x="476" 
d="M43 56l132 189l-132 190h76l134 -190l-134 -189h-76zM221 56l132 189l-132 190h76l134 -190l-134 -189h-76z" />
    <glyph glyph-name="onequarter" unicode="&#xbc;" horiz-adv-x="647" 
d="M105 337v275l-72 -20l-15 49l102 25h47v-329h-62zM66 0l417 666h61l-417 -666h-61zM517 0v69h-175v42l178 218h58v-211h55v-49h-55v-69h-61zM412 116q18 2 45 2h61v129h-1z" />
    <glyph glyph-name="onehalf" unicode="&#xbd;" horiz-adv-x="689" 
d="M105 337v275l-72 -20l-15 49l102 25h47v-329h-62zM66 0l417 666h61l-417 -666h-61zM388 0v34q38 31 58 48t50.5 47t44.5 56t14 50q0 50 -56 50q-41 0 -79 -32l-34 39q52 43 123 43q57 0 85 -25t28 -68q0 -48 -37.5 -94.5t-102.5 -98.5q3 0 18 0.5t23 0.5h117v-50h-252z
" />
    <glyph glyph-name="threequarters" unicode="&#xbe;" horiz-adv-x="697" 
d="M95 331q-46 0 -69 10l13 49q23 -9 53 -9q44 0 70 14t26 40q0 52 -111 54v43q44 1 72 15.5t28 38.5q0 36 -55 36q-38 0 -70 -27l-28 39q16 14 47.5 26t64.5 12q106 0 106 -75q0 -61 -70 -78v-1q35 -3 58.5 -25t23.5 -57q0 -51 -42 -78t-117 -27zM116 0l417 666h61
l-417 -666h-61zM567 0v69h-175v42l178 218h58v-211h55v-49h-55v-69h-61zM462 116q18 2 45 2h61v129h-1z" />
    <glyph glyph-name="questiondown" unicode="&#xbf;" horiz-adv-x="400" 
d="M246 -194q-94 0 -145 47t-51 123q0 37 11.5 67t34.5 52.5t38.5 33.5t41.5 26q30 18 40 34.5t10 46.5v55h71v-63q0 -41 -15.5 -68t-58.5 -53q-34 -20 -50 -32.5t-30.5 -37t-14.5 -57.5q0 -110 123 -110q40 0 82 21l27 -58q-54 -27 -114 -27zM260 379q-23 0 -40 16.5
t-17 39.5q0 24 17 40.5t40 16.5t40 -16.5t17 -40.5q0 -23 -17 -39.5t-40 -16.5z" />
    <glyph glyph-name="Agrave" unicode="&#xc0;" horiz-adv-x="627" 
d="M184 231h253l-84 228q-4 10 -41 115h-2q-16 -47 -41 -115zM21 0l255 666h76l256 -666h-85l-61 165h-303l-61 -165h-77zM282 720l-135 126h109l92 -126h-66z" />
    <glyph glyph-name="Aacute" unicode="&#xc1;" horiz-adv-x="627" 
d="M184 231h253l-84 228q-4 10 -41 115h-2q-16 -47 -41 -115zM21 0l255 666h76l256 -666h-85l-61 165h-303l-61 -165h-77zM277 720l92 126h109l-135 -126h-66z" />
    <glyph glyph-name="Acircumflex" unicode="&#xc2;" horiz-adv-x="627" 
d="M184 231h253l-84 228q-4 10 -41 115h-2q-16 -47 -41 -115zM21 0l255 666h76l256 -666h-85l-61 165h-303l-61 -165h-77zM162 721l123 153h54l121 -153h-69l-81 85l-79 -85h-69z" />
    <glyph glyph-name="Atilde" unicode="&#xc3;" horiz-adv-x="627" 
d="M184 231h253l-84 228q-4 10 -41 115h-2q-16 -47 -41 -115zM21 0l255 666h76l256 -666h-85l-61 165h-303l-61 -165h-77zM360 723q-25 0 -56.5 19.5t-49.5 19.5q-7 0 -13 -2t-12 -6.5t-9.5 -8t-8.5 -9t-6 -6.5l-39 37q43 60 94 60q26 0 57 -19.5t49 -19.5q26 0 51 31
l39 -38q-45 -58 -96 -58z" />
    <glyph glyph-name="Adieresis" unicode="&#xc4;" horiz-adv-x="627" 
d="M184 231h253l-84 228q-4 10 -41 115h-2q-16 -47 -41 -115zM21 0l255 666h76l256 -666h-85l-61 165h-303l-61 -165h-77zM217 718q-22 0 -37.5 16t-15.5 38t15.5 37.5t37.5 15.5t38 -15.5t16 -37.5t-15.5 -38t-38.5 -16zM404 718q-22 0 -37.5 16t-15.5 38t15.5 37.5
t37.5 15.5t38 -15.5t16 -37.5t-16 -38t-38 -16z" />
    <glyph glyph-name="Aring" unicode="&#xc5;" horiz-adv-x="627" 
d="M184 231h253l-84 228q-4 10 -41 115h-2q-16 -47 -41 -115zM21 0l255 666h76l256 -666h-85l-61 165h-303l-61 -165h-77zM311 703q-38 0 -66.5 28t-28.5 67t28.5 67t66.5 28t66.5 -28t28.5 -67t-28.5 -67t-66.5 -28zM311 743q22 0 36 16t14 39t-13.5 39t-36.5 16t-36.5 -16
t-13.5 -39t14 -39t36 -16z" />
    <glyph glyph-name="AE" unicode="&#xc6;" horiz-adv-x="815" 
d="M-15 0l383 666h382v-66h-264v-214h232v-66h-232v-254h271v-66h-349v182h-236l-102 -182h-85zM209 247h199v355z" />
    <glyph glyph-name="Ccedilla" unicode="&#xc7;" horiz-adv-x="615" 
d="M314 -219q-40 0 -66 12l12 42q20 -11 53 -11q50 0 50 39q0 43 -71 41l33 88q-127 19 -199.5 116.5t-72.5 226.5q0 142 89 242.5t237 100.5q108 0 187 -50l-39 -59q-64 44 -150 44q-114 0 -178 -80.5t-64 -195.5q0 -118 63.5 -200.5t181.5 -82.5q96 0 163 57l36 -56
q-30 -27 -83.5 -47t-117.5 -20h-4l-20 -54q31 -5 50.5 -23.5t19.5 -46.5q0 -39 -31.5 -61t-78.5 -22z" />
    <glyph glyph-name="Egrave" unicode="&#xc8;" horiz-adv-x="503" 
d="M96 0v666h342v-66h-264v-214h232v-66h-232v-254h271v-66h-349zM244 720l-135 126h109l92 -126h-66z" />
    <glyph glyph-name="Eacute" unicode="&#xc9;" horiz-adv-x="503" 
d="M96 0v666h342v-66h-264v-214h232v-66h-232v-254h271v-66h-349zM239 720l92 126h109l-135 -126h-66z" />
    <glyph glyph-name="Ecircumflex" unicode="&#xca;" horiz-adv-x="503" 
d="M96 0v666h342v-66h-264v-214h232v-66h-232v-254h271v-66h-349zM124 721l123 153h54l121 -153h-69l-81 85l-79 -85h-69z" />
    <glyph glyph-name="Edieresis" unicode="&#xcb;" horiz-adv-x="503" 
d="M96 0v666h342v-66h-264v-214h232v-66h-232v-254h271v-66h-349zM179 718q-22 0 -37.5 16t-15.5 38t15.5 37.5t37.5 15.5t38 -15.5t16 -37.5t-15.5 -38t-38.5 -16zM366 718q-22 0 -37.5 16t-15.5 38t15.5 37.5t37.5 15.5t38 -15.5t16 -37.5t-16 -38t-38 -16z" />
    <glyph glyph-name="Igrave" unicode="&#xcc;" horiz-adv-x="282" 
d="M102 0v666h78v-666h-78zM112 720l-135 126h109l92 -126h-66z" />
    <glyph glyph-name="Iacute" unicode="&#xcd;" horiz-adv-x="282" 
d="M102 0v666h78v-666h-78zM107 720l92 126h109l-135 -126h-66z" />
    <glyph glyph-name="Icircumflex" unicode="&#xce;" horiz-adv-x="282" 
d="M102 0v666h78v-666h-78zM-8 721l123 153h54l121 -153h-69l-81 85l-79 -85h-69z" />
    <glyph glyph-name="Idieresis" unicode="&#xcf;" horiz-adv-x="282" 
d="M102 0v666h78v-666h-78zM47 718q-22 0 -37.5 16t-15.5 38t15.5 37.5t37.5 15.5t38 -15.5t16 -37.5t-15.5 -38t-38.5 -16zM234 718q-22 0 -37.5 16t-15.5 38t15.5 37.5t37.5 15.5t38 -15.5t16 -37.5t-16 -38t-38 -16z" />
    <glyph glyph-name="Eth" unicode="&#xd0;" horiz-adv-x="657" 
d="M96 0v314h-70v58h70v294h156q190 0 283.5 -87.5t93.5 -237.5q0 -153 -95.5 -247t-286.5 -94h-151zM174 64h80q144 0 218.5 70t74.5 205t-72.5 199t-225.5 64h-75v-230h111v-58h-111v-250z" />
    <glyph glyph-name="Ntilde" unicode="&#xd1;" horiz-adv-x="711" 
d="M94 0v666h77l314 -451q25 -36 62 -98h2q-4 52 -4 90v459h72v-666h-72l-329 475q-14 20 -52 86h-2q4 -52 4 -73v-488h-72zM404 723q-25 0 -56.5 19.5t-49.5 19.5q-7 0 -13 -2t-12 -6.5t-9.5 -8t-8.5 -9t-6 -6.5l-39 37q43 60 94 60q26 0 57 -19.5t49 -19.5q26 0 51 31
l39 -38q-45 -58 -96 -58z" />
    <glyph glyph-name="Ograve" unicode="&#xd2;" horiz-adv-x="760" 
d="M381 -12q-149 0 -238.5 100.5t-89.5 243.5q0 144 89 245t237 101q149 0 238.5 -100.5t89.5 -243.5q0 -144 -89 -245t-237 -101zM379 53q115 0 180.5 80.5t65.5 198.5q0 119 -65 200t-179 81q-115 0 -180.5 -80.5t-65.5 -198.5q0 -119 65 -200t179 -81zM351 720l-135 126
h109l92 -126h-66z" />
    <glyph glyph-name="Oacute" unicode="&#xd3;" horiz-adv-x="760" 
d="M381 -12q-149 0 -238.5 100.5t-89.5 243.5q0 144 89 245t237 101q149 0 238.5 -100.5t89.5 -243.5q0 -144 -89 -245t-237 -101zM379 53q115 0 180.5 80.5t65.5 198.5q0 119 -65 200t-179 81q-115 0 -180.5 -80.5t-65.5 -198.5q0 -119 65 -200t179 -81zM346 720l92 126
h109l-135 -126h-66z" />
    <glyph glyph-name="Ocircumflex" unicode="&#xd4;" horiz-adv-x="760" 
d="M381 -12q-149 0 -238.5 100.5t-89.5 243.5q0 144 89 245t237 101q149 0 238.5 -100.5t89.5 -243.5q0 -144 -89 -245t-237 -101zM379 53q115 0 180.5 80.5t65.5 198.5q0 119 -65 200t-179 81q-115 0 -180.5 -80.5t-65.5 -198.5q0 -119 65 -200t179 -81zM231 721l123 153
h54l121 -153h-69l-81 85l-79 -85h-69z" />
    <glyph glyph-name="Otilde" unicode="&#xd5;" horiz-adv-x="760" 
d="M381 -12q-149 0 -238.5 100.5t-89.5 243.5q0 144 89 245t237 101q149 0 238.5 -100.5t89.5 -243.5q0 -144 -89 -245t-237 -101zM379 53q115 0 180.5 80.5t65.5 198.5q0 119 -65 200t-179 81q-115 0 -180.5 -80.5t-65.5 -198.5q0 -119 65 -200t179 -81zM429 723
q-25 0 -56.5 19.5t-49.5 19.5q-7 0 -13 -2t-12 -6.5t-9.5 -8t-8.5 -9t-6 -6.5l-39 37q43 60 94 60q27 0 58 -19.5t48 -19.5q26 0 51 31l39 -38q-45 -58 -96 -58z" />
    <glyph glyph-name="Odieresis" unicode="&#xd6;" horiz-adv-x="760" 
d="M381 -12q-149 0 -238.5 100.5t-89.5 243.5q0 144 89 245t237 101q149 0 238.5 -100.5t89.5 -243.5q0 -144 -89 -245t-237 -101zM379 53q115 0 180.5 80.5t65.5 198.5q0 119 -65 200t-179 81q-115 0 -180.5 -80.5t-65.5 -198.5q0 -119 65 -200t179 -81zM286 718
q-22 0 -37.5 16t-15.5 38t15.5 37.5t37.5 15.5t38 -15.5t16 -37.5t-16 -38t-38 -16zM473 718q-22 0 -37.5 16t-15.5 38t15.5 37.5t37.5 15.5t38 -15.5t16 -37.5t-15.5 -38t-38.5 -16z" />
    <glyph glyph-name="multiply" unicode="&#xd7;" horiz-adv-x="511" 
d="M387 84l-137 136l-129 -129l-45 45l129 129l-129 130l48 48l130 -129l129 129l45 -45l-129 -129l137 -137z" />
    <glyph glyph-name="Oslash" unicode="&#xd8;" horiz-adv-x="760" 
d="M624 721l44 -33l-65 -96q104 -99 104 -258q0 -144 -89 -245t-237 -101q-88 0 -159 38l-62 -91l-43 31l60 90q-59 48 -91.5 120.5t-32.5 155.5q0 144 89 245t237 101q104 0 181 -52zM560 531l-302 -447q53 -31 121 -31q115 0 180.5 80.5t65.5 198.5q0 122 -65 199z
M218 114l304 454q-59 45 -141 45q-115 0 -180.5 -80.5t-65.5 -198.5q0 -142 83 -220z" />
    <glyph glyph-name="Ugrave" unicode="&#xd9;" horiz-adv-x="690" 
d="M348 -12q-132 0 -195 69.5t-63 191.5v417h78v-407q0 -104 44.5 -154t137.5 -50q87 0 132 51.5t45 138.5v421h73v-413q0 -126 -62.5 -195.5t-189.5 -69.5zM316 720l-135 126h109l92 -126h-66z" />
    <glyph glyph-name="Uacute" unicode="&#xda;" horiz-adv-x="690" 
d="M348 -12q-132 0 -195 69.5t-63 191.5v417h78v-407q0 -104 44.5 -154t137.5 -50q87 0 132 51.5t45 138.5v421h73v-413q0 -126 -62.5 -195.5t-189.5 -69.5zM311 720l92 126h109l-135 -126h-66z" />
    <glyph glyph-name="Ucircumflex" unicode="&#xdb;" horiz-adv-x="690" 
d="M348 -12q-132 0 -195 69.5t-63 191.5v417h78v-407q0 -104 44.5 -154t137.5 -50q87 0 132 51.5t45 138.5v421h73v-413q0 -126 -62.5 -195.5t-189.5 -69.5zM196 721l123 153h54l121 -153h-69l-81 85l-79 -85h-69z" />
    <glyph glyph-name="Udieresis" unicode="&#xdc;" horiz-adv-x="690" 
d="M348 -12q-132 0 -195 69.5t-63 191.5v417h78v-407q0 -104 44.5 -154t137.5 -50q87 0 132 51.5t45 138.5v421h73v-413q0 -126 -62.5 -195.5t-189.5 -69.5zM251 718q-22 0 -37.5 16t-15.5 38t15.5 37.5t37.5 15.5t38 -15.5t16 -37.5t-15.5 -38t-38.5 -16zM438 718
q-22 0 -37.5 16t-15.5 38t15.5 37.5t37.5 15.5t38 -15.5t16 -37.5t-16 -38t-38 -16z" />
    <glyph glyph-name="Yacute" unicode="&#xdd;" horiz-adv-x="555" 
d="M241 0v252l-223 414h87l178 -340h1l178 340h75l-218 -414v-252h-78zM243 720l92 126h109l-135 -126h-66z" />
    <glyph glyph-name="Thorn" unicode="&#xde;" horiz-adv-x="530" 
d="M96 0v666h78v-115h89q105 0 169.5 -49.5t64.5 -142.5q0 -98 -64 -151.5t-181 -53.5h-78v-154h-78zM174 220h78q165 0 165 136q0 129 -162 129h-81v-265z" />
    <glyph glyph-name="germandbls" unicode="&#xdf;" horiz-adv-x="547" 
d="M338 -12q-73 0 -122 34l31 59q49 -30 94 -30q42 0 67 18t25 53q0 18 -6 32t-24 28t-29 21t-43 24q-31 17 -48.5 29t-33.5 36t-16 53q0 20 5 36.5t19 31.5t20.5 22t30 23t26.5 19q53 40 53 94q0 96 -104 96q-56 0 -90 -43.5t-34 -129.5v-494h-73v496q0 115 55.5 175.5
t143.5 60.5q85 0 130.5 -44t45.5 -111q0 -53 -24 -85.5t-67 -62.5q-28 -19 -37 -26.5t-19.5 -21t-10.5 -28.5q0 -12 3 -20t16 -18t22.5 -15.5t39.5 -22.5q29 -16 45.5 -27t37 -29.5t30.5 -41t10 -49.5q0 -66 -44 -104t-125 -38z" />
    <glyph glyph-name="agrave" unicode="&#xe0;" horiz-adv-x="472" 
d="M181 -12q-61 0 -99 35.5t-38 93.5q0 45 23 79t62 51.5t81.5 26t89.5 8.5h21v45q0 53 -23 76.5t-73 23.5q-66 0 -125 -52l-39 51q70 66 169 66q164 0 164 -159v-224q0 -67 11 -109h-73q-4 19 -7 58q-56 -70 -144 -70zM193 51q76 0 128 69v108h-21q-178 0 -178 -109
q0 -34 22.5 -51t48.5 -17zM201 540l-135 126h109l92 -126h-66z" />
    <glyph glyph-name="aacute" unicode="&#xe1;" horiz-adv-x="472" 
d="M181 -12q-61 0 -99 35.5t-38 93.5q0 45 23 79t62 51.5t81.5 26t89.5 8.5h21v45q0 53 -23 76.5t-73 23.5q-66 0 -125 -52l-39 51q70 66 169 66q164 0 164 -159v-224q0 -67 11 -109h-73q-4 19 -7 58q-56 -70 -144 -70zM193 51q76 0 128 69v108h-21q-178 0 -178 -109
q0 -34 22.5 -51t48.5 -17zM196 540l92 126h109l-135 -126h-66z" />
    <glyph glyph-name="acircumflex" unicode="&#xe2;" horiz-adv-x="472" 
d="M181 -12q-61 0 -99 35.5t-38 93.5q0 45 23 79t62 51.5t81.5 26t89.5 8.5h21v45q0 53 -23 76.5t-73 23.5q-66 0 -125 -52l-39 51q70 66 169 66q164 0 164 -159v-224q0 -67 11 -109h-73q-4 19 -7 58q-56 -70 -144 -70zM193 51q76 0 128 69v108h-21q-178 0 -178 -109
q0 -34 22.5 -51t48.5 -17zM81 541l123 153h54l121 -153h-69l-81 85l-79 -85h-69z" />
    <glyph glyph-name="atilde" unicode="&#xe3;" horiz-adv-x="472" 
d="M181 -12q-61 0 -99 35.5t-38 93.5q0 45 23 79t62 51.5t81.5 26t89.5 8.5h21v45q0 53 -23 76.5t-73 23.5q-66 0 -125 -52l-39 51q70 66 169 66q164 0 164 -159v-224q0 -67 11 -109h-73q-4 19 -7 58q-56 -70 -144 -70zM193 51q76 0 128 69v108h-21q-178 0 -178 -109
q0 -34 22.5 -51t48.5 -17zM279 543q-25 0 -56.5 19.5t-49.5 19.5q-7 0 -13 -2t-12 -6.5t-9.5 -8t-8.5 -9t-6 -6.5l-39 37q43 60 94 60q26 0 57.5 -19.5t48.5 -19.5q26 0 51 31l39 -38q-45 -58 -96 -58z" />
    <glyph glyph-name="adieresis" unicode="&#xe4;" horiz-adv-x="472" 
d="M181 -12q-61 0 -99 35.5t-38 93.5q0 45 23 79t62 51.5t81.5 26t89.5 8.5h21v45q0 53 -23 76.5t-73 23.5q-66 0 -125 -52l-39 51q70 66 169 66q164 0 164 -159v-224q0 -67 11 -109h-73q-4 19 -7 58q-56 -70 -144 -70zM193 51q76 0 128 69v108h-21q-178 0 -178 -109
q0 -34 22.5 -51t48.5 -17zM136 538q-22 0 -37.5 16t-15.5 38t15.5 37.5t37.5 15.5t38 -15.5t16 -37.5t-16 -38t-38 -16zM323 538q-22 0 -37.5 16t-15.5 38t15.5 37.5t37.5 15.5t38 -15.5t16 -37.5t-15.5 -38t-38.5 -16z" />
    <glyph glyph-name="aring" unicode="&#xe5;" horiz-adv-x="472" 
d="M181 -12q-61 0 -99 35.5t-38 93.5q0 45 23 79t62 51.5t81.5 26t89.5 8.5h21v45q0 53 -23 76.5t-73 23.5q-66 0 -125 -52l-39 51q70 66 169 66q164 0 164 -159v-224q0 -67 11 -109h-73q-4 19 -7 58q-56 -70 -144 -70zM193 51q76 0 128 69v108h-21q-178 0 -178 -109
q0 -34 22.5 -51t48.5 -17zM230 545q-38 0 -66.5 28t-28.5 67t28.5 67t66.5 28t66.5 -28t28.5 -67t-28.5 -67t-66.5 -28zM230 585q22 0 36 16t14 39t-13.5 39t-36.5 16t-36.5 -16t-13.5 -39t14 -39t36 -16z" />
    <glyph glyph-name="ae" unicode="&#xe6;" horiz-adv-x="770" 
d="M181 -12q-61 0 -99 35.5t-38 93.5q0 45 23 79t62 51.5t81.5 26t89.5 8.5h22v45q0 49 -22 74.5t-75 25.5q-63 0 -125 -52l-39 51q72 66 169 66q110 0 146 -78q62 78 160 78q88 0 138.5 -59t50.5 -157q0 -10 -2 -34h-325q2 -84 38.5 -137.5t112.5 -53.5q64 0 133 43l30 -57
q-74 -49 -165 -49q-120 0 -183 96q-79 -96 -183 -96zM193 51q90 0 145 85q-15 45 -18 92h-20q-178 0 -178 -109q0 -34 22.5 -51t48.5 -17zM402 300h248q-2 56 -30 92.5t-86 36.5q-55 0 -88.5 -35t-43.5 -94z" />
    <glyph glyph-name="ccedilla" unicode="&#xe7;" horiz-adv-x="440" 
d="M199 -219q-40 0 -66 12l12 42q20 -11 53 -11q50 0 50 39q0 43 -71 41l33 89q-80 17 -125 86t-45 161q0 118 63.5 185t157.5 67q86 0 147 -48l-35 -55q-53 40 -113 40q-71 0 -106.5 -51.5t-35.5 -135.5q0 -82 36.5 -136.5t107.5 -54.5q66 0 117 40l30 -55
q-56 -47 -150 -48l-20 -54q31 -5 50.5 -23.5t19.5 -46.5q0 -39 -31.5 -61t-78.5 -22z" />
    <glyph glyph-name="egrave" unicode="&#xe8;" horiz-adv-x="490" 
d="M267 -12q-109 0 -168 71.5t-59 183.5q0 107 60.5 178t155.5 71q88 0 138.5 -58.5t50.5 -157.5q0 -10 -2 -34h-325q2 -84 38.5 -137.5t112.5 -53.5q64 0 133 43l30 -57q-74 -49 -165 -49zM122 300h248q-2 56 -30 92.5t-86 36.5q-55 0 -88.5 -35t-43.5 -94zM225 540
l-135 126h109l92 -126h-66z" />
    <glyph glyph-name="eacute" unicode="&#xe9;" horiz-adv-x="490" 
d="M267 -12q-109 0 -168 71.5t-59 183.5q0 107 60.5 178t155.5 71q88 0 138.5 -58.5t50.5 -157.5q0 -10 -2 -34h-325q2 -84 38.5 -137.5t112.5 -53.5q64 0 133 43l30 -57q-74 -49 -165 -49zM122 300h248q-2 56 -30 92.5t-86 36.5q-55 0 -88.5 -35t-43.5 -94zM220 540l92 126
h109l-135 -126h-66z" />
    <glyph glyph-name="ecircumflex" unicode="&#xea;" horiz-adv-x="490" 
d="M267 -12q-109 0 -168 71.5t-59 183.5q0 107 60.5 178t155.5 71q88 0 138.5 -58.5t50.5 -157.5q0 -10 -2 -34h-325q2 -84 38.5 -137.5t112.5 -53.5q64 0 133 43l30 -57q-74 -49 -165 -49zM122 300h248q-2 56 -30 92.5t-86 36.5q-55 0 -88.5 -35t-43.5 -94zM105 541
l123 153h54l121 -153h-69l-81 85l-79 -85h-69z" />
    <glyph glyph-name="edieresis" unicode="&#xeb;" horiz-adv-x="490" 
d="M267 -12q-109 0 -168 71.5t-59 183.5q0 107 60.5 178t155.5 71q88 0 138.5 -58.5t50.5 -157.5q0 -10 -2 -34h-325q2 -84 38.5 -137.5t112.5 -53.5q64 0 133 43l30 -57q-74 -49 -165 -49zM122 300h248q-2 56 -30 92.5t-86 36.5q-55 0 -88.5 -35t-43.5 -94zM160 538
q-22 0 -37.5 16t-15.5 38t15.5 37.5t37.5 15.5t38 -15.5t16 -37.5t-16 -38t-38 -16zM347 538q-22 0 -37.5 16t-15.5 38t15.5 37.5t37.5 15.5t38 -15.5t16 -37.5t-15.5 -38t-38.5 -16z" />
    <glyph glyph-name="igrave" unicode="&#xec;" horiz-adv-x="250" 
d="M88 0v480h74v-480h-74zM96 540l-135 126h109l92 -126h-66z" />
    <glyph glyph-name="iacute" unicode="&#xed;" horiz-adv-x="250" 
d="M88 0v480h74v-480h-74zM91 540l92 126h109l-135 -126h-66z" />
    <glyph glyph-name="icircumflex" unicode="&#xee;" horiz-adv-x="250" 
d="M-24 541l123 153h54l121 -153h-69l-81 85l-79 -85h-69zM88 0v480h74v-480h-74z" />
    <glyph glyph-name="idieresis" unicode="&#xef;" horiz-adv-x="250" 
d="M88 0v480h74v-480h-74zM31 538q-22 0 -37.5 16t-15.5 38t15.5 37.5t37.5 15.5t38 -15.5t16 -37.5t-15.5 -38t-38.5 -16zM218 538q-22 0 -37.5 16t-15.5 38t15.5 37.5t37.5 15.5t38 -15.5t16 -37.5t-16 -38t-38 -16z" />
    <glyph glyph-name="eth" unicode="&#xf0;" horiz-adv-x="538" 
d="M261 -12q-94 0 -157.5 69t-63.5 182q0 114 61 180t156 66q101 0 152 -69q-25 130 -112 194l-79 -67l-38 44l64 54q-66 30 -156 30l15 61q113 0 197 -43l72 61l38 -44l-59 -50q145 -113 145 -356q0 -86 -24.5 -155t-79 -113t-131.5 -44zM264 51q73 0 114 64.5t41 191.5v16
q-55 99 -167 99q-62 0 -98 -49t-36 -132q0 -89 40 -139.5t106 -50.5z" />
    <glyph glyph-name="ntilde" unicode="&#xf1;" horiz-adv-x="530" 
d="M82 0v480h73v-69q64 81 156 81q72 0 106.5 -41.5t34.5 -108.5v-342h-73v328q0 98 -85 98q-75 0 -139 -88v-338h-73zM306 543q-25 0 -56.5 19.5t-49.5 19.5q-7 0 -13 -2t-12 -6.5t-9.5 -8t-8.5 -9t-6 -6.5l-39 37q43 60 94 60q26 0 57 -19.5t49 -19.5q26 0 51 31l39 -38
q-45 -58 -96 -58z" />
    <glyph glyph-name="ograve" unicode="&#xf2;" horiz-adv-x="528" 
d="M262 -12q-58 0 -102.5 23t-69.5 61t-37.5 80.5t-12.5 86.5q0 45 12 87.5t36.5 80.5t68.5 61.5t102 23.5t103.5 -23t72 -60.5t40 -80.5t13.5 -87t-13 -87t-39 -81t-71 -61.5t-103 -23.5zM263 51q72 0 109.5 53t37.5 135q0 81 -40 135.5t-112 54.5q-71 0 -105.5 -52.5
t-34.5 -135.5t37 -136.5t108 -53.5zM235 540l-135 126h109l92 -126h-66z" />
    <glyph glyph-name="oacute" unicode="&#xf3;" horiz-adv-x="528" 
d="M262 -12q-58 0 -102.5 23t-69.5 61t-37.5 80.5t-12.5 86.5q0 45 12 87.5t36.5 80.5t68.5 61.5t102 23.5t103.5 -23t72 -60.5t40 -80.5t13.5 -87t-13 -87t-39 -81t-71 -61.5t-103 -23.5zM263 51q72 0 109.5 53t37.5 135q0 81 -40 135.5t-112 54.5q-71 0 -105.5 -52.5
t-34.5 -135.5t37 -136.5t108 -53.5zM230 540l92 126h109l-135 -126h-66z" />
    <glyph glyph-name="ocircumflex" unicode="&#xf4;" horiz-adv-x="528" 
d="M262 -12q-58 0 -102.5 23t-69.5 61t-37.5 80.5t-12.5 86.5q0 45 12 87.5t36.5 80.5t68.5 61.5t102 23.5t103.5 -23t72 -60.5t40 -80.5t13.5 -87t-13 -87t-39 -81t-71 -61.5t-103 -23.5zM263 51q72 0 109.5 53t37.5 135q0 81 -40 135.5t-112 54.5q-71 0 -105.5 -52.5
t-34.5 -135.5t37 -136.5t108 -53.5zM115 541l123 153h54l121 -153h-69l-81 85l-79 -85h-69z" />
    <glyph glyph-name="otilde" unicode="&#xf5;" horiz-adv-x="528" 
d="M262 -12q-58 0 -102.5 23t-69.5 61t-37.5 80.5t-12.5 86.5q0 45 12 87.5t36.5 80.5t68.5 61.5t102 23.5t103.5 -23t72 -60.5t40 -80.5t13.5 -87t-13 -87t-39 -81t-71 -61.5t-103 -23.5zM263 51q72 0 109.5 53t37.5 135q0 81 -40 135.5t-112 54.5q-71 0 -105.5 -52.5
t-34.5 -135.5t37 -136.5t108 -53.5zM313 543q-25 0 -56.5 19.5t-49.5 19.5q-7 0 -13 -2t-12 -6.5t-9.5 -8t-8.5 -9t-6 -6.5l-39 37q43 60 94 60q27 0 58 -19.5t48 -19.5q26 0 51 31l39 -38q-45 -58 -96 -58z" />
    <glyph glyph-name="odieresis" unicode="&#xf6;" horiz-adv-x="528" 
d="M262 -12q-58 0 -102.5 23t-69.5 61t-37.5 80.5t-12.5 86.5q0 45 12 87.5t36.5 80.5t68.5 61.5t102 23.5t103.5 -23t72 -60.5t40 -80.5t13.5 -87t-13 -87t-39 -81t-71 -61.5t-103 -23.5zM263 51q72 0 109.5 53t37.5 135q0 81 -40 135.5t-112 54.5q-71 0 -105.5 -52.5
t-34.5 -135.5t37 -136.5t108 -53.5zM170 538q-22 0 -37.5 16t-15.5 38t15.5 37.5t37.5 15.5t38 -15.5t16 -37.5t-16 -38t-38 -16zM357 538q-22 0 -37.5 16t-15.5 38t15.5 37.5t37.5 15.5t38 -15.5t16 -37.5t-15.5 -38t-38.5 -16z" />
    <glyph glyph-name="divide" unicode="&#xf7;" horiz-adv-x="572" 
d="M284 45q-23 0 -39.5 16t-16.5 38t16.5 38t39.5 16t39 -16t16 -38t-16 -38t-39 -16zM284 382q-23 0 -39.5 16t-16.5 39q0 22 16.5 38t39.5 16q22 0 38.5 -16t16.5 -38q0 -23 -16.5 -39t-38.5 -16zM36 238v60h500v-60h-500z" />
    <glyph glyph-name="oslash" unicode="&#xf8;" horiz-adv-x="528" 
d="M88 -55l-39 27l55 82q-64 73 -64 185q0 45 12 87.5t36.5 80.5t68.5 61.5t102 23.5q64 0 114 -29l58 88l42 -29l-60 -90q37 -37 56 -88.5t19 -102.5q0 -44 -13 -87t-39 -81t-71 -61.5t-103 -23.5q-72 0 -123 35zM263 48q72 0 110.5 54.5t38.5 136.5q0 84 -39 135
l-198 -296q36 -30 88 -30zM116 241q0 -76 28 -126l193 293q-36 23 -79 23q-71 0 -106.5 -53.5t-35.5 -136.5z" />
    <glyph glyph-name="ugrave" unicode="&#xf9;" horiz-adv-x="528" 
d="M218 -12q-72 0 -107 41.5t-35 108.5v342h73v-328q0 -98 86 -98q75 0 138 88v338h73v-379q0 -58 9 -101h-74q-5 32 -7 71q-61 -83 -156 -83zM236 540l-135 126h109l92 -126h-66z" />
    <glyph glyph-name="uacute" unicode="&#xfa;" horiz-adv-x="528" 
d="M218 -12q-72 0 -107 41.5t-35 108.5v342h73v-328q0 -98 86 -98q75 0 138 88v338h73v-379q0 -58 9 -101h-74q-5 32 -7 71q-61 -83 -156 -83zM231 540l92 126h109l-135 -126h-66z" />
    <glyph glyph-name="ucircumflex" unicode="&#xfb;" horiz-adv-x="528" 
d="M218 -12q-72 0 -107 41.5t-35 108.5v342h73v-328q0 -98 86 -98q75 0 138 88v338h73v-379q0 -58 9 -101h-74q-5 32 -7 71q-61 -83 -156 -83zM116 541l123 153h54l121 -153h-69l-81 85l-79 -85h-69z" />
    <glyph glyph-name="udieresis" unicode="&#xfc;" horiz-adv-x="528" 
d="M218 -12q-72 0 -107 41.5t-35 108.5v342h73v-328q0 -98 86 -98q75 0 138 88v338h73v-379q0 -58 9 -101h-74q-5 32 -7 71q-61 -83 -156 -83zM171 538q-22 0 -37.5 16t-15.5 38t15.5 37.5t37.5 15.5t38 -15.5t16 -37.5t-15.5 -38t-38.5 -16zM358 538q-22 0 -37.5 16
t-15.5 38t15.5 37.5t37.5 15.5t38 -15.5t16 -37.5t-16 -38t-38 -16z" />
    <glyph glyph-name="yacute" unicode="&#xfd;" horiz-adv-x="469" 
d="M57 -232q-23 0 -46 5l10 61q21 -3 37 -3q48 0 74 26t47 83l23 63l-181 477h82l137 -383h2l133 383h78l-204 -544q-30 -81 -71 -124.5t-121 -43.5zM203 540l92 126h109l-135 -126h-66z" />
    <glyph glyph-name="thorn" unicode="&#xfe;" horiz-adv-x="530" 
d="M82 -219v939h73v-292q53 64 139 64q89 0 142 -66.5t53 -184.5q0 -113 -59.5 -183t-152.5 -70q-75 0 -122 42v-249h-73zM270 51q67 0 104 52t37 136t-33 135.5t-99 51.5q-33 0 -67.5 -18.5t-56.5 -48.5v-264q49 -44 115 -44z" />
    <glyph glyph-name="ydieresis" unicode="&#xff;" horiz-adv-x="469" 
d="M57 -232q-23 0 -46 5l10 61q21 -3 37 -3q48 0 74 26t47 83l23 63l-181 477h82l137 -383h2l133 383h78l-204 -544q-30 -81 -71 -124.5t-121 -43.5zM143 538q-22 0 -37.5 16t-15.5 38t15.5 37.5t37.5 15.5t38 -15.5t16 -37.5t-15.5 -38t-38.5 -16zM330 538q-22 0 -37.5 16
t-15.5 38t15.5 37.5t37.5 15.5t38 -15.5t16 -37.5t-16 -38t-38 -16z" />
    <glyph glyph-name="Amacron" unicode="&#x100;" horiz-adv-x="627" 
d="M184 231h253l-84 228q-4 10 -41 115h-2q-16 -47 -41 -115zM21 0l255 666h76l256 -666h-85l-61 165h-303l-61 -165h-77zM176 754v61h271v-61h-271z" />
    <glyph glyph-name="amacron" unicode="&#x101;" horiz-adv-x="472" 
d="M181 -12q-61 0 -99 35.5t-38 93.5q0 45 23 79t62 51.5t81.5 26t89.5 8.5h21v45q0 53 -23 76.5t-73 23.5q-66 0 -125 -52l-39 51q70 66 169 66q164 0 164 -159v-224q0 -67 11 -109h-73q-4 19 -7 58q-56 -70 -144 -70zM193 51q76 0 128 69v108h-21q-178 0 -178 -109
q0 -34 22.5 -51t48.5 -17zM95 574v61h271v-61h-271z" />
    <glyph glyph-name="Abreve" unicode="&#x102;" horiz-adv-x="627" 
d="M184 231h253l-84 228q-4 10 -41 115h-2q-16 -47 -41 -115zM21 0l255 666h76l256 -666h-85l-61 165h-303l-61 -165h-77zM312 716q-57 0 -97.5 36t-46.5 106h65q3 -38 23.5 -61t55.5 -23q34 0 54.5 23t23.5 61h65q-6 -70 -46.5 -106t-96.5 -36z" />
    <glyph glyph-name="abreve" unicode="&#x103;" horiz-adv-x="472" 
d="M181 -12q-61 0 -99 35.5t-38 93.5q0 45 23 79t62 51.5t81.5 26t89.5 8.5h21v45q0 53 -23 76.5t-73 23.5q-66 0 -125 -52l-39 51q70 66 169 66q164 0 164 -159v-224q0 -67 11 -109h-73q-4 19 -7 58q-56 -70 -144 -70zM193 51q76 0 128 69v108h-21q-178 0 -178 -109
q0 -34 22.5 -51t48.5 -17zM231 536q-57 0 -97.5 36t-46.5 106h65q3 -38 23.5 -61t55.5 -23q34 0 54.5 23t23.5 61h65q-6 -70 -46.5 -106t-96.5 -36z" />
    <glyph glyph-name="Aogonek" unicode="&#x104;" horiz-adv-x="627" 
d="M557 -219q-46 0 -72 26t-26 66q0 63 64 127l-61 165h-303l-61 -165h-77l255 666h76l256 -666l-9 -2q-32 -7 -55 -44t-23 -72q0 -49 50 -49q22 0 43 8l11 -43q-32 -17 -68 -17zM184 231h253l-84 228q-4 10 -41 115h-2q-16 -47 -41 -115z" />
    <glyph glyph-name="aogonek" unicode="&#x105;" horiz-adv-x="472" 
d="M366 -219q-46 0 -72 26t-26 66q0 63 64 127q-4 19 -7 58q-56 -70 -144 -70q-61 0 -99 35.5t-38 93.5q0 45 23 79t62 51.5t81.5 26t89.5 8.5h21v45q0 53 -23 76.5t-73 23.5q-66 0 -125 -52l-39 51q70 66 169 66q164 0 164 -159v-224q0 -64 11 -112l-6 -2
q-28 -9 -48.5 -44.5t-20.5 -68.5q0 -49 50 -49q22 0 43 8l11 -43q-32 -17 -68 -17zM193 51q76 0 128 69v108h-21q-178 0 -178 -109q0 -34 22.5 -51t48.5 -17z" />
    <glyph glyph-name="Cacute" unicode="&#x106;" horiz-adv-x="615" 
d="M378 -12q-149 0 -237 102t-88 245q0 142 89 242.5t237 100.5q108 0 187 -50l-39 -59q-64 44 -150 44q-114 0 -178 -80.5t-64 -195.5q0 -118 63.5 -200.5t181.5 -82.5q96 0 163 57l36 -56q-30 -27 -83.5 -47t-117.5 -20zM342 720l92 126h109l-135 -126h-66z" />
    <glyph glyph-name="cacute" unicode="&#x107;" horiz-adv-x="440" 
d="M258 -12q-102 0 -160 73.5t-58 178.5q0 118 63.5 185t157.5 67q86 0 147 -48l-35 -55q-53 40 -113 40q-71 0 -106.5 -51.5t-35.5 -135.5q0 -82 36.5 -136.5t107.5 -54.5q66 0 117 40l30 -55q-57 -48 -151 -48zM226 540l92 126h109l-135 -126h-66z" />
    <glyph glyph-name="Ccircumflex" unicode="&#x108;" horiz-adv-x="615" 
d="M378 -12q-149 0 -237 102t-88 245q0 142 89 242.5t237 100.5q108 0 187 -50l-39 -59q-64 44 -150 44q-114 0 -178 -80.5t-64 -195.5q0 -118 63.5 -200.5t181.5 -82.5q96 0 163 57l36 -56q-30 -27 -83.5 -47t-117.5 -20zM227 721l123 153h54l121 -153h-69l-81 85l-79 -85
h-69z" />
    <glyph glyph-name="ccircumflex" unicode="&#x109;" horiz-adv-x="440" 
d="M258 -12q-102 0 -160 73.5t-58 178.5q0 118 63.5 185t157.5 67q86 0 147 -48l-35 -55q-53 40 -113 40q-71 0 -106.5 -51.5t-35.5 -135.5q0 -82 36.5 -136.5t107.5 -54.5q66 0 117 40l30 -55q-57 -48 -151 -48zM111 541l123 153h54l121 -153h-69l-81 85l-79 -85h-69z" />
    <glyph glyph-name="Cdotaccent" unicode="&#x10a;" horiz-adv-x="615" 
d="M378 -12q-149 0 -237 102t-88 245q0 142 89 242.5t237 100.5q108 0 187 -50l-39 -59q-64 44 -150 44q-114 0 -178 -80.5t-64 -195.5q0 -118 63.5 -200.5t181.5 -82.5q96 0 163 57l36 -56q-30 -27 -83.5 -47t-117.5 -20zM376 750q-22 0 -38 16t-16 38t16 38t38 16t38 -16
t16 -38t-16 -38t-38 -16z" />
    <glyph glyph-name="cdotaccent" unicode="&#x10b;" horiz-adv-x="440" 
d="M258 -12q-102 0 -160 73.5t-58 178.5q0 118 63.5 185t157.5 67q86 0 147 -48l-35 -55q-53 40 -113 40q-71 0 -106.5 -51.5t-35.5 -135.5q0 -82 36.5 -136.5t107.5 -54.5q66 0 117 40l30 -55q-57 -48 -151 -48zM260 570q-22 0 -38 16t-16 38t16 38t38 16t38 -16t16 -38
t-16 -38t-38 -16z" />
    <glyph glyph-name="Ccaron" unicode="&#x10c;" horiz-adv-x="615" 
d="M378 -12q-149 0 -237 102t-88 245q0 142 89 242.5t237 100.5q108 0 187 -50l-39 -59q-64 44 -150 44q-114 0 -178 -80.5t-64 -195.5q0 -118 63.5 -200.5t181.5 -82.5q96 0 163 57l36 -56q-30 -27 -83.5 -47t-117.5 -20zM348 719l-121 153h69l81 -85l79 85h69l-123 -153
h-54z" />
    <glyph glyph-name="ccaron" unicode="&#x10d;" horiz-adv-x="440" 
d="M258 -12q-102 0 -160 73.5t-58 178.5q0 118 63.5 185t157.5 67q86 0 147 -48l-35 -55q-53 40 -113 40q-71 0 -106.5 -51.5t-35.5 -135.5q0 -82 36.5 -136.5t107.5 -54.5q66 0 117 40l30 -55q-57 -48 -151 -48zM232 539l-121 153h69l81 -85l79 85h69l-123 -153h-54z" />
    <glyph glyph-name="Dcaron" unicode="&#x10e;" horiz-adv-x="679" 
d="M96 0v666h156q190 0 283.5 -87.5t93.5 -237.5q0 -153 -95.5 -247t-286.5 -94h-151zM174 64h80q144 0 218.5 70t74.5 205t-72.5 199t-225.5 64h-75v-538zM294 719l-121 153h69l81 -85l79 85h69l-123 -153h-54z" />
    <glyph glyph-name="dcaron" unicode="&#x10f;" horiz-adv-x="541" 
d="M238 -12q-88 0 -143 67t-55 184q0 113 60 183t152 70q76 0 122 -42v270h73v-622q0 -48 12 -98h-73q-7 24 -9 55q-54 -67 -139 -67zM253 54q72 0 121 66v265q-47 44 -115 44q-66 0 -103.5 -52.5t-37.5 -135.5q0 -86 33 -136.5t102 -50.5zM495 554l42 166h91l-77 -166h-56z
" />
    <glyph glyph-name="Dcroat" unicode="&#x110;" horiz-adv-x="657" 
d="M96 0v314h-70v58h70v294h156q190 0 283.5 -87.5t93.5 -237.5q0 -153 -95.5 -247t-286.5 -94h-151zM174 64h80q144 0 218.5 70t74.5 205t-72.5 199t-225.5 64h-75v-230h111v-58h-111v-250z" />
    <glyph glyph-name="dcroat" unicode="&#x111;" horiz-adv-x="523" 
d="M233 576v58h141v86h73v-86h45v-58h-45v-478q0 -48 12 -98h-73q-7 24 -9 55q-54 -67 -139 -67q-88 0 -143 67t-55 184q0 113 60 183t152 70q76 0 122 -42v126h-141zM253 54q72 0 121 66v265q-47 44 -115 44q-66 0 -103.5 -52.5t-37.5 -135.5q0 -86 33 -136.5t102 -50.5z
" />
    <glyph glyph-name="Emacron" unicode="&#x112;" horiz-adv-x="503" 
d="M96 0v666h342v-66h-264v-214h232v-66h-232v-254h271v-66h-349zM138 754v61h271v-61h-271z" />
    <glyph glyph-name="emacron" unicode="&#x113;" horiz-adv-x="490" 
d="M267 -12q-109 0 -168 71.5t-59 183.5q0 107 60.5 178t155.5 71q88 0 138.5 -58.5t50.5 -157.5q0 -10 -2 -34h-325q2 -84 38.5 -137.5t112.5 -53.5q64 0 133 43l30 -57q-74 -49 -165 -49zM122 300h248q-2 56 -30 92.5t-86 36.5q-55 0 -88.5 -35t-43.5 -94zM119 574v61h271
v-61h-271z" />
    <glyph glyph-name="Ebreve" unicode="&#x114;" horiz-adv-x="503" 
d="M96 0v666h342v-66h-264v-214h232v-66h-232v-254h271v-66h-349zM274 716q-57 0 -97.5 36t-46.5 106h65q3 -38 23.5 -61t55.5 -23q34 0 54.5 23t23.5 61h65q-6 -70 -46.5 -106t-96.5 -36z" />
    <glyph glyph-name="ebreve" unicode="&#x115;" horiz-adv-x="490" 
d="M267 -12q-109 0 -168 71.5t-59 183.5q0 107 60.5 178t155.5 71q88 0 138.5 -58.5t50.5 -157.5q0 -10 -2 -34h-325q2 -84 38.5 -137.5t112.5 -53.5q64 0 133 43l30 -57q-74 -49 -165 -49zM122 300h248q-2 56 -30 92.5t-86 36.5q-55 0 -88.5 -35t-43.5 -94zM255 536
q-57 0 -97.5 36t-46.5 106h65q3 -38 23.5 -61t55.5 -23q34 0 54.5 23t23.5 61h65q-6 -70 -46.5 -106t-96.5 -36z" />
    <glyph glyph-name="Edotaccent" unicode="&#x116;" horiz-adv-x="503" 
d="M96 0v666h342v-66h-264v-214h232v-66h-232v-254h271v-66h-349zM273 750q-23 0 -38.5 16t-15.5 38t15.5 38t38.5 16t38.5 -16t15.5 -38t-15.5 -38t-38.5 -16z" />
    <glyph glyph-name="edotaccent" unicode="&#x117;" horiz-adv-x="490" 
d="M267 -12q-109 0 -168 71.5t-59 183.5q0 107 60.5 178t155.5 71q88 0 138.5 -58.5t50.5 -157.5q0 -10 -2 -34h-325q2 -84 38.5 -137.5t112.5 -53.5q64 0 133 43l30 -57q-74 -49 -165 -49zM122 300h248q-2 56 -30 92.5t-86 36.5q-55 0 -88.5 -35t-43.5 -94zM254 570
q-22 0 -38 16t-16 38t16 38t38 16t38 -16t16 -38t-16 -38t-38 -16z" />
    <glyph glyph-name="Eogonek" unicode="&#x118;" horiz-adv-x="503" 
d="M371 -219q-46 0 -72 26t-26 66q0 39 23.5 75.5t52.5 51.5h-253v666h342v-66h-264v-214h232v-66h-232v-254h271v-66h-2q-49 0 -78.5 -35t-29.5 -84q0 -48 50 -48q22 0 43 8l11 -43q-32 -17 -68 -17z" />
    <glyph glyph-name="eogonek" unicode="&#x119;" horiz-adv-x="490" 
d="M359 -219q-46 0 -72 26t-26 66q0 66 62 122q-24 -7 -56 -7q-109 0 -168 71.5t-59 183.5q0 107 60.5 178t155.5 71q88 0 138.5 -58.5t50.5 -157.5q0 -15 -2 -34h-325q2 -84 38.5 -137.5t112.5 -53.5q64 0 133 43l30 -57l-24 -15q-36 -22 -60.5 -59.5t-24.5 -81.5
q0 -48 50 -48q22 0 43 8l11 -43q-32 -17 -68 -17zM122 300h248q-2 56 -30 92.5t-86 36.5q-55 0 -88.5 -35t-43.5 -94z" />
    <glyph glyph-name="Ecaron" unicode="&#x11a;" horiz-adv-x="503" 
d="M96 0v666h342v-66h-264v-214h232v-66h-232v-254h271v-66h-349zM245 719l-121 153h69l81 -85l79 85h69l-123 -153h-54z" />
    <glyph glyph-name="ecaron" unicode="&#x11b;" horiz-adv-x="490" 
d="M267 -12q-109 0 -168 71.5t-59 183.5q0 107 60.5 178t155.5 71q88 0 138.5 -58.5t50.5 -157.5q0 -10 -2 -34h-325q2 -84 38.5 -137.5t112.5 -53.5q64 0 133 43l30 -57q-74 -49 -165 -49zM122 300h248q-2 56 -30 92.5t-86 36.5q-55 0 -88.5 -35t-43.5 -94zM226 539
l-121 153h69l81 -85l79 85h69l-123 -153h-54z" />
    <glyph glyph-name="Gcircumflex" unicode="&#x11c;" horiz-adv-x="707" 
d="M384 -12q-151 0 -241 103t-90 244q0 92 38.5 169t116 125.5t180.5 48.5q129 0 210 -63l-41 -57q-70 55 -171 55q-123 0 -187 -80t-64 -196q0 -118 64.5 -200.5t186.5 -82.5q109 0 165 41v187h-143v66h221v-291q-82 -69 -245 -69zM231 721l123 153h54l121 -153h-69l-81 85
l-79 -85h-69z" />
    <glyph glyph-name="gcircumflex" unicode="&#x11d;" horiz-adv-x="502" 
d="M232 -237q-87 0 -139.5 34.5t-52.5 101.5q0 41 26.5 73.5t66.5 51.5v2q-49 24 -49 76q0 51 54 82v2q-80 45 -80 140q0 73 49.5 119.5t132.5 46.5q40 0 74 -12h156v-58h-81q36 -43 36 -96q0 -72 -51.5 -119t-133.5 -47q-24 0 -50 6q-35 -18 -35 -47q0 -43 69 -46
q11 -1 40.5 -2t43.5 -2t40.5 -4.5t40.5 -8.5t33 -15t28.5 -23.5t16.5 -33.5t7 -46q0 -76 -70.5 -125.5t-171.5 -49.5zM238 -179q70 0 115.5 30t45.5 77q0 11 -2.5 20.5t-5 16.5t-9 12.5t-10.5 9t-14 6.5t-14.5 4.5t-17.5 3t-16.5 2t-17.5 1t-17 0.5q-74 5 -90 7
q-71 -40 -71 -104q0 -39 31.5 -62.5t92.5 -23.5zM242 220q50 0 79 29.5t29 76.5t-30.5 76.5t-79.5 29.5t-78 -29t-29 -77q0 -47 30 -76.5t79 -29.5zM99 541l123 153h54l121 -153h-69l-81 85l-79 -85h-69z" />
    <glyph glyph-name="Gbreve" unicode="&#x11e;" horiz-adv-x="707" 
d="M384 -12q-151 0 -241 103t-90 244q0 92 38.5 169t116 125.5t180.5 48.5q129 0 210 -63l-41 -57q-70 55 -171 55q-123 0 -187 -80t-64 -196q0 -118 64.5 -200.5t186.5 -82.5q109 0 165 41v187h-143v66h221v-291q-82 -69 -245 -69zM381 716q-57 0 -97.5 36t-46.5 106h65
q3 -38 23.5 -61t55.5 -23q34 0 54.5 23t23.5 61h65q-6 -70 -46.5 -106t-96.5 -36z" />
    <glyph glyph-name="gbreve" unicode="&#x11f;" horiz-adv-x="502" 
d="M232 -237q-87 0 -139.5 34.5t-52.5 101.5q0 41 26.5 73.5t66.5 51.5v2q-49 24 -49 76q0 51 54 82v2q-80 45 -80 140q0 73 49.5 119.5t132.5 46.5q40 0 74 -12h156v-58h-81q36 -43 36 -96q0 -72 -51.5 -119t-133.5 -47q-24 0 -50 6q-35 -18 -35 -47q0 -43 69 -46
q11 -1 40.5 -2t43.5 -2t40.5 -4.5t40.5 -8.5t33 -15t28.5 -23.5t16.5 -33.5t7 -46q0 -76 -70.5 -125.5t-171.5 -49.5zM238 -179q70 0 115.5 30t45.5 77q0 11 -2.5 20.5t-5 16.5t-9 12.5t-10.5 9t-14 6.5t-14.5 4.5t-17.5 3t-16.5 2t-17.5 1t-17 0.5q-74 5 -90 7
q-71 -40 -71 -104q0 -39 31.5 -62.5t92.5 -23.5zM242 220q50 0 79 29.5t29 76.5t-30.5 76.5t-79.5 29.5t-78 -29t-29 -77q0 -47 30 -76.5t79 -29.5zM249 547q-57 0 -97.5 36t-46.5 106h65q3 -38 23.5 -61t55.5 -23q34 0 54.5 23t23.5 61h65q-6 -70 -46.5 -106t-96.5 -36z
" />
    <glyph glyph-name="Gdotaccent" unicode="&#x120;" horiz-adv-x="707" 
d="M384 -12q-151 0 -241 103t-90 244q0 92 38.5 169t116 125.5t180.5 48.5q129 0 210 -63l-41 -57q-70 55 -171 55q-123 0 -187 -80t-64 -196q0 -118 64.5 -200.5t186.5 -82.5q109 0 165 41v187h-143v66h221v-291q-82 -69 -245 -69zM380 750q-22 0 -38 16t-16 38t16 38
t38 16t38 -16t16 -38t-16 -38t-38 -16z" />
    <glyph glyph-name="gdotaccent" unicode="&#x121;" horiz-adv-x="502" 
d="M232 -237q-87 0 -139.5 34.5t-52.5 101.5q0 41 26.5 73.5t66.5 51.5v2q-49 24 -49 76q0 51 54 82v2q-80 45 -80 140q0 73 49.5 119.5t132.5 46.5q40 0 74 -12h156v-58h-81q36 -43 36 -96q0 -72 -51.5 -119t-133.5 -47q-24 0 -50 6q-35 -18 -35 -47q0 -43 69 -46
q11 -1 40.5 -2t43.5 -2t40.5 -4.5t40.5 -8.5t33 -15t28.5 -23.5t16.5 -33.5t7 -46q0 -76 -70.5 -125.5t-171.5 -49.5zM238 -179q70 0 115.5 30t45.5 77q0 11 -2.5 20.5t-5 16.5t-9 12.5t-10.5 9t-14 6.5t-14.5 4.5t-17.5 3t-16.5 2t-17.5 1t-17 0.5q-74 5 -90 7
q-71 -40 -71 -104q0 -39 31.5 -62.5t92.5 -23.5zM242 220q50 0 79 29.5t29 76.5t-30.5 76.5t-79.5 29.5t-78 -29t-29 -77q0 -47 30 -76.5t79 -29.5zM248 570q-22 0 -38 16t-16 38t16 38t38 16t38 -16t16 -38t-16 -38t-38 -16z" />
    <glyph glyph-name="Gcommaaccent" unicode="&#x122;" horiz-adv-x="707" 
d="M384 -12q-151 0 -241 103t-90 244q0 92 38.5 169t116 125.5t180.5 48.5q129 0 210 -63l-41 -57q-70 55 -171 55q-123 0 -187 -80t-64 -196q0 -118 64.5 -200.5t186.5 -82.5q109 0 165 41v187h-143v66h221v-291q-82 -69 -245 -69zM383 -50q21 0 36 -15.5t15 -41.5
q0 -62 -68 -120l-25 22q2 2 7 6.5t7.5 7t6 7t5.5 8.5t3.5 9t1.5 11q0 15 -15 32.5t-15 34.5t11.5 28t29.5 11z" />
    <glyph glyph-name="gcommaaccent" unicode="&#x123;" horiz-adv-x="502" 
d="M232 -237q-87 0 -139.5 34.5t-52.5 101.5q0 41 26.5 73.5t66.5 51.5v2q-49 24 -49 76q0 51 54 82v2q-80 45 -80 140q0 73 49.5 119.5t132.5 46.5q40 0 74 -12h156v-58h-81q36 -43 36 -96q0 -72 -51.5 -119t-133.5 -47q-24 0 -50 6q-35 -18 -35 -47q0 -43 69 -46
q11 -1 40.5 -2t43.5 -2t40.5 -4.5t40.5 -8.5t33 -15t28.5 -23.5t16.5 -33.5t7 -46q0 -76 -70.5 -125.5t-171.5 -49.5zM238 -179q70 0 115.5 30t45.5 77q0 11 -2.5 20.5t-5 16.5t-9 12.5t-10.5 9t-14 6.5t-14.5 4.5t-17.5 3t-16.5 2t-17.5 1t-17 0.5q-74 5 -90 7
q-71 -40 -71 -104q0 -39 31.5 -62.5t92.5 -23.5zM242 220q50 0 79 29.5t29 76.5t-30.5 76.5t-79.5 29.5t-78 -29t-29 -77q0 -47 30 -76.5t79 -29.5zM246 539q-21 0 -36 15.5t-15 41.5q0 62 68 120l25 -22q-2 -2 -7 -6.5t-7.5 -7t-6 -7t-5.5 -8.5t-3.5 -9t-1.5 -11
q0 -15 15 -32.5t15 -34.5t-11.5 -28t-29.5 -11z" />
    <glyph glyph-name="Hcircumflex" unicode="&#x124;" horiz-adv-x="725" 
d="M96 0v666h78v-282h377v282h78v-666h-78v318h-377v-318h-78zM213 721l123 153h54l121 -153h-69l-81 85l-79 -85h-69z" />
    <glyph glyph-name="hcircumflex" unicode="&#x125;" horiz-adv-x="527" 
d="M79 0v720h73v-309q63 81 156 81q72 0 106.5 -41.5t34.5 -108.5v-342h-73v328q0 98 -85 98q-76 0 -139 -88v-338h-73zM115 781l123 153h54l121 -153h-69l-81 85l-79 -85h-69z" />
    <glyph glyph-name="Hbar" unicode="&#x126;" horiz-adv-x="744" 
d="M708 546v-58h-69v-488h-78v318h-377v-318h-78v488h-70v58h70v120h78v-120h377v120h78v-120h69zM184 384h377v104h-377v-104z" />
    <glyph glyph-name="hbar" unicode="&#x127;" horiz-adv-x="527" 
d="M79 0v576h-43v58h43v86h73v-86h163v-58h-163v-165q63 81 156 81q72 0 106.5 -41.5t34.5 -108.5v-342h-73v328q0 98 -85 98q-76 0 -139 -88v-338h-73z" />
    <glyph glyph-name="Itilde" unicode="&#x128;" horiz-adv-x="282" 
d="M102 0v666h78v-666h-78zM190 723q-25 0 -56.5 19.5t-49.5 19.5q-7 0 -13 -2t-12 -6.5t-9.5 -8t-8.5 -9t-6 -6.5l-39 37q43 60 94 60q26 0 57 -19.5t49 -19.5q26 0 51 31l39 -38q-45 -58 -96 -58z" />
    <glyph glyph-name="itilde" unicode="&#x129;" horiz-adv-x="250" 
d="M88 0v480h74v-480h-74zM174 543q-25 0 -56.5 19.5t-49.5 19.5q-7 0 -13 -2t-12 -6.5t-9.5 -8t-8.5 -9t-6 -6.5l-39 37q43 60 94 60q26 0 57 -19.5t49 -19.5q26 0 51 31l39 -38q-45 -58 -96 -58z" />
    <glyph glyph-name="Imacron" unicode="&#x12a;" horiz-adv-x="282" 
d="M102 0v666h78v-666h-78zM6 754v61h271v-61h-271z" />
    <glyph glyph-name="imacron" unicode="&#x12b;" horiz-adv-x="250" 
d="M88 0v480h74v-480h-74zM-10 574v61h271v-61h-271z" />
    <glyph glyph-name="Ibreve" unicode="&#x12c;" horiz-adv-x="282" 
d="M102 0v666h78v-666h-78zM142 716q-57 0 -97.5 36t-46.5 106h65q3 -38 23.5 -61t55.5 -23q34 0 54.5 23t23.5 61h65q-6 -70 -46.5 -106t-96.5 -36z" />
    <glyph glyph-name="ibreve" unicode="&#x12d;" horiz-adv-x="250" 
d="M126 536q-57 0 -97.5 36t-46.5 106h65q3 -38 23.5 -61t55.5 -23q34 0 54.5 23t23.5 61h65q-6 -70 -46.5 -106t-96.5 -36zM88 0v480h74v-480h-74z" />
    <glyph glyph-name="Iogonek" unicode="&#x12e;" horiz-adv-x="282" 
d="M136 -219q-46 0 -72 26t-26 66q0 62 65 127h-1v666h78v-666l-6 -2q-30 -10 -52 -43.5t-22 -72.5q0 -49 50 -49q22 0 43 8l11 -43q-32 -17 -68 -17z" />
    <glyph glyph-name="iogonek" unicode="&#x12f;" horiz-adv-x="250" 
d="M122 -219q-46 0 -72 26t-26 66q0 62 65 127h-1v480h74v-480l-5 -2q-25 -10 -48 -43.5t-23 -72.5q0 -49 50 -49q22 0 43 8l11 -43q-32 -17 -68 -17zM125 570q-23 0 -38.5 16t-15.5 38t15.5 38t38.5 16t38.5 -16t15.5 -38t-15.5 -38t-38.5 -16z" />
    <glyph glyph-name="Idotaccent" unicode="&#x130;" horiz-adv-x="282" 
d="M102 0v666h78v-666h-78zM141 750q-23 0 -38.5 16t-15.5 38t15.5 38t38.5 16t38.5 -16t15.5 -38t-15.5 -38t-38.5 -16z" />
    <glyph glyph-name="dotlessi" unicode="&#x131;" horiz-adv-x="250" 
d="M88 0v480h74v-480h-74z" />
    <glyph glyph-name="IJ" unicode="&#x132;" horiz-adv-x="565" 
d="M318 -190q-37 0 -57 10l12 67q16 -7 39 -7q79 0 79 118v668h78v-680q0 -85 -38.5 -130.5t-112.5 -45.5zM102 0v666h78v-666h-78z" />
    <glyph glyph-name="ij" unicode="&#x133;" horiz-adv-x="489" 
d="M270 -230q-38 0 -52 7l12 61q12 -5 34 -5q38 0 54 29t16 87v531h73v-544q0 -166 -137 -166zM369 570q-23 0 -38.5 16t-15.5 38t15.5 38t38.5 16t38.5 -16t15.5 -38t-15.5 -38t-38.5 -16zM125 570q-23 0 -38.5 16t-15.5 38t15.5 38t38.5 16t38.5 -16t15.5 -38t-15.5 -38
t-38.5 -16zM88 0v480h74v-480h-74z" />
    <glyph glyph-name="Jcircumflex" unicode="&#x134;" horiz-adv-x="283" 
d="M36 -190q-37 0 -57 10l12 67q16 -7 39 -7q79 0 79 118v668h78v-680q0 -85 -38.5 -130.5t-112.5 -45.5zM-1 721l123 153h54l121 -153h-69l-81 85l-79 -85h-69z" />
    <glyph glyph-name="jcircumflex" unicode="&#x135;" horiz-adv-x="239" 
d="M20 -230q-38 0 -52 7l12 61q12 -5 34 -5q38 0 54 29t16 87v531h73v-544q0 -166 -137 -166zM-28 541l123 153h54l121 -153h-69l-81 85l-79 -85h-69z" />
    <glyph glyph-name="Kcommaaccent" unicode="&#x136;" horiz-adv-x="569" 
d="M456 0l-280 347l268 319h91l-268 -314l286 -352h-97zM96 0v666h77v-666h-77zM299 -50q21 0 36 -15.5t15 -41.5q0 -62 -68 -120l-25 22q2 2 7 6.5t7.5 7t6 7t5.5 8.5t3.5 9t1.5 11q0 15 -15 32.5t-15 34.5t11.5 28t29.5 11z" />
    <glyph glyph-name="kcommaaccent" unicode="&#x137;" horiz-adv-x="468" 
d="M362 0l-205 268l198 212h87l-200 -212l209 -268h-89zM79 0v720h73v-720h-73zM240 -50q21 0 36 -15.5t15 -41.5q0 -62 -68 -120l-25 22q2 2 7 6.5t7.5 7t6 7t5.5 8.5t3.5 9t1.5 11q0 15 -15 32.5t-15 34.5t11.5 28t29.5 11z" />
    <glyph glyph-name="kgreenlandic" unicode="&#x138;" horiz-adv-x="468" 
d="M362 0l-205 268l198 212h87l-200 -212l209 -268h-89zM79 0v480h73v-480h-73z" />
    <glyph glyph-name="Lacute" unicode="&#x139;" horiz-adv-x="473" 
d="M96 0v666h78v-600h262v-66h-340zM102 720l92 126h109l-135 -126h-66z" />
    <glyph glyph-name="lacute" unicode="&#x13a;" horiz-adv-x="241" 
d="M84 0v720h73v-720h-73zM86 780l92 126h109l-135 -126h-66z" />
    <glyph glyph-name="Lcommaaccent" unicode="&#x13b;" horiz-adv-x="473" 
d="M96 0v666h78v-600h262v-66h-340zM261 -50q21 0 36 -15.5t15 -41.5q0 -62 -68 -120l-25 22q2 2 7 6.5t7.5 7t6 7t5.5 8.5t3.5 9t1.5 11q0 15 -15 32.5t-15 34.5t11.5 28t29.5 11z" />
    <glyph glyph-name="lcommaaccent" unicode="&#x13c;" horiz-adv-x="241" 
d="M84 0v720h73v-720h-73zM115 -50q21 0 36 -15.5t15 -41.5q0 -62 -68 -120l-25 22q2 2 7 6.5t7.5 7t6 7t5.5 8.5t3.5 9t1.5 11q0 15 -15 32.5t-15 34.5t11.5 28t29.5 11z" />
    <glyph glyph-name="Lcaron" unicode="&#x13d;" horiz-adv-x="473" 
d="M96 0v666h78v-600h262v-66h-340zM232 530l42 166h91l-77 -166h-56z" />
    <glyph glyph-name="lcaron" unicode="&#x13e;" horiz-adv-x="251" 
d="M84 0v720h73v-720h-73zM205 554l42 166h91l-77 -166h-56z" />
    <glyph glyph-name="Ldot" unicode="&#x13f;" horiz-adv-x="473" 
d="M96 0v666h78v-600h262v-66h-340zM364 301q-22 0 -38 15.5t-16 38.5t16 38.5t38 15.5t38 -15.5t16 -38.5t-16 -38.5t-38 -15.5z" />
    <glyph glyph-name="ldot" unicode="&#x140;" horiz-adv-x="327" 
d="M84 0v720h73v-720h-73zM283 298q-23 0 -38.5 16t-15.5 38t15.5 38t38.5 16t38.5 -16t15.5 -38t-15.5 -38t-38.5 -16z" />
    <glyph glyph-name="Lslash" unicode="&#x141;" horiz-adv-x="479" 
d="M96 0v280l-73 -57l-32 42l105 84v317h78v-256l106 84l34 -43l-140 -110v-275h262v-66h-340z" />
    <glyph glyph-name="lslash" unicode="&#x142;" horiz-adv-x="270" 
d="M91 0v278l-67 -54v68l67 54v374h73v-314l81 66v-69l-81 -66v-337h-73z" />
    <glyph glyph-name="Nacute" unicode="&#x143;" horiz-adv-x="711" 
d="M94 0v666h77l314 -451q25 -36 62 -98h2q-4 52 -4 90v459h72v-666h-72l-329 475q-14 20 -52 86h-2q4 -52 4 -73v-488h-72zM321 720l92 126h109l-135 -126h-66z" />
    <glyph glyph-name="nacute" unicode="&#x144;" horiz-adv-x="530" 
d="M82 0v480h73v-69q64 81 156 81q72 0 106.5 -41.5t34.5 -108.5v-342h-73v328q0 98 -85 98q-75 0 -139 -88v-338h-73zM223 540l92 126h109l-135 -126h-66z" />
    <glyph glyph-name="Ncommaaccent" unicode="&#x145;" horiz-adv-x="711" 
d="M94 0v666h77l314 -451q25 -36 62 -98h2q-4 52 -4 90v459h72v-666h-72l-329 475q-14 20 -52 86h-2q4 -52 4 -73v-488h-72zM350 -50q21 0 36 -15.5t15 -41.5q0 -62 -68 -120l-25 22q2 2 7 6.5t7.5 7t6 7t5.5 8.5t3.5 9t1.5 11q0 15 -15 32.5t-15 34.5t11.5 28t29.5 11z" />
    <glyph glyph-name="ncommaaccent" unicode="&#x146;" horiz-adv-x="530" 
d="M82 0v480h73v-69q64 81 156 81q72 0 106.5 -41.5t34.5 -108.5v-342h-73v328q0 98 -85 98q-75 0 -139 -88v-338h-73zM262 -50q21 0 36 -15.5t15 -41.5q0 -62 -68 -120l-25 22q2 2 7 6.5t7.5 7t6 7t5.5 8.5t3.5 9t1.5 11q0 15 -15 32.5t-15 34.5t11.5 28t29.5 11z" />
    <glyph glyph-name="Ncaron" unicode="&#x147;" horiz-adv-x="711" 
d="M94 0v666h77l314 -451q25 -36 62 -98h2q-4 52 -4 90v459h72v-666h-72l-329 475q-14 20 -52 86h-2q4 -52 4 -73v-488h-72zM327 719l-121 153h69l81 -85l79 85h69l-123 -153h-54z" />
    <glyph glyph-name="ncaron" unicode="&#x148;" horiz-adv-x="530" 
d="M82 0v480h73v-69q64 81 156 81q72 0 106.5 -41.5t34.5 -108.5v-342h-73v328q0 98 -85 98q-75 0 -139 -88v-338h-73zM229 539l-121 153h69l81 -85l79 85h69l-123 -153h-54z" />
    <glyph glyph-name="napostrophe" unicode="&#x149;" horiz-adv-x="751" 
d="M114 678q25 0 43 -17.5t18 -48.5q0 -51 -36 -101.5t-78 -82.5l-29 26q55 53 55 92q0 16 -13.5 37.5t-13.5 40.5q0 23 15.5 38.5t38.5 15.5zM303 0v480h73v-69q64 81 156 81q72 0 106.5 -41.5t34.5 -108.5v-342h-73v328q0 98 -85 98q-75 0 -139 -88v-338h-73z" />
    <glyph glyph-name="Eng" unicode="&#x14a;" horiz-adv-x="711" 
d="M94 0v666h77l314 -451q25 -36 62 -98h2q-4 52 -4 90v459h72v-680q0 -85 -38.5 -130.5t-112.5 -45.5q-37 0 -57 10l12 64q16 -7 39 -7q82 0 85 123l-329 475q-14 20 -52 86h-2q4 -52 4 -73v-488h-72z" />
    <glyph glyph-name="eng" unicode="&#x14b;" horiz-adv-x="530" 
d="M82 0v480h73v-69q64 81 156 81q72 0 106.5 -41.5t34.5 -108.5v-406q0 -166 -137 -166q-38 0 -52 7l12 61q13 -5 34 -5q38 0 54 29t16 87v379q0 98 -85 98q-75 0 -139 -88v-338h-73z" />
    <glyph glyph-name="Omacron" unicode="&#x14c;" horiz-adv-x="760" 
d="M381 -12q-149 0 -238.5 100.5t-89.5 243.5q0 144 89 245t237 101q149 0 238.5 -100.5t89.5 -243.5q0 -144 -89 -245t-237 -101zM379 53q115 0 180.5 80.5t65.5 198.5q0 119 -65 200t-179 81q-115 0 -180.5 -80.5t-65.5 -198.5q0 -119 65 -200t179 -81zM245 754v61h271
v-61h-271z" />
    <glyph glyph-name="omacron" unicode="&#x14d;" horiz-adv-x="528" 
d="M262 -12q-58 0 -102.5 23t-69.5 61t-37.5 80.5t-12.5 86.5q0 45 12 87.5t36.5 80.5t68.5 61.5t102 23.5t103.5 -23t72 -60.5t40 -80.5t13.5 -87t-13 -87t-39 -81t-71 -61.5t-103 -23.5zM263 51q72 0 109.5 53t37.5 135q0 81 -40 135.5t-112 54.5q-71 0 -105.5 -52.5
t-34.5 -135.5t37 -136.5t108 -53.5zM129 574v61h271v-61h-271z" />
    <glyph glyph-name="Obreve" unicode="&#x14e;" horiz-adv-x="760" 
d="M381 -12q-149 0 -238.5 100.5t-89.5 243.5q0 144 89 245t237 101q149 0 238.5 -100.5t89.5 -243.5q0 -144 -89 -245t-237 -101zM379 53q115 0 180.5 80.5t65.5 198.5q0 119 -65 200t-179 81q-115 0 -180.5 -80.5t-65.5 -198.5q0 -119 65 -200t179 -81zM381 716
q-57 0 -97.5 36t-46.5 106h65q3 -38 23.5 -61t55.5 -23q34 0 54.5 23t23.5 61h65q-6 -70 -46.5 -106t-96.5 -36z" />
    <glyph glyph-name="obreve" unicode="&#x14f;" horiz-adv-x="528" 
d="M262 -12q-58 0 -102.5 23t-69.5 61t-37.5 80.5t-12.5 86.5q0 45 12 87.5t36.5 80.5t68.5 61.5t102 23.5t103.5 -23t72 -60.5t40 -80.5t13.5 -87t-13 -87t-39 -81t-71 -61.5t-103 -23.5zM263 51q72 0 109.5 53t37.5 135q0 81 -40 135.5t-112 54.5q-71 0 -105.5 -52.5
t-34.5 -135.5t37 -136.5t108 -53.5zM265 536q-57 0 -97.5 36t-46.5 106h65q3 -38 23.5 -61t55.5 -23q34 0 54.5 23t23.5 61h65q-6 -70 -46.5 -106t-96.5 -36z" />
    <glyph glyph-name="Ohungarumlaut" unicode="&#x150;" horiz-adv-x="760" 
d="M381 -12q-149 0 -238.5 100.5t-89.5 243.5q0 144 89 245t237 101q149 0 238.5 -100.5t89.5 -243.5q0 -144 -89 -245t-237 -101zM379 53q115 0 180.5 80.5t65.5 198.5q0 119 -65 200t-179 81q-115 0 -180.5 -80.5t-65.5 -198.5q0 -119 65 -200t179 -81zM245 720l93 126
h105l-133 -126h-65zM409 720l93 126h105l-133 -126h-65z" />
    <glyph glyph-name="ohungarumlaut" unicode="&#x151;" horiz-adv-x="528" 
d="M262 -12q-58 0 -102.5 23t-69.5 61t-37.5 80.5t-12.5 86.5q0 45 12 87.5t36.5 80.5t68.5 61.5t102 23.5t103.5 -23t72 -60.5t40 -80.5t13.5 -87t-13 -87t-39 -81t-71 -61.5t-103 -23.5zM263 51q72 0 109.5 53t37.5 135q0 81 -40 135.5t-112 54.5q-71 0 -105.5 -52.5
t-34.5 -135.5t37 -136.5t108 -53.5zM129 540l93 126h105l-133 -126h-65zM293 540l93 126h105l-133 -126h-65z" />
    <glyph glyph-name="OE" unicode="&#x152;" horiz-adv-x="885" 
d="M381 -12q-149 0 -238.5 100.5t-89.5 243.5q0 144 89 245t237 101q53 0 99 -12h342v-66h-264v-214h232v-66h-232v-254h271v-66h-349q-44 -12 -97 -12zM379 53q55 0 99 18v523q-44 19 -97 19q-115 0 -180.5 -80.5t-65.5 -198.5q0 -119 65 -200t179 -81z" />
    <glyph glyph-name="oe" unicode="&#x153;" horiz-adv-x="859" 
d="M262 -12q-58 0 -102.5 23t-69.5 61t-37.5 80.5t-12.5 86.5q0 45 12 87.5t36.5 80.5t68.5 61.5t102 23.5q128 0 188 -106q59 106 178 106q88 0 138.5 -59t50.5 -157q0 -17 -2 -34h-325q1 -84 37.5 -137.5t113.5 -53.5q64 0 133 43l30 -57q-73 -49 -165 -49q-64 0 -113 28
t-75 77q-63 -105 -186 -105zM263 51q72 0 109.5 53t37.5 135q0 81 -40 135.5t-112 54.5q-71 0 -105.5 -52.5t-34.5 -135.5t37 -136.5t108 -53.5zM491 300h248q-2 56 -30 92.5t-86 36.5q-55 0 -88.5 -35t-43.5 -94z" />
    <glyph glyph-name="Racute" unicode="&#x154;" horiz-adv-x="570" 
d="M96 0v666h181q104 0 162.5 -46.5t58.5 -130.5q0 -80 -52 -124.5t-135 -49.5v-2q20 -14 70 -83l165 -230h-92l-134 189q-57 81 -79 99.5t-56 18.5h-11v-307h-78zM174 371h100q144 0 144 116q0 113 -150 113h-94v-229zM247 720l92 126h109l-135 -126h-66z" />
    <glyph glyph-name="racute" unicode="&#x155;" horiz-adv-x="345" 
d="M82 0v480h73v-75q52 87 128 87q30 0 50 -10l-18 -70q-13 8 -42 8q-32 0 -61 -23t-40 -41.5t-17 -33.5v-322h-73zM163 540l92 126h109l-135 -126h-66z" />
    <glyph glyph-name="Rcommaaccent" unicode="&#x156;" horiz-adv-x="570" 
d="M96 0v666h181q104 0 162.5 -46.5t58.5 -130.5q0 -80 -52 -124.5t-135 -49.5v-2q20 -14 70 -83l165 -230h-92l-134 189q-57 81 -79 99.5t-56 18.5h-11v-307h-78zM174 371h100q144 0 144 116q0 113 -150 113h-94v-229zM296 -50q21 0 36 -15.5t15 -41.5q0 -62 -68 -120
l-25 22q2 2 7 6.5t7.5 7t6 7t5.5 8.5t3.5 9t1.5 11q0 15 -15 32.5t-15 34.5t11.5 28t29.5 11z" />
    <glyph glyph-name="rcommaaccent" unicode="&#x157;" horiz-adv-x="345" 
d="M82 0v480h73v-75q52 87 128 87q30 0 50 -10l-18 -70q-13 8 -42 8q-32 0 -61 -23t-40 -41.5t-17 -33.5v-322h-73zM119 -50q21 0 36 -15.5t15 -41.5q0 -62 -68 -120l-25 22q2 2 7 6.5t7.5 7t6 7t5.5 8.5t3.5 9t1.5 11q0 15 -15 32.5t-15 34.5t11.5 28t29.5 11z" />
    <glyph glyph-name="Rcaron" unicode="&#x158;" horiz-adv-x="570" 
d="M96 0v666h181q104 0 162.5 -46.5t58.5 -130.5q0 -80 -52 -124.5t-135 -49.5v-2q20 -14 70 -83l165 -230h-92l-134 189q-57 81 -79 99.5t-56 18.5h-11v-307h-78zM174 371h100q144 0 144 116q0 113 -150 113h-94v-229zM253 719l-121 153h69l81 -85l79 85h69l-123 -153h-54z
" />
    <glyph glyph-name="rcaron" unicode="&#x159;" horiz-adv-x="345" 
d="M82 0v480h73v-75q52 87 128 87q30 0 50 -10l-18 -70q-13 8 -42 8q-32 0 -61 -23t-40 -41.5t-17 -33.5v-322h-73zM169 539l-121 153h69l81 -85l79 85h69l-123 -153h-54z" />
    <glyph glyph-name="Sacute" unicode="&#x15a;" horiz-adv-x="499" 
d="M233 -12q-118 0 -189 68l40 56q63 -59 152 -59q60 0 98 33.5t38 79.5q0 28 -9.5 49.5t-38 42t-40 27.5t-56.5 29q-6 3 -9 5q-50 25 -78.5 44t-52.5 57t-24 88q0 78 56.5 124t137.5 46q106 0 175 -53l-38 -58q-59 46 -138 46q-50 0 -83 -28t-33 -73t30 -72.5t90 -55.5
q29 -14 39 -19t36.5 -19.5t37 -24t29.5 -27.5t26.5 -35t14.5 -41t7 -51q0 -79 -60.5 -129t-157.5 -50zM213 720l92 126h109l-135 -126h-66z" />
    <glyph glyph-name="sacute" unicode="&#x15b;" horiz-adv-x="408" 
d="M193 -13q-86 0 -152 46l32 56q54 -39 119 -39q45 0 71.5 18t26.5 51q0 31 -23.5 49.5t-82.5 43.5q-66 28 -99 60t-33 88q0 57 41 94.5t111 37.5q84 0 142 -46l-36 -53q-47 36 -107 36q-38 0 -59 -17.5t-21 -48.5t22 -48.5t70 -37.5q36 -15 57.5 -26.5t45.5 -29t35 -40.5
t11 -52q0 -65 -46 -103.5t-125 -38.5zM168 540l92 126h109l-135 -126h-66z" />
    <glyph glyph-name="Scircumflex" unicode="&#x15c;" horiz-adv-x="499" 
d="M233 -12q-118 0 -189 68l40 56q63 -59 152 -59q60 0 98 33.5t38 79.5q0 28 -9.5 49.5t-38 42t-40 27.5t-56.5 29q-6 3 -9 5q-50 25 -78.5 44t-52.5 57t-24 88q0 78 56.5 124t137.5 46q106 0 175 -53l-38 -58q-59 46 -138 46q-50 0 -83 -28t-33 -73t30 -72.5t90 -55.5
q29 -14 39 -19t36.5 -19.5t37 -24t29.5 -27.5t26.5 -35t14.5 -41t7 -51q0 -79 -60.5 -129t-157.5 -50zM98 721l123 153h54l121 -153h-69l-81 85l-79 -85h-69z" />
    <glyph glyph-name="scircumflex" unicode="&#x15d;" horiz-adv-x="408" 
d="M193 -13q-86 0 -152 46l32 56q54 -39 119 -39q45 0 71.5 18t26.5 51q0 31 -23.5 49.5t-82.5 43.5q-66 28 -99 60t-33 88q0 57 41 94.5t111 37.5q84 0 142 -46l-36 -53q-47 36 -107 36q-38 0 -59 -17.5t-21 -48.5t22 -48.5t70 -37.5q36 -15 57.5 -26.5t45.5 -29t35 -40.5
t11 -52q0 -65 -46 -103.5t-125 -38.5zM53 541l123 153h54l121 -153h-69l-81 85l-79 -85h-69z" />
    <glyph glyph-name="Scedilla" unicode="&#x15e;" horiz-adv-x="499" 
d="M195 -219q-40 0 -66 12l12 42q20 -11 53 -11q50 0 50 39q0 43 -71 41l32 85q-102 8 -161 67l40 56q63 -59 152 -59q60 0 98 33.5t38 79.5q0 28 -9.5 49.5t-38 42t-40 27.5t-56.5 29q-6 3 -9 5q-50 25 -78.5 44t-52.5 57t-24 88q0 78 56.5 124t137.5 46q106 0 175 -53
l-38 -58q-59 46 -138 46q-50 0 -83 -28t-33 -73t30 -72.5t90 -55.5q29 -14 39 -19t36.5 -19.5t37 -24t29.5 -27.5t26.5 -35t14.5 -41t7 -51q0 -74 -54 -123t-142 -55l-20 -55q31 -5 50.5 -23.5t19.5 -46.5q0 -39 -31.5 -61t-78.5 -22z" />
    <glyph glyph-name="scedilla" unicode="&#x15f;" horiz-adv-x="408" 
d="M160 -219q-40 0 -66 12l12 42q20 -11 53 -11q50 0 50 39q0 43 -71 41l31 84q-75 7 -128 45l32 56q54 -39 119 -39q45 0 71.5 18t26.5 51q0 31 -23.5 49.5t-82.5 43.5q-66 28 -99 60t-33 88q0 57 41 94.5t111 37.5q84 0 142 -46l-36 -53q-47 36 -107 36q-38 0 -59 -17.5
t-21 -48.5t22 -48.5t70 -37.5q36 -15 57.5 -26.5t45.5 -29t35 -40.5t11 -52q0 -59 -38.5 -96t-105.5 -44l-20 -55q31 -5 50.5 -23.5t19.5 -46.5q0 -39 -31.5 -61t-78.5 -22z" />
    <glyph glyph-name="Scaron" unicode="&#x160;" horiz-adv-x="499" 
d="M233 -12q-118 0 -189 68l40 56q63 -59 152 -59q60 0 98 33.5t38 79.5q0 28 -9.5 49.5t-38 42t-40 27.5t-56.5 29q-6 3 -9 5q-50 25 -78.5 44t-52.5 57t-24 88q0 78 56.5 124t137.5 46q106 0 175 -53l-38 -58q-59 46 -138 46q-50 0 -83 -28t-33 -73t30 -72.5t90 -55.5
q29 -14 39 -19t36.5 -19.5t37 -24t29.5 -27.5t26.5 -35t14.5 -41t7 -51q0 -79 -60.5 -129t-157.5 -50zM219 719l-121 153h69l81 -85l79 85h69l-123 -153h-54z" />
    <glyph glyph-name="scaron" unicode="&#x161;" horiz-adv-x="408" 
d="M193 -13q-86 0 -152 46l32 56q54 -39 119 -39q45 0 71.5 18t26.5 51q0 31 -23.5 49.5t-82.5 43.5q-66 28 -99 60t-33 88q0 57 41 94.5t111 37.5q84 0 142 -46l-36 -53q-47 36 -107 36q-38 0 -59 -17.5t-21 -48.5t22 -48.5t70 -37.5q36 -15 57.5 -26.5t45.5 -29t35 -40.5
t11 -52q0 -65 -46 -103.5t-125 -38.5zM174 539l-121 153h69l81 -85l79 85h69l-123 -153h-54z" />
    <glyph glyph-name="Tcommaaccent" unicode="&#x162;" horiz-adv-x="497" 
d="M209 0v600h-189v66h457v-66h-189v-600h-14l-25 -66q31 -5 50.5 -23.5t19.5 -46.5q0 -39 -31.5 -61t-78.5 -22q-40 0 -66 12l12 42q20 -11 53 -11q50 0 50 39q0 43 -71 41l36 96h-14z" />
    <glyph glyph-name="tcommaaccent" unicode="&#x163;" horiz-adv-x="348" 
d="M174 -219q-40 0 -66 12l12 42q20 -11 53 -11q50 0 50 39q0 43 -71 41l33 88q-81 20 -81 123v307h-79v58h79v137h73v-137h121v-58h-121v-300q0 -37 12.5 -54t43.5 -17q37 0 65 21l27 -55q-37 -25 -91 -29l-20 -54q31 -5 50.5 -23.5t19.5 -46.5q0 -39 -31.5 -61t-78.5 -22z
" />
    <glyph glyph-name="Tcaron" unicode="&#x164;" horiz-adv-x="497" 
d="M209 0v600h-189v66h457v-66h-189v-600h-79zM220 719l-121 153h69l81 -85l79 85h69l-123 -153h-54z" />
    <glyph glyph-name="tcaron" unicode="&#x165;" horiz-adv-x="348" 
d="M224 -12q-59 0 -89.5 33t-30.5 94v307h-79v58h79v137h73v-137h121v-58h-121v-300q0 -37 12.5 -54t43.5 -17q37 0 65 21l27 -55q-45 -29 -101 -29zM225 554l42 166h91l-77 -166h-56z" />
    <glyph glyph-name="Tbar" unicode="&#x166;" horiz-adv-x="497" 
d="M40 352v58h169v190h-189v66h457v-66h-189v-190h168v-58h-168v-352h-79v352h-169z" />
    <glyph glyph-name="tbar" unicode="&#x167;" horiz-adv-x="348" 
d="M45 242v58h59v122h-79v58h79v137h73v-137h121v-58h-121v-122h101v-58h-101v-120q0 -37 12.5 -54t43.5 -17q37 0 65 21l27 -55q-45 -29 -101 -29q-59 0 -89.5 33t-30.5 94v127h-59z" />
    <glyph glyph-name="Utilde" unicode="&#x168;" horiz-adv-x="690" 
d="M348 -12q-132 0 -195 69.5t-63 191.5v417h78v-407q0 -104 44.5 -154t137.5 -50q87 0 132 51.5t45 138.5v421h73v-413q0 -126 -62.5 -195.5t-189.5 -69.5zM394 723q-25 0 -56.5 19.5t-49.5 19.5q-7 0 -13 -2t-12 -6.5t-9.5 -8t-8.5 -9t-6 -6.5l-39 37q43 60 94 60
q26 0 57 -19.5t49 -19.5q26 0 51 31l39 -38q-45 -58 -96 -58z" />
    <glyph glyph-name="utilde" unicode="&#x169;" horiz-adv-x="528" 
d="M218 -12q-72 0 -107 41.5t-35 108.5v342h73v-328q0 -98 86 -98q75 0 138 88v338h73v-379q0 -58 9 -101h-74q-5 32 -7 71q-61 -83 -156 -83zM314 543q-25 0 -56.5 19.5t-49.5 19.5q-7 0 -13 -2t-12 -6.5t-9.5 -8t-8.5 -9t-6 -6.5l-39 37q43 60 94 60q26 0 57 -19.5
t49 -19.5q26 0 51 31l39 -38q-45 -58 -96 -58z" />
    <glyph glyph-name="Umacron" unicode="&#x16a;" horiz-adv-x="690" 
d="M348 -12q-132 0 -195 69.5t-63 191.5v417h78v-407q0 -104 44.5 -154t137.5 -50q87 0 132 51.5t45 138.5v421h73v-413q0 -126 -62.5 -195.5t-189.5 -69.5zM210 754v61h271v-61h-271z" />
    <glyph glyph-name="umacron" unicode="&#x16b;" horiz-adv-x="528" 
d="M218 -12q-72 0 -107 41.5t-35 108.5v342h73v-328q0 -98 86 -98q75 0 138 88v338h73v-379q0 -58 9 -101h-74q-5 32 -7 71q-61 -83 -156 -83zM130 574v61h271v-61h-271z" />
    <glyph glyph-name="Ubreve" unicode="&#x16c;" horiz-adv-x="690" 
d="M348 -12q-132 0 -195 69.5t-63 191.5v417h78v-407q0 -104 44.5 -154t137.5 -50q87 0 132 51.5t45 138.5v421h73v-413q0 -126 -62.5 -195.5t-189.5 -69.5zM346 716q-57 0 -97.5 36t-46.5 106h65q3 -38 23.5 -61t55.5 -23q34 0 54.5 23t23.5 61h65q-6 -70 -46.5 -106
t-96.5 -36z" />
    <glyph glyph-name="ubreve" unicode="&#x16d;" horiz-adv-x="528" 
d="M218 -12q-72 0 -107 41.5t-35 108.5v342h73v-328q0 -98 86 -98q75 0 138 88v338h73v-379q0 -58 9 -101h-74q-5 32 -7 71q-61 -83 -156 -83zM266 536q-57 0 -97.5 36t-46.5 106h65q3 -38 23.5 -61t55.5 -23q34 0 54.5 23t23.5 61h65q-6 -70 -46.5 -106t-96.5 -36z" />
    <glyph glyph-name="Uring" unicode="&#x16e;" horiz-adv-x="690" 
d="M348 -12q-132 0 -195 69.5t-63 191.5v417h78v-407q0 -104 44.5 -154t137.5 -50q87 0 132 51.5t45 138.5v421h73v-413q0 -126 -62.5 -195.5t-189.5 -69.5zM345 725q-38 0 -66.5 28t-28.5 67t28.5 67t66.5 28t66.5 -28t28.5 -67t-28.5 -67t-66.5 -28zM345 765q22 0 36 16
t14 39t-13.5 39t-36.5 16t-36.5 -16t-13.5 -39t14 -39t36 -16z" />
    <glyph glyph-name="uring" unicode="&#x16f;" horiz-adv-x="528" 
d="M218 -12q-72 0 -107 41.5t-35 108.5v342h73v-328q0 -98 86 -98q75 0 138 88v338h73v-379q0 -58 9 -101h-74q-5 32 -7 71q-61 -83 -156 -83zM265 545q-38 0 -66.5 28t-28.5 67t28.5 67t66.5 28t66.5 -28t28.5 -67t-28.5 -67t-66.5 -28zM265 585q22 0 36 16t14 39t-13.5 39
t-36.5 16t-36.5 -16t-13.5 -39t14 -39t36 -16z" />
    <glyph glyph-name="Uhungarumlaut" unicode="&#x170;" horiz-adv-x="690" 
d="M348 -12q-132 0 -195 69.5t-63 191.5v417h78v-407q0 -104 44.5 -154t137.5 -50q87 0 132 51.5t45 138.5v421h73v-413q0 -126 -62.5 -195.5t-189.5 -69.5zM210 720l93 126h105l-133 -126h-65zM374 720l93 126h105l-133 -126h-65z" />
    <glyph glyph-name="uhungarumlaut" unicode="&#x171;" horiz-adv-x="528" 
d="M218 -12q-72 0 -107 41.5t-35 108.5v342h73v-328q0 -98 86 -98q75 0 138 88v338h73v-379q0 -58 9 -101h-74q-5 32 -7 71q-61 -83 -156 -83zM130 540l93 126h105l-133 -126h-65zM294 540l93 126h105l-133 -126h-65z" />
    <glyph glyph-name="Uogonek" unicode="&#x172;" horiz-adv-x="690" 
d="M473 -219q-46 0 -72 26t-26 66q0 37 21.5 72.5t47.5 57.5q-37 -15 -96 -15q-132 0 -195 69.5t-63 191.5v417h78v-407q0 -104 44.5 -154t137.5 -50q87 0 132 51.5t45 138.5v421h73v-413q0 -76 -23 -129t-88 -124q-52 -64 -52 -119q0 -48 50 -48q22 0 43 8l11 -43
q-32 -17 -68 -17z" />
    <glyph glyph-name="uogonek" unicode="&#x173;" horiz-adv-x="528" 
d="M415 -219q-46 0 -72 26t-26 66q0 63 64 127q-5 32 -7 71q-61 -83 -156 -83q-72 0 -107 41.5t-35 108.5v342h73v-328q0 -98 86 -98q75 0 138 88v338h73v-379q0 -65 10 -103l-8 -3q-28 -11 -48.5 -45.5t-20.5 -67.5q0 -49 50 -49q22 0 43 8l11 -43q-32 -17 -68 -17z" />
    <glyph glyph-name="Wcircumflex" unicode="&#x174;" horiz-adv-x="875" 
d="M203 0l-182 666h85l113 -445q4 -18 24 -116h2q10 48 29 116l128 445h80l126 -442q15 -52 28 -117h2l2 13l4.5 27t7 36.5t9.5 40.5l115 442h77l-183 -666h-71l-129 450q-12 41 -29 128h-2q-9 -47 -33 -128l-132 -450h-71zM288 721l123 153h54l121 -153h-69l-81 85l-79 -85
h-69z" />
    <glyph glyph-name="wcircumflex" unicode="&#x175;" horiz-adv-x="698" 
d="M160 0l-143 480h80l102 -363h2l113 363h71l113 -364h2l103 364h74l-144 -480h-66l-119 373h-2l-120 -373h-66zM198 541l123 153h54l121 -153h-69l-81 85l-79 -85h-69z" />
    <glyph glyph-name="Ycircumflex" unicode="&#x176;" horiz-adv-x="555" 
d="M241 0v252l-223 414h87l178 -340h1l178 340h75l-218 -414v-252h-78zM128 721l123 153h54l121 -153h-69l-81 85l-79 -85h-69z" />
    <glyph glyph-name="ycircumflex" unicode="&#x177;" horiz-adv-x="469" 
d="M57 -232q-23 0 -46 5l10 61q21 -3 37 -3q48 0 74 26t47 83l23 63l-181 477h82l137 -383h2l133 383h78l-204 -544q-30 -81 -71 -124.5t-121 -43.5zM88 541l123 153h54l121 -153h-69l-81 85l-79 -85h-69z" />
    <glyph glyph-name="Ydieresis" unicode="&#x178;" horiz-adv-x="555" 
d="M241 0v252l-223 414h87l178 -340h1l178 340h75l-218 -414v-252h-78zM183 718q-22 0 -37.5 16t-15.5 38t15.5 37.5t37.5 15.5t38 -15.5t16 -37.5t-15.5 -38t-38.5 -16zM370 718q-22 0 -37.5 16t-15.5 38t15.5 37.5t37.5 15.5t38 -15.5t16 -37.5t-16 -38t-38 -16z" />
    <glyph glyph-name="Zacute" unicode="&#x179;" horiz-adv-x="561" 
d="M46 0v55l364 547h-347v64h439v-51l-369 -551h381v-64h-468zM255 720l92 126h109l-135 -126h-66z" />
    <glyph glyph-name="zacute" unicode="&#x17a;" horiz-adv-x="423" 
d="M42 0v46l244 375h-230v59h319v-49l-245 -372h249v-59h-337zM181 540l92 126h109l-135 -126h-66z" />
    <glyph glyph-name="Zdotaccent" unicode="&#x17b;" horiz-adv-x="561" 
d="M46 0v55l364 547h-347v64h439v-51l-369 -551h381v-64h-468zM289 750q-23 0 -38.5 16t-15.5 38t15.5 38t38.5 16t38.5 -16t15.5 -38t-15.5 -38t-38.5 -16z" />
    <glyph glyph-name="zdotaccent" unicode="&#x17c;" horiz-adv-x="423" 
d="M42 0v46l244 375h-230v59h319v-49l-245 -372h249v-59h-337zM215 570q-23 0 -38.5 16t-15.5 38t15.5 38t38.5 16t38.5 -16t15.5 -38t-15.5 -38t-38.5 -16z" />
    <glyph glyph-name="Zcaron" unicode="&#x17d;" horiz-adv-x="561" 
d="M46 0v55l364 547h-347v64h439v-51l-369 -551h381v-64h-468zM261 719l-121 153h69l81 -85l79 85h69l-123 -153h-54z" />
    <glyph glyph-name="zcaron" unicode="&#x17e;" horiz-adv-x="423" 
d="M42 0v46l244 375h-230v59h319v-49l-245 -372h249v-59h-337zM187 539l-121 153h69l81 -85l79 85h69l-123 -153h-54z" />
    <glyph glyph-name="longs" unicode="&#x17f;" horiz-adv-x="263" 
d="M86 0v551q0 83 46.5 132t128.5 49q54 0 80 -13l-19 -63q-24 12 -63 12q-48 0 -74 -31.5t-26 -90.5v-546h-73z" />
    <glyph glyph-name="uni018F" unicode="&#x18f;" horiz-adv-x="723" 
d="M162 541l-42 52q91 85 232 85q144 0 231 -100.5t87 -243.5q0 -144 -83.5 -245t-222.5 -101q-140 0 -224 100.5t-84 243.5v16h532q-5 113 -67 189t-167 76q-110 0 -192 -72zM362 53q94 0 152 64t71 165h-444q13 -100 71 -164.5t150 -64.5z" />
    <glyph glyph-name="florin" unicode="&#x192;" horiz-adv-x="435" 
d="M23 -188q-54 0 -88 20l23 59q30 -15 58 -15q102 0 117 133l40 359h-103l8 58h102l14 129q9 85 57 131t132 46q60 0 108 -29l-29 -59q-34 24 -88 24q-55 0 -80 -33.5t-32 -99.5l-12 -109h112l-10 -58h-108l-41 -368q-10 -86 -54 -137t-126 -51z" />
    <glyph glyph-name="Aringacute" unicode="&#x1fa;" horiz-adv-x="627" 
d="M21 0l244 636q-49 24 -49 71q0 34 28.5 58t66.5 24t66.5 -24t28.5 -58q0 -44 -44 -68l246 -639h-85l-61 165h-303l-61 -165h-77zM184 231h253l-84 228q-4 10 -41 115h-2q-16 -47 -41 -115zM278 802l66 91h97l-97 -91h-66zM311 666q23 0 36.5 12t13.5 30t-13.5 30
t-36.5 12t-36.5 -12t-13.5 -30t13.5 -30t36.5 -12z" />
    <glyph glyph-name="aringacute" unicode="&#x1fb;" horiz-adv-x="472" 
d="M181 -12q-61 0 -99 35.5t-38 93.5q0 45 23 79t62 51.5t81.5 26t89.5 8.5h21v45q0 53 -23 76.5t-73 23.5q-66 0 -125 -52l-39 51q70 66 169 66q164 0 164 -159v-224q0 -67 11 -109h-73q-4 19 -7 58q-56 -70 -144 -70zM193 51q76 0 128 69v108h-21q-178 0 -178 -109
q0 -34 22.5 -51t48.5 -17zM230 545q-38 0 -66.5 28t-28.5 67t28.5 67t66.5 28t66.5 -28t28.5 -67t-28.5 -67t-66.5 -28zM230 585q22 0 36 16t14 39t-13.5 39t-36.5 16t-36.5 -16t-13.5 -39t14 -39t36 -16zM179 767l92 126h109l-135 -126h-66z" />
    <glyph glyph-name="AEacute" unicode="&#x1fc;" horiz-adv-x="815" 
d="M-15 0l383 666h382v-66h-264v-214h232v-66h-232v-254h271v-66h-349v182h-236l-102 -182h-85zM209 247h199v355zM487 720l92 126h109l-135 -126h-66z" />
    <glyph glyph-name="aeacute" unicode="&#x1fd;" horiz-adv-x="770" 
d="M181 -12q-61 0 -99 35.5t-38 93.5q0 45 23 79t62 51.5t81.5 26t89.5 8.5h22v45q0 49 -22 74.5t-75 25.5q-63 0 -125 -52l-39 51q72 66 169 66q110 0 146 -78q62 78 160 78q88 0 138.5 -59t50.5 -157q0 -10 -2 -34h-325q2 -84 38.5 -137.5t112.5 -53.5q64 0 133 43l30 -57
q-74 -49 -165 -49q-120 0 -183 96q-79 -96 -183 -96zM193 51q90 0 145 85q-15 45 -18 92h-20q-178 0 -178 -109q0 -34 22.5 -51t48.5 -17zM402 300h248q-2 56 -30 92.5t-86 36.5q-55 0 -88.5 -35t-43.5 -94zM324 540l92 126h109l-135 -126h-66z" />
    <glyph glyph-name="Oslashacute" unicode="&#x1fe;" horiz-adv-x="760" 
d="M624 721l44 -33l-65 -96q104 -99 104 -258q0 -144 -89 -245t-237 -101q-88 0 -159 38l-62 -91l-43 31l60 90q-59 48 -91.5 120.5t-32.5 155.5q0 144 89 245t237 101q104 0 181 -52zM560 531l-302 -447q53 -31 121 -31q115 0 180.5 80.5t65.5 198.5q0 122 -65 199z
M218 114l304 454q-59 45 -141 45q-115 0 -180.5 -80.5t-65.5 -198.5q0 -142 83 -220zM346 720l92 126h109l-135 -126h-66z" />
    <glyph glyph-name="oslashacute" unicode="&#x1ff;" horiz-adv-x="528" 
d="M88 -55l-39 27l55 82q-64 73 -64 185q0 45 12 87.5t36.5 80.5t68.5 61.5t102 23.5q64 0 114 -29l58 88l42 -29l-60 -90q37 -37 56 -88.5t19 -102.5q0 -44 -13 -87t-39 -81t-71 -61.5t-103 -23.5q-72 0 -123 35zM263 48q72 0 110.5 54.5t38.5 136.5q0 84 -39 135
l-198 -296q36 -30 88 -30zM116 241q0 -76 28 -126l193 293q-36 23 -79 23q-71 0 -106.5 -53.5t-35.5 -136.5zM230 540l92 126h109l-135 -126h-66z" />
    <glyph glyph-name="Scommaaccent" unicode="&#x218;" horiz-adv-x="499" 
d="M233 -12q-118 0 -189 68l40 56q63 -59 152 -59q60 0 98 33.5t38 79.5q0 28 -9.5 49.5t-38 42t-40 27.5t-56.5 29q-6 3 -9 5q-50 25 -78.5 44t-52.5 57t-24 88q0 78 56.5 124t137.5 46q106 0 175 -53l-38 -58q-59 46 -138 46q-50 0 -83 -28t-33 -73t30 -72.5t90 -55.5
q29 -14 39 -19t36.5 -19.5t37 -24t29.5 -27.5t26.5 -35t14.5 -41t7 -51q0 -79 -60.5 -129t-157.5 -50zM242 -50q21 0 36 -15.5t15 -41.5q0 -62 -68 -120l-25 22q2 2 7 6.5t7.5 7t6 7t5.5 8.5t3.5 9t1.5 11q0 15 -15 32.5t-15 34.5t11.5 28t29.5 11z" />
    <glyph glyph-name="scommaaccent" unicode="&#x219;" horiz-adv-x="408" 
d="M193 -13q-86 0 -152 46l32 56q54 -39 119 -39q45 0 71.5 18t26.5 51q0 31 -23.5 49.5t-82.5 43.5q-66 28 -99 60t-33 88q0 57 41 94.5t111 37.5q84 0 142 -46l-36 -53q-47 36 -107 36q-38 0 -59 -17.5t-21 -48.5t22 -48.5t70 -37.5q36 -15 57.5 -26.5t45.5 -29t35 -40.5
t11 -52q0 -65 -46 -103.5t-125 -38.5zM197 -50q21 0 36 -15.5t15 -41.5q0 -62 -68 -120l-25 22q2 2 7 6.5t7.5 7t6 7t5.5 8.5t3.5 9t1.5 11q0 15 -15 32.5t-15 34.5t11.5 28t29.5 11z" />
    <glyph glyph-name="uni021A" unicode="&#x21a;" horiz-adv-x="497" 
d="M209 0v600h-189v66h457v-66h-189v-600h-79zM243 -50q21 0 36 -15.5t15 -41.5q0 -62 -68 -120l-25 22q2 2 7 6.5t7.5 7t6 7t5.5 8.5t3.5 9t1.5 11q0 15 -15 32.5t-15 34.5t11.5 28t29.5 11z" />
    <glyph glyph-name="uni021B" unicode="&#x21b;" horiz-adv-x="348" 
d="M224 -12q-59 0 -89.5 33t-30.5 94v307h-79v58h79v137h73v-137h121v-58h-121v-300q0 -37 12.5 -54t43.5 -17q37 0 65 21l27 -55q-45 -29 -101 -29zM215 -50q21 0 36 -15.5t15 -41.5q0 -62 -68 -120l-25 22q2 2 7 6.5t7.5 7t6 7t5.5 8.5t3.5 9t1.5 11q0 15 -15 32.5
t-15 34.5t11.5 28t29.5 11z" />
    <glyph glyph-name="uni0237" unicode="&#x237;" horiz-adv-x="239" 
d="M20 -230q-38 0 -52 7l12 61q12 -5 34 -5q38 0 54 29t16 87v531h73v-544q0 -166 -137 -166z" />
    <glyph glyph-name="uni0259" unicode="&#x259;" horiz-adv-x="490" 
d="M223 492q109 0 168 -71.5t59 -183.5q0 -107 -60.5 -178t-155.5 -71q-88 0 -138.5 58.5t-50.5 157.5q0 10 2 34h325q-2 84 -38.5 137.5t-112.5 53.5q-64 0 -133 -43l-30 57q74 49 165 49zM368 180h-248q2 -56 30 -92.5t86 -36.5q55 0 88.5 35t43.5 94z" />
    <glyph glyph-name="uni02BB" unicode="&#x2bb;" horiz-adv-x="221" 
d="M107 434q-25 0 -43 17.5t-18 48.5q0 51 36 101.5t78 82.5l29 -26q-55 -53 -55 -92q0 -16 13.5 -37.5t13.5 -40.5q0 -23 -15.5 -38.5t-38.5 -15.5z" />
    <glyph glyph-name="afii57929" unicode="&#x2bc;" horiz-adv-x="221" 
d="M114 678q25 0 43 -17.5t18 -48.5q0 -51 -36 -101.5t-78 -82.5l-29 26q55 53 55 92q0 16 -13.5 37.5t-13.5 40.5q0 23 15.5 38.5t38.5 15.5z" />
    <glyph glyph-name="circumflex" unicode="&#x2c6;" horiz-adv-x="500" 
d="M101 541l123 153h54l121 -153h-69l-81 85l-79 -85h-69z" />
    <glyph glyph-name="caron" unicode="&#x2c7;" horiz-adv-x="500" 
d="M222 539l-121 153h69l81 -85l79 85h69l-123 -153h-54z" />
    <glyph glyph-name="breve" unicode="&#x2d8;" horiz-adv-x="500" 
d="M250 536q-57 0 -97.5 36t-46.5 106h65q3 -38 23.5 -61t55.5 -23q34 0 54.5 23t23.5 61h65q-6 -70 -46.5 -106t-96.5 -36z" />
    <glyph glyph-name="dotaccent" unicode="&#x2d9;" horiz-adv-x="500" 
d="M250 570q-22 0 -38 16t-16 38t16 38t38 16t38 -16t16 -38t-16 -38t-38 -16z" />
    <glyph glyph-name="ring" unicode="&#x2da;" horiz-adv-x="500" 
d="M250 545q-38 0 -66.5 28t-28.5 67t28.5 67t66.5 28t66.5 -28t28.5 -67t-28.5 -67t-66.5 -28zM250 585q22 0 36 16t14 39t-13.5 39t-36.5 16t-36.5 -16t-13.5 -39t14 -39t36 -16z" />
    <glyph glyph-name="ogonek" unicode="&#x2db;" horiz-adv-x="500" 
d="M263 -219q-46 0 -72 26t-26 66q0 63 64 127h50q-52 -66 -52 -119q0 -48 50 -48q22 0 43 8l11 -43q-32 -17 -68 -17z" />
    <glyph glyph-name="tilde" unicode="&#x2dc;" horiz-adv-x="500" 
d="M299 543q-25 0 -56.5 19.5t-49.5 19.5q-7 0 -13 -2t-12 -6.5t-9.5 -8t-8.5 -9t-6 -6.5l-39 37q43 60 94 60q27 0 58 -19.5t48 -19.5q26 0 51 31l39 -38q-45 -58 -96 -58z" />
    <glyph glyph-name="hungarumlaut" unicode="&#x2dd;" horiz-adv-x="500" 
d="M80 540l93 126h105l-133 -126h-65zM244 540l93 126h105l-133 -126h-65z" />
    <glyph glyph-name="gravecomb" unicode="&#x300;" 
d="M-292 540l-135 126h109l92 -126h-66z" />
    <glyph glyph-name="acutecomb" unicode="&#x301;" 
d="M-297 540l92 126h109l-135 -126h-66z" />
    <glyph glyph-name="uni0302" unicode="&#x302;" 
d="M-412 541l123 153h54l121 -153h-69l-81 85l-79 -85h-69z" />
    <glyph glyph-name="tildecomb" unicode="&#x303;" 
d="M-214 543q-25 0 -56.5 19.5t-49.5 19.5q-7 0 -13 -2t-12 -6.5t-9.5 -8t-8.5 -9t-6 -6.5l-39 37q43 60 94 60q26 0 57 -19.5t49 -19.5q26 0 51 31l39 -38q-45 -58 -96 -58z" />
    <glyph glyph-name="uni0304" unicode="&#x304;" 
d="M-385 574v61h271v-61h-271z" />
    <glyph glyph-name="uni0306" unicode="&#x306;" 
d="M-249 539q-57 0 -97.5 36t-46.5 106h65q3 -38 23.5 -61t55.5 -23q34 0 54.5 23t23.5 61h65q-6 -70 -46.5 -106t-96.5 -36z" />
    <glyph glyph-name="uni0307" unicode="&#x307;" 
d="M-124 570q-22 0 -38 16t-16 38t16 38t38 16t38 -16t16 -38t-16 -38t-38 -16z" />
    <glyph glyph-name="uni0308" unicode="&#x308;" 
d="M-343 538q-22 0 -37.5 16t-15.5 38t15.5 37.5t37.5 15.5t38 -15.5t16 -37.5t-15.5 -38t-38.5 -16zM-156 538q-22 0 -37.5 16t-15.5 38t15.5 37.5t37.5 15.5t38 -15.5t16 -37.5t-16 -38t-38 -16z" />
    <glyph glyph-name="uni030A" unicode="&#x30a;" 
d="M-249 545q-38 0 -66.5 28t-28.5 67t28.5 67t66.5 28t66.5 -28t28.5 -67t-28.5 -67t-66.5 -28zM-249 585q22 0 36 16t14 39t-13.5 39t-36.5 16t-36.5 -16t-13.5 -39t14 -39t36 -16z" />
    <glyph glyph-name="uni030B" unicode="&#x30b;" 
d="M-419 540l93 126h105l-133 -126h-65zM-255 540l93 126h105l-133 -126h-65z" />
    <glyph glyph-name="uni030C" unicode="&#x30c;" 
d="M-235 539l-121 153h69l81 -85l79 85h69l-123 -153h-54z" />
    <glyph glyph-name="uni0312" unicode="&#x312;" 
d="M-102 539q-21 0 -36 15.5t-15 41.5q0 62 68 120l25 -22q-2 -2 -7 -6.5t-7.5 -7t-6 -7t-5.5 -8.5t-3.5 -9t-1.5 -11q0 -15 15 -32.5t15 -34.5t-11.5 -28t-29.5 -11z" />
    <glyph glyph-name="uni0313" unicode="&#x313;" 
d="M-166 554l42 166h91l-77 -166h-56z" />
    <glyph glyph-name="uni0326" unicode="&#x326;" 
d="M-257 -50q21 0 36 -15.5t15 -41.5q0 -62 -68 -120l-25 22q2 2 7 6.5t7.5 7t6 7t5.5 8.5t3.5 9t1.5 11q0 15 -15 32.5t-15 34.5t11.5 28t29.5 11z" />
    <glyph glyph-name="uni0327" unicode="&#x327;" 
d="M-273 -219q-40 0 -66 12l12 42q20 -11 53 -11q50 0 50 39q0 43 -71 41l36 96h51l-25 -66q31 -5 50.5 -23.5t19.5 -46.5q0 -39 -31.5 -61t-78.5 -22z" />
    <glyph glyph-name="uni0328" unicode="&#x328;" 
d="M-236 -219q-46 0 -72 26t-26 66q0 63 64 127h50q-52 -66 -52 -119q0 -48 50 -48q22 0 43 8l11 -43q-32 -17 -68 -17z" />
    <glyph glyph-name="uni037E" unicode="&#x37e;" horiz-adv-x="226" 
d="M113 366q-25 0 -43 18t-18 43t18 43t43 18t43 -18t18 -43t-18 -43t-43 -18zM59 -145l-31 28q55 53 55 90q0 17 -14 40t-14 42q0 25 16 41t39 16q26 0 44.5 -18t18.5 -49q0 -55 -36 -106.5t-78 -83.5z" />
    <glyph glyph-name="tonos" unicode="&#x384;" horiz-adv-x="500" 
d="M179 540l32 126h95l-69 -126h-58z" />
    <glyph glyph-name="dieresistonos" unicode="&#x385;" horiz-adv-x="500" 
d="M106 538q-22 0 -37.5 16t-15.5 38t15.5 37.5t37.5 15.5t38 -15.5t16 -37.5t-16 -38t-38 -16zM393 538q-22 0 -37.5 16t-15.5 38t15.5 37.5t37.5 15.5t38 -15.5t16 -37.5t-15.5 -38t-38.5 -16zM196 540l32 126h95l-69 -126h-58z" />
    <glyph glyph-name="Alphatonos" unicode="&#x386;" horiz-adv-x="627" 
d="M184 231h253l-84 228q-4 10 -41 115h-2q-16 -47 -41 -115zM21 0l255 666h76l256 -666h-85l-61 165h-303l-61 -165h-77zM73 540l32 126h95l-69 -126h-58z" />
    <glyph glyph-name="anoteleia" unicode="&#x387;" horiz-adv-x="220" 
d="M110 230q-26 0 -43.5 18t-17.5 43t17.5 42.5t43.5 17.5t43.5 -17.5t17.5 -42.5t-17.5 -43t-43.5 -18z" />
    <glyph glyph-name="Epsilontonos" unicode="&#x388;" horiz-adv-x="608" 
d="M201 0v666h342v-66h-264v-214h232v-66h-232v-254h271v-66h-349zM24 540l32 126h95l-69 -126h-58z" />
    <glyph glyph-name="Etatonos" unicode="&#x389;" horiz-adv-x="830" 
d="M201 0v666h78v-282h377v282h78v-666h-78v318h-377v-318h-78zM24 540l32 126h95l-69 -126h-58z" />
    <glyph glyph-name="Iotatonos" unicode="&#x38a;" horiz-adv-x="381" 
d="M201 0v666h78v-666h-78zM24 540l32 126h95l-69 -126h-58z" />
    <glyph glyph-name="Omicrontonos" unicode="&#x38c;" horiz-adv-x="816" 
d="M437 -12q-149 0 -238.5 100.5t-89.5 243.5q0 144 89 245t237 101q149 0 238.5 -100.5t89.5 -243.5q0 -144 -89 -245t-237 -101zM435 53q115 0 180.5 80.5t65.5 198.5q0 119 -65 200t-179 81q-115 0 -180.5 -80.5t-65.5 -198.5q0 -119 65 -200t179 -81zM24 540l32 126h95
l-69 -126h-58z" />
    <glyph glyph-name="Upsilontonos" unicode="&#x38e;" horiz-adv-x="728" 
d="M414 0v252l-223 414h87l178 -340h1l178 340h75l-218 -414v-252h-78zM24 540l32 126h95l-69 -126h-58z" />
    <glyph glyph-name="Omegatonos" unicode="&#x38f;" horiz-adv-x="807" 
d="M126 0v66h139q-66 44 -103.5 122.5t-37.5 167.5q0 143 93 232.5t220 89.5t220 -89.5t93 -232.5q0 -89 -37.5 -167.5t-103.5 -122.5h140v-66h-228v64q147 104 147 292q0 104 -66 180.5t-165 76.5t-165 -76.5t-66 -180.5q0 -188 148 -292v-64h-228zM24 540l32 126h95
l-69 -126h-58z" />
    <glyph glyph-name="iotadieresistonos" unicode="&#x390;" horiz-adv-x="277" 
d="M184 -12q-54 0 -77 30t-23 87v375h73v-368q0 -32 7.5 -46.5t28.5 -14.5q19 0 35 14l25 -54q-27 -23 -69 -23zM-12 538q-22 0 -37.5 16t-15.5 38t15.5 37.5t37.5 15.5t38 -15.5t16 -37.5t-16 -38t-38 -16zM275 538q-22 0 -37.5 16t-15.5 38t15.5 37.5t37.5 15.5t38 -15.5
t16 -37.5t-15.5 -38t-38.5 -16zM78 540l32 126h95l-69 -126h-58z" />
    <glyph glyph-name="Alpha" unicode="&#x391;" horiz-adv-x="627" 
d="M184 231h253l-84 228q-4 10 -41 115h-2q-16 -47 -41 -115zM21 0l255 666h76l256 -666h-85l-61 165h-303l-61 -165h-77z" />
    <glyph glyph-name="Beta" unicode="&#x392;" horiz-adv-x="572" 
d="M96 0v666h176q100 0 159 -40t59 -126q0 -57 -31.5 -94.5t-87.5 -52.5v-2q65 -11 106.5 -54.5t41.5 -109.5q0 -187 -250 -187h-173zM173 65h94q89 0 130 28.5t41 91.5q0 131 -165 131h-100v-251zM173 380h91q76 0 111 28t35 87q0 106 -144 106h-93v-221z" />
    <glyph glyph-name="Gamma" unicode="&#x393;" horiz-adv-x="465" 
d="M96 0v666h349v-66h-271v-600h-78z" />
    <glyph glyph-name="uni0394" unicode="&#x394;" horiz-adv-x="607" 
d="M21 0v52l242 614h76l249 -614v-52h-567zM102 66h398l-154 393q-25 64 -46 126h-2q-14 -43 -45 -126z" />
    <glyph glyph-name="Epsilon" unicode="&#x395;" horiz-adv-x="503" 
d="M96 0v666h342v-66h-264v-214h232v-66h-232v-254h271v-66h-349z" />
    <glyph glyph-name="Zeta" unicode="&#x396;" horiz-adv-x="561" 
d="M46 0v55l364 547h-347v64h439v-51l-369 -551h381v-64h-468z" />
    <glyph glyph-name="Eta" unicode="&#x397;" horiz-adv-x="725" 
d="M96 0v666h78v-282h377v282h78v-666h-78v318h-377v-318h-78z" />
    <glyph glyph-name="Theta" unicode="&#x398;" horiz-adv-x="760" 
d="M381 -12q-149 0 -238.5 100.5t-89.5 243.5q0 144 89 245t237 101q149 0 238.5 -100.5t89.5 -243.5q0 -144 -89 -245t-237 -101zM379 53q115 0 180.5 80.5t65.5 198.5q0 119 -65 200t-179 81q-115 0 -180.5 -80.5t-65.5 -198.5q0 -119 65 -200t179 -81zM227 299v66h292
v-66h-292z" />
    <glyph glyph-name="Iota" unicode="&#x399;" horiz-adv-x="282" 
d="M102 0v666h78v-666h-78z" />
    <glyph glyph-name="Kappa" unicode="&#x39a;" horiz-adv-x="569" 
d="M456 0l-280 347l268 319h91l-268 -314l286 -352h-97zM96 0v666h77v-666h-77z" />
    <glyph glyph-name="Lambda" unicode="&#x39b;" horiz-adv-x="620" 
d="M21 0l248 666h76l256 -666h-85l-171 459q-9 24 -17 47.5t-14 44t-8 25.5h-2q-31 -98 -38 -117l-167 -459h-78z" />
    <glyph glyph-name="Mu" unicode="&#x39c;" horiz-adv-x="852" 
d="M54 0l91 666h73l165 -453q27 -76 42 -123h2q14 47 42 123l165 453h74l90 -666h-79l-57 436q-8 68 -11 93h-2q-16 -54 -30 -92l-158 -437h-75l-162 437q-7 19 -13 36t-11.5 33t-7.5 23h-2q-2 -20 -10 -95l-53 -434h-73z" />
    <glyph glyph-name="Nu" unicode="&#x39d;" horiz-adv-x="711" 
d="M94 0v666h77l314 -451q25 -36 62 -98h2q-4 52 -4 90v459h72v-666h-72l-329 475q-14 20 -52 86h-2q4 -52 4 -73v-488h-72z" />
    <glyph glyph-name="Xi" unicode="&#x39e;" horiz-adv-x="558" 
d="M58 0v72h442v-72h-442zM97 317v72h364v-72h-364zM65 594v72h428v-72h-428z" />
    <glyph glyph-name="Omicron" unicode="&#x39f;" horiz-adv-x="760" 
d="M381 -12q-149 0 -238.5 100.5t-89.5 243.5q0 144 89 245t237 101q149 0 238.5 -100.5t89.5 -243.5q0 -144 -89 -245t-237 -101zM379 53q115 0 180.5 80.5t65.5 198.5q0 119 -65 200t-179 81q-115 0 -180.5 -80.5t-65.5 -198.5q0 -119 65 -200t179 -81z" />
    <glyph glyph-name="Pi" unicode="&#x3a0;" horiz-adv-x="695" 
d="M96 0v666h503v-666h-78v600h-347v-600h-78z" />
    <glyph glyph-name="Rho" unicode="&#x3a1;" horiz-adv-x="542" 
d="M96 0v666h167q105 0 169.5 -49.5t64.5 -142.5q0 -98 -64 -151.5t-181 -53.5h-78v-269h-78zM174 335h78q165 0 165 136q0 129 -162 129h-81v-265z" />
    <glyph glyph-name="Sigma" unicode="&#x3a3;" horiz-adv-x="503" 
d="M54 0v56l190 294l-178 260v56h374v-66h-281l167 -241l-189 -293h322v-66h-405z" />
    <glyph glyph-name="Tau" unicode="&#x3a4;" horiz-adv-x="497" 
d="M209 0v600h-189v66h457v-66h-189v-600h-79z" />
    <glyph glyph-name="Upsilon" unicode="&#x3a5;" horiz-adv-x="555" 
d="M241 0v252l-223 414h87l178 -340h1l178 340h75l-218 -414v-252h-78z" />
    <glyph glyph-name="Phi" unicode="&#x3a6;" horiz-adv-x="706" 
d="M315 0v74q-124 2 -202.5 76.5t-78.5 187.5t78 189t203 78v61h76v-61q124 -2 202.5 -77t78.5 -187q0 -114 -78 -189.5t-203 -77.5v-74h-76zM386 136q92 2 150 58t58 144q0 90 -57.5 147t-150.5 58v-407zM320 136v407q-92 -2 -150 -58t-58 -144q0 -90 57.5 -147t150.5 -58z
" />
    <glyph glyph-name="Chi" unicode="&#x3a7;" horiz-adv-x="565" 
d="M25 0l211 345l-200 321h89l161 -258l152 258h82l-195 -321l215 -345h-89l-176 282l-168 -282h-82z" />
    <glyph glyph-name="Psi" unicode="&#x3a8;" horiz-adv-x="718" 
d="M322 0v213q-254 25 -254 269v184h78v-174q0 -108 47 -157.5t133 -55.5v387h70v-387q84 7 132.5 56t48.5 143v188h73v-180q0 -249 -250 -273v-213h-78z" />
    <glyph glyph-name="uni03A9" unicode="&#x3a9;" horiz-adv-x="744" 
d="M61 0v66h139q-66 44 -103.5 122.5t-37.5 167.5q0 143 93 232.5t220 89.5t220 -89.5t93 -232.5q0 -89 -37.5 -167.5t-103.5 -122.5h140v-66h-228v64q147 104 147 292q0 104 -66 180.5t-165 76.5t-165 -76.5t-66 -180.5q0 -188 148 -292v-64h-228z" />
    <glyph glyph-name="Iotadieresis" unicode="&#x3aa;" horiz-adv-x="282" 
d="M102 0v666h78v-666h-78zM47 718q-22 0 -37.5 16t-15.5 38t15.5 37.5t37.5 15.5t38 -15.5t16 -37.5t-15.5 -38t-38.5 -16zM234 718q-22 0 -37.5 16t-15.5 38t15.5 37.5t37.5 15.5t38 -15.5t16 -37.5t-16 -38t-38 -16z" />
    <glyph glyph-name="Upsilondieresis" unicode="&#x3ab;" horiz-adv-x="555" 
d="M241 0v252l-223 414h87l178 -340h1l178 340h75l-218 -414v-252h-78zM183 718q-22 0 -37.5 16t-15.5 38t15.5 37.5t37.5 15.5t38 -15.5t16 -37.5t-15.5 -38t-38.5 -16zM370 718q-22 0 -37.5 16t-15.5 38t15.5 37.5t37.5 15.5t38 -15.5t16 -37.5t-16 -38t-38 -16z" />
    <glyph glyph-name="alphatonos" unicode="&#x3ac;" horiz-adv-x="554" 
d="M233 -12q-53 0 -93 23t-61.5 61t-32 80t-10.5 87t10.5 87.5t32 80.5t61.5 61.5t93 23.5q69 0 113 -37.5t59 -89.5h1q2 29 14 66t21 49h77q-25 -31 -46 -113l-32 -121l36 -133q19 -74 50 -113h-77q-9 13 -24 50.5t-19 64.5h-1q-16 -52 -60.5 -89.5t-111.5 -37.5zM243 51
q106 0 134 189q-10 81 -45.5 135t-93.5 54q-64 0 -94 -52t-30 -136q0 -83 32.5 -136.5t96.5 -53.5zM237 540l32 126h95l-69 -126h-58z" />
    <glyph glyph-name="epsilontonos" unicode="&#x3ad;" horiz-adv-x="426" 
d="M234 -12q-89 0 -142.5 36.5t-53.5 107.5q0 44 33 78t79 42v1q-92 24 -92 107q0 63 54 97.5t130 34.5q93 0 153 -44l-30 -55q-50 36 -126 36q-49 0 -76 -19.5t-27 -55.5q0 -37 34.5 -57t86.5 -20h36v-57h-35q-59 0 -100.5 -22.5t-41.5 -61.5q0 -85 121 -85q77 0 135 38
l34 -56q-72 -45 -172 -45zM194 540l32 126h95l-69 -126h-58z" />
    <glyph glyph-name="etatonos" unicode="&#x3ae;" horiz-adv-x="530" 
d="M379 -217v545q0 98 -85 98q-75 0 -139 -88v-338h-73v382q0 48 -12 98h73q9 -30 9 -69q65 81 159 81q72 0 106.5 -41.5t34.5 -108.5v-559h-73zM228 540l32 126h95l-69 -126h-58z" />
    <glyph glyph-name="iotatonos" unicode="&#x3af;" horiz-adv-x="277" 
d="M184 -12q-54 0 -77 30t-23 87v375h73v-368q0 -32 7.5 -46.5t28.5 -14.5q19 0 35 14l25 -54q-27 -23 -69 -23zM93 540l32 126h95l-69 -126h-58z" />
    <glyph glyph-name="upsilondieresistonos" unicode="&#x3b0;" horiz-adv-x="520" 
d="M261 -12q-88 0 -138.5 56.5t-50.5 163.5v272h73v-260q0 -169 116 -169q59 0 91.5 55t32.5 194q0 90 -30 180h76q29 -81 29 -180q0 -312 -199 -312zM124 538q-22 0 -37.5 16t-15.5 38t15.5 37.5t37.5 15.5t38 -15.5t16 -37.5t-16 -38t-38 -16zM411 538q-22 0 -37.5 16
t-15.5 38t15.5 37.5t37.5 15.5t38 -15.5t16 -37.5t-15.5 -38t-38.5 -16zM214 540l32 126h95l-69 -126h-58z" />
    <glyph glyph-name="alpha" unicode="&#x3b1;" horiz-adv-x="554" 
d="M233 -12q-53 0 -93 23t-61.5 61t-32 80t-10.5 87t10.5 87.5t32 80.5t61.5 61.5t93 23.5q69 0 113 -37.5t59 -89.5h1q2 29 14 66t21 49h77q-25 -31 -46 -113l-32 -121l36 -133q19 -74 50 -113h-77q-9 13 -24 50.5t-19 64.5h-1q-16 -52 -60.5 -89.5t-111.5 -37.5zM243 51
q106 0 134 189q-10 81 -45.5 135t-93.5 54q-64 0 -94 -52t-30 -136q0 -83 32.5 -136.5t96.5 -53.5z" />
    <glyph glyph-name="beta" unicode="&#x3b2;" horiz-adv-x="532" 
d="M82 -217v713q0 115 55.5 175.5t143.5 60.5q78 0 124 -46.5t46 -105.5q0 -58 -36.5 -107.5t-83.5 -61.5v-1q62 -9 108.5 -64.5t46.5 -123.5q0 -107 -58.5 -169t-161.5 -62q-71 0 -111 38v-246h-73zM266 52q71 0 106.5 44.5t35.5 116.5q0 74 -53 116t-140 42v55
q59 1 109 44.5t50 103.5q0 40 -25.5 66.5t-69.5 26.5q-56 0 -90 -43.5t-34 -129.5v-400q44 -40 111 -42z" />
    <glyph glyph-name="gamma" unicode="&#x3b3;" horiz-adv-x="459" 
d="M191 -217v225l-175 472h80l132 -384h2q101 198 129 384h74q-26 -180 -172 -468v-229h-70z" />
    <glyph glyph-name="delta" unicode="&#x3b4;" horiz-adv-x="529" 
d="M262 -12q-108 0 -166 67t-58 161q0 86 53.5 156t119.5 99q-66 64 -66 130q0 58 42 94.5t104 36.5q79 0 124 -35l-35 -56q-41 28 -89 28q-32 0 -50 -18t-18 -48q0 -19 8 -36.5t28.5 -38.5t35.5 -34t48 -39q32 -26 52 -44.5t45.5 -49.5t38 -68t12.5 -80q0 -92 -60 -158.5
t-169 -66.5zM289 406q-5 4 -15.5 12t-15.5 12q-59 -27 -100.5 -83t-41.5 -129q0 -76 39.5 -121.5t107.5 -45.5q69 0 109.5 42.5t40.5 117.5q0 61 -31 103.5t-93 91.5z" />
    <glyph glyph-name="epsilon" unicode="&#x3b5;" horiz-adv-x="426" 
d="M234 -12q-89 0 -142.5 36.5t-53.5 107.5q0 44 33 78t79 42v1q-92 24 -92 107q0 63 54 97.5t130 34.5q93 0 153 -44l-30 -55q-50 36 -126 36q-49 0 -76 -19.5t-27 -55.5q0 -37 34.5 -57t86.5 -20h36v-57h-35q-59 0 -100.5 -22.5t-41.5 -61.5q0 -85 121 -85q77 0 135 38
l34 -56q-72 -45 -172 -45z" />
    <glyph glyph-name="zeta" unicode="&#x3b6;" horiz-adv-x="358" 
d="M289 -159l-43 37q38 22 38 61q0 35 -47 54l-45 19q-151 63 -151 187q0 61 31.5 125.5t95.5 159.5l119 177h-220v59h309v-49l-160 -231q-101 -145 -101 -227q0 -51 26 -81.5t85 -55.5l45 -19q81 -34 81 -99q0 -36 -18 -68t-45 -49z" />
    <glyph glyph-name="eta" unicode="&#x3b7;" horiz-adv-x="530" 
d="M379 -217v545q0 98 -85 98q-75 0 -139 -88v-338h-73v382q0 48 -12 98h73q9 -30 9 -69q65 81 159 81q72 0 106.5 -41.5t34.5 -108.5v-559h-73z" />
    <glyph glyph-name="theta" unicode="&#x3b8;" horiz-adv-x="531" 
d="M267 -12q-62 0 -106 34t-66.5 92t-32 118t-9.5 127q0 68 9 128t31 118t65.5 92.5t105.5 34.5t106 -34t66.5 -92t32 -118t9.5 -127q0 -68 -9 -128t-31 -118t-65.5 -92.5t-105.5 -34.5zM268 51q48 0 79 42.5t43 103t14 140.5h-277q2 -58 10 -106.5t24 -90t43.5 -65.5
t63.5 -24zM263 669q-46 0 -77 -40.5t-43.5 -99t-15.5 -134.5h276q-3 75 -16.5 134t-45.5 99.5t-78 40.5z" />
    <glyph glyph-name="iota" unicode="&#x3b9;" horiz-adv-x="277" 
d="M184 -12q-54 0 -77 30t-23 87v375h73v-368q0 -32 7.5 -46.5t28.5 -14.5q19 0 35 14l25 -54q-27 -23 -69 -23z" />
    <glyph glyph-name="kappa" unicode="&#x3ba;" horiz-adv-x="510" 
d="M84 0v480h72v-223q0 -73 -12 -130h1q49 139 252 353h91q-112 -109 -184 -195l188 -285h-85l-145 231q-95 -127 -116 -231h-62z" />
    <glyph glyph-name="lambda" unicode="&#x3bb;" horiz-adv-x="489" 
d="M26 0l187 493l-30 82q-17 48 -30.5 67t-34.5 19q-23 0 -43 -13l-20 53q32 23 78 23q36 0 62 -25t50 -92l224 -607h-77l-124 358q-14 40 -18 63h-1q-7 -33 -18 -63l-128 -358h-77z" />
    <glyph glyph-name="uni03BC" unicode="&#x3bc;" horiz-adv-x="526" 
d="M76 -217v697h73v-336q0 -41 15 -65.5t58 -24.5q79 0 151 87v339h73v-384q0 -56 7 -96h-73q-5 26 -7 69q-75 -81 -158 -81q-41 0 -67 17h-2q3 -34 3 -111v-111h-73z" />
    <glyph glyph-name="nu" unicode="&#x3bd;" horiz-adv-x="459" 
d="M195 0l-178 480h79l132 -384h2q101 198 129 384h74q-25 -176 -181 -480h-57z" />
    <glyph glyph-name="xi" unicode="&#x3be;" horiz-adv-x="404" 
d="M310 -159l-43 37q38 22 38 61t-47 54l-55 18q-74 24 -115.5 65.5t-41.5 115.5q0 69 38.5 123t99.5 68v2q-45 13 -72 47.5t-27 83.5q0 51 26.5 94t63.5 54v1q-31 -4 -67 -4h-84v59h352v-59h-75q-69 0 -106 -41t-37 -104q0 -51 37.5 -82t99.5 -31h43v-57h-47
q-84 0 -127 -43t-43 -108q0 -47 30 -73.5t95 -48.5l46 -15q81 -26 81 -100q0 -36 -18 -68t-45 -49z" />
    <glyph glyph-name="omicron" unicode="&#x3bf;" horiz-adv-x="528" 
d="M262 -12q-58 0 -102.5 23t-69.5 61t-37.5 80.5t-12.5 86.5q0 45 12 87.5t36.5 80.5t68.5 61.5t102 23.5t103.5 -23t72 -60.5t40 -80.5t13.5 -87t-13 -87t-39 -81t-71 -61.5t-103 -23.5zM263 51q72 0 109.5 53t37.5 135q0 81 -40 135.5t-112 54.5q-71 0 -105.5 -52.5
t-34.5 -135.5t37 -136.5t108 -53.5z" />
    <glyph glyph-name="pi" unicode="&#x3c0;" horiz-adv-x="611" 
d="M478 -12q-54 0 -77 30t-23 87v317h-174q0 -220 -30 -422h-75q34 219 34 422h-99v58h533v-58h-116v-310q0 -32 7.5 -46.5t28.5 -14.5q19 0 35 14l25 -54q-27 -23 -69 -23z" />
    <glyph glyph-name="rho" unicode="&#x3c1;" horiz-adv-x="511" 
d="M62 -217v472q0 237 200 237q96 0 152.5 -63t56.5 -180t-64.5 -189t-164.5 -72q-65 0 -107 34v-239h-73zM244 51q68 0 108.5 54.5t40.5 141.5q0 84 -33 133t-99 49q-126 0 -126 -180v-161q45 -37 109 -37z" />
    <glyph glyph-name="sigma1" unicode="&#x3c2;" horiz-adv-x="432" 
d="M308 -159l-43 37q38 22 38 61q0 35 -47 54l-59 23q-80 31 -118.5 85t-38.5 143q0 118 63.5 183t157.5 65q86 0 147 -48l-35 -55q-53 40 -113 40q-71 0 -106.5 -50t-35.5 -133q0 -64 28.5 -103.5t86.5 -62.5l57 -23q81 -33 81 -99q0 -36 -18 -68t-45 -49z" />
    <glyph glyph-name="sigma" unicode="&#x3c3;" horiz-adv-x="544" 
d="M262 -12q-58 0 -102.5 23t-69.5 60t-37.5 78.5t-12.5 83.5q0 43 12.5 84t38 79t71.5 61t107 23h247v-58h-115v-1q37 -23 62 -75t25 -111q0 -42 -13 -83.5t-38.5 -79t-71 -61t-103.5 -23.5zM263 51q71 0 109 52t38 130q0 77 -40 130.5t-112 53.5q-71 0 -105.5 -51.5
t-34.5 -130.5q0 -78 37 -131t108 -53z" />
    <glyph glyph-name="tau" unicode="&#x3c4;" horiz-adv-x="404" 
d="M246 -12q-54 0 -77 30t-23 87v317h-134v58h376v-58h-169v-310q0 -32 7.5 -46.5t28.5 -14.5q19 0 35 14l25 -54q-27 -23 -69 -23z" />
    <glyph glyph-name="upsilon" unicode="&#x3c5;" horiz-adv-x="520" 
d="M263 -12q-88 0 -138.5 56.5t-50.5 163.5v272h73v-260q0 -169 116 -169q59 0 91.5 55t32.5 194q0 90 -30 180h76q29 -81 29 -180q0 -312 -199 -312z" />
    <glyph glyph-name="phi" unicode="&#x3c6;" horiz-adv-x="630" 
d="M279 -219v207q-114 3 -177.5 78t-63.5 173t64 174t177 79v228h65v-228q113 -3 180.5 -79t67.5 -172q0 -97 -67.5 -173.5t-180.5 -79.5v-207h-65zM344 47q76 3 123.5 55t47.5 137q0 84 -48 137t-123 57v-386zM279 47v386q-75 -4 -119 -55.5t-44 -136.5q0 -86 44 -138.5
t119 -55.5z" />
    <glyph glyph-name="chi" unicode="&#x3c7;" horiz-adv-x="429" 
d="M2 -217l174 363l-160 334h78l121 -268h1l124 268h73l-161 -334l175 -363h-79l-136 296h-1l-135 -296h-74z" />
    <glyph glyph-name="psi" unicode="&#x3c8;" horiz-adv-x="649" 
d="M292 -219v207q-94 2 -156 59t-62 161v272h73v-260q0 -83 42 -125t103 -44v589h67v-589q30 1 55.5 12.5t49.5 37.5t38 77t14 122q0 90 -30 180h76q29 -81 29 -180q0 -85 -19.5 -148t-54 -97t-73.5 -50t-85 -17v-207h-67z" />
    <glyph glyph-name="omega" unicode="&#x3c9;" horiz-adv-x="745" 
d="M219 -12q-76 0 -121.5 58.5t-45.5 165.5q0 162 80 268h80q-85 -117 -85 -260q0 -167 95 -167q106 0 114 267h73q8 -267 114 -267q95 0 95 167q0 143 -85 260h80q80 -106 80 -268q0 -107 -45.5 -165.5t-121.5 -58.5q-61 0 -99.5 39.5t-53.5 100.5h-1q-15 -61 -53.5 -100.5
t-99.5 -39.5z" />
    <glyph glyph-name="iotadieresis" unicode="&#x3ca;" horiz-adv-x="277" 
d="M184 -12q-54 0 -77 30t-23 87v375h73v-368q0 -32 7.5 -46.5t28.5 -14.5q19 0 35 14l25 -54q-27 -23 -69 -23zM28 538q-22 0 -37.5 16t-15.5 38t15.5 37.5t37.5 15.5t38 -15.5t16 -37.5t-16 -38t-38 -16zM215 538q-22 0 -37.5 16t-15.5 38t15.5 37.5t37.5 15.5t38 -15.5
t16 -37.5t-15.5 -38t-38.5 -16z" />
    <glyph glyph-name="upsilondieresis" unicode="&#x3cb;" horiz-adv-x="520" 
d="M263 -12q-88 0 -138.5 56.5t-50.5 163.5v272h73v-260q0 -169 116 -169q59 0 91.5 55t32.5 194q0 90 -30 180h76q29 -81 29 -180q0 -312 -199 -312zM166 538q-22 0 -37.5 16t-15.5 38t15.5 37.5t37.5 15.5t38 -15.5t16 -37.5t-16 -38t-38 -16zM353 538q-22 0 -37.5 16
t-15.5 38t15.5 37.5t37.5 15.5t38 -15.5t16 -37.5t-15.5 -38t-38.5 -16z" />
    <glyph glyph-name="omicrontonos" unicode="&#x3cc;" horiz-adv-x="528" 
d="M262 -12q-58 0 -102.5 23t-69.5 61t-37.5 80.5t-12.5 86.5q0 45 12 87.5t36.5 80.5t68.5 61.5t102 23.5t103.5 -23t72 -60.5t40 -80.5t13.5 -87t-13 -87t-39 -81t-71 -61.5t-103 -23.5zM263 51q72 0 109.5 53t37.5 135q0 81 -40 135.5t-112 54.5q-71 0 -105.5 -52.5
t-34.5 -135.5t37 -136.5t108 -53.5zM235 540l32 126h95l-69 -126h-58z" />
    <glyph glyph-name="upsilontonos" unicode="&#x3cd;" horiz-adv-x="520" 
d="M263 -12q-88 0 -138.5 56.5t-50.5 163.5v272h73v-260q0 -169 116 -169q59 0 91.5 55t32.5 194q0 90 -30 180h76q29 -81 29 -180q0 -312 -199 -312zM231 540l32 126h95l-69 -126h-58z" />
    <glyph glyph-name="omegatonos" unicode="&#x3ce;" horiz-adv-x="745" 
d="M219 -12q-76 0 -121.5 58.5t-45.5 165.5q0 162 80 268h80q-85 -117 -85 -260q0 -167 95 -167q106 0 114 267h73q8 -267 114 -267q95 0 95 167q0 143 -85 260h80q80 -106 80 -268q0 -107 -45.5 -165.5t-121.5 -58.5q-61 0 -99.5 39.5t-53.5 100.5h-1q-15 -61 -53.5 -100.5
t-99.5 -39.5zM343 540l32 126h95l-69 -126h-58z" />
    <glyph glyph-name="uni0400" unicode="&#x400;" horiz-adv-x="503" 
d="M96 0v666h342v-66h-264v-214h232v-66h-232v-254h271v-66h-349zM244 720l-135 126h109l92 -126h-66z" />
    <glyph glyph-name="afii10023" unicode="&#x401;" horiz-adv-x="503" 
d="M96 0v666h342v-66h-264v-214h232v-66h-232v-254h271v-66h-349zM179 718q-22 0 -37.5 16t-15.5 38t15.5 37.5t37.5 15.5t38 -15.5t16 -37.5t-15.5 -38t-38.5 -16zM366 718q-22 0 -37.5 16t-15.5 38t15.5 37.5t37.5 15.5t38 -15.5t16 -37.5t-16 -38t-38 -16z" />
    <glyph glyph-name="afii10051" unicode="&#x402;" horiz-adv-x="703" 
d="M184 0v600h-164v66h461v-66h-219v-226q28 39 78.5 71.5t113.5 32.5q99 0 148 -74.5t49 -204.5q0 -166 -76 -277.5t-192 -111.5q-37 0 -63 11l16 65q19 -7 52 -7q77 0 129.5 93t52.5 223q0 216 -132 216q-57 0 -103.5 -34.5t-72.5 -73.5v-303h-78z" />
    <glyph glyph-name="afii10052" unicode="&#x403;" horiz-adv-x="465" 
d="M96 0v666h349v-66h-271v-600h-78zM214 720l92 126h109l-135 -126h-66z" />
    <glyph glyph-name="afii10053" unicode="&#x404;" horiz-adv-x="615" 
d="M378 -12q-150 0 -237.5 100.5t-87.5 246.5q0 144 88.5 243.5t237.5 99.5q108 0 187 -50l-39 -59q-64 44 -150 44q-107 0 -172 -73t-69 -176h333v-66h-332q6 -102 70.5 -173t172.5 -71q96 0 163 57l36 -56q-30 -27 -83.5 -47t-117.5 -20z" />
    <glyph glyph-name="afii10054" unicode="&#x405;" horiz-adv-x="499" 
d="M233 -12q-118 0 -189 68l40 56q63 -59 152 -59q60 0 98 33.5t38 79.5q0 28 -9.5 49.5t-38 42t-40 27.5t-56.5 29q-6 3 -9 5q-50 25 -78.5 44t-52.5 57t-24 88q0 78 56.5 124t137.5 46q106 0 175 -53l-38 -58q-59 46 -138 46q-50 0 -83 -28t-33 -73t30 -72.5t90 -55.5
q29 -14 39 -19t36.5 -19.5t37 -24t29.5 -27.5t26.5 -35t14.5 -41t7 -51q0 -79 -60.5 -129t-157.5 -50z" />
    <glyph glyph-name="afii10055" unicode="&#x406;" horiz-adv-x="282" 
d="M102 0v666h78v-666h-78z" />
    <glyph glyph-name="afii10056" unicode="&#x407;" horiz-adv-x="282" 
d="M102 0v666h78v-666h-78zM47 718q-22 0 -37.5 16t-15.5 38t15.5 37.5t37.5 15.5t38 -15.5t16 -37.5t-15.5 -38t-38.5 -16zM234 718q-22 0 -37.5 16t-15.5 38t15.5 37.5t37.5 15.5t38 -15.5t16 -37.5t-16 -38t-38 -16z" />
    <glyph glyph-name="afii10057" unicode="&#x408;" horiz-adv-x="283" 
d="M36 -190q-37 0 -57 10l12 67q16 -7 39 -7q79 0 79 118v668h78v-680q0 -85 -38.5 -130.5t-112.5 -45.5z" />
    <glyph glyph-name="afii10058" unicode="&#x409;" horiz-adv-x="953" 
d="M40 -10l-12 65q58 2 88.5 68t41.5 197l29 346h377v-269h111q105 0 169.5 -49.5t64.5 -142.5q0 -98 -64 -151.5t-181 -53.5h-178v600h-225l-25 -292q-13 -159 -59 -238.5t-137 -79.5zM564 66h100q165 0 165 136q0 129 -162 129h-103v-265z" />
    <glyph glyph-name="afii10059" unicode="&#x40a;" horiz-adv-x="942" 
d="M96 0v666h78v-269h301v269h78v-269h111q105 0 169.5 -49.5t64.5 -142.5q0 -98 -64 -151.5t-181 -53.5h-178v331h-301v-331h-78zM553 66h100q165 0 165 136q0 129 -162 129h-103v-265z" />
    <glyph glyph-name="afii10060" unicode="&#x40b;" horiz-adv-x="719" 
d="M184 0v600h-164v66h461v-66h-219v-226q28 37 81 70.5t117 33.5q88 0 139.5 -52t51.5 -144v-282h-78v268q0 71 -35.5 107t-93.5 36t-107.5 -35.5t-74.5 -72.5v-303h-78z" />
    <glyph glyph-name="afii10061" unicode="&#x40c;" horiz-adv-x="574" 
d="M96 0v666h77v-295h60l221 295h88l-248 -319q36 -27 115 -141q11 -15 32 -46t29 -41.5t22 -27t25.5 -21.5t24.5 -5h10l-2 -65h-29q-42 0 -73 32t-100 133q-11 16 -31.5 46t-29 41.5t-22.5 27.5t-25.5 21.5t-24.5 5.5h-42v-307h-77zM257 720l92 126h109l-135 -126h-66z" />
    <glyph glyph-name="uni040D" unicode="&#x40d;" horiz-adv-x="715" 
d="M96 0v666h72v-467q0 -38 -4 -90h2q37 62 62 98l314 459h77v-666h-72v496q0 21 4 73h-2q-34 -59 -52 -86l-329 -483h-72zM353 720l-135 126h109l92 -126h-66z" />
    <glyph glyph-name="afii10062" unicode="&#x40e;" horiz-adv-x="542" 
d="M102 -2q-24 0 -39 5l10 61q12 -3 30 -3q42 0 70 25.5t53 83.5l18 41l-200 455h75l163 -369l162 369h76l-233 -531q-32 -74 -76 -105.5t-109 -31.5zM283 716q-57 0 -97.5 36t-46.5 106h65q3 -38 23.5 -61t55.5 -23q34 0 54.5 23t23.5 61h65q-6 -70 -46.5 -106t-96.5 -36z
" />
    <glyph glyph-name="afii10145" unicode="&#x40f;" horiz-adv-x="687" 
d="M317 -144l-7 144h-214v666h78v-600h339v600h78v-666h-212l-7 -144h-55z" />
    <glyph glyph-name="afii10017" unicode="&#x410;" horiz-adv-x="627" 
d="M184 231h253l-84 228q-4 10 -41 115h-2q-16 -47 -41 -115zM21 0l255 666h76l256 -666h-85l-61 165h-303l-61 -165h-77z" />
    <glyph glyph-name="afii10018" unicode="&#x411;" horiz-adv-x="575" 
d="M96 0v666h367v-66h-289v-203h111q105 0 169.5 -49.5t64.5 -142.5q0 -98 -64 -151.5t-181 -53.5h-178zM174 66h100q165 0 165 136q0 129 -162 129h-103v-265z" />
    <glyph glyph-name="afii10019" unicode="&#x412;" horiz-adv-x="572" 
d="M96 0v666h176q100 0 159 -40t59 -126q0 -57 -31.5 -94.5t-87.5 -52.5v-2q65 -11 106.5 -54.5t41.5 -109.5q0 -187 -250 -187h-173zM173 65h94q89 0 130 28.5t41 91.5q0 131 -165 131h-100v-251zM173 380h91q76 0 111 28t35 87q0 106 -144 106h-93v-221z" />
    <glyph glyph-name="afii10020" unicode="&#x413;" horiz-adv-x="465" 
d="M96 0v666h349v-66h-271v-600h-78z" />
    <glyph glyph-name="afii10021" unicode="&#x414;" horiz-adv-x="690" 
d="M36 -144l-10 210h52q42 33 61 87.5t29 166.5l29 346h377v-600h69l-22 -210h-55l-7 144h-453l-15 -144h-55zM169 66h327v534h-225l-25 -292q-16 -177 -77 -242z" />
    <glyph glyph-name="afii10022" unicode="&#x415;" horiz-adv-x="503" 
d="M96 0v666h342v-66h-264v-214h232v-66h-232v-254h271v-66h-349z" />
    <glyph glyph-name="afii10024" unicode="&#x416;" horiz-adv-x="879" 
d="M22 0l2 65h8q13 0 24.5 5t25.5 21.5t22 27t29 41.5t32 46q77 113 114 141l-247 319h88l221 -295h60v295h77v-295h60l221 295h88l-248 -319q36 -27 115 -141q11 -15 32 -46t29 -41.5t22 -27t25.5 -21.5t24.5 -5h10l-2 -65h-29q-42 0 -73 32t-100 133q-11 16 -31.5 46
t-29 41.5t-22.5 27.5t-25.5 21.5t-24.5 5.5h-42v-307h-77v307h-46q-12 -1 -23.5 -7t-25 -21.5t-21.5 -27t-28 -41t-31 -45.5q-69 -101 -100 -133t-73 -32h-31z" />
    <glyph glyph-name="afii10025" unicode="&#x417;" horiz-adv-x="523" 
d="M226 -12q-115 0 -190 62l38 56q58 -53 154 -53q161 0 161 126q0 62 -45 99.5t-128 37.5h-65v64h56q71 0 112.5 31.5t41.5 89.5q0 51 -34.5 80.5t-99.5 29.5q-90 0 -145 -43l-29 54q69 56 176 56q94 0 153 -44.5t59 -127.5q0 -59 -29.5 -99t-83.5 -54v-2
q63 -11 102.5 -56.5t39.5 -113.5q0 -95 -66.5 -144t-177.5 -49z" />
    <glyph glyph-name="afii10026" unicode="&#x418;" horiz-adv-x="715" 
d="M96 0v666h72v-467q0 -38 -4 -90h2q37 62 62 98l314 459h77v-666h-72v496q0 21 4 73h-2q-34 -59 -52 -86l-329 -483h-72z" />
    <glyph glyph-name="afii10027" unicode="&#x419;" horiz-adv-x="715" 
d="M96 0v666h72v-467q0 -38 -4 -90h2q37 62 62 98l314 459h77v-666h-72v496q0 21 4 73h-2q-34 -59 -52 -86l-329 -483h-72zM361 716q-57 0 -97.5 36t-46.5 106h65q3 -38 23.5 -61t55.5 -23q34 0 54.5 23t23.5 61h65q-6 -70 -46.5 -106t-96.5 -36z" />
    <glyph glyph-name="afii10028" unicode="&#x41a;" horiz-adv-x="574" 
d="M96 0v666h77v-295h60l221 295h88l-248 -319q36 -27 115 -141q11 -15 32 -46t29 -41.5t22 -27t25.5 -21.5t24.5 -5h10l-2 -65h-29q-42 0 -73 32t-100 133q-11 16 -31.5 46t-29 41.5t-22.5 27.5t-25.5 21.5t-24.5 5.5h-42v-307h-77z" />
    <glyph glyph-name="afii10029" unicode="&#x41b;" horiz-adv-x="660" 
d="M40 -10l-12 65q58 2 88.5 68t41.5 197l29 346h377v-666h-78v600h-225l-25 -292q-13 -159 -59 -238.5t-137 -79.5z" />
    <glyph glyph-name="afii10030" unicode="&#x41c;" horiz-adv-x="852" 
d="M54 0l91 666h73l165 -453q27 -76 42 -123h2q14 47 42 123l165 453h74l90 -666h-79l-57 436q-8 68 -11 93h-2q-16 -54 -30 -92l-158 -437h-75l-162 437q-7 19 -13 36t-11.5 33t-7.5 23h-2q-2 -20 -10 -95l-53 -434h-73z" />
    <glyph glyph-name="afii10031" unicode="&#x41d;" horiz-adv-x="725" 
d="M96 0v666h78v-282h377v282h78v-666h-78v318h-377v-318h-78z" />
    <glyph glyph-name="afii10032" unicode="&#x41e;" horiz-adv-x="760" 
d="M381 -12q-149 0 -238.5 100.5t-89.5 243.5q0 144 89 245t237 101q149 0 238.5 -100.5t89.5 -243.5q0 -144 -89 -245t-237 -101zM379 53q115 0 180.5 80.5t65.5 198.5q0 119 -65 200t-179 81q-115 0 -180.5 -80.5t-65.5 -198.5q0 -119 65 -200t179 -81z" />
    <glyph glyph-name="afii10033" unicode="&#x41f;" horiz-adv-x="695" 
d="M96 0v666h503v-666h-78v600h-347v-600h-78z" />
    <glyph glyph-name="afii10034" unicode="&#x420;" horiz-adv-x="542" 
d="M96 0v666h167q105 0 169.5 -49.5t64.5 -142.5q0 -98 -64 -151.5t-181 -53.5h-78v-269h-78zM174 335h78q165 0 165 136q0 129 -162 129h-81v-265z" />
    <glyph glyph-name="afii10035" unicode="&#x421;" horiz-adv-x="615" 
d="M378 -12q-149 0 -237 102t-88 245q0 142 89 242.5t237 100.5q108 0 187 -50l-39 -59q-64 44 -150 44q-114 0 -178 -80.5t-64 -195.5q0 -118 63.5 -200.5t181.5 -82.5q96 0 163 57l36 -56q-30 -27 -83.5 -47t-117.5 -20z" />
    <glyph glyph-name="afii10036" unicode="&#x422;" horiz-adv-x="497" 
d="M209 0v600h-189v66h457v-66h-189v-600h-79z" />
    <glyph glyph-name="afii10037" unicode="&#x423;" horiz-adv-x="542" 
d="M102 -2q-24 0 -39 5l10 61q12 -3 30 -3q42 0 70 25.5t53 83.5l18 41l-200 455h75l163 -369l162 369h76l-233 -531q-32 -74 -76 -105.5t-109 -31.5z" />
    <glyph glyph-name="afii10038" unicode="&#x424;" horiz-adv-x="706" 
d="M315 0v74q-124 2 -202.5 76.5t-78.5 187.5t78 189t203 78v61h76v-61q124 -2 202.5 -77t78.5 -187q0 -114 -78 -189.5t-203 -77.5v-74h-76zM386 136q92 2 150 58t58 144q0 90 -57.5 147t-150.5 58v-407zM320 136v407q-92 -2 -150 -58t-58 -144q0 -90 57.5 -147t150.5 -58z
" />
    <glyph glyph-name="afii10039" unicode="&#x425;" horiz-adv-x="565" 
d="M25 0l211 345l-200 321h89l161 -258l152 258h82l-195 -321l215 -345h-89l-176 282l-168 -282h-82z" />
    <glyph glyph-name="afii10040" unicode="&#x426;" horiz-adv-x="707" 
d="M583 -144l-7 144h-480v666h78v-600h339v600h78v-600h69l-22 -210h-55z" />
    <glyph glyph-name="afii10041" unicode="&#x427;" horiz-adv-x="631" 
d="M457 0v292q-28 -37 -81 -70.5t-117 -33.5q-88 0 -139.5 52t-51.5 144v282h78v-268q0 -71 35.5 -107t93.5 -36t107.5 35.5t74.5 72.5v303h78v-666h-78z" />
    <glyph glyph-name="afii10042" unicode="&#x428;" horiz-adv-x="1004" 
d="M96 0v666h78v-600h281v600h78v-600h281v600h78v-666h-796z" />
    <glyph glyph-name="afii10043" unicode="&#x429;" horiz-adv-x="1008" 
d="M884 -144l-7 144h-781v666h78v-600h281v600h78v-600h281v600h78v-600h69l-22 -210h-55z" />
    <glyph glyph-name="afii10044" unicode="&#x42a;" horiz-adv-x="651" 
d="M184 0v600h-164v66h242v-269h111q105 0 169.5 -49.5t64.5 -142.5q0 -98 -64 -151.5t-181 -53.5h-178zM262 66h100q165 0 165 136q0 129 -162 129h-103v-265z" />
    <glyph glyph-name="afii10045" unicode="&#x42b;" horiz-adv-x="823" 
d="M96 0v666h78v-269h111q105 0 169.5 -49.5t64.5 -142.5q0 -98 -64 -151.5t-181 -53.5h-178zM174 66h100q165 0 165 136q0 129 -162 129h-103v-265zM649 0v666h78v-666h-78z" />
    <glyph glyph-name="afii10046" unicode="&#x42c;" horiz-adv-x="563" 
d="M96 0v666h78v-269h111q105 0 169.5 -49.5t64.5 -142.5q0 -98 -64 -151.5t-181 -53.5h-178zM174 66h100q165 0 165 136q0 129 -162 129h-103v-265z" />
    <glyph glyph-name="afii10047" unicode="&#x42d;" horiz-adv-x="615" 
d="M236 -12q-118 0 -200 59l39 59q66 -53 163 -53q106 0 171.5 71.5t68.5 173.5h-321v66h321q-3 103 -68 175.5t-175 72.5q-86 0 -150 -47l-36 56q77 57 188 57q151 0 238 -98.5t87 -245.5q0 -144 -89 -245t-237 -101z" />
    <glyph glyph-name="afii10048" unicode="&#x42e;" horiz-adv-x="1059" 
d="M680 -12q-145 0 -234 96t-94 234h-178v-318h-78v666h78v-282h181q17 126 103 210t220 84q149 0 238.5 -100.5t89.5 -243.5q0 -144 -89 -245t-237 -101zM678 53q115 0 180.5 80.5t65.5 198.5q0 119 -65 200t-179 81q-115 0 -180.5 -80.5t-65.5 -198.5q0 -119 65 -200
t179 -81z" />
    <glyph glyph-name="afii10049" unicode="&#x42f;" horiz-adv-x="585" 
d="M46 0l-2 65h10q13 0 24.5 5t25.5 21.5t22 27t29 41.5t32 46q61 89 87 107v2q-84 5 -135.5 48.5t-51.5 123.5q0 84 58.5 131.5t162.5 47.5h181v-666h-78v307h-30q-13 0 -24.5 -5.5t-25.5 -21.5t-22.5 -27.5t-29 -41.5t-31.5 -46q-69 -101 -100 -133t-73 -32h-29zM311 371
h100v229h-94q-150 0 -150 -111q0 -118 144 -118z" />
    <glyph glyph-name="afii10065" unicode="&#x430;" horiz-adv-x="472" 
d="M181 -12q-61 0 -99 35.5t-38 93.5q0 45 23 79t62 51.5t81.5 26t89.5 8.5h21v45q0 53 -23 76.5t-73 23.5q-66 0 -125 -52l-39 51q70 66 169 66q164 0 164 -159v-224q0 -67 11 -109h-73q-4 19 -7 58q-56 -70 -144 -70zM193 51q76 0 128 69v108h-21q-178 0 -178 -109
q0 -34 22.5 -51t48.5 -17z" />
    <glyph glyph-name="afii10066" unicode="&#x431;" horiz-adv-x="526" 
d="M272 -12q-220 0 -220 359q0 67 11.5 120.5t38 99t73 77t112.5 47.5l156 38l13 -71l-154 -33q-174 -38 -178 -226q55 86 156 86q92 0 149 -66t57 -178q0 -110 -63.5 -181.5t-150.5 -71.5zM275 51q60 0 96.5 50t36.5 138q0 83 -34.5 133t-94.5 50q-55 0 -89.5 -25.5
t-62.5 -72.5v-17q0 -125 40.5 -190.5t107.5 -65.5z" />
    <glyph glyph-name="afii10067" unicode="&#x432;" horiz-adv-x="488" 
d="M84 0v480h168q77 0 123 -29t46 -91q0 -84 -89 -107v-1q48 -8 79 -38.5t31 -79.5q0 -134 -192 -134h-166zM157 60h91q63 0 90.5 17t27.5 59q0 85 -113 85h-96v-161zM157 277h87q53 0 77.5 19t24.5 58q0 67 -100 67h-89v-144z" />
    <glyph glyph-name="afii10068" unicode="&#x433;" horiz-adv-x="395" 
d="M84 0v480h291v-58h-218v-422h-73z" />
    <glyph glyph-name="afii10069" unicode="&#x434;" horiz-adv-x="551" 
d="M30 -144l-10 202h38q49 30 61 174l20 248h306v-422h66l-21 -202h-53l-7 144h-332l-15 -144h-53zM134 58h238v364h-169l-15 -200q-9 -114 -54 -164z" />
    <glyph glyph-name="afii10070" unicode="&#x435;" horiz-adv-x="490" 
d="M267 -12q-109 0 -168 71.5t-59 183.5q0 107 60.5 178t155.5 71q88 0 138.5 -58.5t50.5 -157.5q0 -10 -2 -34h-325q2 -84 38.5 -137.5t112.5 -53.5q64 0 133 43l30 -57q-74 -49 -165 -49zM122 300h248q-2 56 -30 92.5t-86 36.5q-55 0 -88.5 -35t-43.5 -94z" />
    <glyph glyph-name="afii10072" unicode="&#x436;" horiz-adv-x="714" 
d="M24 0l2 61h5q19 0 39.5 21.5t55.5 72.5q54 78 88 102l-192 223h86l172 -203h40v203h74v-203h40l172 203h86l-192 -223q34 -24 88 -102q35 -51 55.5 -72.5t39.5 -21.5h7l-2 -61h-20q-38 0 -65.5 25.5t-77.5 96.5q-35 50 -58 74t-43 25h-30v-221h-74v221h-30
q-20 -1 -43 -25t-58 -74q-50 -71 -77.5 -96.5t-65.5 -25.5h-22z" />
    <glyph glyph-name="afii10073" unicode="&#x437;" horiz-adv-x="427" 
d="M31 32l34 52q47 -36 122 -36q118 0 118 88q0 39 -42 63t-100 24h-23v51h24q51 0 86 21.5t35 58.5q0 36 -26 57t-74 21q-64 0 -113 -35l-30 51q60 44 146 44q75 0 123.5 -34.5t48.5 -97.5q0 -84 -89 -107v-1q48 -8 79 -38.5t31 -79.5q0 -71 -54 -108.5t-143 -37.5
q-90 0 -153 44z" />
    <glyph glyph-name="afii10074" unicode="&#x438;" horiz-adv-x="578" 
d="M84 0v480h68v-311q0 -49 -2 -73h1q21 43 48 79l223 305h72v-480h-70v333q0 30 3 60h-1q-27 -50 -42 -70l-236 -323h-64z" />
    <glyph glyph-name="afii10075" unicode="&#x439;" horiz-adv-x="578" 
d="M84 0v480h68v-311q0 -49 -2 -73h1q21 43 48 79l223 305h72v-480h-70v333q0 30 3 60h-1q-27 -50 -42 -70l-236 -323h-64zM285 536q-57 0 -97.5 36t-46.5 106h65q3 -38 23.5 -61t55.5 -23q34 0 54.5 23t23.5 61h65q-6 -70 -46.5 -106t-96.5 -36z" />
    <glyph glyph-name="afii10076" unicode="&#x43a;" horiz-adv-x="478" 
d="M84 0v480h74v-203h40l172 203h86l-192 -223q34 -24 88 -102q35 -51 55.5 -72.5t39.5 -21.5h7l-2 -61h-20q-38 0 -65.5 25.5t-77.5 96.5q-35 50 -58 74t-43 25h-29l-1 -221h-74z" />
    <glyph glyph-name="afii10077" unicode="&#x43b;" horiz-adv-x="535" 
d="M37 -8l-13 57q77 3 92 183l20 248h315v-480h-73v422h-177l-16 -200q-19 -230 -148 -230z" />
    <glyph glyph-name="afii10078" unicode="&#x43c;" horiz-adv-x="666" 
d="M45 0l68 480h72l117 -320q5 -14 30 -88h2q22 66 30 88l118 320h72l67 -480h-76l-39 293q-2 16 -7 68h-2q-5 -19 -23 -67l-107 -294h-73l-111 294q-14 38 -22 67h-2q-5 -60 -6 -69l-39 -292h-69z" />
    <glyph glyph-name="afii10079" unicode="&#x43d;" horiz-adv-x="569" 
d="M84 0v480h74v-199h253v199h74v-480h-74v222h-253v-222h-74z" />
    <glyph glyph-name="afii10080" unicode="&#x43e;" horiz-adv-x="528" 
d="M262 -12q-58 0 -102.5 23t-69.5 61t-37.5 80.5t-12.5 86.5q0 45 12 87.5t36.5 80.5t68.5 61.5t102 23.5t103.5 -23t72 -60.5t40 -80.5t13.5 -87t-13 -87t-39 -81t-71 -61.5t-103 -23.5zM263 51q72 0 109.5 53t37.5 135q0 81 -40 135.5t-112 54.5q-71 0 -105.5 -52.5
t-34.5 -135.5t37 -136.5t108 -53.5z" />
    <glyph glyph-name="afii10081" unicode="&#x43f;" horiz-adv-x="551" 
d="M84 0v480h383v-480h-74v422h-235v-422h-74z" />
    <glyph glyph-name="afii10082" unicode="&#x440;" horiz-adv-x="529" 
d="M82 -219v699h73v-52q53 64 139 64q89 0 142 -66.5t53 -184.5q0 -113 -59.5 -183t-152.5 -70q-75 0 -122 42v-249h-73zM270 51q67 0 104 52t37 136t-33 135.5t-99 51.5q-44 0 -76 -22t-48 -45v-264q48 -44 115 -44z" />
    <glyph glyph-name="afii10083" unicode="&#x441;" horiz-adv-x="440" 
d="M258 -12q-102 0 -160 73.5t-58 178.5q0 118 63.5 185t157.5 67q86 0 147 -48l-35 -55q-53 40 -113 40q-71 0 -106.5 -51.5t-35.5 -135.5q0 -82 36.5 -136.5t107.5 -54.5q66 0 117 40l30 -55q-57 -48 -151 -48z" />
    <glyph glyph-name="afii10084" unicode="&#x442;" horiz-adv-x="416" 
d="M171 0v422h-151v58h376v-58h-151v-422h-74z" />
    <glyph glyph-name="afii10085" unicode="&#x443;" horiz-adv-x="469" 
d="M57 -232q-23 0 -46 5l10 61q21 -3 37 -3q48 0 74 26t47 83l23 63l-181 477h82l137 -383h2l133 383h78l-204 -544q-30 -81 -71 -124.5t-121 -43.5z" />
    <glyph glyph-name="afii10086" unicode="&#x444;" horiz-adv-x="735" 
d="M403 -219h-71v245q-40 -38 -105 -38q-85 0 -136 70t-51 181t51.5 183t135.5 72q65 0 105 -40v266h71v-266q40 40 105 40q85 0 136 -70t51 -181t-51.5 -183t-135.5 -72q-67 0 -105 38v-245zM118 243q0 -82 29.5 -137t86.5 -55q58 0 100 42v296q-42 42 -100 42t-87 -53
t-29 -135zM617 239q0 82 -29.5 137t-86.5 55q-58 0 -100 -42v-296q42 -42 100 -42t87 53t29 135z" />
    <glyph glyph-name="afii10087" unicode="&#x445;" horiz-adv-x="462" 
d="M22 0l166 251l-156 229h83q110 -163 116 -172l109 172h77l-150 -224l174 -256h-83l-135 199l-125 -199h-76z" />
    <glyph glyph-name="afii10088" unicode="&#x446;" horiz-adv-x="575" 
d="M461 -144l-7 144h-370v480h74v-422h237v422h74v-422h66l-21 -202h-53z" />
    <glyph glyph-name="afii10089" unicode="&#x447;" horiz-adv-x="524" 
d="M367 0v223q-62 -85 -158 -85q-73 0 -109 42.5t-36 109.5v190h73v-176q0 -100 89 -100q33 0 67.5 21.5t48.5 37.5t25 31v186h73v-480h-73z" />
    <glyph glyph-name="afii10090" unicode="&#x448;" horiz-adv-x="796" 
d="M84 0v480h74v-422h203v422h74v-422h203v422h74v-480h-628z" />
    <glyph glyph-name="afii10091" unicode="&#x449;" horiz-adv-x="818" 
d="M704 -144l-7 144h-613v480h74v-422h203v422h74v-422h203v422h74v-422h66l-21 -202h-53z" />
    <glyph glyph-name="afii10092" unicode="&#x44a;" horiz-adv-x="530" 
d="M147 0v422h-127v58h201v-184h100q83 0 133 -36t50 -107q0 -75 -50 -114t-141 -39h-166zM221 59h92q60 0 88 22t28 69q0 88 -114 88h-94v-179z" />
    <glyph glyph-name="afii10093" unicode="&#x44b;" horiz-adv-x="703" 
d="M84 0v480h74v-184h100q83 0 133 -36t50 -107q0 -75 -50 -114t-141 -39h-166zM158 59h92q60 0 88 22t28 69q0 88 -114 88h-94v-179zM545 0v480h74v-480h-74z" />
    <glyph glyph-name="afii10094" unicode="&#x44c;" horiz-adv-x="467" 
d="M84 0v480h74v-184h100q83 0 133 -36t50 -107q0 -75 -50 -114t-141 -39h-166zM158 59h92q60 0 88 22t28 69q0 88 -114 88h-94v-179z" />
    <glyph glyph-name="afii10095" unicode="&#x44d;" horiz-adv-x="477" 
d="M185 -7q-93 0 -154 44l37 56q44 -38 119 -38t120 44t49 113h-272v58h271q-4 69 -49 113.5t-121 44.5q-64 0 -112 -34l-32 54q58 42 146 42q117 0 183.5 -71t66.5 -177q0 -107 -67.5 -178t-184.5 -71z" />
    <glyph glyph-name="afii10096" unicode="&#x44e;" horiz-adv-x="785" 
d="M519 -12q-106 0 -161.5 70t-60.5 164h-139v-222h-74v480h74v-199h142q7 56 29.5 101t70.5 77.5t116 32.5q58 0 103.5 -23t72 -60.5t40 -80.5t13.5 -87t-13 -87t-39 -81t-71 -61.5t-103 -23.5zM520 51q72 0 109.5 53t37.5 135q0 81 -40 135.5t-112 54.5
q-71 0 -105.5 -52.5t-34.5 -135.5t37 -136.5t108 -53.5z" />
    <glyph glyph-name="afii10097" unicode="&#x44f;" horiz-adv-x="490" 
d="M30 0v61h6q20 0 41.5 19.5t53.5 66.5q43 63 71 73v1q-56 2 -95.5 34t-39.5 92q0 64 45.5 98.5t128.5 34.5h165v-480h-73v213h-35q-20 0 -44 -24t-59 -75q-47 -67 -75.5 -90.5t-67.5 -23.5h-22zM243 269h90v152h-85q-54 0 -79 -18t-25 -57q0 -77 99 -77z" />
    <glyph glyph-name="uni0450" unicode="&#x450;" horiz-adv-x="490" 
d="M267 -12q-109 0 -168 71.5t-59 183.5q0 107 60.5 178t155.5 71q88 0 138.5 -58.5t50.5 -157.5q0 -10 -2 -34h-325q2 -84 38.5 -137.5t112.5 -53.5q64 0 133 43l30 -57q-74 -49 -165 -49zM122 300h248q-2 56 -30 92.5t-86 36.5q-55 0 -88.5 -35t-43.5 -94zM225 540
l-135 126h109l92 -126h-66z" />
    <glyph glyph-name="afii10071" unicode="&#x451;" horiz-adv-x="490" 
d="M267 -12q-109 0 -168 71.5t-59 183.5q0 107 60.5 178t155.5 71q88 0 138.5 -58.5t50.5 -157.5q0 -10 -2 -34h-325q2 -84 38.5 -137.5t112.5 -53.5q64 0 133 43l30 -57q-74 -49 -165 -49zM122 300h248q-2 56 -30 92.5t-86 36.5q-55 0 -88.5 -35t-43.5 -94zM160 538
q-22 0 -37.5 16t-15.5 38t15.5 37.5t37.5 15.5t38 -15.5t16 -37.5t-16 -38t-38 -16zM347 538q-22 0 -37.5 16t-15.5 38t15.5 37.5t37.5 15.5t38 -15.5t16 -37.5t-15.5 -38t-38.5 -16z" />
    <glyph glyph-name="afii10099" unicode="&#x452;" horiz-adv-x="524" 
d="M296 -130l-27 52q54 31 88 114t34 204q0 83 -30.5 134.5t-97.5 51.5q-29 0 -59 -14t-47 -33v-379h-73v576h-43v58h43v86h73v-86h163v-58h-163v-134q48 50 119 50q88 0 139 -66t51 -184q0 -139 -49 -240t-121 -132z" />
    <glyph glyph-name="afii10100" unicode="&#x453;" horiz-adv-x="395" 
d="M84 0v480h291v-58h-218v-422h-73zM198 540l92 126h109l-135 -126h-66z" />
    <glyph glyph-name="afii10101" unicode="&#x454;" horiz-adv-x="475" 
d="M290 -8q-117 0 -183.5 71t-66.5 177q0 107 67.5 178t184.5 71q83 0 144 -37l-37 -56q-44 31 -109 31q-75 0 -120 -44t-49 -113h263v-58h-263q5 -70 50 -114t121 -44q69 0 120 40l32 -54q-57 -48 -154 -48z" />
    <glyph glyph-name="afii10102" unicode="&#x455;" horiz-adv-x="408" 
d="M193 -13q-86 0 -152 46l32 56q54 -39 119 -39q45 0 71.5 18t26.5 51q0 31 -23.5 49.5t-82.5 43.5q-66 28 -99 60t-33 88q0 57 41 94.5t111 37.5q84 0 142 -46l-36 -53q-47 36 -107 36q-38 0 -59 -17.5t-21 -48.5t22 -48.5t70 -37.5q36 -15 57.5 -26.5t45.5 -29t35 -40.5
t11 -52q0 -65 -46 -103.5t-125 -38.5z" />
    <glyph glyph-name="afii10103" unicode="&#x456;" horiz-adv-x="250" 
d="M125 570q-23 0 -38.5 16t-15.5 38t15.5 38t38.5 16t38.5 -16t15.5 -38t-15.5 -38t-38.5 -16zM88 0v480h74v-480h-74z" />
    <glyph glyph-name="afii10104" unicode="&#x457;" horiz-adv-x="250" 
d="M88 0v480h74v-480h-74zM31 538q-22 0 -37.5 16t-15.5 38t15.5 37.5t37.5 15.5t38 -15.5t16 -37.5t-15.5 -38t-38.5 -16zM218 538q-22 0 -37.5 16t-15.5 38t15.5 37.5t37.5 15.5t38 -15.5t16 -37.5t-16 -38t-38 -16z" />
    <glyph glyph-name="afii10105" unicode="&#x458;" horiz-adv-x="239" 
d="M20 -230q-38 0 -52 7l12 61q12 -5 34 -5q38 0 54 29t16 87v531h73v-544q0 -166 -137 -166zM119 570q-23 0 -38.5 16t-15.5 38t15.5 38t38.5 16t38.5 -16t15.5 -38t-15.5 -38t-38.5 -16z" />
    <glyph glyph-name="afii10106" unicode="&#x459;" horiz-adv-x="761" 
d="M37 -8l-13 57q77 3 92 183l20 248h316v-184h100q83 0 133 -36t50 -107q0 -75 -50 -114t-141 -39h-166v422h-180l-16 -200q-9 -114 -44 -172t-101 -58zM452 59h92q60 0 88 22t28 69q0 88 -114 88h-94v-179z" />
    <glyph glyph-name="afii10107" unicode="&#x45a;" horiz-adv-x="808" 
d="M84 0v480h74v-184h267v184h74v-184h100q83 0 133 -36t50 -107q0 -75 -50 -114t-141 -39h-166v238h-267v-238h-74zM499 59h92q60 0 88 22t28 69q0 88 -114 88h-94v-179z" />
    <glyph glyph-name="afii10108" unicode="&#x45b;" horiz-adv-x="527" 
d="M79 0v576h-43v58h43v86h73v-86h163v-58h-163v-165q63 81 156 81q72 0 106.5 -41.5t34.5 -108.5v-342h-73v328q0 98 -85 98q-76 0 -139 -88v-338h-73z" />
    <glyph glyph-name="afii10109" unicode="&#x45c;" horiz-adv-x="478" 
d="M84 0v480h74v-203h40l172 203h86l-192 -223q34 -24 88 -102q35 -51 55.5 -72.5t39.5 -21.5h7l-2 -61h-20q-38 0 -65.5 25.5t-77.5 96.5q-35 50 -58 74t-43 25h-29l-1 -221h-74zM185 540l92 126h109l-135 -126h-66z" />
    <glyph glyph-name="uni045D" unicode="&#x45d;" horiz-adv-x="578" 
d="M84 0v480h68v-311q0 -49 -2 -73h1q21 43 48 79l223 305h72v-480h-70v333q0 30 3 60h-1q-27 -50 -42 -70l-236 -323h-64zM283 540l-135 126h109l92 -126h-66z" />
    <glyph glyph-name="afii10110" unicode="&#x45e;" horiz-adv-x="469" 
d="M57 -232q-23 0 -46 5l10 61q21 -3 37 -3q48 0 74 26t47 83l23 63l-181 477h82l137 -383h2l133 383h78l-204 -544q-30 -81 -71 -124.5t-121 -43.5zM242 536q-57 0 -97.5 36t-46.5 106h65q3 -38 23.5 -61t55.5 -23q34 0 54.5 23t23.5 61h65q-6 -70 -46.5 -106t-96.5 -36z
" />
    <glyph glyph-name="afii10193" unicode="&#x45f;" horiz-adv-x="559" 
d="M253 -144l-7 144h-162v480h74v-422h243v422h74v-480h-162l-7 -144h-53z" />
    <glyph glyph-name="afii10050" unicode="&#x490;" horiz-adv-x="465" 
d="M96 0v666h275l14 144h55l5 -210h-271v-600h-78z" />
    <glyph glyph-name="afii10098" unicode="&#x491;" horiz-adv-x="395" 
d="M84 0v480h218l11 144h53l10 -202h-219v-422h-73z" />
    <glyph glyph-name="uni0492" unicode="&#x492;" horiz-adv-x="465" 
d="M25 352v58h71v256h349v-66h-271v-190h145v-58h-145v-352h-78v352h-71z" />
    <glyph glyph-name="uni0493" unicode="&#x493;" horiz-adv-x="395" 
d="M84 0v242h-68v58h68v180h291v-58h-218v-122h116v-58h-116v-242h-73z" />
    <glyph glyph-name="uni0496" unicode="&#x496;" horiz-adv-x="931" 
d="M22 0l2 65h8q13 0 24.5 5t25.5 21.5t22 27t29 41.5t32 46q77 113 114 141l-247 319h88l221 -295h60v295h77v-295h60l221 295h88l-248 -319q36 -27 115 -141q11 -15 32 -46t29 -41.5t22 -27t25.5 -21.5t24.5 -5h44l-22 -209h-55l-7 145q-24 4 -48 26t-42.5 47t-63.5 91
q-11 16 -31.5 46t-29 41.5t-22.5 27.5t-25.5 21.5t-24.5 5.5h-42v-307h-77v307h-46q-12 -1 -23.5 -7t-25 -21.5t-21.5 -27t-28 -41t-31 -45.5q-69 -101 -100 -133t-73 -32h-31z" />
    <glyph glyph-name="uni0497" unicode="&#x497;" horiz-adv-x="762" 
d="M24 0l2 61h5q19 0 39.5 21.5t55.5 72.5q54 78 88 102l-192 223h86l172 -203h40v203h74v-203h40l172 203h86l-192 -223q34 -24 88 -102q34 -49 53.5 -70.5t37.5 -23.5h48l-21 -205h-53l-7 146q-29 6 -54 32.5t-67 87.5q-35 50 -58 74t-43 25h-30v-221h-74v221h-30
q-20 -1 -43 -25t-58 -74q-50 -71 -77.5 -96.5t-65.5 -25.5h-22z" />
    <glyph glyph-name="uni049A" unicode="&#x49a;" horiz-adv-x="626" 
d="M96 0v666h77v-295h60l221 295h88l-248 -319q36 -27 115 -141q11 -15 31 -45t28 -41t21.5 -27t24.5 -21.5t24 -6.5h48l-22 -209h-55l-7 145q-24 4 -48 26t-42.5 47t-63.5 91q-11 16 -31.5 46t-29 41.5t-22.5 27.5t-25.5 21.5t-24.5 5.5h-42v-307h-77z" />
    <glyph glyph-name="uni049B" unicode="&#x49b;" horiz-adv-x="526" 
d="M84 0v480h74v-203h40l172 203h86l-192 -223q34 -24 88 -102q34 -49 53.5 -70.5t37.5 -23.5h48l-21 -205h-53l-7 146q-29 6 -54 32.5t-67 87.5q-35 50 -58 74t-43 25h-29l-1 -221h-74z" />
    <glyph glyph-name="uni049C" unicode="&#x49c;" horiz-adv-x="621" 
d="M286 542v-171h18l196 295h85l-220 -319q11 -11 23 -28.5t32.5 -53t35.5 -59.5q26 -42 38.5 -60.5t30.5 -41.5t33 -31t31 -8h10l-2 -65h-29q-43 0 -77 34t-95 131q-12 20 -27.5 46t-23.5 40.5t-18.5 29t-20 20.5t-20.5 6v-171h-67v171h-46v-307h-77v666h77v-295h46v171h67
z" />
    <glyph glyph-name="uni049D" unicode="&#x49d;" horiz-adv-x="509" 
d="M249 409v-132h6l152 203h80l-173 -222q8 -6 14 -12.5t14 -18.5t12 -18.5t15 -25.5t15 -26q57 -96 95 -96h7l-2 -61h-20q-39 0 -69.5 27.5t-73.5 96.5q-5 9 -13 21.5t-12.5 20t-10.5 17t-10 14.5t-9 10.5t-9 8.5t-8 4v-131h-58v132h-32l-1 -221h-74v480h74v-203h33v132h58
z" />
    <glyph glyph-name="uni04A2" unicode="&#x4a2;" horiz-adv-x="745" 
d="M96 0v666h78v-282h377v282h78v-600h69l-22 -210h-55l-7 144h-63v318h-377v-318h-78z" />
    <glyph glyph-name="uni04A3" unicode="&#x4a3;" horiz-adv-x="591" 
d="M84 0v480h74v-199h253v199h74v-422h66l-21 -202h-53l-7 144h-59v222h-253v-222h-74z" />
    <glyph glyph-name="uni04AE" unicode="&#x4ae;" horiz-adv-x="555" 
d="M241 0v252l-223 414h87l178 -340h1l178 340h75l-218 -414v-252h-78z" />
    <glyph glyph-name="uni04AF" unicode="&#x4af;" horiz-adv-x="462" 
d="M198 -217v219l-182 478h80l137 -384h2l134 384h75l-176 -478v-219h-70z" />
    <glyph glyph-name="uni04B0" unicode="&#x4b0;" horiz-adv-x="555" 
d="M241 0v174h-164v58h164v20l-223 414h87l178 -340h1l178 340h75l-218 -414v-20h174v-58h-174v-174h-78z" />
    <glyph glyph-name="uni04B1" unicode="&#x4b1;" horiz-adv-x="462" 
d="M381 -58h-113v-159h-70v159h-110v58h110v2l-182 478h80l137 -384h2l134 384h75l-176 -478v-2h113v-58z" />
    <glyph glyph-name="uni04B2" unicode="&#x4b2;" horiz-adv-x="608" 
d="M25 0l211 345l-200 321h89l161 -258l152 258h82l-195 -321l174 -280h69l-22 -209h-55l-7 144h-33l-176 282l-168 -282h-82z" />
    <glyph glyph-name="uni04B3" unicode="&#x4b3;" horiz-adv-x="500" 
d="M22 0l166 251l-156 229h83q110 -163 116 -172l109 172h77l-150 -224l132 -195h66l-21 -205h-53l-7 144h-26l-135 199l-125 -199h-76z" />
    <glyph glyph-name="uni04B6" unicode="&#x4b6;" horiz-adv-x="651" 
d="M457 0v292q-28 -37 -81 -70.5t-117 -33.5q-88 0 -139.5 52t-51.5 144v282h78v-268q0 -71 35.5 -107t93.5 -36t107.5 35.5t74.5 72.5v303h78v-600h69l-22 -210h-55l-7 144h-63z" />
    <glyph glyph-name="uni04B7" unicode="&#x4b7;" horiz-adv-x="546" 
d="M367 0v223q-62 -85 -158 -85q-73 0 -109 42.5t-36 109.5v190h73v-176q0 -100 89 -100q33 0 67.5 21.5t48.5 37.5t25 31v186h73v-422h66l-21 -202h-53l-7 144h-58z" />
    <glyph glyph-name="uni04B8" unicode="&#x4b8;" horiz-adv-x="631" 
d="M457 0v292q-48 -63 -125 -91v-137h-67v124h-6q-88 0 -139.5 52t-51.5 144v282h78v-268q0 -68 32.5 -104t86.5 -39v145h67v-135q40 14 73.5 42.5t51.5 55.5v303h78v-666h-78z" />
    <glyph glyph-name="uni04B9" unicode="&#x4b9;" horiz-adv-x="524" 
d="M278 325v-109q49 23 89 78v186h73v-480h-73v223q-36 -50 -89 -72v-118h-58v105h-11q-73 0 -109 42.5t-36 109.5v190h73v-176q0 -97 83 -100v121h58z" />
    <glyph glyph-name="uni04BA" unicode="&#x4ba;" horiz-adv-x="631" 
d="M174 666v-292q28 37 81 70.5t117 33.5q88 0 139.5 -52t51.5 -144v-282h-78v268q0 71 -35.5 107t-93.5 36t-107.5 -35.5t-74.5 -72.5v-303h-78v666h78z" />
    <glyph glyph-name="uni04BB" unicode="&#x4bb;" horiz-adv-x="527" 
d="M79 0v720h73v-309q63 81 156 81q72 0 106.5 -41.5t34.5 -108.5v-342h-73v328q0 98 -85 98q-76 0 -139 -88v-338h-73z" />
    <glyph glyph-name="uni04C0" unicode="&#x4c0;" horiz-adv-x="282" 
d="M102 0v666h78v-666h-78z" />
    <glyph glyph-name="uni04CF" unicode="&#x4cf;" horiz-adv-x="241" 
d="M84 0v720h73v-720h-73z" />
    <glyph glyph-name="uni04D8" unicode="&#x4d8;" horiz-adv-x="723" 
d="M162 541l-42 52q91 85 232 85q144 0 231 -100.5t87 -243.5q0 -144 -83.5 -245t-222.5 -101q-140 0 -224 100.5t-84 243.5v16h532q-5 113 -67 189t-167 76q-110 0 -192 -72zM362 53q94 0 152 64t71 165h-444q13 -100 71 -164.5t150 -64.5z" />
    <glyph glyph-name="afii10846" unicode="&#x4d9;" horiz-adv-x="490" 
d="M223 492q109 0 168 -71.5t59 -183.5q0 -107 -60.5 -178t-155.5 -71q-88 0 -138.5 58.5t-50.5 157.5q0 10 2 34h325q-2 84 -38.5 137.5t-112.5 53.5q-64 0 -133 -43l-30 57q74 49 165 49zM368 180h-248q2 -56 30 -92.5t86 -36.5q55 0 88.5 35t43.5 94z" />
    <glyph glyph-name="uni04E2" unicode="&#x4e2;" horiz-adv-x="715" 
d="M96 0v666h72v-467q0 -38 -4 -90h2q37 62 62 98l314 459h77v-666h-72v496q0 21 4 73h-2q-34 -59 -52 -86l-329 -483h-72zM225 754v61h271v-61h-271z" />
    <glyph glyph-name="uni04E3" unicode="&#x4e3;" horiz-adv-x="578" 
d="M84 0v480h68v-311q0 -49 -2 -73h1q21 43 48 79l223 305h72v-480h-70v333q0 30 3 60h-1q-27 -50 -42 -70l-236 -323h-64zM154 574v61h271v-61h-271z" />
    <glyph glyph-name="uni04E8" unicode="&#x4e8;" horiz-adv-x="760" 
d="M381 -12q-149 0 -238.5 100.5t-89.5 243.5q0 144 89 245t237 101q149 0 238.5 -100.5t89.5 -243.5q0 -144 -89 -245t-237 -101zM381 613q-107 0 -171.5 -70.5t-73.5 -177.5h487q-9 107 -72.5 177.5t-169.5 70.5zM379 53q106 0 170.5 69.5t73.5 176.5h-487
q9 -107 73 -176.5t170 -69.5z" />
    <glyph glyph-name="uni04E9" unicode="&#x4e9;" horiz-adv-x="528" 
d="M262 -12q-58 0 -102.5 23t-69.5 61t-37.5 80.5t-12.5 86.5q0 45 12 87.5t36.5 80.5t68.5 61.5t102 23.5t103.5 -23t72 -60.5t40 -80.5t13.5 -87t-13 -87t-39 -81t-71 -61.5t-103 -23.5zM263 51q67 0 103.5 46t42.5 120h-290q5 -73 41.5 -119.5t102.5 -46.5zM258 429
q-64 0 -98.5 -43t-40.5 -113h289q-9 69 -47.5 112.5t-102.5 43.5z" />
    <glyph glyph-name="uni04EE" unicode="&#x4ee;" horiz-adv-x="542" 
d="M102 -2q-24 0 -39 5l10 61q12 -3 30 -3q42 0 70 25.5t53 83.5l18 41l-200 455h75l163 -369l162 369h76l-233 -531q-32 -74 -76 -105.5t-109 -31.5zM147 754v61h271v-61h-271z" />
    <glyph glyph-name="uni04EF" unicode="&#x4ef;" horiz-adv-x="469" 
d="M57 -232q-23 0 -46 5l10 61q21 -3 37 -3q48 0 74 26t47 83l23 63l-181 477h82l137 -383h2l133 383h78l-204 -544q-30 -81 -71 -124.5t-121 -43.5zM106 574v61h271v-61h-271z" />
    <glyph glyph-name="Wgrave" unicode="&#x1e80;" horiz-adv-x="875" 
d="M203 0l-182 666h85l113 -445q4 -18 24 -116h2q10 48 29 116l128 445h80l126 -442q15 -52 28 -117h2l2 13l4.5 27t7 36.5t9.5 40.5l115 442h77l-183 -666h-71l-129 450q-12 41 -29 128h-2q-9 -47 -33 -128l-132 -450h-71zM408 720l-135 126h109l92 -126h-66z" />
    <glyph glyph-name="wgrave" unicode="&#x1e81;" horiz-adv-x="698" 
d="M160 0l-143 480h80l102 -363h2l113 363h71l113 -364h2l103 364h74l-144 -480h-66l-119 373h-2l-120 -373h-66zM318 540l-135 126h109l92 -126h-66z" />
    <glyph glyph-name="Wacute" unicode="&#x1e82;" horiz-adv-x="875" 
d="M203 0l-182 666h85l113 -445q4 -18 24 -116h2q10 48 29 116l128 445h80l126 -442q15 -52 28 -117h2l2 13l4.5 27t7 36.5t9.5 40.5l115 442h77l-183 -666h-71l-129 450q-12 41 -29 128h-2q-9 -47 -33 -128l-132 -450h-71zM403 720l92 126h109l-135 -126h-66z" />
    <glyph glyph-name="wacute" unicode="&#x1e83;" horiz-adv-x="698" 
d="M160 0l-143 480h80l102 -363h2l113 363h71l113 -364h2l103 364h74l-144 -480h-66l-119 373h-2l-120 -373h-66zM313 540l92 126h109l-135 -126h-66z" />
    <glyph glyph-name="Wdieresis" unicode="&#x1e84;" horiz-adv-x="875" 
d="M203 0l-182 666h85l113 -445q4 -18 24 -116h2q10 48 29 116l128 445h80l126 -442q15 -52 28 -117h2l2 13l4.5 27t7 36.5t9.5 40.5l115 442h77l-183 -666h-71l-129 450q-12 41 -29 128h-2q-9 -47 -33 -128l-132 -450h-71zM343 718q-22 0 -37.5 16t-15.5 38t15.5 37.5
t37.5 15.5t38 -15.5t16 -37.5t-15.5 -38t-38.5 -16zM530 718q-22 0 -37.5 16t-15.5 38t15.5 37.5t37.5 15.5t38 -15.5t16 -37.5t-16 -38t-38 -16z" />
    <glyph glyph-name="wdieresis" unicode="&#x1e85;" horiz-adv-x="698" 
d="M160 0l-143 480h80l102 -363h2l113 363h71l113 -364h2l103 364h74l-144 -480h-66l-119 373h-2l-120 -373h-66zM253 538q-22 0 -37.5 16t-15.5 38t15.5 37.5t37.5 15.5t38 -15.5t16 -37.5t-15.5 -38t-38.5 -16zM440 538q-22 0 -37.5 16t-15.5 38t15.5 37.5t37.5 15.5
t38 -15.5t16 -37.5t-16 -38t-38 -16z" />
    <glyph glyph-name="uni1E9E" unicode="&#x1e9e;" horiz-adv-x="662" 
d="M90 0v381q0 145 72.5 220.5t205.5 75.5q80 0 195 -31v-46l-141 -214l34 -17q38 -20 61 -35t49 -39t38.5 -55t12.5 -70q0 -79 -55.5 -130t-149.5 -51q-107 0 -181 45l29 58q68 -38 144 -38q65 0 100.5 30t35.5 83q0 48 -32.5 82t-100.5 68l-83 42l153 238q-56 14 -109 14
q-200 0 -200 -227v-384h-78z" />
    <glyph glyph-name="Ygrave" unicode="&#x1ef2;" horiz-adv-x="555" 
d="M241 0v252l-223 414h87l178 -340h1l178 340h75l-218 -414v-252h-78zM248 720l-135 126h109l92 -126h-66z" />
    <glyph glyph-name="ygrave" unicode="&#x1ef3;" horiz-adv-x="469" 
d="M57 -232q-23 0 -46 5l10 61q21 -3 37 -3q48 0 74 26t47 83l23 63l-181 477h82l137 -383h2l133 383h78l-204 -544q-30 -81 -71 -124.5t-121 -43.5zM208 540l-135 126h109l92 -126h-66z" />
    <glyph glyph-name="uni2007" unicode="&#x2007;" horiz-adv-x="570" 
 />
    <glyph glyph-name="uni2008" unicode="&#x2008;" horiz-adv-x="220" 
 />
    <glyph glyph-name="uni200B" unicode="&#x200b;" horiz-adv-x="0" 
 />
    <glyph glyph-name="endash" unicode="&#x2013;" horiz-adv-x="525" 
d="M54 244v61h417v-61h-417z" />
    <glyph glyph-name="emdash" unicode="&#x2014;" horiz-adv-x="832" 
d="M54 244v61h724v-61h-724z" />
    <glyph glyph-name="afii00208" unicode="&#x2015;" horiz-adv-x="832" 
d="M54 244v61h724v-61h-724z" />
    <glyph glyph-name="quoteleft" unicode="&#x2018;" horiz-adv-x="221" 
d="M107 434q-25 0 -43 17.5t-18 48.5q0 51 36 101.5t78 82.5l29 -26q-55 -53 -55 -92q0 -16 13.5 -37.5t13.5 -40.5q0 -23 -15.5 -38.5t-38.5 -15.5z" />
    <glyph glyph-name="quoteright" unicode="&#x2019;" horiz-adv-x="221" 
d="M114 678q25 0 43 -17.5t18 -48.5q0 -51 -36 -101.5t-78 -82.5l-29 26q55 53 55 92q0 16 -13.5 37.5t-13.5 40.5q0 23 15.5 38.5t38.5 15.5z" />
    <glyph glyph-name="quotesinglbase" unicode="&#x201a;" horiz-adv-x="221" 
d="M114 110q25 0 43 -17.5t18 -48.5q0 -51 -36 -101.5t-78 -82.5l-29 26q55 53 55 92q0 16 -13.5 37.5t-13.5 40.5q0 23 15.5 38.5t38.5 15.5z" />
    <glyph glyph-name="quotedblleft" unicode="&#x201c;" horiz-adv-x="394" 
d="M107 434q-25 0 -43 17.5t-18 48.5q0 51 36 101.5t78 82.5l29 -26q-55 -53 -55 -92q0 -16 13.5 -37.5t13.5 -40.5q0 -23 -15.5 -38.5t-38.5 -15.5zM280 434q-25 0 -43 17.5t-18 48.5q0 51 36 101.5t78 82.5l29 -26q-55 -53 -55 -92q0 -16 13.5 -37.5t13.5 -40.5
q0 -23 -15.5 -38.5t-38.5 -15.5z" />
    <glyph glyph-name="quotedblright" unicode="&#x201d;" horiz-adv-x="394" 
d="M114 678q25 0 43 -17.5t18 -48.5q0 -51 -36 -101.5t-78 -82.5l-29 26q55 53 55 92q0 16 -13.5 37.5t-13.5 40.5q0 23 15.5 38.5t38.5 15.5zM287 678q25 0 43 -17.5t18 -48.5q0 -51 -36 -101.5t-78 -82.5l-29 26q55 53 55 92q0 16 -13.5 37.5t-13.5 40.5q0 23 15.5 38.5
t38.5 15.5z" />
    <glyph glyph-name="quotedblbase" unicode="&#x201e;" horiz-adv-x="394" 
d="M114 110q25 0 43 -17.5t18 -48.5q0 -51 -36 -101.5t-78 -82.5l-29 26q55 53 55 92q0 16 -13.5 37.5t-13.5 40.5q0 23 15.5 38.5t38.5 15.5zM287 110q25 0 43 -17.5t18 -48.5q0 -51 -36 -101.5t-78 -82.5l-29 26q55 53 55 92q0 16 -13.5 37.5t-13.5 40.5q0 23 15.5 38.5
t38.5 15.5z" />
    <glyph glyph-name="dagger" unicode="&#x2020;" horiz-adv-x="543" 
d="M247 -170l-19 446l16 142l-82 -8h-110v70h110l82 -8l-13 111v137h81v-137l-13 -111l82 8h110v-70h-110l-82 8l15 -142l-18 -446h-49z" />
    <glyph glyph-name="daggerdbl" unicode="&#x2021;" horiz-adv-x="543" 
d="M231 -168v137l13 111l-82 -8h-110v70h110l82 -8l-16 142l16 142l-82 -8h-110v70h110l82 -8l-13 111v137h81v-137l-13 -111l82 8h110v-70h-110l-82 8l15 -142l-15 -142l82 8h110v-70h-110l-82 8l13 -111v-137h-81z" />
    <glyph glyph-name="bullet" unicode="&#x2022;" horiz-adv-x="362" 
d="M181 162q-52 0 -88.5 36t-36.5 88t36.5 88.5t88.5 36.5t88.5 -36.5t36.5 -88.5t-36.5 -88t-88.5 -36z" />
    <glyph glyph-name="ellipsis" unicode="&#x2026;" horiz-adv-x="621" 
d="M110 -9q-25 0 -42.5 17.5t-17.5 42.5t17.5 42t42.5 17t42.5 -17t17.5 -42t-17.5 -42.5t-42.5 -17.5zM310 -9q-25 0 -42 17.5t-17 42.5t17 42t42 17t42.5 -17t17.5 -42t-17.5 -42.5t-42.5 -17.5zM511 -9q-25 0 -42.5 17.5t-17.5 42.5t17.5 42t42.5 17t42.5 -17t17.5 -42
t-17.5 -42.5t-42.5 -17.5z" />
    <glyph glyph-name="perthousand" unicode="&#x2030;" horiz-adv-x="1076" 
d="M175 213q-69 0 -105 42t-36 97t37 97.5t106 42.5t104.5 -41.5t35.5 -96.5t-36.5 -98t-105.5 -43zM177 261q39 0 59 25t20 66q0 40 -20.5 66t-60.5 26t-60 -25t-20 -65t21 -66.5t61 -26.5zM570 -12q-69 0 -105 42t-36 97t37 97.5t106 42.5t104.5 -41.5t35.5 -96.5
t-36.5 -98t-105.5 -43zM572 36q39 0 59 25t20 66q0 40 -20.5 66t-60.5 26t-60 -25t-20 -65t21 -66.5t61 -26.5zM900 -12q-69 0 -105 42t-36 97t37 97.5t106 42.5t104.5 -41.5t35.5 -96.5t-36.5 -98t-105.5 -43zM902 36q39 0 59 25t20 66q0 40 -20.5 66t-60.5 26t-60 -25
t-20 -65t21 -66.5t61 -26.5zM201 0l287 480h63l-287 -480h-63z" />
    <glyph glyph-name="guilsinglleft" unicode="&#x2039;" horiz-adv-x="298" 
d="M178 56l-133 189l133 190h77l-132 -190l132 -189h-77z" />
    <glyph glyph-name="guilsinglright" unicode="&#x203a;" horiz-adv-x="298" 
d="M43 56l132 189l-132 190h76l134 -190l-134 -189h-76z" />
    <glyph glyph-name="fraction" unicode="&#x2044;" horiz-adv-x="98" 
d="M-190 0l417 666h61l-417 -666h-61z" />
    <glyph glyph-name="uni2070" unicode="&#x2070;" horiz-adv-x="413" 
d="M206 331q-78 0 -120 50.5t-42 120.5t41.5 120t120.5 50q78 0 120.5 -50t42.5 -120t-42.5 -120.5t-120.5 -50.5zM206 380q42 0 66.5 33t24.5 89t-24.5 88.5t-66.5 32.5q-41 0 -66 -33t-25 -88q0 -56 25 -89t66 -33z" />
    <glyph glyph-name="uni2074" unicode="&#x2074;" horiz-adv-x="319" 
d="M189 337v69h-175v42l178 218h58v-211h55v-49h-55v-69h-61zM84 453q18 2 45 2h61v129h-1z" />
    <glyph glyph-name="uni2075" unicode="&#x2075;" horiz-adv-x="299" 
d="M88 331q-31 0 -52 7l10 50q19 -7 43 -7q45 0 76 15t31 46q0 59 -107 59q-16 0 -37 -3l12 168h186v-50h-130l-6 -68q68 -2 107 -27.5t39 -74.5q0 -56 -46 -85.5t-126 -29.5z" />
    <glyph glyph-name="uni2076" unicode="&#x2076;" horiz-adv-x="339" 
d="M177 331q-69 0 -101 41t-32 103q0 90 60.5 143.5t168.5 53.5l15 -50q-72 -2 -118 -24t-58 -79q30 22 79 22q51 0 82.5 -27.5t31.5 -74.5q0 -49 -35 -78.5t-93 -29.5zM179 379q27 0 43.5 15.5t16.5 40.5q0 28 -17 43.5t-46 15.5q-43 0 -68 -22v-4q0 -44 19.5 -66.5
t51.5 -22.5z" />
    <glyph glyph-name="uni2077" unicode="&#x2077;" horiz-adv-x="295" 
d="M112 324l-54 22l126 268h-166v52h236v-35z" />
    <glyph glyph-name="uni2078" unicode="&#x2078;" horiz-adv-x="333" 
d="M166 331q-61 0 -94.5 24t-33.5 64q0 52 73 87q-63 33 -63 80q0 38 34.5 62t85.5 24q54 0 86 -21.5t32 -60.5q0 -44 -69 -78q78 -33 78 -91q0 -41 -35.5 -65.5t-93.5 -24.5zM165 378q29 0 46 12t17 30q0 19 -18 32.5t-51 29.5q-57 -33 -57 -62q0 -19 17 -30.5t46 -11.5z
M169 536q17 10 25.5 15.5t18.5 16.5t10 21q0 17 -14.5 27t-39.5 10t-41 -10.5t-16 -26.5q0 -11 10.5 -22t19.5 -16.5t27 -14.5z" />
    <glyph glyph-name="uni2079" unicode="&#x2079;" horiz-adv-x="343" 
d="M72 328l-14 50q148 2 172 106q-32 -21 -80 -21q-52 0 -84 27.5t-32 73.5q0 48 36 78t93 30q70 0 103 -41t33 -103q0 -92 -58.5 -146t-168.5 -54zM165 509q43 0 68 22v4q0 42 -19.5 66t-50.5 24q-27 0 -44 -16.5t-17 -40.5q0 -28 17 -43.5t46 -15.5z" />
    <glyph glyph-name="uni207A" unicode="&#x207a;" horiz-adv-x="344" 
d="M146 386v92h-108v48h108v89h53v-89h107v-48h-107v-92h-53z" />
    <glyph glyph-name="uni207B" unicode="&#x207b;" horiz-adv-x="322" 
d="M58 478v48h206v-48h-206z" />
    <glyph glyph-name="uni207D" unicode="&#x207d;" horiz-adv-x="213" 
d="M151 283q-101 89 -101 219q0 68 29.5 123.5t71.5 89.5h59q-92 -81 -92 -211q0 -133 92 -221h-59z" />
    <glyph glyph-name="uni207E" unicode="&#x207e;" horiz-adv-x="213" 
d="M3 283q93 85 93 215t-93 217h60q100 -84 100 -215q0 -134 -100 -217h-60z" />
    <glyph glyph-name="uni2080" unicode="&#x2080;" horiz-adv-x="413" 
d="M206 -206q-78 0 -120 50.5t-42 120.5t41.5 120t120.5 50q78 0 120.5 -50t42.5 -120t-42.5 -120.5t-120.5 -50.5zM206 -157q42 0 66.5 33t24.5 89t-24.5 88.5t-66.5 32.5q-41 0 -66 -33t-25 -88q0 -56 25 -89t66 -33z" />
    <glyph glyph-name="uni2081" unicode="&#x2081;" horiz-adv-x="256" 
d="M105 -200v275l-72 -20l-15 49l102 25h47v-329h-62z" />
    <glyph glyph-name="uni2082" unicode="&#x2082;" horiz-adv-x="335" 
d="M34 -200v34q38 31 58 48t50.5 47t44.5 56t14 50q0 50 -56 50q-41 0 -79 -32l-34 39q52 43 123 43q57 0 85 -25t28 -68q0 -48 -37.5 -94.5t-102.5 -98.5q3 0 18 0.5t23 0.5h117v-50h-252z" />
    <glyph glyph-name="uni2083" unicode="&#x2083;" horiz-adv-x="306" 
d="M95 -206q-46 0 -69 10l13 49q22 -9 53 -9q44 0 70 14t26 40q0 52 -111 54v43q44 1 72 15.5t28 38.5q0 36 -55 36q-38 0 -70 -27l-28 39q16 14 47.5 26t64.5 12q106 0 106 -75q0 -60 -70 -78v-1q35 -3 58.5 -25t23.5 -57q0 -51 -42 -78t-117 -27z" />
    <glyph glyph-name="uni2084" unicode="&#x2084;" horiz-adv-x="319" 
d="M189 -200v69h-175v42l178 218h58v-211h55v-49h-55v-69h-61zM84 -84q18 2 45 2h61v129h-1z" />
    <glyph glyph-name="uni2085" unicode="&#x2085;" horiz-adv-x="299" 
d="M88 -206q-31 0 -52 7l10 50q19 -7 43 -7q45 0 76 15t31 46q0 59 -107 59q-16 0 -37 -3l12 168h186v-50h-130l-6 -68q68 -2 107 -27.5t39 -74.5q0 -56 -46 -85.5t-126 -29.5z" />
    <glyph glyph-name="uni2086" unicode="&#x2086;" horiz-adv-x="339" 
d="M177 -206q-69 0 -101 41t-32 103q0 90 60.5 143.5t168.5 53.5l15 -50q-72 -2 -118 -24t-58 -79q30 22 79 22q51 0 82.5 -27.5t31.5 -74.5q0 -49 -35 -78.5t-93 -29.5zM179 -158q27 0 43.5 15.5t16.5 40.5q0 28 -17 43.5t-46 15.5q-43 0 -68 -22v-4q0 -44 19.5 -66.5
t51.5 -22.5z" />
    <glyph glyph-name="uni2087" unicode="&#x2087;" horiz-adv-x="295" 
d="M112 -213l-54 22l126 268h-166v52h236v-35z" />
    <glyph glyph-name="uni2088" unicode="&#x2088;" horiz-adv-x="333" 
d="M166 -206q-61 0 -94.5 24t-33.5 64q0 52 73 87q-63 33 -63 80q0 38 34.5 62t85.5 24q54 0 86 -21.5t32 -60.5q0 -44 -69 -78q78 -33 78 -91q0 -41 -35.5 -65.5t-93.5 -24.5zM165 -159q29 0 46 12t17 30q0 19 -18 32.5t-51 29.5q-57 -33 -57 -62q0 -19 17 -30.5t46 -11.5z
M169 -1q54 31 54 53q0 17 -14.5 27t-39.5 10t-41 -10.5t-16 -26.5q0 -11 10.5 -22t19.5 -16.5t27 -14.5z" />
    <glyph glyph-name="uni2089" unicode="&#x2089;" horiz-adv-x="343" 
d="M72 -209l-14 50q148 2 172 106q-32 -21 -80 -21q-52 0 -84 27.5t-32 73.5q0 48 36 78t93 30q70 0 103 -41t33 -103q0 -92 -58.5 -146t-168.5 -54zM165 -28q43 0 68 22v4q0 42 -19.5 66t-50.5 24q-27 0 -44 -17t-17 -40q0 -28 17 -43.5t46 -15.5z" />
    <glyph glyph-name="uni208A" unicode="&#x208a;" horiz-adv-x="344" 
d="M146 -151v92h-108v48h108v89h53v-89h107v-48h-107v-92h-53z" />
    <glyph glyph-name="uni208B" unicode="&#x208b;" horiz-adv-x="322" 
d="M58 -59v48h206v-48h-206z" />
    <glyph glyph-name="uni208D" unicode="&#x208d;" horiz-adv-x="213" 
d="M151 -254q-101 89 -101 219q0 68 29.5 123.5t71.5 89.5h59q-92 -81 -92 -211q0 -133 92 -221h-59z" />
    <glyph glyph-name="uni208E" unicode="&#x208e;" horiz-adv-x="213" 
d="M3 -254q93 85 93 215t-93 217h60q100 -84 100 -215q0 -134 -100 -217h-60z" />
    <glyph glyph-name="Euro" unicode="&#x20ac;" horiz-adv-x="583" 
d="M39 365v59h75q20 121 95 187.5t180 66.5q92 0 156 -40l-34 -61q-63 36 -124 36q-71 0 -122.5 -48.5t-68.5 -140.5h178v-59h-186v-28q0 -21 2 -53h184v-59h-174q22 -85 73 -128t118 -43q69 0 126 39l36 -56q-23 -15 -37.5 -22.5t-50 -17t-76.5 -9.5q-98 0 -172 61.5
t-99 175.5h-79v59h70q-2 16 -2 51q0 20 1 30h-69z" />
    <glyph glyph-name="uni20B4" unicode="&#x20b4;" horiz-adv-x="560" 
d="M521 365h-127q-24 -16 -70 -38q-55 -26 -82 -43h279v-59h-338q-12 -25 -12 -59q0 -46 38 -79.5t98 -33.5q89 0 152 59l40 -56q-71 -68 -189 -68q-97 0 -157.5 50t-60.5 129q0 33 9 58h-62v59h99q35 37 125 81h-224v59h324q39 36 39 88q0 45 -33 73t-83 28q-79 0 -138 -46
l-38 58q69 53 175 53q81 0 137.5 -46t56.5 -124q0 -48 -23 -84h65v-59z" />
    <glyph glyph-name="afii61352" unicode="&#x2116;" horiz-adv-x="1088" 
d="M96 0v666h77l314 -451q25 -36 62 -98h2q-4 52 -4 90v459h72v-666h-72l-329 475q-14 20 -52 86h-2q4 -52 4 -73v-488h-72zM875 360q-76 0 -117.5 47.5t-41.5 107.5q0 59 42.5 107.5t118.5 48.5t117 -47t41 -107t-42 -108.5t-118 -48.5zM877 413q44 0 67.5 29t23.5 73
t-25 73.5t-68 29.5q-44 0 -68 -28.5t-24 -72.5t25.5 -74t68.5 -30z" />
    <glyph glyph-name="uni2117" unicode="&#x2117;" horiz-adv-x="865" 
d="M432 -14q-154 0 -263 109.5t-109 263.5t109 263.5t263 109.5t263.5 -109t109.5 -264t-109.5 -264t-263.5 -109zM432 38q137 0 227 90.5t90 230.5q0 139 -90 230t-227 91q-136 0 -226 -91t-90 -230q0 -140 90 -230.5t226 -90.5zM310 136v452h147q65 0 102 -40.5t37 -94.5
q0 -57 -42 -95.5t-126 -38.5h-53v-183h-65zM375 370h49q102 0 102 81t-84 81h-67v-162z" />
    <glyph glyph-name="trademark" unicode="&#x2122;" horiz-adv-x="714" 
d="M300 375l31 291h60l67 -171q12 -30 19 -56h2q7 27 19 57l67 170h61l32 -291h-53l-16 165q-4 44 -4 63h-2q-7 -33 -21 -70l-64 -158h-46l-59 150q-6 16 -24 78h-2q0 -5 -4 -65l-14 -163h-49zM126 375v246h-83v45h221v-45h-84v-246h-54z" />
    <glyph glyph-name="Omega" unicode="&#x2126;" horiz-adv-x="744" 
d="M61 0v66h139q-66 44 -103.5 122.5t-37.5 167.5q0 143 93 232.5t220 89.5t220 -89.5t93 -232.5q0 -89 -37.5 -167.5t-103.5 -122.5h140v-66h-228v64q147 104 147 292q0 104 -66 180.5t-165 76.5t-165 -76.5t-66 -180.5q0 -188 148 -292v-64h-228z" />
    <glyph glyph-name="uni2150" unicode="&#x2150;" horiz-adv-x="709" 
d="M66 0l417 666h61l-417 -666h-61zM105 337v275l-72 -20l-15 49l102 25h47v-329h-62zM526 -13l-54 22l126 268h-166v52h236v-35z" />
    <glyph glyph-name="uni2151" unicode="&#x2151;" horiz-adv-x="697" 
d="M66 0l417 666h61l-417 -666h-61zM105 337v275l-72 -20l-15 49l102 25h47v-329h-62zM426 -9l-14 50q148 2 172 106q-32 -21 -80 -21q-52 0 -84 27.5t-32 73.5q0 48 36 78t93 30q70 0 103 -41t33 -103q0 -92 -58.5 -146t-168.5 -54zM519 172q43 0 68 22v4q0 42 -19.5 66
t-50.5 24q-27 0 -44 -17t-17 -40q0 -28 17 -43.5t46 -15.5z" />
    <glyph glyph-name="uni2152" unicode="&#x2152;" horiz-adv-x="1063" 
d="M66 0l417 666h61l-417 -666h-61zM105 337v275l-72 -20l-15 49l102 25h47v-329h-62zM499 0v275l-72 -20l-15 49l102 25h47v-329h-62zM856 -6q-78 0 -120 50.5t-42 120.5t41.5 120t120.5 50q78 0 120.5 -50t42.5 -120t-42.5 -120.5t-120.5 -50.5zM856 43q42 0 66.5 33
t24.5 89t-24.5 88.5t-66.5 32.5q-41 0 -66 -33t-25 -88q0 -56 25 -89t66 -33z" />
    <glyph glyph-name="onethird" unicode="&#x2153;" horiz-adv-x="660" 
d="M66 0l417 666h61l-417 -666h-61zM105 337v275l-72 -20l-15 49l102 25h47v-329h-62zM449 -6q-47 0 -69 10l13 49q23 -9 53 -9q44 0 70 14t26 40q0 52 -111 54v43q44 1 72 15.5t28 38.5q0 36 -55 36q-38 0 -70 -27l-28 39q16 14 47.5 26t64.5 12q106 0 106 -75
q0 -60 -70 -78v-1q35 -3 58.5 -25t23.5 -57q0 -51 -42 -78t-117 -27z" />
    <glyph glyph-name="twothirds" unicode="&#x2154;" horiz-adv-x="739" 
d="M145 0l417 666h61l-417 -666h-61zM34 337v34q38 31 58 48t50.5 47t44.5 56t14 50q0 50 -56 50q-41 0 -79 -32l-34 39q52 43 123 43q57 0 85 -25t28 -68q0 -48 -37.5 -94.5t-102.5 -98.5q3 0 18 0.5t23 0.5h117v-50h-252zM528 -6q-46 0 -69 10l13 49q22 -9 53 -9
q44 0 70 14t26 40q0 52 -111 54v43q44 1 72 15.5t28 38.5q0 36 -55 36q-38 0 -70 -27l-28 39q16 14 47.5 26t64.5 12q106 0 106 -75q0 -60 -70 -78v-1q35 -3 58.5 -25t23.5 -57q0 -51 -42 -78t-117 -27z" />
    <glyph glyph-name="uni2155" unicode="&#x2155;" horiz-adv-x="653" 
d="M66 0l417 666h61l-417 -666h-61zM105 337v275l-72 -20l-15 49l102 25h47v-329h-62zM442 -6q-31 0 -52 7l10 50q19 -7 43 -7q45 0 76 15t31 46q0 59 -107 59q-16 0 -37 -3l12 168h186v-50h-130l-6 -68q68 -2 107 -27.5t39 -74.5q0 -56 -46 -85.5t-126 -29.5z" />
    <glyph glyph-name="uni2156" unicode="&#x2156;" horiz-adv-x="732" 
d="M145 0l417 666h61l-417 -666h-61zM34 337v34q38 31 58 48t50.5 47t44.5 56t14 50q0 50 -56 50q-41 0 -79 -32l-34 39q52 43 123 43q57 0 85 -25t28 -68q0 -48 -37.5 -94.5t-102.5 -98.5q3 0 18 0.5t23 0.5h117v-50h-252zM521 -6q-31 0 -52 7l10 50q19 -7 43 -7
q45 0 76 15t31 46q0 59 -107 59q-16 0 -37 -3l12 168h186v-50h-130l-6 -68q68 -2 107 -27.5t39 -74.5q0 -56 -46 -85.5t-126 -29.5z" />
    <glyph glyph-name="uni2157" unicode="&#x2157;" horiz-adv-x="703" 
d="M116 0l417 666h61l-417 -666h-61zM95 331q-46 0 -69 10l13 49q23 -9 53 -9q44 0 70 14t26 40q0 52 -111 54v43q44 1 72 15.5t28 38.5q0 36 -55 36q-38 0 -70 -27l-28 39q16 14 47.5 26t64.5 12q106 0 106 -75q0 -61 -70 -78v-1q35 -3 58.5 -25t23.5 -57q0 -51 -42 -78
t-117 -27zM492 -6q-31 0 -52 7l10 50q19 -7 43 -7q45 0 76 15t31 46q0 59 -107 59q-16 0 -37 -3l12 168h186v-50h-130l-6 -68q68 -2 107 -27.5t39 -74.5q0 -56 -46 -85.5t-126 -29.5z" />
    <glyph glyph-name="uni2158" unicode="&#x2158;" horiz-adv-x="716" 
d="M129 0l417 666h61l-417 -666h-61zM189 337v69h-175v42l178 218h58v-211h55v-49h-55v-69h-61zM84 453q18 2 45 2h61v129h-1zM505 -6q-31 0 -52 7l10 50q19 -7 43 -7q45 0 76 15t31 46q0 59 -107 59q-16 0 -37 -3l12 168h186v-50h-130l-6 -68q68 -2 107 -27.5t39 -74.5
q0 -56 -46 -85.5t-126 -29.5z" />
    <glyph glyph-name="uni2159" unicode="&#x2159;" horiz-adv-x="693" 
d="M66 0l417 666h61l-417 -666h-61zM105 337v275l-72 -20l-15 49l102 25h47v-329h-62zM531 -6q-69 0 -101 41t-32 103q0 90 60.5 143.5t168.5 53.5l15 -50q-72 -2 -118 -24t-58 -79q30 22 79 22q51 0 82.5 -27.5t31.5 -74.5q0 -49 -35 -78.5t-93 -29.5zM533 42
q27 0 43.5 15.5t16.5 40.5q0 28 -17 43.5t-46 15.5q-43 0 -68 -22v-4q0 -44 19.5 -66.5t51.5 -22.5z" />
    <glyph glyph-name="uni215A" unicode="&#x215a;" horiz-adv-x="736" 
d="M109 0l417 666h61l-417 -666h-61zM88 331q-31 0 -52 7l10 50q19 -7 43 -7q45 0 76 15t31 46q0 59 -107 59q-16 0 -37 -3l12 168h186v-50h-130l-6 -68q68 -2 107 -27.5t39 -74.5q0 -56 -46 -85.5t-126 -29.5zM574 -6q-69 0 -101 41t-32 103q0 90 60.5 143.5t168.5 53.5
l15 -50q-72 -2 -118 -24t-58 -79q30 22 79 22q51 0 82.5 -27.5t31.5 -74.5q0 -49 -35 -78.5t-93 -29.5zM576 42q27 0 43.5 15.5t16.5 40.5q0 28 -17 43.5t-46 15.5q-43 0 -68 -22v-4q0 -44 19.5 -66.5t51.5 -22.5z" />
    <glyph glyph-name="oneeighth" unicode="&#x215b;" horiz-adv-x="687" 
d="M66 0l417 666h61l-417 -666h-61zM105 337v275l-72 -20l-15 49l102 25h47v-329h-62zM520 -6q-61 0 -94.5 24t-33.5 64q0 52 73 87q-63 33 -63 80q0 38 34.5 62t85.5 24q54 0 86 -21.5t32 -60.5q0 -44 -69 -78q78 -33 78 -91q0 -41 -35.5 -65.5t-93.5 -24.5zM519 41
q29 0 46 12t17 30q0 19 -18 32.5t-51 29.5q-57 -33 -57 -62q0 -19 17 -30.5t46 -11.5zM523 199q54 31 54 53q0 17 -14.5 27t-39.5 10t-41 -10.5t-16 -26.5q0 -11 10.5 -22t19.5 -16.5t27 -14.5z" />
    <glyph glyph-name="threeeighths" unicode="&#x215c;" horiz-adv-x="737" 
d="M116 0l417 666h61l-417 -666h-61zM95 331q-46 0 -69 10l13 49q23 -9 53 -9q44 0 70 14t26 40q0 52 -111 54v43q44 1 72 15.5t28 38.5q0 36 -55 36q-38 0 -70 -27l-28 39q16 14 47.5 26t64.5 12q106 0 106 -75q0 -61 -70 -78v-1q35 -3 58.5 -25t23.5 -57q0 -51 -42 -78
t-117 -27zM570 -6q-61 0 -94.5 24t-33.5 64q0 52 73 87q-63 33 -63 80q0 38 34.5 62t85.5 24q54 0 86 -21.5t32 -60.5q0 -44 -69 -78q78 -33 78 -91q0 -41 -35.5 -65.5t-93.5 -24.5zM569 41q29 0 46 12t17 30q0 19 -18 32.5t-51 29.5q-57 -33 -57 -62q0 -19 17 -30.5
t46 -11.5zM573 199q54 31 54 53q0 17 -14.5 27t-39.5 10t-41 -10.5t-16 -26.5q0 -11 10.5 -22t19.5 -16.5t27 -14.5z" />
    <glyph glyph-name="fiveeighths" unicode="&#x215d;" horiz-adv-x="730" 
d="M109 0l417 666h61l-417 -666h-61zM88 331q-31 0 -52 7l10 50q19 -7 43 -7q45 0 76 15t31 46q0 59 -107 59q-16 0 -37 -3l12 168h186v-50h-130l-6 -68q68 -2 107 -27.5t39 -74.5q0 -56 -46 -85.5t-126 -29.5zM563 -6q-61 0 -94.5 24t-33.5 64q0 52 73 87q-63 33 -63 80
q0 38 34.5 62t85.5 24q54 0 86 -21.5t32 -60.5q0 -44 -69 -78q78 -33 78 -91q0 -41 -35.5 -65.5t-93.5 -24.5zM562 41q29 0 46 12t17 30q0 19 -18 32.5t-51 29.5q-57 -33 -57 -62q0 -19 17 -30.5t46 -11.5zM566 199q54 31 54 53q0 17 -14.5 27t-39.5 10t-41 -10.5t-16 -26.5
q0 -11 10.5 -22t19.5 -16.5t27 -14.5z" />
    <glyph glyph-name="seveneighths" unicode="&#x215e;" horiz-adv-x="676" 
d="M55 0l417 666h61l-417 -666h-61zM112 324l-54 22l126 268h-166v52h236v-35zM509 -6q-61 0 -94.5 24t-33.5 64q0 52 73 87q-63 33 -63 80q0 38 34.5 62t85.5 24q54 0 86 -21.5t32 -60.5q0 -44 -69 -78q78 -33 78 -91q0 -41 -35.5 -65.5t-93.5 -24.5zM508 41q29 0 46 12
t17 30q0 19 -18 32.5t-51 29.5q-57 -33 -57 -62q0 -19 17 -30.5t46 -11.5zM512 199q54 31 54 53q0 17 -14.5 27t-39.5 10t-41 -10.5t-16 -26.5q0 -11 10.5 -22t19.5 -16.5t27 -14.5z" />
    <glyph glyph-name="uni215F" unicode="&#x215f;" horiz-adv-x="354" 
d="M66 0l417 666h61l-417 -666h-61zM105 337v275l-72 -20l-15 49l102 25h47v-329h-62z" />
    <glyph glyph-name="uni2189" unicode="&#x2189;" horiz-adv-x="817" 
d="M223 0l417 666h61l-417 -666h-61zM206 331q-78 0 -120 50.5t-42 120.5t41.5 120t120.5 50q78 0 120.5 -50t42.5 -120t-42.5 -120.5t-120.5 -50.5zM206 380q42 0 66.5 33t24.5 89t-24.5 88.5t-66.5 32.5q-41 0 -66 -33t-25 -88q0 -56 25 -89t66 -33zM606 -6q-46 0 -69 10
l13 49q22 -9 53 -9q44 0 70 14t26 40q0 52 -111 54v43q44 1 72 15.5t28 38.5q0 36 -55 36q-38 0 -70 -27l-28 39q16 14 47.5 26t64.5 12q106 0 106 -75q0 -60 -70 -78v-1q35 -3 58.5 -25t23.5 -57q0 -51 -42 -78t-117 -27z" />
    <glyph glyph-name="partialdiff" unicode="&#x2202;" horiz-adv-x="543" 
d="M244 -12q-85 0 -144 57t-59 140q0 98 61.5 166t157.5 68q50 0 105 -15.5t81 -36.5q-15 274 -292 274l21 61h4q168 0 256.5 -97.5t88.5 -254.5q0 -159 -81 -260.5t-199 -101.5zM247 51q79 0 135 77t64 179q-26 20 -81.5 35t-102.5 15q-65 0 -104.5 -47t-39.5 -121
q0 -60 37.5 -99t91.5 -39z" />
    <glyph glyph-name="Delta" unicode="&#x2206;" horiz-adv-x="607" 
d="M21 0v52l242 614h76l249 -614v-52h-567zM102 66h398l-154 393q-25 64 -46 126h-2q-14 -43 -45 -126z" />
    <glyph glyph-name="product" unicode="&#x220f;" horiz-adv-x="849" 
d="M176 -224v863h-109v61h698v-61h-109v-863h-75v863h-330v-863h-75z" />
    <glyph glyph-name="summation" unicode="&#x2211;" horiz-adv-x="609" 
d="M53 -147v56l278 431l-262 381v56h482v-66h-399l256 -368l-272 -424h430v-66h-513z" />
    <glyph glyph-name="minus" unicode="&#x2212;" horiz-adv-x="550" 
d="M86 236v63h369v-63h-369z" />
    <glyph glyph-name="uni2219" unicode="&#x2219;" horiz-adv-x="574" 
d="M287 147q-52 0 -88.5 36t-36.5 88t36.5 88.5t88.5 36.5t88.5 -36.5t36.5 -88.5t-36.5 -88t-88.5 -36z" />
    <glyph glyph-name="radical" unicode="&#x221a;" horiz-adv-x="571" 
d="M237 0l-187 480h76l145 -389h2l198 629h75l-239 -720h-70z" />
    <glyph glyph-name="infinity" unicode="&#x221e;" horiz-adv-x="878" 
d="M207 109q-77 0 -124 43t-47 105q0 64 51 110t124 46q48 0 100 -26t129 -86q143 112 227 112q75 0 123 -43t48 -105q0 -64 -50.5 -110t-125.5 -46q-85 0 -227 111q-85 -65 -132.5 -88t-95.5 -23zM213 168q55 0 174 91q-67 52 -107 73t-71 21q-43 0 -74.5 -27t-31.5 -64
q0 -41 32 -67.5t78 -26.5zM666 168q43 0 74.5 27.5t31.5 64.5q0 41 -32 67t-79 26q-55 0 -173 -91q123 -94 178 -94z" />
    <glyph glyph-name="integral" unicode="&#x222b;" horiz-adv-x="339" 
d="M28 -235q-29 0 -78 18l23 61q35 -13 64 -13q105 0 105 145v575q0 82 48 135.5t137 53.5q35 0 77 -19l-27 -60q-26 13 -59 13q-53 0 -79 -40.5t-26 -102.5v-577q0 -83 -47.5 -136t-137.5 -53z" />
    <glyph glyph-name="approxequal" unicode="&#x2248;" horiz-adv-x="599" 
d="M99 138l-29 50q60 55 131 55q47 0 104 -29t94 -29q53 0 103 41l27 -52q-56 -54 -136 -54q-47 0 -105 29t-93 29q-51 0 -96 -40zM99 291l-29 50q59 55 131 55q47 0 104 -29t94 -29q53 0 103 41l27 -52q-56 -54 -136 -54q-47 0 -105 29t-93 29q-50 0 -96 -40z" />
    <glyph glyph-name="notequal" unicode="&#x2260;" horiz-adv-x="621" 
d="M190 -12l-50 27l76 126h-156v57h191l65 107h-256v57h291l80 131l51 -29l-65 -102h144v-57h-179l-65 -107h244v-57h-279z" />
    <glyph glyph-name="lessequal" unicode="&#x2264;" horiz-adv-x="580" 
d="M505 19l-433 205v51l433 205v-67l-356 -164l356 -164v-66zM72 -114v64h433v-64h-433z" />
    <glyph glyph-name="greaterequal" unicode="&#x2265;" horiz-adv-x="580" 
d="M72 19v66l356 164l-356 164v67l433 -205v-51zM72 -114v64h433v-64h-433z" />
    <glyph glyph-name="dotmath" unicode="&#x22c5;" horiz-adv-x="574" 
d="M287 210q-25 0 -43 18t-18 43t17.5 42.5t43.5 17.5t43.5 -17.5t17.5 -42.5t-18 -43t-43 -18z" />
    <glyph glyph-name="lozenge" unicode="&#x25ca;" horiz-adv-x="616" 
d="M290 -5l-256 328l252 349h40l256 -330l-250 -347h-42zM313 73l185 265l-194 251l-186 -264z" />
    <glyph glyph-name="uniFB00" unicode="&#xfb00;" horiz-adv-x="586" 
d="M104 0v422h-84v58h84v62q0 82 49.5 132.5t135.5 50.5q78 0 130 -38q47 45 125 45q54 0 80 -13l-19 -63q-24 12 -63 12q-100 0 -100 -122v-66h122v-58h-122v-422h-73v422h-192v-422h-73zM177 480h192v71q0 46 13 79q-39 31 -95 31q-110 0 -110 -139v-42z" />
    <glyph glyph-name="fi" unicode="&#xfb01;" horiz-adv-x="537" 
d="M100 0v422h-80v58h80v68q0 83 49.5 133.5t138.5 50.5q85 0 154 -46l-37 -58q-57 40 -120 40q-54 0 -83 -32.5t-29 -94.5v-61h276v-480h-73v422h-203v-422h-73z" />
    <glyph glyph-name="fl" unicode="&#xfb02;" horiz-adv-x="542" 
d="M100 0v422h-80v58h80v72q0 86 50.5 133t136.5 47q94 0 171 -24v-708h-73v655q-39 13 -102 13q-110 0 -110 -126v-62h113v-58h-113v-422h-73z" />
    <glyph glyph-name="uniFB03" unicode="&#xfb03;" horiz-adv-x="799" 
d="M104 0v422h-84v58h84v62q0 82 49.5 132.5t135.5 50.5q78 0 133 -40q50 47 135 47t154 -46l-37 -58q-58 40 -120 40q-54 0 -83 -32.5t-29 -94.5v-61h269v-480h-73v422h-196v-422h-73v422h-192v-422h-73zM177 480h192v68q0 44 15 80q-41 33 -97 33q-110 0 -110 -139v-42z
" />
    <glyph glyph-name="uniFB04" unicode="&#xfb04;" horiz-adv-x="811" 
d="M104 0v422h-84v58h84v62q0 82 49.5 132.5t135.5 50.5q77 0 131 -39q52 46 136 46q94 0 171 -24v-708h-73v655q-39 13 -102 13q-110 0 -110 -126v-62h123v-58h-123v-422h-73v422h-192v-422h-73zM177 480h192v72q0 41 13 77q-34 32 -95 32q-110 0 -110 -139v-42z" />
    <glyph glyph-name="uniFEFF" unicode="&#xfeff;" horiz-adv-x="0" 
 />
    <glyph glyph-name="slash.alt001" horiz-adv-x="402" 
d="M-50 -113l411 833h69l-410 -833h-70z" />
    <glyph glyph-name="i.latn_TRK" horiz-adv-x="250" 
d="M125 570q-23 0 -38.5 16t-15.5 38t15.5 38t38.5 16t38.5 -16t15.5 -38t-15.5 -38t-38.5 -16zM88 0v480h74v-480h-74z" />
    <glyph glyph-name="Ldot.latn_CAT" horiz-adv-x="473" 
d="M96 0v666h78v-600h262v-66h-340zM364 301q-22 0 -38 15.5t-16 38.5t16 38.5t38 15.5t38 -15.5t16 -38.5t-16 -38.5t-38 -15.5z" />
    <glyph glyph-name="ldot.latn_CAT" horiz-adv-x="327" 
d="M84 0v720h73v-720h-73zM283 298q-23 0 -38.5 16t-15.5 38t15.5 38t38.5 16t38.5 -16t15.5 -38t-15.5 -38t-38.5 -16z" />
    <glyph glyph-name="parenleft.numr" horiz-adv-x="213" 
d="M151 283q-101 89 -101 219q0 68 29.5 123.5t71.5 89.5h59q-92 -81 -92 -211q0 -133 92 -221h-59z" />
    <glyph glyph-name="parenright.numr" horiz-adv-x="213" 
d="M3 283q93 85 93 215t-93 217h60q100 -84 100 -215q0 -134 -100 -217h-60z" />
    <glyph glyph-name="plus.numr" horiz-adv-x="344" 
d="M146 386v92h-108v48h108v89h53v-89h107v-48h-107v-92h-53z" />
    <glyph glyph-name="zero.numr" horiz-adv-x="413" 
d="M206 331q-78 0 -120 50.5t-42 120.5t41.5 120t120.5 50q78 0 120.5 -50t42.5 -120t-42.5 -120.5t-120.5 -50.5zM206 380q42 0 66.5 33t24.5 89t-24.5 88.5t-66.5 32.5q-41 0 -66 -33t-25 -88q0 -56 25 -89t66 -33z" />
    <glyph glyph-name="one.numr" horiz-adv-x="256" 
d="M105 337v275l-72 -20l-15 49l102 25h47v-329h-62z" />
    <glyph glyph-name="two.numr" horiz-adv-x="335" 
d="M34 337v34q38 31 58 48t50.5 47t44.5 56t14 50q0 50 -56 50q-41 0 -79 -32l-34 39q52 43 123 43q57 0 85 -25t28 -68q0 -48 -37.5 -94.5t-102.5 -98.5q3 0 18 0.5t23 0.5h117v-50h-252z" />
    <glyph glyph-name="three.numr" horiz-adv-x="306" 
d="M95 331q-46 0 -69 10l13 49q23 -9 53 -9q44 0 70 14t26 40q0 52 -111 54v43q44 1 72 15.5t28 38.5q0 36 -55 36q-38 0 -70 -27l-28 39q16 14 47.5 26t64.5 12q106 0 106 -75q0 -61 -70 -78v-1q35 -3 58.5 -25t23.5 -57q0 -51 -42 -78t-117 -27z" />
    <glyph glyph-name="four.numr" horiz-adv-x="319" 
d="M189 337v69h-175v42l178 218h58v-211h55v-49h-55v-69h-61zM84 453q18 2 45 2h61v129h-1z" />
    <glyph glyph-name="five.numr" horiz-adv-x="299" 
d="M88 331q-31 0 -52 7l10 50q19 -7 43 -7q45 0 76 15t31 46q0 59 -107 59q-16 0 -37 -3l12 168h186v-50h-130l-6 -68q68 -2 107 -27.5t39 -74.5q0 -56 -46 -85.5t-126 -29.5z" />
    <glyph glyph-name="six.numr" horiz-adv-x="339" 
d="M177 331q-69 0 -101 41t-32 103q0 90 60.5 143.5t168.5 53.5l15 -50q-72 -2 -118 -24t-58 -79q30 22 79 22q51 0 82.5 -27.5t31.5 -74.5q0 -49 -35 -78.5t-93 -29.5zM179 379q27 0 43.5 15.5t16.5 40.5q0 28 -17 43.5t-46 15.5q-43 0 -68 -22v-4q0 -44 19.5 -66.5
t51.5 -22.5z" />
    <glyph glyph-name="seven.numr" horiz-adv-x="295" 
d="M112 324l-54 22l126 268h-166v52h236v-35z" />
    <glyph glyph-name="eight.numr" horiz-adv-x="333" 
d="M166 331q-61 0 -94.5 24t-33.5 64q0 52 73 87q-63 33 -63 80q0 38 34.5 62t85.5 24q54 0 86 -21.5t32 -60.5q0 -44 -69 -78q78 -33 78 -91q0 -41 -35.5 -65.5t-93.5 -24.5zM165 378q29 0 46 12t17 30q0 19 -18 32.5t-51 29.5q-57 -33 -57 -62q0 -19 17 -30.5t46 -11.5z
M169 536q17 10 25.5 15.5t18.5 16.5t10 21q0 17 -14.5 27t-39.5 10t-41 -10.5t-16 -26.5q0 -11 10.5 -22t19.5 -16.5t27 -14.5z" />
    <glyph glyph-name="nine.numr" horiz-adv-x="343" 
d="M72 328l-14 50q148 2 172 106q-32 -21 -80 -21q-52 0 -84 27.5t-32 73.5q0 48 36 78t93 30q70 0 103 -41t33 -103q0 -92 -58.5 -146t-168.5 -54zM165 509q43 0 68 22v4q0 42 -19.5 66t-50.5 24q-27 0 -44 -16.5t-17 -40.5q0 -28 17 -43.5t46 -15.5z" />
    <glyph glyph-name="minus.numr" horiz-adv-x="322" 
d="M58 478v48h206v-48h-206z" />
    <glyph glyph-name="parenleft.dnom" horiz-adv-x="213" 
d="M151 -54q-101 89 -101 219q0 68 29.5 123.5t71.5 89.5h59q-92 -81 -92 -211q0 -133 92 -221h-59z" />
    <glyph glyph-name="parenright.dnom" horiz-adv-x="213" 
d="M3 -54q93 85 93 215t-93 217h60q100 -84 100 -215q0 -134 -100 -217h-60z" />
    <glyph glyph-name="plus.dnom" horiz-adv-x="344" 
d="M146 49v92h-108v48h108v89h53v-89h107v-48h-107v-92h-53z" />
    <glyph glyph-name="zero.dnom" horiz-adv-x="413" 
d="M206 -6q-78 0 -120 50.5t-42 120.5t41.5 120t120.5 50q78 0 120.5 -50t42.5 -120t-42.5 -120.5t-120.5 -50.5zM206 43q42 0 66.5 33t24.5 89t-24.5 88.5t-66.5 32.5q-41 0 -66 -33t-25 -88q0 -56 25 -89t66 -33z" />
    <glyph glyph-name="one.dnom" horiz-adv-x="256" 
d="M105 0v275l-72 -20l-15 49l102 25h47v-329h-62z" />
    <glyph glyph-name="two.dnom" horiz-adv-x="335" 
d="M34 0v34q38 31 58 48t50.5 47t44.5 56t14 50q0 50 -56 50q-41 0 -79 -32l-34 39q52 43 123 43q57 0 85 -25t28 -68q0 -48 -37.5 -94.5t-102.5 -98.5q3 0 18 0.5t23 0.5h117v-50h-252z" />
    <glyph glyph-name="three.dnom" horiz-adv-x="306" 
d="M95 -6q-46 0 -69 10l13 49q22 -9 53 -9q44 0 70 14t26 40q0 52 -111 54v43q44 1 72 15.5t28 38.5q0 36 -55 36q-38 0 -70 -27l-28 39q16 14 47.5 26t64.5 12q106 0 106 -75q0 -60 -70 -78v-1q35 -3 58.5 -25t23.5 -57q0 -51 -42 -78t-117 -27z" />
    <glyph glyph-name="four.dnom" horiz-adv-x="319" 
d="M189 0v69h-175v42l178 218h58v-211h55v-49h-55v-69h-61zM84 116q18 2 45 2h61v129h-1z" />
    <glyph glyph-name="five.dnom" horiz-adv-x="299" 
d="M88 -6q-31 0 -52 7l10 50q19 -7 43 -7q45 0 76 15t31 46q0 59 -107 59q-16 0 -37 -3l12 168h186v-50h-130l-6 -68q68 -2 107 -27.5t39 -74.5q0 -56 -46 -85.5t-126 -29.5z" />
    <glyph glyph-name="six.dnom" horiz-adv-x="339" 
d="M177 -6q-69 0 -101 41t-32 103q0 90 60.5 143.5t168.5 53.5l15 -50q-72 -2 -118 -24t-58 -79q30 22 79 22q51 0 82.5 -27.5t31.5 -74.5q0 -49 -35 -78.5t-93 -29.5zM179 42q27 0 43.5 15.5t16.5 40.5q0 28 -17 43.5t-46 15.5q-43 0 -68 -22v-4q0 -44 19.5 -66.5
t51.5 -22.5z" />
    <glyph glyph-name="seven.dnom" horiz-adv-x="295" 
d="M112 -13l-54 22l126 268h-166v52h236v-35z" />
    <glyph glyph-name="eight.dnom" horiz-adv-x="333" 
d="M166 -6q-61 0 -94.5 24t-33.5 64q0 52 73 87q-63 33 -63 80q0 38 34.5 62t85.5 24q54 0 86 -21.5t32 -60.5q0 -44 -69 -78q78 -33 78 -91q0 -41 -35.5 -65.5t-93.5 -24.5zM165 41q29 0 46 12t17 30q0 19 -18 32.5t-51 29.5q-57 -33 -57 -62q0 -19 17 -30.5t46 -11.5z
M169 199q54 31 54 53q0 17 -14.5 27t-39.5 10t-41 -10.5t-16 -26.5q0 -11 10.5 -22t19.5 -16.5t27 -14.5z" />
    <glyph glyph-name="nine.dnom" horiz-adv-x="343" 
d="M72 -9l-14 50q148 2 172 106q-32 -21 -80 -21q-52 0 -84 27.5t-32 73.5q0 48 36 78t93 30q70 0 103 -41t33 -103q0 -92 -58.5 -146t-168.5 -54zM165 172q43 0 68 22v4q0 42 -19.5 66t-50.5 24q-27 0 -44 -17t-17 -40q0 -28 17 -43.5t46 -15.5z" />
    <glyph glyph-name="minus.dnom" horiz-adv-x="322" 
d="M58 141v48h206v-48h-206z" />
    <glyph glyph-name="space.frac" horiz-adv-x="45" 
 />
    <glyph glyph-name="numbersign.tf" horiz-adv-x="566" 
d="M117 0l33 218h-129l9 56h128l21 135h-130l9 56h129l31 201h56l-30 -201h120l31 201h56l-30 -201h123l-9 -56h-123l-20 -135h124l-9 -56h-124l-33 -218h-56l33 218h-121l-33 -218h-56zM215 274h120l21 135h-121z" />
    <glyph glyph-name="dollar.tf" horiz-adv-x="499" 
d="M283 -118h-58v106q-117 4 -181 68l40 56q57 -57 144 -59v261q-1 1 -4 2.5l-5 2.5q-50 25 -78.5 44t-52.5 57t-24 88q0 70 45.5 113.5t115.5 53.5v109h58v-107q88 -5 150 -52l-38 -58q-52 39 -115 45v-237q39 -19 63 -33.5t52.5 -39.5t42 -58.5t13.5 -76.5
q0 -68 -46 -115.5t-122 -59.5v-110zM373 166q0 42 -24.5 70t-68.5 52v-230q43 10 68 40t25 68zM140 512q0 -41 22 -66t66 -46v210q-40 -8 -64 -34t-24 -64z" />
    <glyph glyph-name="percent.tf" horiz-adv-x="826" 
d="M205 342q-85 0 -129 51t-44 116t43.5 116t127.5 51q85 0 129 -51t44 -115q0 -66 -43.5 -117t-127.5 -51zM205 396q48 0 77.5 32t29.5 81t-29.5 81t-78.5 32t-78.5 -31.5t-29.5 -80.5q0 -50 30 -82t79 -32zM623 -7q-85 0 -129 51t-44 116t43.5 116t127.5 51q85 0 129 -51
t44 -115q0 -66 -43.5 -117t-127.5 -51zM623 47q48 0 77.5 32t29.5 81t-29.5 81t-78.5 32t-78.5 -31.5t-29.5 -80.5q0 -50 30 -82t79 -32zM165 0l427 666h69l-427 -666h-69z" />
    <glyph glyph-name="plus.tf" horiz-adv-x="580" 
d="M258 20v215h-213v61h213v204h69v-204h208v-61h-208v-215h-69z" />
    <glyph glyph-name="zero.tf" horiz-adv-x="545" 
d="M272 -12q-59 0 -103.5 30.5t-69.5 81.5t-37 109.5t-12 123.5q0 66 11.5 124.5t36 109.5t69 81t104.5 30q59 0 103.5 -30.5t70 -81t38 -109.5t12.5 -124q0 -88 -21 -163t-73 -128.5t-129 -53.5zM271 51q72 0 108 80t36 202q0 121 -36 201.5t-107 80.5q-72 0 -107.5 -80
t-35.5 -202t35.5 -202t106.5 -80z" />
    <glyph glyph-name="one.tf" horiz-adv-x="545" 
d="M87 0v66h166v531l-162 -54l-16 62l191 61h62v-600h164v-66h-405z" />
    <glyph glyph-name="two.tf" horiz-adv-x="545" 
d="M68 0v43l20 20q49 49 76.5 77.5t74.5 82t73 93t46.5 88t20.5 88.5q0 59 -32.5 90t-83.5 31q-83 0 -149 -66l-39 48q81 83 191 83q86 0 140.5 -47t54.5 -128q0 -54 -24.5 -112t-75 -122t-86.5 -102.5t-100 -102.5q26 2 76 2h224v-66h-407z" />
    <glyph glyph-name="three.tf" horiz-adv-x="545" 
d="M201 -12q-78 0 -126 16l13 63q42 -14 115 -14q78 0 128 38.5t50 102.5q0 138 -225 138v54q82 0 143.5 37.5t61.5 100.5q0 43 -32 65t-86 22q-80 0 -143 -55l-35 49q78 73 183 73q90 0 141 -40.5t51 -107.5q0 -59 -43.5 -102t-105.5 -60v-1q70 -8 120 -55t50 -114
q0 -98 -77 -154t-183 -56z" />
    <glyph glyph-name="four.tf" horiz-adv-x="545" 
d="M342 0v141h-313v61l309 464h77v-458h87v-67h-87v-141h-73zM118 206l68 2h156v352h-1z" />
    <glyph glyph-name="five.tf" horiz-adv-x="545" 
d="M175 -12q-60 0 -106 11l13 64q40 -10 95 -10q85 0 144 41t59 117q0 145 -208 145q-48 0 -75 -3l19 313h325v-66h-256l-11 -179q131 0 208.5 -51t77.5 -154q0 -107 -79 -167.5t-206 -60.5z" />
    <glyph glyph-name="six.tf" horiz-adv-x="545" 
d="M278 -12q-55 0 -98 25t-68.5 66.5t-38.5 90t-13 100.5q0 188 99.5 298t279.5 110l14 -59q-277 0 -311 -273q55 58 141 58q89 0 145 -57t56 -146q0 -91 -57 -152t-149 -61zM284 51q59 0 90.5 43.5t31.5 101.5q0 71 -33.5 108.5t-96.5 37.5q-80 0 -139 -57v-15
q0 -102 38.5 -160.5t108.5 -58.5z" />
    <glyph glyph-name="seven.tf" horiz-adv-x="545" 
d="M191 -24l-70 24l265 600h-330v66h411v-54z" />
    <glyph glyph-name="eight.tf" horiz-adv-x="545" 
d="M270 -12q-99 0 -152.5 50t-53.5 123q0 108 146 189q-39 24 -61.5 41.5t-44 52t-21.5 74.5q0 69 57 114.5t136 45.5q84 0 136 -43t52 -113q0 -31 -12.5 -57.5t-36.5 -47.5t-42.5 -33t-47.5 -28q155 -81 155 -190q0 -78 -59 -128t-151 -50zM272 53q57 0 92.5 32t35.5 82
q0 26 -12.5 49.5t-37.5 44t-43 32t-47 27.5q-65 -45 -87 -73q-30 -38 -30 -82q0 -51 34.5 -81.5t94.5 -30.5zM274 387q35 21 54 34t39.5 40t20.5 56q0 42 -30.5 69.5t-80.5 27.5q-51 0 -84 -27t-33 -69q0 -23 9.5 -43t31 -37.5t34.5 -26.5t39 -24z" />
    <glyph glyph-name="nine.tf" horiz-adv-x="545" 
d="M111 -18l-14 59q131 0 209 69.5t96 209.5q-55 -58 -141 -58q-90 0 -145.5 57t-55.5 146q0 91 56.5 152t149.5 61q55 0 98.5 -24.5t68.5 -65t38 -89.5t13 -103q0 -191 -94.5 -302.5t-278.5 -111.5zM268 324q80 0 139 57v15q0 103 -37 161t-108 58q-61 0 -92.5 -43
t-31.5 -102q0 -146 130 -146z" />
    <glyph glyph-name="less.tf" horiz-adv-x="580" 
d="M374 27l-250 219l250 222l41 -42l-200 -177l200 -176z" />
    <glyph glyph-name="equal.tf" horiz-adv-x="580" 
d="M95 153v63h389v-63h-389zM95 316v63h389v-63h-389z" />
    <glyph glyph-name="greater.tf" horiz-adv-x="580" 
d="M205 27l-41 42l200 177l-200 176l41 46l250 -219z" />
    <glyph glyph-name="logicalnot.tf" horiz-adv-x="580" 
d="M471 33v204h-430v64h498v-268h-68z" />
    <glyph glyph-name="plusminus.tf" horiz-adv-x="580" 
d="M258 20v215h-213v61h213v204h69v-204h208v-61h-208v-215h-69zM75 -115v64h435v-64h-435z" />
    <glyph glyph-name="multiply.tf" horiz-adv-x="580" 
d="M421 84l-137 136l-129 -129l-45 45l129 129l-129 130l48 48l130 -129l129 129l45 -45l-129 -129l137 -137z" />
    <glyph glyph-name="divide.tf" horiz-adv-x="580" 
d="M288 45q-23 0 -39.5 16t-16.5 38t16.5 38t39.5 16t39 -16t16 -38t-16 -38t-39 -16zM288 382q-23 0 -39.5 16t-16.5 39q0 22 16.5 38t39.5 16q22 0 38.5 -16t16.5 -38q0 -23 -16.5 -39t-38.5 -16zM40 238v60h500v-60h-500z" />
    <glyph glyph-name="uni2007.tf" horiz-adv-x="545" 
 />
    <glyph glyph-name="perthousand.tf" horiz-adv-x="1227" 
d="M205 342q-85 0 -129 51t-44 116t43.5 116t127.5 51q85 0 129 -51t44 -115q0 -66 -43.5 -117t-127.5 -51zM205 396q48 0 77.5 32t29.5 81t-29.5 81t-78.5 32t-78.5 -31.5t-29.5 -80.5q0 -50 30 -82t79 -32zM623 -7q-85 0 -129 51t-44 116t43.5 116t127.5 51q85 0 129 -51
t44 -115q0 -66 -43.5 -117t-127.5 -51zM623 47q48 0 77.5 32t29.5 81t-29.5 81t-78.5 32t-78.5 -31.5t-29.5 -80.5q0 -50 30 -82t79 -32zM1024 -7q-85 0 -129 51t-44 116t43.5 116t127.5 51q85 0 129 -51t44 -115q0 -66 -43.5 -117t-127.5 -51zM1024 47q48 0 77.5 32
t29.5 81t-29.5 81t-78.5 32t-78.5 -31.5t-29.5 -80.5q0 -50 30 -82t79 -32zM165 0l427 666h69l-427 -666h-69z" />
    <glyph glyph-name="minus.tf" horiz-adv-x="580" 
d="M105 236v63h369v-63h-369z" />
    <glyph glyph-name="uni2219.tf" horiz-adv-x="580" 
d="M290 147q-52 0 -88.5 36t-36.5 88t36.5 88.5t88.5 36.5t88.5 -36.5t36.5 -88.5t-36.5 -88t-88.5 -36z" />
    <glyph glyph-name="approxequal.tf" horiz-adv-x="580" 
d="M89 138l-29 50q60 55 131 55q47 0 104 -29t94 -29q53 0 103 41l27 -52q-56 -54 -136 -54q-47 0 -105 29t-93 29q-51 0 -96 -40zM89 291l-29 50q59 55 131 55q47 0 104 -29t94 -29q53 0 103 41l27 -52q-56 -54 -136 -54q-47 0 -105 29t-93 29q-50 0 -96 -40z" />
    <glyph glyph-name="notequal.tf" horiz-adv-x="580" 
d="M169 -12l-50 27l76 126h-156v57h191l65 107h-256v57h291l80 131l51 -29l-65 -102h144v-57h-179l-65 -107h244v-57h-279z" />
    <glyph glyph-name="lessequal.tf" horiz-adv-x="580" 
d="M506 19l-433 205v51l433 205v-67l-356 -164l356 -164v-66zM73 -114v64h433v-64h-433z" />
    <glyph glyph-name="greaterequal.tf" horiz-adv-x="580" 
d="M73 19v66l356 164l-356 164v67l433 -205v-51zM73 -114v64h433v-64h-433z" />
    <glyph glyph-name="dotmath.tf" horiz-adv-x="580" 
d="M290 210q-26 0 -43.5 18t-17.5 43t17.5 42.5t43.5 17.5t43.5 -17.5t17.5 -42.5t-17.5 -43t-43.5 -18z" />
    <glyph glyph-name="numbersign.lf" horiz-adv-x="566" 
d="M117 0l33 218h-129l9 56h128l21 135h-130l9 56h129l31 201h56l-30 -201h120l31 201h56l-30 -201h123l-9 -56h-123l-20 -135h124l-9 -56h-124l-33 -218h-56l33 218h-121l-33 -218h-56zM215 274h120l21 135h-121z" />
    <glyph glyph-name="dollar.lf" horiz-adv-x="499" 
d="M283 -118h-58v106q-117 4 -181 68l40 56q57 -57 144 -59v261q-1 1 -4 2.5l-5 2.5q-50 25 -78.5 44t-52.5 57t-24 88q0 70 45.5 113.5t115.5 53.5v109h58v-107q88 -5 150 -52l-38 -58q-52 39 -115 45v-237q39 -19 63 -33.5t52.5 -39.5t42 -58.5t13.5 -76.5
q0 -68 -46 -115.5t-122 -59.5v-110zM373 166q0 42 -24.5 70t-68.5 52v-230q43 10 68 40t25 68zM140 512q0 -41 22 -66t66 -46v210q-40 -8 -64 -34t-24 -64z" />
    <glyph glyph-name="percent.lf" horiz-adv-x="826" 
d="M205 342q-85 0 -129 51t-44 116t43.5 116t127.5 51q85 0 129 -51t44 -115q0 -66 -43.5 -117t-127.5 -51zM205 396q48 0 77.5 32t29.5 81t-29.5 81t-78.5 32t-78.5 -31.5t-29.5 -80.5q0 -50 30 -82t79 -32zM623 -7q-85 0 -129 51t-44 116t43.5 116t127.5 51q85 0 129 -51
t44 -115q0 -66 -43.5 -117t-127.5 -51zM623 47q48 0 77.5 32t29.5 81t-29.5 81t-78.5 32t-78.5 -31.5t-29.5 -80.5q0 -50 30 -82t79 -32zM165 0l427 666h69l-427 -666h-69z" />
    <glyph glyph-name="plus.lf" horiz-adv-x="574" 
d="M255 20v215h-213v61h213v204h69v-204h208v-61h-208v-215h-69z" />
    <glyph glyph-name="slash.lf" horiz-adv-x="402" 
d="M-7 -161l318 881h70l-318 -881h-70z" />
    <glyph glyph-name="zero.lf" horiz-adv-x="598" 
d="M299 -12q-65 0 -115 30.5t-79 81t-43 110t-14 123.5q0 66 13.5 124.5t42 109.5t78.5 81t116 30q65 0 115 -30.5t79 -81t43.5 -110t14.5 -123.5t-14.5 -123.5t-43 -110t-78.5 -81t-115 -30.5zM298 51q85 0 128.5 78.5t43.5 203.5t-43 203.5t-128 78.5t-128.5 -78.5
t-43.5 -203.5t43 -203.5t128 -78.5z" />
    <glyph glyph-name="one.lf" horiz-adv-x="340" 
d="M167 0v597l-131 -43l-16 62l160 50h62v-666h-75z" />
    <glyph glyph-name="two.lf" horiz-adv-x="496" 
d="M35 0v43l20 20q49 49 76.5 77.5t74.5 82t73 93t46.5 88t20.5 88.5q0 59 -32.5 90t-83.5 31q-83 0 -149 -66l-39 48q81 83 191 83q86 0 140.5 -47t54.5 -128q0 -37 -11 -75.5t-37 -80.5t-47.5 -73t-64 -76.5t-62.5 -66.5t-66 -67q26 2 76 2h226v-66h-407z" />
    <glyph glyph-name="three.lf" horiz-adv-x="464" 
d="M141 -12q-71 0 -98 8l11 65q29 -8 85 -8q90 0 139 37.5t49 103.5q0 136 -214 138v54q79 1 136.5 38.5t57.5 99.5q0 41 -28 64t-80 23q-75 0 -137 -48l-36 49q75 66 178 66q88 0 135 -41.5t47 -108.5q0 -59 -41.5 -101t-103.5 -59v-1q67 -6 116.5 -54t49.5 -115
q0 -100 -74 -155t-192 -55z" />
    <glyph glyph-name="four.lf" horiz-adv-x="527" 
d="M335 0v151h-310v61l304 454h77v-448h96v-67h-96v-151h-71zM103 214q34 4 85 4h145v340h-2z" />
    <glyph glyph-name="five.lf" horiz-adv-x="443" 
d="M103 -12q-38 0 -63 5l10 65q35 -5 57 -5q93 0 153 41t60 117q0 145 -198 145q-35 0 -55 -2l19 312h295v-66h-226l-11 -179q122 -2 189 -56.5t67 -148.5q0 -108 -81 -168t-216 -60z" />
    <glyph glyph-name="six.lf" horiz-adv-x="517" 
d="M270 -12q-74 0 -126.5 44t-74 105.5t-21.5 132.5q0 188 103.5 298t285.5 110l14 -59q-152 0 -234 -78q-71 -68 -87 -195q55 58 145 58q92 0 148.5 -57t56.5 -146q0 -91 -57.5 -152t-152.5 -61zM276 51q62 0 94 43t32 102q0 71 -34 108.5t-100 37.5q-84 0 -143 -57v-15
q0 -102 39 -160.5t112 -58.5z" />
    <glyph glyph-name="seven.lf" horiz-adv-x="446" 
d="M155 -24l-70 24l235 600h-300v66h381v-54z" />
    <glyph glyph-name="eight.lf" horiz-adv-x="488" 
d="M242 -12q-98 0 -149 50.5t-51 123.5q0 106 140 188q-38 25 -59.5 42.5t-41.5 51t-20 73.5q0 70 54.5 115.5t132.5 45.5q83 0 132.5 -43t49.5 -114q0 -30 -11.5 -56t-34.5 -47t-40.5 -33t-46.5 -29q149 -81 149 -189q0 -79 -56.5 -129t-147.5 -50zM244 53q57 0 89.5 32
t32.5 83q0 26 -12 49.5t-35 43t-41.5 32t-45.5 27.5q-25 -17 -37.5 -27t-33.5 -30.5t-30.5 -44.5t-9.5 -52q0 -52 32 -82.5t91 -30.5zM246 387q33 20 52 34t37.5 40t18.5 55q0 43 -28 70.5t-77 27.5q-50 0 -80.5 -27t-30.5 -70q0 -23 9 -43t28 -37t33 -26.5t38 -23.5z" />
    <glyph glyph-name="nine.lf" horiz-adv-x="517" 
d="M88 -18l-14 59q157 0 239 94q59 68 74 185q-55 -58 -145 -58q-92 0 -148.5 57t-56.5 146q0 91 57.5 152t152.5 61q57 0 101 -24.5t69.5 -65.5t38.5 -89.5t13 -102.5q0 -191 -98 -302.5t-283 -111.5zM249 324q84 0 143 57v15q0 102 -38.5 160.5t-110.5 58.5
q-62 0 -95 -43.5t-33 -101.5q0 -71 34 -108.5t100 -37.5z" />
    <glyph glyph-name="less.lf" horiz-adv-x="361" 
d="M277 27l-250 219l250 222l41 -42l-200 -177l200 -176z" />
    <glyph glyph-name="equal.lf" horiz-adv-x="459" 
d="M35 153v63h389v-63h-389zM35 316v63h389v-63h-389z" />
    <glyph glyph-name="greater.lf" horiz-adv-x="361" 
d="M84 27l-41 42l200 177l-200 176l41 46l250 -219z" />
    <glyph glyph-name="logicalnot.lf" horiz-adv-x="588" 
d="M470 33v204h-430v64h498v-268h-68z" />
    <glyph glyph-name="plusminus.lf" horiz-adv-x="574" 
d="M255 20v215h-213v61h213v204h69v-204h208v-61h-208v-215h-69zM72 -115v64h435v-64h-435z" />
    <glyph glyph-name="multiply.lf" horiz-adv-x="511" 
d="M387 84l-137 136l-129 -129l-45 45l129 129l-129 130l48 48l130 -129l129 129l45 -45l-129 -129l137 -137z" />
    <glyph glyph-name="divide.lf" horiz-adv-x="572" 
d="M284 45q-23 0 -39.5 16t-16.5 38t16.5 38t39.5 16t39 -16t16 -38t-16 -38t-39 -16zM284 382q-23 0 -39.5 16t-16.5 39q0 22 16.5 38t39.5 16q22 0 38.5 -16t16.5 -38q0 -23 -16.5 -39t-38.5 -16zM36 238v60h500v-60h-500z" />
    <glyph glyph-name="perthousand.lf" horiz-adv-x="1227" 
d="M205 342q-85 0 -129 51t-44 116t43.5 116t127.5 51q85 0 129 -51t44 -115q0 -66 -43.5 -117t-127.5 -51zM205 396q48 0 77.5 32t29.5 81t-29.5 81t-78.5 32t-78.5 -31.5t-29.5 -80.5q0 -50 30 -82t79 -32zM623 -7q-85 0 -129 51t-44 116t43.5 116t127.5 51q85 0 129 -51
t44 -115q0 -66 -43.5 -117t-127.5 -51zM623 47q48 0 77.5 32t29.5 81t-29.5 81t-78.5 32t-78.5 -31.5t-29.5 -80.5q0 -50 30 -82t79 -32zM1024 -7q-85 0 -129 51t-44 116t43.5 116t127.5 51q85 0 129 -51t44 -115q0 -66 -43.5 -117t-127.5 -51zM1024 47q48 0 77.5 32
t29.5 81t-29.5 81t-78.5 32t-78.5 -31.5t-29.5 -80.5q0 -50 30 -82t79 -32zM165 0l427 666h69l-427 -666h-69z" />
    <glyph glyph-name="minus.lf" horiz-adv-x="550" 
d="M86 236v63h369v-63h-369z" />
    <glyph glyph-name="uni2219.lf" horiz-adv-x="574" 
d="M287 147q-52 0 -88.5 36t-36.5 88t36.5 88.5t88.5 36.5t88.5 -36.5t36.5 -88.5t-36.5 -88t-88.5 -36z" />
    </font>
</defs>
</svg>
