<?xml version="1.0" encoding="UTF-8"?>
<svg width="84px" height="84px" viewBox="0 0 84 84" version="1.1" xmlns="http://www.w3.org/2000/svg" xmlns:xlink="http://www.w3.org/1999/xlink">
    <!-- Generator: Sketch 47.1 (45422) - http://www.bohemiancoding.com/sketch -->
    <title>Components / Product Finder / Icon / Appliances</title>
    <desc>Created with Sketch.</desc>
    <defs>
        <path d="M83.3968372,34.9489877 C84.3479033,34.9489877 85.1247915,35.7258759 85.1247915,36.6880008 L85.1247915,76.4530662 C85.1247915,77.4124264 84.3479033,78.1920794 83.3830136,78.1920794 L45.5532569,78.1920794 C44.591132,78.1920794 43.8170085,77.4124264 43.8170085,76.4530662 L43.8170085,36.6880008 C43.8170085,35.7258759 44.591132,34.9489877 45.5532569,34.9489877 L76.0205462,34.9489877 L76.0205462,63.8155001 C76.0205462,64.6476829 76.700669,65.3278056 77.5328517,65.3278056 C78.3650345,65.3278056 79.0340984,64.6476829 79.0340984,63.8155001 L79.0340984,34.9489877 L83.3968372,34.9489877 Z M83.3968372,5.40982061 C84.3479033,5.40982061 85.1247915,6.18670884 85.1247915,7.14883376 L85.1247915,29.8914763 C85.1247915,30.8536012 84.3479033,31.6194306 83.3968372,31.6194306 L79.0340984,31.6194306 L79.0340984,13.5961766 C79.0340984,12.7639939 78.3650345,12.0838711 77.5328517,12.0838711 C76.700669,12.0838711 76.0205462,12.7639939 76.0205462,13.5961766 L76.0205462,31.6194306 L45.5532569,31.6194306 C44.591132,31.6194306 43.8170085,30.8536012 43.8170085,29.8914763 L43.8170085,7.14883376 C43.8170085,6.18670884 44.591132,5.40982061 45.5532569,5.40982061 L83.3968372,5.40982061 Z" id="path-1"></path>
    </defs>
    <g id="Symbols" transform="translate(-22)" stroke="none" stroke-width="1" fill="none" fill-rule="evenodd">
        <g id="Components-/-Product-Finder-/-Icon-/-Appliances">
            <mask id="mask-2" fill="white">
                <use xlink:href="#path-1"></use>
            </mask>
            <use id="Combined-Shape" fill="#1B909C" xlink:href="#path-1"></use>
        </g>
    </g>
</svg>