<?xml version="1.0" encoding="UTF-8"?>
<svg width="84px" height="84px" viewBox="0 0 84 84" version="1.1" xmlns="http://www.w3.org/2000/svg" xmlns:xlink="http://www.w3.org/1999/xlink">
    <!-- Generator: Sketch 47.1 (45422) - http://www.bohemiancoding.com/sketch -->
    <title>Components / Product Finder / Icon / Cameras</title>
    <desc>Created with Sketch.</desc>
    <defs>
        <path d="M94.1992,35.5937 C92.6562,35.5937 91.3982,34.3397 91.3982,32.7927 C91.3982,31.2497 92.6562,29.9957 94.1992,29.9957 C95.7462,29.9957 97.0002,31.2497 97.0002,32.7927 C97.0002,34.3397 95.7462,35.5937 94.1992,35.5937 M65.0002,65.9997 C53.9532,65.9997 45.0002,57.0467 45.0002,45.9997 C45.0002,34.9567 53.9532,25.9997 65.0002,25.9997 C76.0432,25.9997 85.0002,34.9567 85.0002,45.9997 C85.0002,57.0467 76.0432,65.9997 65.0002,65.9997 M97.0002,21.9997 L87.3982,21.9997 C86.0782,21.9997 84.6562,20.9767 84.2422,19.7227 L81.7582,12.2767 C81.3402,11.0227 79.9222,9.9997 78.6012,9.9997 L51.3982,9.9997 C50.0782,9.9997 48.6562,11.0227 48.2422,12.2767 L45.7582,19.7227 C45.3402,20.9767 43.9222,21.9997 42.6022,21.9997 L33.0002,21.9997 C28.6022,21.9997 25.0002,25.6017 25.0002,29.9997 L25.0002,65.9997 C25.0002,70.3987 28.6022,73.9997 33.0002,73.9997 L97.0002,73.9997 C101.3982,73.9997 105.0002,70.3987 105.0002,65.9997 L105.0002,29.9997 C105.0002,25.6017 101.3982,21.9997 97.0002,21.9997 M65.0002,33.9997 C58.3712,33.9997 53.0002,39.3747 53.0002,45.9997 C53.0002,52.6287 58.3712,57.9997 65.0002,57.9997 C71.6252,57.9997 77.0002,52.6287 77.0002,45.9997 C77.0002,39.3747 71.6252,33.9997 65.0002,33.9997" id="path-1"></path>
    </defs>
    <g id="Symbols" transform="translate(-22)" stroke="none" stroke-width="1" fill="none" fill-rule="evenodd">
        <g id="Components-/-Product-Finder-/-Icon-/-Cameras">
            <mask id="mask-2" fill="white">
                <use xlink:href="#path-1"></use>
            </mask>
            <use id="Fill-1" fill="#1B909C" xlink:href="#path-1"></use>
        </g>
    </g>
</svg>