<?xml version="1.0" encoding="UTF-8"?>
<svg width="84px" height="84px" viewBox="0 0 84 84" version="1.1" xmlns="http://www.w3.org/2000/svg" xmlns:xlink="http://www.w3.org/1999/xlink">
    <!-- Generator: Sketch 47.1 (45422) - http://www.bohemiancoding.com/sketch -->
    <title>Components / Product Finder / Icon / Child Safety</title>
    <desc>Created with Sketch.</desc>
    <defs>
        <path d="M36.5181682,59.2989511 C36.7541087,59.2989511 36.865558,59.1282203 36.7683363,58.9112499 C23.1240977,45.4567122 33.201959,31.461527 45.2159553,31.461527 L67.4097772,31.461527 C71.902132,31.461527 75.4922219,33.4427159 76.9137932,36.8431049 L86.379869,65.5341832 C87.1493433,67.9659118 86.9217022,71.4255823 82.5597668,72.9953574 C77.9464775,74.6576117 75.1815867,72.0729367 73.7647579,68.5539847 L69.9576976,59.9427486 C69.933985,59.7079937 69.7300565,59.5182928 69.494116,59.5182928 L53.3766517,59.5182928 C52.6866146,59.5182928 52.1720509,60.2770965 52.1637515,60.9493491 C52.1637515,60.9493491 52.1720509,65.6681594 52.1637515,66.5858376 C52.1590089,66.8217782 52.1400388,66.5893945 52.1305538,66.8265207 C51.9040983,73.0131419 46.7489759,73.0083994 46.7489759,73.0083994 L26.1676118,73.0083994 C25.4633472,73.0083994 21.5128256,72.1974279 21.2674,67.1312278 C21.2674,59.2953942 26.4130374,59.2989511 26.4130374,59.2989511 L36.5181682,59.2989511 Z M107.2676,26.0237501 C107.2676,34.2626981 100.588942,40.9366136 92.3547365,40.9366136 C84.1205311,40.9366136 77.4466156,34.2626981 77.4466156,26.0237501 C77.4466156,17.7895446 84.1205311,11.1156292 92.3547365,11.1156292 C100.588942,11.1156292 107.2676,17.7895446 107.2676,26.0237501 Z" id="path-1"></path>
    </defs>
    <g id="Symbols" transform="translate(-22)" stroke="none" stroke-width="1" fill="none" fill-rule="evenodd">
        <g id="Components-/-Product-Finder-/-Icon-/-Child-Safety">
            <mask id="mask-2" fill="white">
                <use xlink:href="#path-1"></use>
            </mask>
            <use id="Combined-Shape" fill="#1B909C" xlink:href="#path-1"></use>
        </g>
    </g>
</svg>