<?xml version="1.0" encoding="UTF-8"?>
<svg width="84px" height="84px" viewBox="0 0 84 84" version="1.1" xmlns="http://www.w3.org/2000/svg" xmlns:xlink="http://www.w3.org/1999/xlink">
    <!-- Generator: Sketch 47.1 (45422) - http://www.bohemiancoding.com/sketch -->
    <title>Components / Product Finder / Icon / Desktops and Laptops</title>
    <desc>Created with Sketch.</desc>
    <defs>
        <path d="M99.9977581,71.0468816 C99.0675498,71.0468816 98.3192325,70.2936814 98.3192325,69.368356 C98.3192325,68.4369269 99.0675498,67.6849474 99.9977581,67.6849474 C100.923084,67.6849474 101.676284,68.4369269 101.676284,69.368356 C101.676284,70.2936814 100.923084,71.0468816 99.9977581,71.0468816 L99.9977581,71.0468816 Z M92.7208919,71.0468816 C91.7906835,71.0468816 91.0423663,70.2936814 91.0423663,69.368356 C91.0423663,68.4369269 91.7906835,67.6849474 92.7208919,67.6849474 C93.6462173,67.6849474 94.3994175,68.4369269 94.3994175,69.368356 C94.3994175,70.2936814 93.6462173,71.0468816 92.7208919,71.0468816 L92.7208919,71.0468816 Z M56.4073638,68.7335681 L74.4573126,68.7335681 L74.4573126,66.635106 L56.4073638,66.635106 L56.4073638,68.7335681 Z M19.95345,65.3105967 L19.95345,72.3042499 C32.4746406,76.440137 105.948894,74.1878608 108.95315,72.3042499 L108.95315,65.3105967 L19.95345,65.3105967 Z M29.7474943,57.4184745 L96.9178163,57.4184745 L96.9178163,15.212406 L29.7474943,15.212406 L29.7474943,57.4184745 Z M24.7106967,62.4540513 L101.957055,62.4540513 L101.957055,10.1719462 L24.7106967,10.1719462 L24.7106967,62.4540513 Z" id="path-1"></path>
    </defs>
    <g id="Symbols" transform="translate(-22)" stroke="none" stroke-width="1" fill="none" fill-rule="evenodd">
        <g id="Components-/-Product-Finder-/-Icon-/-Desktops-and-Laptops">
            <mask id="mask-2" fill="white">
                <use xlink:href="#path-1"></use>
            </mask>
            <use id="Fill-1" fill="#1B909C" xlink:href="#path-1"></use>
        </g>
    </g>
</svg>