<?xml version="1.0" encoding="UTF-8"?>
<svg width="84px" height="84px" viewBox="0 0 84 84" version="1.1" xmlns="http://www.w3.org/2000/svg" xmlns:xlink="http://www.w3.org/1999/xlink">
    <!-- Generator: Sketch 47.1 (45422) - http://www.bohemiancoding.com/sketch -->
    <title>Components / Product Finder / Icon / Energy Efficient</title>
    <desc>Created with Sketch.</desc>
    <defs>
        <path d="M72.8396196,57.3099379 C74.5731882,57.3099379 75.982502,58.4463172 75.982502,59.8435931 C75.982502,61.2413172 74.5713843,62.3776966 72.8396196,62.3776966 L56.1465804,62.3776966 C54.4148157,62.3776966 53.003698,61.2413172 53.003698,59.8435931 C53.003698,58.4463172 54.4148157,57.3099379 56.1465804,57.3099379 L72.8396196,57.3099379 Z M75.9823667,67.0862069 C75.9823667,68.4852759 74.5730529,69.6216552 72.8394843,69.6216552 L56.1464451,69.6216552 C54.4146804,69.6216552 53.0035627,68.4834828 53.0035627,67.0862069 C53.0035627,65.6907241 54.4146804,64.5525517 56.1464451,64.5525517 L72.8394843,64.5525517 C74.571249,64.5525517 75.9823667,65.6907241 75.9823667,67.0862069 Z M58.9967097,71.7293141 L70.9910968,71.7293141 C72.7248387,71.7293141 74.1379355,72.8668141 74.1379355,74.2654679 C74.1379355,75.6645705 72.7248387,76.8020705 70.9910968,76.8020705 L58.9967097,76.8020705 C57.2607097,76.8020705 55.8494194,75.6645705 55.8494194,74.2654679 C55.8494194,72.8668141 57.2607097,71.7293141 58.9967097,71.7293141 Z M77.6116968,53.6965962 C77.1758903,54.4185833 76.3783419,54.8673013 75.5315677,54.8673013 L54.4556968,54.8673013 C53.1275032,54.8673013 52.042729,53.7962115 52.026471,52.4783269 C51.4181484,46.6589038 49.5516323,43.3935833 47.7451806,40.234609 C45.8186,36.8678782 43.9999548,33.6864679 43.9999548,27.8580705 C43.9999548,16.3565321 53.4169871,6.99986538 64.992729,6.99986538 C76.5689226,6.99986538 85.9859548,16.3565321 85.9859548,27.8580705 C85.9859548,33.6864679 84.1673097,36.8678782 82.240729,40.2364038 C80.5507935,43.192109 78.8021484,46.2469808 78.0845355,51.4090321 C78.0669226,51.5423013 78.0511161,51.6984551 78.0348581,51.8631346 C77.9698258,52.5012115 77.8975677,53.2231987 77.6116968,53.6965962 Z M61.492729,49.3723013 C61.4629226,49.5544808 61.5053742,49.7263397 61.6128581,49.8506346 C61.7221484,49.9789679 61.8896968,50.0489679 62.0820839,50.0489679 L63.9802129,50.0489679 C64.3947935,50.0489679 64.7316968,49.7142244 64.7316968,49.3005064 L64.7316968,43.3164038 C64.7316968,42.5293526 65.3562774,41.8980064 66.1854387,41.8473013 C68.0623419,41.7315321 69.5973742,40.987109 70.7476323,39.6319808 C74.4395677,35.2830064 73.4252452,25.9249936 73.0919548,22.8485833 C73.056729,22.5210192 72.8291161,22.30025 72.5274387,22.30025 C72.4709871,22.30025 72.4145355,22.3069808 72.3562774,22.3226859 C65.1711161,24.1772372 60.7308581,27.0871731 59.1569871,30.9712756 C57.458471,35.1605064 59.6230516,39.4300577 60.6441484,41.0867244 C60.6441484,41.0831346 60.6441484,41.0799936 60.6459548,41.0759551 C61.0713742,35.0640321 64.8129871,32.8482628 65.9510516,32.3120449 C66.1362129,32.2263397 66.2965355,32.1823654 66.4415032,32.1823654 C66.6636968,32.1823654 66.8488581,32.2891603 66.9369226,32.4704423 C67.0236323,32.6418526 67.0534387,32.9415962 66.7093097,33.3916603 C65.9384065,34.3981346 63.2815677,38.5223013 61.492729,49.3723013 Z" id="path-1"></path>
    </defs>
    <g id="Symbols" transform="translate(-22)" stroke="none" stroke-width="1" fill="none" fill-rule="evenodd">
        <g id="Components-/-Product-Finder-/-Icon-/-Energy-Efficient">
            <mask id="mask-2" fill="white">
                <use xlink:href="#path-1"></use>
            </mask>
            <use id="Combined-Shape" fill="#1B909C" xlink:href="#path-1"></use>
        </g>
    </g>
</svg>