<?xml version="1.0" encoding="UTF-8"?>
<svg width="84px" height="84px" viewBox="0 0 84 84" version="1.1" xmlns="http://www.w3.org/2000/svg" xmlns:xlink="http://www.w3.org/1999/xlink">
    <!-- Generator: Sketch 47.1 (45422) - http://www.bohemiancoding.com/sketch -->
    <title>Components / Product Finder / Icon / Fitness Tech</title>
    <desc>Created with Sketch.</desc>
    <defs>
        <path d="M46.5622583,42.296832 L29.7685891,42.296832 C25.9454475,33.7886624 26.4480546,27.07401 27.6628219,22.776095 C30.1246691,14.0580525 38.1766212,7.96949958 47.2433854,7.96949958 C48.5128604,7.96949958 49.8088894,8.08691322 51.0937209,8.31822128 C56.3111094,9.25913002 60.5552765,12.0236293 63.3684048,16.3125863 C63.8934069,17.111127 64.3630615,17.9621359 64.7767286,18.8508964 C65.1894359,17.9621359 65.6603702,17.111127 66.1840926,16.3125863 C68.9985007,12.0236293 73.2426677,9.25913002 78.4587765,8.31822128 C79.7445678,8.08691322 81.0396371,7.96949958 82.309112,7.96949958 C91.3758762,7.96949958 99.429108,14.0580525 101.890955,22.776095 C103.105723,27.07401 103.60705,33.7899421 99.7851881,42.296832 L82.4853924,42.296832 L76.8229838,36.1145401 C76.3606876,35.6084138 75.6744417,35.3684676 74.9984335,35.4746838 C74.3211456,35.5796202 73.7411158,36.016962 73.4538203,36.6392223 L65.0093164,54.9490312 L55.9963001,29.9572026 C55.7125238,29.1720989 54.9827677,28.637499 54.1503146,28.6048663 C53.3117828,28.5712738 52.5471545,29.0486066 52.2035517,29.808436 L46.5622583,42.296832 Z M81.583131,46.3921685 L97.6771174,46.3921685 C91.8409878,56.437273 81.1531476,66.493895 65.8829762,76.2990534 C65.545452,76.5153248 65.1618581,76.6241004 64.7766646,76.6241004 C64.392111,76.6241004 64.0069174,76.5153248 63.6706729,76.2990534 C48.4005016,66.4926153 37.7120215,56.437273 31.8765318,46.3921685 L47.8844575,46.3921685 C48.6893967,46.3921685 49.4188329,45.9196346 49.7502785,45.187319 L53.8568765,36.0956004 L62.8497373,61.0352806 C63.1325538,61.8162253 63.8581509,62.3498654 64.6880445,62.3860173 C64.7181178,62.387297 64.748191,62.387297 64.7766646,62.387297 C65.5729658,62.387297 66.3001625,61.9262806 66.636407,61.1974842 L75.8832908,41.1507853 L80.07339,45.7273577 C80.4621027,46.1509426 81.0094998,46.3921685 81.583131,46.3921685 Z" id="path-1"></path>
    </defs>
    <g id="Symbols" transform="translate(-22)" stroke="none" stroke-width="1" fill="none" fill-rule="evenodd">
        <g id="Components-/-Product-Finder-/-Icon-/-Fitness-Tech">
            <mask id="mask-2" fill="white">
                <use xlink:href="#path-1"></use>
            </mask>
            <use id="Combined-Shape" fill="#1B909C" xlink:href="#path-1"></use>
        </g>
    </g>
</svg>