<?xml version="1.0" encoding="UTF-8"?>
<svg width="84px" height="84px" viewBox="0 0 84 84" version="1.1" xmlns="http://www.w3.org/2000/svg" xmlns:xlink="http://www.w3.org/1999/xlink">
    <!-- Generator: Sketch 47.1 (45422) - http://www.bohemiancoding.com/sketch -->
    <title>Components / Product Finder / Icon / Gaming</title>
    <desc>Created with Sketch.</desc>
    <defs>
        <path d="M94.4101765,39.3656977 C91.6845284,39.3656977 89.4806775,37.1597257 89.4806775,34.4255931 C89.4806775,31.699945 91.6845284,29.4960941 94.4101765,29.4960941 C97.1273401,29.4960941 99.34816,31.699945 99.34816,34.4255931 C99.34816,37.1597257 97.1273401,39.3656977 94.4101765,39.3656977 M82.1224882,32.0732634 C79.3883556,32.0732634 77.1929893,29.8694125 77.1929893,27.1437644 C77.1929893,24.4096318 79.3883556,22.2057809 82.1224882,22.2057809 C84.8396518,22.2057809 87.0604717,24.4096318 87.0604717,27.1437644 C87.0604717,29.8694125 84.8396518,32.0732634 82.1224882,32.0732634 M82.1224882,45.6527179 C79.3883556,45.6527179 77.1929893,43.4488671 77.1929893,40.7147345 C77.1929893,37.9890864 79.3883556,35.7852355 82.1224882,35.7852355 C84.8396518,35.7852355 87.0604717,37.9890864 87.0604717,40.7147345 C87.0604717,43.4488671 84.8396518,45.6527179 82.1224882,45.6527179 M53.5296973,38.801478 L47.2893418,38.801478 L47.2893418,44.8148728 C47.2893418,44.8148728 45.972122,45.820287 43.9252345,45.7948335 C41.8868316,45.7608954 40.9683836,44.6918474 40.9683836,44.6918474 L40.9683836,38.8099625 L35.0780141,38.8099625 C35.0780141,38.8099625 34.339862,38.0548413 34.1489605,36.0673454 C33.9495746,34.0862128 34.9613521,32.4783986 34.9613521,32.4783986 L41.1911019,32.4783986 L41.1911019,26.2486488 C41.1911019,26.2486488 42.4765048,25.5614037 44.3240064,25.6101896 C46.171508,25.6695812 47.5226658,26.3653108 47.5226658,26.3653108 L47.4972123,32.4783986 L53.3790972,32.4783986 C53.3790972,32.4783986 54.4163283,33.7977396 54.4990523,35.3949481 C54.5817762,36.9942778 53.5296973,38.801478 53.5296973,38.801478 M101.817152,22.7360626 C89.7946043,2.98200756 71.690786,16.7205467 71.690786,16.7205467 C70.5135606,17.6071777 68.3521322,18.3347243 66.877949,18.3432088 L62.031174,18.3432088 C60.5548696,18.3516933 58.3934413,17.6156622 57.2247004,16.7290312 C57.2247004,16.7290312 39.1123975,2.99049207 27.0898501,22.7360626 C15.0757872,42.4795121 19.9140777,63.9728912 19.9140777,63.9728912 C20.7667707,69.2354071 23.5602949,72.7479933 28.8376587,72.30892 C34.1001746,71.8698468 45.5245642,58.1313077 45.5245642,58.1313077 C46.4705868,57.0028681 48.4411138,56.0759357 49.9089336,56.0759357 L78.9895838,56.0695723 C80.4574036,56.0695723 82.4300516,56.9965048 83.3739531,58.1313077 C83.3739531,58.1313077 94.8004639,71.8592411 100.069343,72.30892 C105.338222,72.7479933 108.140231,69.2269226 108.98444,63.9728912 C108.98444,63.9728912 113.831215,42.4710276 101.817152,22.7360626" id="path-1"></path>
    </defs>
    <g id="Symbols" transform="translate(-22)" stroke="none" stroke-width="1" fill="none" fill-rule="evenodd">
        <g id="Components-/-Product-Finder-/-Icon-/-Gaming">
            <mask id="mask-2" fill="white">
                <use xlink:href="#path-1"></use>
            </mask>
            <use id="Fill-1" fill="#1B909C" xlink:href="#path-1"></use>
        </g>
    </g>
</svg>