<?xml version="1.0" encoding="UTF-8"?>
<svg width="84px" height="84px" viewBox="0 0 84 84" version="1.1" xmlns="http://www.w3.org/2000/svg" xmlns:xlink="http://www.w3.org/1999/xlink">
    <!-- Generator: Sketch 47.1 (45422) - http://www.bohemiancoding.com/sketch -->
    <title>Components / Product Finder / Icon / Kitchen</title>
    <desc>Created with Sketch.</desc>
    <defs>
        <path d="M65.733964,66.8986974 C78.5692996,67.063655 90.0127204,56.7340386 90.1354161,42.877602 C90.2567485,29.2679201 79.3736382,18.4148021 65.9493632,18.3875364 C51.8843438,18.3602706 41.6924194,29.8527697 41.6024425,42.4822492 C41.5070125,55.7797386 52.4419277,66.9218732 65.733964,66.8986974 M96.1897682,42.7167343 C96.2851982,59.0120892 83.0545098,72.8685258 66.1075043,73.0007645 C49.1318698,73.1330032 35.541274,59.4088053 35.5221879,42.715371 C35.5031019,25.7070177 49.3349994,12.3113717 65.8716559,12.3059185 C82.5623636,12.2991021 96.3342765,25.9674053 96.1897682,42.7167343 Z M65.8877426,24.0530794 C55.6290172,24.0244504 47.2434464,32.3295873 47.2543527,42.6114886 C47.2638957,52.922019 55.3795359,61.2217028 65.7936759,61.2653279 C76.5254616,61.3116796 84.4965935,52.6166429 84.4870505,42.6455708 C84.4761442,32.3827555 76.2009995,24.0817084 65.8877426,24.0530794 Z M23.2104904,26.5459838 L23.2104904,25.0504593 C23.2104904,21.6831434 23.2023107,18.3144642 23.2213967,14.9471484 C23.2241233,14.4004708 23.2786547,13.8306173 23.4408857,13.313932 C23.7271758,12.3991673 24.5110651,11.8797554 25.4149235,11.8838452 C26.3678603,11.8892984 26.9936085,12.4223431 27.3112541,13.2498576 C27.5034773,13.7501835 27.5566455,14.3295799 27.5593721,14.873531 C27.5798214,18.2817454 27.5689151,21.6885965 27.5675518,25.096811 L27.5675518,26.4219248 C29.2798387,25.7702742 30.2491349,24.2761129 30.2709475,22.3416104 C30.2968499,19.9245047 30.2764006,17.5073991 30.2818538,15.0902934 C30.283217,14.6554052 30.2723108,14.2137006 30.3445649,13.7869922 C30.5504211,12.5900273 31.4597327,11.8265872 32.5544511,11.8811187 C33.589185,11.9329235 34.3907971,12.7454419 34.5312155,13.9042348 C34.5707508,14.2177905 34.5693875,14.5367994 34.5707508,14.8530817 C34.5721141,18.5775784 34.5353054,22.3034384 34.5816571,26.0265719 C34.6171025,28.8104014 33.7964045,31.2397767 31.928703,33.3174242 C31.3465799,33.9636217 30.8244415,34.6657138 30.2532248,35.3214543 C28.2573744,37.6117744 27.6766146,40.2756348 28.2232922,43.2012461 C28.7399775,45.9618998 29.3398233,48.7075573 29.8960439,51.4600313 C30.4699872,54.2997556 30.8939691,57.1762886 30.8571604,60.0637278 C30.8217149,62.8966357 30.8598869,65.7704421 29.7883443,68.4956503 C29.3739054,69.5453804 28.8599467,70.5187664 28.0651511,71.3094722 C26.0529413,73.312139 23.0659822,72.8431687 21.819939,70.273375 C20.5834388,67.7226673 19.8472644,65.0369943 19.849991,62.1563715 C19.8527176,57.0535928 20.651603,52.0653302 21.8281187,47.1206927 C22.3039054,45.1166626 22.6869887,43.1003629 22.726524,41.0227154 C22.7578796,39.2831628 22.2670967,37.7303803 21.2637184,36.3507351 C20.4498367,35.2314774 19.5664276,34.1585715 18.6639324,33.1074782 C17.0757045,31.260226 16.2304673,29.13759 16.2209243,26.7027616 C16.2045648,22.621084 16.2059281,18.5394064 16.219561,14.4590921 C16.2209243,14.0337469 16.295905,13.5838626 16.4513196,13.1912363 C16.7866879,12.3350928 17.546038,11.84431 18.3885487,11.8892984 C19.3087666,11.9370134 19.9822297,12.3991673 20.2630666,13.2743967 C20.4293875,13.7897188 20.489372,14.3582089 20.4948252,14.90216 C20.5139112,17.3192656 20.4825556,19.7363713 20.498915,22.153477 C20.5098213,23.7853301 21.0605888,25.1799714 22.4443238,26.1506309 C22.6011017,26.261057 22.7851453,26.3292213 23.2104904,26.5459838 Z M110.056021,30.1319707 C110.056021,34.1713864 110.065564,38.2121654 110.053294,42.2515812 C110.043751,45.1553799 110.369576,48.0196433 110.992598,50.8525512 C111.784667,54.4611686 112.189563,58.1175011 112.208649,61.8092789 C112.222282,64.4417838 111.888277,67.03339 110.638144,69.404144 C110.238701,70.1648574 109.727469,70.9023951 109.12626,71.5131471 C107.77797,72.8846126 106.002972,72.8941556 104.551073,71.6181201 C103.28458,70.5070422 102.622023,69.0292404 102.13124,67.4641883 C101.18512,64.4554166 101.281913,61.3689376 101.502766,58.2783688 C101.744067,54.8660645 102.549769,51.5614598 103.435905,48.2704879 C103.692203,47.3175511 103.831258,46.3332588 104.020754,45.3625993 C104.120274,44.8663633 103.94441,44.5200887 103.46726,44.321049 C103.210963,44.216076 102.975114,44.0647513 102.722906,43.9502353 C100.765228,43.0531932 99.6296109,41.4840513 99.2697035,39.4145835 C98.9452414,37.5482453 98.6794007,35.6560046 98.594877,33.7664905 C98.4217397,29.9588334 98.6889437,26.1661723 99.491919,22.429406 C100.109487,19.5569629 101.310542,16.9544504 103.27231,14.7350211 C104.146177,13.7466389 105.137285,12.9000385 106.341067,12.3410913 C108.643656,11.2722752 109.825625,11.9511916 110.042388,14.4473678 C110.066927,14.7227515 110.058747,15.0008618 110.06011,15.2789721 L110.06011,30.1319707 L110.056021,30.1319707 Z" id="path-1"></path>
    </defs>
    <g id="Symbols" transform="translate(-22)" stroke="none" stroke-width="1" fill="none" fill-rule="evenodd">
        <g id="Components-/-Product-Finder-/-Icon-/-Kitchen">
            <mask id="mask-2" fill="white">
                <use xlink:href="#path-1"></use>
            </mask>
            <use id="Fill-1" fill="#1B909C" xlink:href="#path-1"></use>
        </g>
    </g>
</svg>