<?xml version="1.0" encoding="UTF-8"?>
<svg width="84px" height="84px" viewBox="0 0 84 84" version="1.1" xmlns="http://www.w3.org/2000/svg" xmlns:xlink="http://www.w3.org/1999/xlink">
    <!-- Generator: Sketch 47.1 (45422) - http://www.bohemiancoding.com/sketch -->
    <title>Components / Product Finder / Icon / Newest &amp; Coolest</title>
    <desc>Created with Sketch.</desc>
    <defs>
        <path d="M64.4289735,64.1891985 C51.7990155,64.1891985 41.5596638,53.9134351 41.5596638,41.2420611 C41.5596638,28.5704962 51.7990155,18.2804198 64.4289735,18.2804198 C77.0596979,18.2804198 87.2982832,28.5548473 87.2982832,41.2273664 C87.2982832,53.8985496 77.0596979,64.1891985 64.4289735,64.1891985 M99.9905115,45.8224046 C101.615288,48.0512214 100.925141,51.2120992 98.5033042,52.5092366 L96.4338213,53.6699237 C94.7176507,54.6166794 93.797774,56.5703053 94.1503199,58.5092366 L94.5791231,60.8451145 C95.0851415,63.5630534 93.0928738,66.1122901 90.3489551,66.2653435 L87.9884302,66.4025573 C86.0268186,66.5245038 84.3554827,67.8834733 83.8345194,69.7762214 L83.2058764,72.0662977 C82.4701283,74.7380534 79.5886402,76.1584733 77.0439866,75.1048473 L74.8524538,74.2038931 C73.027837,73.4561832 70.9434092,73.9598092 69.6560417,75.4405344 L68.107522,77.2422519 C66.3143278,79.3182061 63.0952386,79.3491221 61.2562517,77.2878626 L59.6770759,75.5170611 C58.3747635,74.0517939 56.2746244,73.5930153 54.4657189,74.3720229 L52.2893226,75.3182061 C49.7751336,76.4176336 46.8629892,75.0439695 46.096585,72.3870992 L45.4372858,70.0970229 C44.8856664,68.204084 43.1993856,66.8609542 41.237774,66.7842366 L38.8772491,66.6773664 C36.1183856,66.5703053 34.0946953,64.0510305 34.554921,61.3340458 L34.9381231,59.0134351 C35.2749577,57.0745038 34.3244249,55.1355725 32.592543,54.2044656 L30.5081152,53.074313 C28.0860864,51.7615267 27.3353934,48.631374 28.9297058,46.3718321 L30.3239866,44.4178244 C31.458648,42.7995038 31.4429367,40.6466412 30.2783856,39.0586641 L28.8831467,37.1351908 C27.2583698,34.9065649 27.9483252,31.7613359 30.3546428,30.4180153 L32.4241257,29.2573282 C34.1410627,28.3113359 35.0609394,26.3567557 34.707627,24.4178244 L34.2788239,22.0819466 C33.7728055,19.3798473 35.7658396,16.830229 38.5097583,16.6775573 L40.8695168,16.5395802 C42.8161835,16.4329008 44.4875194,15.0741221 45.024194,13.1508397 L45.6520706,10.8607634 C46.3878186,8.18900763 49.2693068,6.76877863 51.8139604,7.82221374 L54.006068,8.72316794 C55.83011,9.47087786 57.9145378,8.96725191 59.2026717,7.48652672 L60.7504249,5.685 C62.5436192,3.60885496 65.7627084,3.57812977 67.6022701,5.63938931 L69.1808711,7.41 C70.4839499,8.89091603 72.584089,9.3489313 74.3922281,8.57068702 L76.5686244,7.6239313 C79.0826218,6.5248855 81.9949577,7.8989313 82.7613619,10.5550382 L83.4206612,12.8451145 C83.9722806,14.7384351 85.6585614,16.0817557 87.620173,16.1579008 L89.9806979,16.2651527 C92.7403278,16.3720229 94.7632517,18.890916 94.3037924,21.6086641 L93.904879,23.96 C93.5680444,25.8987405 94.5178108,27.8380534 96.2504591,28.7689695 L98.3348869,29.8983588 C100.756916,31.2119084 101.507609,34.3414885 99.9132963,36.6010305 L98.5496717,38.5399618 C97.4150102,40.1582824 97.4307215,42.3109542 98.5952727,43.8991221 L99.9905115,45.8224046 Z M77.344055,35.7067878 L68.8595611,35.0813612 L65.6515288,27.1208498 C65.043525,25.6263834 62.9454464,25.6263834 62.3522674,27.1208498 L59.144235,35.0813612 L50.6599313,35.7067878 C49.0628523,35.8289756 48.4096141,37.8417397 49.6412066,38.878907 L56.1336756,44.4143418 L54.0958462,52.7555227 C53.7157251,54.3266186 55.4040331,55.5768999 56.7722791,54.7227285 L63.9945808,50.1939617 L71.2168824,54.7227285 C72.5695434,55.5768999 74.2726762,54.3266186 73.8925551,52.7555227 L71.8552958,44.4143418 L78.3477649,38.878907 C79.5943721,37.8417397 78.9409439,35.8289756 77.344055,35.7067878 Z" id="path-1"></path>
    </defs>
    <g id="Symbols" transform="translate(-22)" stroke="none" stroke-width="1" fill="none" fill-rule="evenodd">
        <g id="Components-/-Product-Finder-/-Icon-/-Newest-&amp;-Coolest">
            <mask id="mask-2" fill="white">
                <use xlink:href="#path-1"></use>
            </mask>
            <use id="Combined-Shape" fill="#1B909C" xlink:href="#path-1"></use>
        </g>
    </g>
</svg>