<?xml version="1.0" encoding="UTF-8"?>
<svg width="84px" height="84px" viewBox="0 0 84 84" version="1.1" xmlns="http://www.w3.org/2000/svg" xmlns:xlink="http://www.w3.org/1999/xlink">
    <!-- Generator: Sketch 47.1 (45422) - http://www.bohemiancoding.com/sketch -->
    <title>Components / Product Finder / Icon / Office</title>
    <desc>Created with Sketch.</desc>
    <defs>
        <path d="M91,30.8432018 C91,31.4846491 90.4682464,32 89.8,32 L83.2028436,32 C82.5345972,32 82,31.4846491 82,30.8432018 L82,28.1567982 C82,27.5126096 82.5345972,27 83.2028436,27 L89.8,27 C90.4682464,27 91,27.5126096 91,28.1567982 L91,30.8432018 Z M91,39.8463641 C91,40.486058 90.4682464,41 89.8,41 L83.2028436,41 C82.5345972,41 82,40.486058 82,39.8463641 L82,37.1536359 C82,36.524877 82.5345972,36 83.2028436,36 L89.8,36 C90.4682464,36 91,36.524877 91,37.1536359 L91,39.8463641 Z M91,49.8541667 C91,50.4873904 90.4682464,51 89.8,51 L83.2028436,51 C82.5345972,51 82,50.4873904 82,49.8541667 L82,47.1567982 C82,46.5263158 82.5345972,46 83.2028436,46 L89.8,46 C90.4682464,46 91,46.5263158 91,47.1567982 L91,49.8541667 Z M78,30.8432018 C78,31.4846491 77.46875,32 76.8039773,32 L70.1988636,32 C69.5340909,32 69,31.4846491 69,30.8432018 L69,28.1567982 C69,27.5126096 69.5340909,27 70.1988636,27 L76.8039773,27 C77.46875,27 78,27.5126096 78,28.1567982 L78,30.8432018 Z M78,39.8463641 C78,40.486058 77.46875,41 76.8039773,41 L70.1988636,41 C69.5340909,41 69,40.486058 69,39.8463641 L69,37.1536359 C69,36.524877 69.5340909,36 70.1988636,36 L76.8039773,36 C77.46875,36 78,36.524877 78,37.1536359 L78,39.8463641 Z M78,49.8541667 C78,50.4873904 77.46875,51 76.8039773,51 L70.1988636,51 C69.5340909,51 69,50.4873904 69,49.8541667 L69,47.1567982 C69,46.5263158 69.5340909,46 70.1988636,46 L76.8039773,46 C77.46875,46 78,46.5263158 78,47.1567982 L78,49.8541667 Z M65,30.8432018 C65,31.4846491 64.4654028,32 63.8028436,32 L57.2,32 C56.5345972,32 56,31.4846491 56,30.8432018 L56,28.1567982 C56,27.5126096 56.5345972,27 57.2,27 L63.8028436,27 C64.4654028,27 65,27.5126096 65,28.1567982 L65,30.8432018 Z M65,39.8463641 C65,40.486058 64.4654028,41 63.8028436,41 L57.2,41 C56.5345972,41 56,40.486058 56,39.8463641 L56,37.1536359 C56,36.524877 56.5345972,36 57.2,36 L63.8028436,36 C64.4654028,36 65,36.524877 65,37.1536359 L65,39.8463641 Z M65,49.8541667 C65,50.4873904 64.4654028,51 63.8028436,51 L57.2,51 C56.5345972,51 56,50.4873904 56,49.8541667 L56,47.1567982 C56,46.5263158 56.5345972,46 57.2,46 L63.8028436,46 C64.4654028,46 65,46.5263158 65,47.1567982 L65,49.8541667 Z M99.5569731,9.39907036 C99.5372203,9.38778753 99.525933,9.35393906 99.525933,9.34265623 C99.5033584,9.32009058 99.4807838,9.30034564 99.4694964,9.27777998 C98.953102,8.57260339 98.1460594,8.12129037 97.2092127,8.12129037 L49.898454,8.12129037 C48.3549144,8.12129037 47.1217758,9.36522188 47.1217758,10.9081483 L47.1217758,67.6297326 C47.1217758,68.1910532 47.2854418,68.7100632 47.5648027,69.1388105 C47.5845555,69.1613762 47.5845555,69.1839418 47.5958428,69.1952247 C47.6212392,69.2177903 47.6381702,69.240356 47.6494575,69.2601009 C48.1573864,69.9652775 48.9757164,70.4194112 49.898454,70.4194112 L53.3749454,70.4194112 C52.7908271,74.1963371 49.5485474,77.1185889 45.6008108,77.1185889 C41.6248559,77.1185889 38.3458925,74.1427436 37.829498,70.2981209 L41.3116331,70.2981209 C42.8579945,70.2981209 44.1024204,69.0513686 44.1024204,67.5084423 L44.1024204,10.7755751 C44.1024204,10.2255373 43.9359326,9.70652735 43.6593935,9.27777998 C43.6481062,9.26649716 43.6396407,9.24393151 43.6198879,9.22136586 C43.6057788,9.19880021 43.5944915,9.17905526 43.5747387,9.15648961 C43.0639879,8.46259584 42.2484798,8 41.3116331,8 L31.7766782,8 C30.2444259,8 29,9.24393151 29,10.7755751 L29,67.5084423 C29,68.0697628 29.1693096,68.5887728 29.4430269,69.0175202 C29.4656015,69.028803 29.4656015,69.0513686 29.474067,69.0739343 C29.4966416,69.0964999 29.5220381,69.1190656 29.5305036,69.1388105 C30.0384325,69.8439871 30.8511188,70.2981209 31.7766782,70.2981209 L35.93323,70.2981209 C36.472199,75.1779429 40.5751361,79 45.6008108,79 C50.5813362,79 54.6616987,75.234357 55.2599261,70.4194112 L97.2092127,70.4194112 C98.7527523,70.4194112 100,69.1754797 100,67.6297326 L100,10.9081483 C100,10.3468277 99.8335122,9.82781773 99.5569731,9.39907036 L99.5569731,9.39907036 Z" id="path-1"></path>
    </defs>
    <g id="Symbols" transform="translate(-22)" stroke="none" stroke-width="1" fill="none" fill-rule="evenodd">
        <g id="Components-/-Product-Finder-/-Icon-/-Office">
            <mask id="mask-2" fill="white">
                <use xlink:href="#path-1"></use>
            </mask>
            <use id="Fill-1" fill="#1B909C" xlink:href="#path-1"></use>
        </g>
    </g>
</svg>