<?xml version="1.0" encoding="UTF-8"?>
<svg width="84px" height="84px" viewBox="0 0 84 84" version="1.1" xmlns="http://www.w3.org/2000/svg" xmlns:xlink="http://www.w3.org/1999/xlink">
    <!-- Generator: Sketch 47.1 (45422) - http://www.bohemiancoding.com/sketch -->
    <title>Components / Product Finder / Icon / Theater Room</title>
    <desc>Created with Sketch.</desc>
    <defs>
        <path d="M89.2824521,39.104367 L61.1079158,67.2817014 C60.5608918,67.8315235 59.8753629,68.104336 59.0555264,68.104336 C58.2356899,68.104336 57.550161,67.8315235 57.003137,67.2817014 L40.4993797,50.777944 C39.9201777,50.2008407 39.6326753,49.5153118 39.6326753,48.7255546 C39.6326753,47.9357974 39.9201777,47.2530666 40.4993797,46.6731652 L68.6739159,18.4958309 C69.2230385,17.9495063 69.9064688,17.6759943 70.7291034,17.6759943 C71.5482404,17.6759943 72.2316707,17.9495063 72.7779952,18.4958309 L89.2824521,35.0030858 C89.861654,35.5794896 90.151255,36.2629199 90.151255,37.0547757 C90.151255,37.8445329 89.861654,38.5279632 89.2824521,39.104367 M101.63876,29.9861338 C102.764286,31.1116603 103.327399,32.4862156 103.327399,34.1118983 C103.327399,35.7410786 102.764286,37.1149343 101.63876,38.2383622 L60.2852812,79.6380091 C59.1618533,80.7649346 57.7879976,81.32455 56.1588173,81.32455 C54.5331346,81.32455 53.1585793,80.7649346 52.0330528,79.6380091 L46.2893004,73.8949562 C47.9919302,72.1895283 48.8418461,70.1245475 48.8418461,67.6916196 C48.8418461,65.2607903 47.9919302,63.1944105 46.2893004,61.4917806 C44.5866705,59.7891508 42.5181922,58.9399345 40.0894614,58.9399345 C37.657233,58.9399345 35.5887546,59.7891508 33.8868243,61.4917806 L28.1864421,55.7480282 C27.0637137,54.6232013 26.5006007,53.2479465 26.5006007,51.6229633 C26.5006007,49.9958815 27.0637137,48.6199272 28.1864421,47.4957998 L69.5427188,6.18639088 C70.6661467,5.06296298 72.040702,4.49985 73.6691827,4.49985 C75.2948654,4.49985 76.6694207,5.06296298 77.7949472,6.18639088 L83.4925314,11.8860736 C81.7926996,13.5887034 80.9399857,15.6543837 80.9399857,18.0859126 C80.9399857,20.518141 81.7899015,22.5866193 83.4925314,24.2885496 C85.1944617,25.9911795 87.26294,26.8410953 89.6951684,26.8410953 C92.1238992,26.8410953 94.1930771,25.9911795 95.8950074,24.2885496 L101.63876,29.9861338 Z M70.7288236,22.6469179 L44.6493475,48.7256945 L59.0580447,63.1343917 L85.1375208,37.0549156 L70.7288236,22.6469179 Z" id="path-1"></path>
    </defs>
    <g id="Symbols" transform="translate(-22)" stroke="none" stroke-width="1" fill="none" fill-rule="evenodd">
        <g id="Components-/-Product-Finder-/-Icon-/-Theater-Room">
            <mask id="mask-2" fill="white">
                <use xlink:href="#path-1"></use>
            </mask>
            <use id="Combined-Shape" fill="#1B909C" xlink:href="#path-1"></use>
        </g>
    </g>
</svg>