<?xml version="1.0" encoding="UTF-8"?>
<svg width="84px" height="84px" viewBox="0 0 84 84" version="1.1" xmlns="http://www.w3.org/2000/svg" xmlns:xlink="http://www.w3.org/1999/xlink">
    <!-- Generator: Sketch 47.1 (45422) - http://www.bohemiancoding.com/sketch -->
    <title>Components / Product Finder / Icon / TV and Audio</title>
    <desc>Created with Sketch.</desc>
    <defs>
        <path d="M29.437348,60.1149093 L100.562485,60.1149093 L100.562485,13.8836618 L29.437348,13.8836618 L29.437348,60.1149093 Z M102.340668,6.7709314 L27.6593321,6.7709314 C24.7182544,6.7709314 22.324951,9.16440153 22.324951,12.1053125 L22.324951,61.8929252 C22.324951,64.8338362 24.7182544,67.2273064 27.6593321,67.2273064 L57.8874363,67.2273064 L57.8874363,71.0538913 L38.0363704,74.3612076 C37.0691804,74.521239 36.4112179,75.4385859 36.5749167,76.4059426 C36.7171113,77.2807811 37.4710927,77.8960686 38.3280944,77.8960686 C38.4241132,77.8960686 38.5236328,77.8890672 38.623319,77.8710637 L59.8114809,74.3398701 L70.1885191,74.3398701 L91.3803483,77.8710637 C91.4798679,77.8890672 91.5758868,77.8960686 91.6719056,77.8960686 C92.5254066,77.8960686 93.279388,77.2807811 93.42525,76.40961 C93.5852814,75.4422533 92.9308196,74.5247397 91.9634629,74.3647083 L72.1125637,71.0538913 L72.1125637,67.2273064 L102.340668,67.2273064 C105.281746,67.2273064 107.675049,64.8338362 107.675049,61.8929252 L107.675049,12.1053125 C107.675049,9.16440153 105.281746,6.7709314 102.340668,6.7709314 L102.340668,6.7709314 Z" id="path-1"></path>
    </defs>
    <g id="Symbols" transform="translate(-22)" stroke="none" stroke-width="1" fill="none" fill-rule="evenodd">
        <g id="Components-/-Product-Finder-/-Icon-/-TV-and-Audio">
            <mask id="mask-2" fill="white">
                <use xlink:href="#path-1"></use>
            </mask>
            <use id="Page-1" fill="#1B909C" xlink:href="#path-1"></use>
        </g>
    </g>
</svg>